M48
; DRILL file {KiCad (5.1.10)-1} date 07/24/21 11:50:25
; FORMAT={-:-/ absolute / inch / decimal}
; #@! TF.CreationDate,2021-07-24T11:50:25+02:00
; #@! TF.GenerationSoftware,Kicad,Pcbnew,(5.1.10)-1
; #@! TF.FileFunction,Plated,1,2,PTH
FMAT,2
INCH
T1C0.0157
T2C0.0394
T3C0.0591
%
G90
G05
T1
X5.2726Y-3.7028
X5.3121Y-4.1625
X5.5335Y-4.7325
X5.705Y-4.525
X5.705Y-4.569
X5.705Y-4.613
X5.705Y-4.657
X5.7235Y-4.8191
X5.755Y-4.525
X5.755Y-4.569
X5.755Y-4.613
X5.755Y-4.657
X5.8905Y-4.4153
X5.98Y-4.9215
X6.0602Y-4.4202
X6.0973Y-4.8299
X6.0978Y-4.2266
X6.3277Y-3.842
X6.3277Y-3.989
X6.328Y-3.6939
X6.356Y-3.5296
X6.38Y-4.4666
X6.4225Y-4.834
X6.6463Y-3.9482
X6.6795Y-4.4209
T2
X5.31Y-5.2
X5.41Y-5.2
X5.4239Y-3.5544
X5.4239Y-3.6544
X5.4239Y-3.9993
X5.4239Y-4.0993
X5.51Y-4.3
X5.51Y-5.2
X5.61Y-4.3
X5.61Y-5.2
X5.71Y-4.3
X5.71Y-5.2
X5.81Y-4.3
X5.81Y-5.2
X5.91Y-4.3
X5.91Y-5.2
X6.01Y-4.3
X6.01Y-5.2
X6.11Y-4.3
X6.11Y-5.2
X6.1561Y-3.5544
X6.1561Y-3.6544
X6.1561Y-3.9993
X6.1561Y-4.0993
X6.21Y-4.3
X6.21Y-5.2
X6.31Y-4.3
X6.31Y-5.2
X6.41Y-4.3
X6.41Y-5.2
X6.51Y-4.3
X6.51Y-5.2
X6.61Y-4.3
X6.61Y-5.2
X6.71Y-4.3
X6.71Y-5.2
X6.73Y-3.64
X6.73Y-3.7384
X6.81Y-4.3
X6.81Y-5.2
T3
X5.045Y-3.7916
X5.045Y-3.9491
X5.045Y-4.1066
X5.045Y-4.2641
X5.045Y-4.4215
X5.045Y-4.579
X5.045Y-4.7365
X5.045Y-4.894
X5.1631Y-3.7916
X5.1631Y-3.9491
X5.1631Y-4.1066
X5.1631Y-4.2641
X5.1631Y-4.4215
X5.1631Y-4.579
X5.1631Y-4.7365
X5.1631Y-4.894
T0
M30
