G04 #@! TF.GenerationSoftware,KiCad,Pcbnew,(5.1.10)-1*
G04 #@! TF.CreationDate,2021-11-09T17:41:14+01:00*
G04 #@! TF.ProjectId,pcb-esp32-power,7063622d-6573-4703-9332-2d706f776572,rev?*
G04 #@! TF.SameCoordinates,Original*
G04 #@! TF.FileFunction,Copper,L2,Bot*
G04 #@! TF.FilePolarity,Positive*
%FSLAX46Y46*%
G04 Gerber Fmt 4.6, Leading zero omitted, Abs format (unit mm)*
G04 Created by KiCad (PCBNEW (5.1.10)-1) date 2021-11-09 17:41:14*
%MOMM*%
%LPD*%
G01*
G04 APERTURE LIST*
G04 #@! TA.AperFunction,ComponentPad*
%ADD10O,2.000000X1.700000*%
G04 #@! TD*
G04 #@! TA.AperFunction,ComponentPad*
%ADD11R,1.700000X1.700000*%
G04 #@! TD*
G04 #@! TA.AperFunction,ComponentPad*
%ADD12O,1.700000X1.700000*%
G04 #@! TD*
G04 #@! TA.AperFunction,ComponentPad*
%ADD13R,2.500000X2.500000*%
G04 #@! TD*
G04 #@! TA.AperFunction,ComponentPad*
%ADD14C,2.500000*%
G04 #@! TD*
G04 #@! TA.AperFunction,ViaPad*
%ADD15C,0.800000*%
G04 #@! TD*
G04 #@! TA.AperFunction,Conductor*
%ADD16C,0.250000*%
G04 #@! TD*
G04 #@! TA.AperFunction,Conductor*
%ADD17C,0.300000*%
G04 #@! TD*
G04 #@! TA.AperFunction,Conductor*
%ADD18C,0.254000*%
G04 #@! TD*
G04 #@! TA.AperFunction,Conductor*
%ADD19C,0.100000*%
G04 #@! TD*
G04 APERTURE END LIST*
G04 #@! TA.AperFunction,ComponentPad*
G36*
G01*
X172986000Y-93638000D02*
X174486000Y-93638000D01*
G75*
G02*
X174736000Y-93888000I0J-250000D01*
G01*
X174736000Y-95088000D01*
G75*
G02*
X174486000Y-95338000I-250000J0D01*
G01*
X172986000Y-95338000D01*
G75*
G02*
X172736000Y-95088000I0J250000D01*
G01*
X172736000Y-93888000D01*
G75*
G02*
X172986000Y-93638000I250000J0D01*
G01*
G37*
G04 #@! TD.AperFunction*
D10*
X173736000Y-96988000D03*
D11*
X172974000Y-109220000D03*
D12*
X170434000Y-109220000D03*
X167894000Y-109220000D03*
X165354000Y-109220000D03*
X162814000Y-109220000D03*
X160274000Y-109220000D03*
X157734000Y-109220000D03*
X155194000Y-109220000D03*
X152654000Y-109220000D03*
X150114000Y-109220000D03*
X147574000Y-109220000D03*
X145034000Y-109220000D03*
X142494000Y-109220000D03*
X139954000Y-109220000D03*
X134874000Y-132080000D03*
X137414000Y-132080000D03*
X139954000Y-132080000D03*
X142494000Y-132080000D03*
X145034000Y-132080000D03*
X147574000Y-132080000D03*
X150114000Y-132080000D03*
X152654000Y-132080000D03*
X155194000Y-132080000D03*
X157734000Y-132080000D03*
X160274000Y-132080000D03*
X162814000Y-132080000D03*
X165354000Y-132080000D03*
X167894000Y-132080000D03*
X170434000Y-132080000D03*
X172974000Y-132080000D03*
D13*
X128143000Y-96307000D03*
D14*
X128143000Y-100307000D03*
X128143000Y-104307000D03*
X128143000Y-108307000D03*
X128143000Y-112307000D03*
X128143000Y-116307000D03*
X128143000Y-120307000D03*
X128143000Y-124307000D03*
X131143000Y-96307000D03*
X131143000Y-100307000D03*
X131143000Y-104307000D03*
X131143000Y-108307000D03*
X131143000Y-112307000D03*
X131143000Y-116307000D03*
X131143000Y-120307000D03*
X131143000Y-124307000D03*
D15*
X148082000Y-99060000D03*
X136652000Y-97155000D03*
X147066000Y-99060000D03*
X148082000Y-101346000D03*
X148082000Y-100203000D03*
X147066000Y-100203000D03*
X147066000Y-101346000D03*
X146050000Y-100203000D03*
X146050000Y-101346000D03*
X146050000Y-99060000D03*
X155067000Y-92710000D03*
X155067000Y-94742000D03*
X155067000Y-93726000D03*
X140208000Y-89154000D03*
X140208000Y-90170000D03*
X140208000Y-91186000D03*
X140208000Y-92202000D03*
X141732000Y-96901000D03*
X141732000Y-95885000D03*
X141732000Y-94869000D03*
X156083000Y-93726000D03*
X156083000Y-92710000D03*
X146558000Y-105283000D03*
X141605000Y-100584000D03*
X137414000Y-104140000D03*
X158115000Y-102616000D03*
X135636000Y-111125000D03*
X163195000Y-102870000D03*
X165989000Y-102870000D03*
X164973000Y-89789000D03*
X156210000Y-113538000D03*
X174371000Y-111506000D03*
X157734000Y-122809000D03*
X157734000Y-121793000D03*
X157734000Y-120777000D03*
X168783000Y-122809000D03*
X168783000Y-121920000D03*
X168783000Y-121031000D03*
X161290000Y-113538000D03*
X166370000Y-113665000D03*
X168402000Y-93091000D03*
X163703000Y-95123000D03*
X153924000Y-97155000D03*
X164084000Y-120523000D03*
X160401000Y-98044000D03*
X152273000Y-102235000D03*
D16*
X137414000Y-122578000D02*
X137414000Y-132080000D01*
X131143000Y-116307000D02*
X137414000Y-122578000D01*
X134874000Y-121706998D02*
X134874000Y-132080000D01*
X131899001Y-118731999D02*
X134874000Y-121706998D01*
X130567999Y-118731999D02*
X131899001Y-118731999D01*
X128143000Y-116307000D02*
X130567999Y-118731999D01*
D17*
X161671000Y-97155000D02*
X163703000Y-95123000D01*
X153924000Y-97155000D02*
X161671000Y-97155000D01*
X164102999Y-120504001D02*
X164084000Y-120523000D01*
X164102999Y-95522999D02*
X164102999Y-120504001D01*
X163703000Y-95123000D02*
X164102999Y-95522999D01*
D16*
X156210000Y-102235000D02*
X160401000Y-98044000D01*
X152273000Y-102235000D02*
X156210000Y-102235000D01*
D18*
X174879000Y-93095937D02*
X174825850Y-93067528D01*
X174659254Y-93016992D01*
X174486000Y-92999928D01*
X172986000Y-92999928D01*
X172812746Y-93016992D01*
X172646150Y-93067528D01*
X172492614Y-93149595D01*
X172358038Y-93260038D01*
X172247595Y-93394614D01*
X172165528Y-93548150D01*
X172114992Y-93714746D01*
X172097928Y-93888000D01*
X172097928Y-95088000D01*
X172114992Y-95261254D01*
X172165528Y-95427850D01*
X172247595Y-95581386D01*
X172358038Y-95715962D01*
X172492614Y-95826405D01*
X172594593Y-95880914D01*
X172594205Y-95881198D01*
X172397336Y-96095954D01*
X172246146Y-96344991D01*
X172146446Y-96618739D01*
X172144524Y-96631110D01*
X172265845Y-96861000D01*
X173609000Y-96861000D01*
X173609000Y-96841000D01*
X173863000Y-96841000D01*
X173863000Y-96861000D01*
X173883000Y-96861000D01*
X173883000Y-97115000D01*
X173863000Y-97115000D01*
X173863000Y-98315232D01*
X174095742Y-98459285D01*
X174378745Y-98390096D01*
X174642812Y-98267025D01*
X174877795Y-98094802D01*
X174879000Y-98093488D01*
X174879000Y-133340000D01*
X173756527Y-133340000D01*
X173974269Y-133177588D01*
X174169178Y-132961355D01*
X174318157Y-132711252D01*
X174415481Y-132436891D01*
X174294814Y-132207000D01*
X173101000Y-132207000D01*
X173101000Y-132227000D01*
X172847000Y-132227000D01*
X172847000Y-132207000D01*
X172827000Y-132207000D01*
X172827000Y-131953000D01*
X172847000Y-131953000D01*
X172847000Y-130759845D01*
X173101000Y-130759845D01*
X173101000Y-131953000D01*
X174294814Y-131953000D01*
X174415481Y-131723109D01*
X174318157Y-131448748D01*
X174169178Y-131198645D01*
X173974269Y-130982412D01*
X173740920Y-130808359D01*
X173478099Y-130683175D01*
X173330890Y-130638524D01*
X173101000Y-130759845D01*
X172847000Y-130759845D01*
X172617110Y-130638524D01*
X172469901Y-130683175D01*
X172207080Y-130808359D01*
X171973731Y-130982412D01*
X171778822Y-131198645D01*
X171709195Y-131315534D01*
X171587475Y-131133368D01*
X171380632Y-130926525D01*
X171137411Y-130764010D01*
X170867158Y-130652068D01*
X170580260Y-130595000D01*
X170287740Y-130595000D01*
X170000842Y-130652068D01*
X169730589Y-130764010D01*
X169487368Y-130926525D01*
X169280525Y-131133368D01*
X169164000Y-131307760D01*
X169047475Y-131133368D01*
X168840632Y-130926525D01*
X168597411Y-130764010D01*
X168327158Y-130652068D01*
X168040260Y-130595000D01*
X167747740Y-130595000D01*
X167460842Y-130652068D01*
X167190589Y-130764010D01*
X166947368Y-130926525D01*
X166740525Y-131133368D01*
X166624000Y-131307760D01*
X166507475Y-131133368D01*
X166300632Y-130926525D01*
X166057411Y-130764010D01*
X165787158Y-130652068D01*
X165500260Y-130595000D01*
X165207740Y-130595000D01*
X164920842Y-130652068D01*
X164650589Y-130764010D01*
X164407368Y-130926525D01*
X164200525Y-131133368D01*
X164084000Y-131307760D01*
X163967475Y-131133368D01*
X163760632Y-130926525D01*
X163517411Y-130764010D01*
X163247158Y-130652068D01*
X162960260Y-130595000D01*
X162667740Y-130595000D01*
X162380842Y-130652068D01*
X162110589Y-130764010D01*
X161867368Y-130926525D01*
X161660525Y-131133368D01*
X161544000Y-131307760D01*
X161427475Y-131133368D01*
X161220632Y-130926525D01*
X160977411Y-130764010D01*
X160707158Y-130652068D01*
X160420260Y-130595000D01*
X160127740Y-130595000D01*
X159840842Y-130652068D01*
X159570589Y-130764010D01*
X159327368Y-130926525D01*
X159120525Y-131133368D01*
X159004000Y-131307760D01*
X158887475Y-131133368D01*
X158680632Y-130926525D01*
X158437411Y-130764010D01*
X158167158Y-130652068D01*
X157880260Y-130595000D01*
X157587740Y-130595000D01*
X157300842Y-130652068D01*
X157030589Y-130764010D01*
X156787368Y-130926525D01*
X156580525Y-131133368D01*
X156464000Y-131307760D01*
X156347475Y-131133368D01*
X156140632Y-130926525D01*
X155897411Y-130764010D01*
X155627158Y-130652068D01*
X155340260Y-130595000D01*
X155047740Y-130595000D01*
X154760842Y-130652068D01*
X154490589Y-130764010D01*
X154247368Y-130926525D01*
X154040525Y-131133368D01*
X153924000Y-131307760D01*
X153807475Y-131133368D01*
X153600632Y-130926525D01*
X153357411Y-130764010D01*
X153087158Y-130652068D01*
X152800260Y-130595000D01*
X152507740Y-130595000D01*
X152220842Y-130652068D01*
X151950589Y-130764010D01*
X151707368Y-130926525D01*
X151500525Y-131133368D01*
X151384000Y-131307760D01*
X151267475Y-131133368D01*
X151060632Y-130926525D01*
X150817411Y-130764010D01*
X150547158Y-130652068D01*
X150260260Y-130595000D01*
X149967740Y-130595000D01*
X149680842Y-130652068D01*
X149410589Y-130764010D01*
X149167368Y-130926525D01*
X148960525Y-131133368D01*
X148844000Y-131307760D01*
X148727475Y-131133368D01*
X148520632Y-130926525D01*
X148277411Y-130764010D01*
X148007158Y-130652068D01*
X147720260Y-130595000D01*
X147427740Y-130595000D01*
X147140842Y-130652068D01*
X146870589Y-130764010D01*
X146627368Y-130926525D01*
X146420525Y-131133368D01*
X146304000Y-131307760D01*
X146187475Y-131133368D01*
X145980632Y-130926525D01*
X145737411Y-130764010D01*
X145467158Y-130652068D01*
X145180260Y-130595000D01*
X144887740Y-130595000D01*
X144600842Y-130652068D01*
X144330589Y-130764010D01*
X144087368Y-130926525D01*
X143880525Y-131133368D01*
X143764000Y-131307760D01*
X143647475Y-131133368D01*
X143440632Y-130926525D01*
X143197411Y-130764010D01*
X142927158Y-130652068D01*
X142640260Y-130595000D01*
X142347740Y-130595000D01*
X142060842Y-130652068D01*
X141790589Y-130764010D01*
X141547368Y-130926525D01*
X141340525Y-131133368D01*
X141224000Y-131307760D01*
X141107475Y-131133368D01*
X140900632Y-130926525D01*
X140657411Y-130764010D01*
X140387158Y-130652068D01*
X140100260Y-130595000D01*
X139807740Y-130595000D01*
X139520842Y-130652068D01*
X139250589Y-130764010D01*
X139007368Y-130926525D01*
X138800525Y-131133368D01*
X138684000Y-131307760D01*
X138567475Y-131133368D01*
X138360632Y-130926525D01*
X138174000Y-130801822D01*
X138174000Y-122615322D01*
X138177676Y-122577999D01*
X138174000Y-122540676D01*
X138174000Y-122540667D01*
X138163003Y-122429014D01*
X138119546Y-122285753D01*
X138048974Y-122153724D01*
X137954001Y-122037999D01*
X137925004Y-122014202D01*
X132900519Y-116989718D01*
X132955561Y-116856834D01*
X133028000Y-116492656D01*
X133028000Y-116121344D01*
X132955561Y-115757166D01*
X132813466Y-115414118D01*
X132607175Y-115105382D01*
X132344618Y-114842825D01*
X132035882Y-114636534D01*
X131692834Y-114494439D01*
X131328656Y-114422000D01*
X130957344Y-114422000D01*
X130593166Y-114494439D01*
X130250118Y-114636534D01*
X129941382Y-114842825D01*
X129678825Y-115105382D01*
X129643000Y-115158998D01*
X129607175Y-115105382D01*
X129344618Y-114842825D01*
X129035882Y-114636534D01*
X128692834Y-114494439D01*
X128328656Y-114422000D01*
X127957344Y-114422000D01*
X127593166Y-114494439D01*
X127250118Y-114636534D01*
X127025000Y-114786953D01*
X127025000Y-113657452D01*
X127134914Y-113910577D01*
X127467126Y-114076433D01*
X127825312Y-114174290D01*
X128195706Y-114200389D01*
X128564075Y-114153725D01*
X128916262Y-114036094D01*
X129151086Y-113910577D01*
X129277000Y-113620605D01*
X128143000Y-112486605D01*
X128128858Y-112500748D01*
X127949253Y-112321143D01*
X127963395Y-112307000D01*
X128322605Y-112307000D01*
X129456605Y-113441000D01*
X129593829Y-113381413D01*
X129678825Y-113508618D01*
X129941382Y-113771175D01*
X130250118Y-113977466D01*
X130593166Y-114119561D01*
X130957344Y-114192000D01*
X131328656Y-114192000D01*
X131692834Y-114119561D01*
X132035882Y-113977466D01*
X132344618Y-113771175D01*
X132607175Y-113508618D01*
X132813466Y-113199882D01*
X132955561Y-112856834D01*
X133028000Y-112492656D01*
X133028000Y-112121344D01*
X132955561Y-111757166D01*
X132813466Y-111414118D01*
X132607175Y-111105382D01*
X132344618Y-110842825D01*
X132035882Y-110636534D01*
X131692834Y-110494439D01*
X131328656Y-110422000D01*
X130957344Y-110422000D01*
X130593166Y-110494439D01*
X130250118Y-110636534D01*
X129941382Y-110842825D01*
X129678825Y-111105382D01*
X129593829Y-111232587D01*
X129456605Y-111173000D01*
X128322605Y-112307000D01*
X127963395Y-112307000D01*
X127949253Y-112292858D01*
X128128858Y-112113253D01*
X128143000Y-112127395D01*
X129277000Y-110993395D01*
X129151086Y-110703423D01*
X128818874Y-110537567D01*
X128460688Y-110439710D01*
X128090294Y-110413611D01*
X127721925Y-110460275D01*
X127369738Y-110577906D01*
X127134914Y-110703423D01*
X127025000Y-110956548D01*
X127025000Y-109657452D01*
X127134914Y-109910577D01*
X127467126Y-110076433D01*
X127825312Y-110174290D01*
X128195706Y-110200389D01*
X128564075Y-110153725D01*
X128916262Y-110036094D01*
X129151086Y-109910577D01*
X129277000Y-109620605D01*
X128143000Y-108486605D01*
X128128858Y-108500748D01*
X127949253Y-108321143D01*
X127963395Y-108307000D01*
X128322605Y-108307000D01*
X129456605Y-109441000D01*
X129593829Y-109381413D01*
X129678825Y-109508618D01*
X129941382Y-109771175D01*
X130250118Y-109977466D01*
X130593166Y-110119561D01*
X130957344Y-110192000D01*
X131328656Y-110192000D01*
X131692834Y-110119561D01*
X132035882Y-109977466D01*
X132344618Y-109771175D01*
X132607175Y-109508618D01*
X132813466Y-109199882D01*
X132865715Y-109073740D01*
X138469000Y-109073740D01*
X138469000Y-109366260D01*
X138526068Y-109653158D01*
X138638010Y-109923411D01*
X138800525Y-110166632D01*
X139007368Y-110373475D01*
X139250589Y-110535990D01*
X139520842Y-110647932D01*
X139807740Y-110705000D01*
X140100260Y-110705000D01*
X140387158Y-110647932D01*
X140657411Y-110535990D01*
X140900632Y-110373475D01*
X141107475Y-110166632D01*
X141224000Y-109992240D01*
X141340525Y-110166632D01*
X141547368Y-110373475D01*
X141790589Y-110535990D01*
X142060842Y-110647932D01*
X142347740Y-110705000D01*
X142640260Y-110705000D01*
X142927158Y-110647932D01*
X143197411Y-110535990D01*
X143440632Y-110373475D01*
X143647475Y-110166632D01*
X143764000Y-109992240D01*
X143880525Y-110166632D01*
X144087368Y-110373475D01*
X144330589Y-110535990D01*
X144600842Y-110647932D01*
X144887740Y-110705000D01*
X145180260Y-110705000D01*
X145467158Y-110647932D01*
X145737411Y-110535990D01*
X145980632Y-110373475D01*
X146187475Y-110166632D01*
X146304000Y-109992240D01*
X146420525Y-110166632D01*
X146627368Y-110373475D01*
X146870589Y-110535990D01*
X147140842Y-110647932D01*
X147427740Y-110705000D01*
X147720260Y-110705000D01*
X148007158Y-110647932D01*
X148277411Y-110535990D01*
X148520632Y-110373475D01*
X148727475Y-110166632D01*
X148844000Y-109992240D01*
X148960525Y-110166632D01*
X149167368Y-110373475D01*
X149410589Y-110535990D01*
X149680842Y-110647932D01*
X149967740Y-110705000D01*
X150260260Y-110705000D01*
X150547158Y-110647932D01*
X150817411Y-110535990D01*
X151060632Y-110373475D01*
X151267475Y-110166632D01*
X151384000Y-109992240D01*
X151500525Y-110166632D01*
X151707368Y-110373475D01*
X151950589Y-110535990D01*
X152220842Y-110647932D01*
X152507740Y-110705000D01*
X152800260Y-110705000D01*
X153087158Y-110647932D01*
X153357411Y-110535990D01*
X153600632Y-110373475D01*
X153807475Y-110166632D01*
X153924000Y-109992240D01*
X154040525Y-110166632D01*
X154247368Y-110373475D01*
X154490589Y-110535990D01*
X154760842Y-110647932D01*
X155047740Y-110705000D01*
X155340260Y-110705000D01*
X155627158Y-110647932D01*
X155897411Y-110535990D01*
X156140632Y-110373475D01*
X156347475Y-110166632D01*
X156464000Y-109992240D01*
X156580525Y-110166632D01*
X156787368Y-110373475D01*
X157030589Y-110535990D01*
X157300842Y-110647932D01*
X157587740Y-110705000D01*
X157880260Y-110705000D01*
X158167158Y-110647932D01*
X158437411Y-110535990D01*
X158680632Y-110373475D01*
X158887475Y-110166632D01*
X159004000Y-109992240D01*
X159120525Y-110166632D01*
X159327368Y-110373475D01*
X159570589Y-110535990D01*
X159840842Y-110647932D01*
X160127740Y-110705000D01*
X160420260Y-110705000D01*
X160707158Y-110647932D01*
X160977411Y-110535990D01*
X161220632Y-110373475D01*
X161427475Y-110166632D01*
X161544000Y-109992240D01*
X161660525Y-110166632D01*
X161867368Y-110373475D01*
X162110589Y-110535990D01*
X162380842Y-110647932D01*
X162667740Y-110705000D01*
X162960260Y-110705000D01*
X163247158Y-110647932D01*
X163318000Y-110618589D01*
X163318000Y-119825289D01*
X163280063Y-119863226D01*
X163166795Y-120032744D01*
X163088774Y-120221102D01*
X163049000Y-120421061D01*
X163049000Y-120624939D01*
X163088774Y-120824898D01*
X163166795Y-121013256D01*
X163280063Y-121182774D01*
X163424226Y-121326937D01*
X163593744Y-121440205D01*
X163782102Y-121518226D01*
X163982061Y-121558000D01*
X164185939Y-121558000D01*
X164385898Y-121518226D01*
X164574256Y-121440205D01*
X164743774Y-121326937D01*
X164887937Y-121182774D01*
X165001205Y-121013256D01*
X165079226Y-120824898D01*
X165119000Y-120624939D01*
X165119000Y-120421061D01*
X165079226Y-120221102D01*
X165001205Y-120032744D01*
X164887999Y-119863319D01*
X164887999Y-110634328D01*
X164920842Y-110647932D01*
X165207740Y-110705000D01*
X165500260Y-110705000D01*
X165787158Y-110647932D01*
X166057411Y-110535990D01*
X166300632Y-110373475D01*
X166507475Y-110166632D01*
X166624000Y-109992240D01*
X166740525Y-110166632D01*
X166947368Y-110373475D01*
X167190589Y-110535990D01*
X167460842Y-110647932D01*
X167747740Y-110705000D01*
X168040260Y-110705000D01*
X168327158Y-110647932D01*
X168597411Y-110535990D01*
X168840632Y-110373475D01*
X169047475Y-110166632D01*
X169164000Y-109992240D01*
X169280525Y-110166632D01*
X169487368Y-110373475D01*
X169730589Y-110535990D01*
X170000842Y-110647932D01*
X170287740Y-110705000D01*
X170580260Y-110705000D01*
X170867158Y-110647932D01*
X171137411Y-110535990D01*
X171380632Y-110373475D01*
X171512487Y-110241620D01*
X171534498Y-110314180D01*
X171593463Y-110424494D01*
X171672815Y-110521185D01*
X171769506Y-110600537D01*
X171879820Y-110659502D01*
X171999518Y-110695812D01*
X172124000Y-110708072D01*
X173824000Y-110708072D01*
X173948482Y-110695812D01*
X174068180Y-110659502D01*
X174178494Y-110600537D01*
X174275185Y-110521185D01*
X174354537Y-110424494D01*
X174413502Y-110314180D01*
X174449812Y-110194482D01*
X174462072Y-110070000D01*
X174462072Y-108370000D01*
X174449812Y-108245518D01*
X174413502Y-108125820D01*
X174354537Y-108015506D01*
X174275185Y-107918815D01*
X174178494Y-107839463D01*
X174068180Y-107780498D01*
X173948482Y-107744188D01*
X173824000Y-107731928D01*
X172124000Y-107731928D01*
X171999518Y-107744188D01*
X171879820Y-107780498D01*
X171769506Y-107839463D01*
X171672815Y-107918815D01*
X171593463Y-108015506D01*
X171534498Y-108125820D01*
X171512487Y-108198380D01*
X171380632Y-108066525D01*
X171137411Y-107904010D01*
X170867158Y-107792068D01*
X170580260Y-107735000D01*
X170287740Y-107735000D01*
X170000842Y-107792068D01*
X169730589Y-107904010D01*
X169487368Y-108066525D01*
X169280525Y-108273368D01*
X169164000Y-108447760D01*
X169047475Y-108273368D01*
X168840632Y-108066525D01*
X168597411Y-107904010D01*
X168327158Y-107792068D01*
X168040260Y-107735000D01*
X167747740Y-107735000D01*
X167460842Y-107792068D01*
X167190589Y-107904010D01*
X166947368Y-108066525D01*
X166740525Y-108273368D01*
X166624000Y-108447760D01*
X166507475Y-108273368D01*
X166300632Y-108066525D01*
X166057411Y-107904010D01*
X165787158Y-107792068D01*
X165500260Y-107735000D01*
X165207740Y-107735000D01*
X164920842Y-107792068D01*
X164887999Y-107805672D01*
X164887999Y-97344890D01*
X172144524Y-97344890D01*
X172146446Y-97357261D01*
X172246146Y-97631009D01*
X172397336Y-97880046D01*
X172594205Y-98094802D01*
X172829188Y-98267025D01*
X173093255Y-98390096D01*
X173376258Y-98459285D01*
X173609000Y-98315232D01*
X173609000Y-97115000D01*
X172265845Y-97115000D01*
X172144524Y-97344890D01*
X164887999Y-97344890D01*
X164887999Y-95561551D01*
X164891796Y-95522998D01*
X164887999Y-95484445D01*
X164887999Y-95484438D01*
X164876640Y-95369112D01*
X164831753Y-95221139D01*
X164758861Y-95084766D01*
X164738000Y-95059347D01*
X164738000Y-95021061D01*
X164698226Y-94821102D01*
X164620205Y-94632744D01*
X164506937Y-94463226D01*
X164362774Y-94319063D01*
X164193256Y-94205795D01*
X164004898Y-94127774D01*
X163804939Y-94088000D01*
X163601061Y-94088000D01*
X163401102Y-94127774D01*
X163212744Y-94205795D01*
X163043226Y-94319063D01*
X162899063Y-94463226D01*
X162785795Y-94632744D01*
X162707774Y-94821102D01*
X162668000Y-95021061D01*
X162668000Y-95047842D01*
X161345843Y-96370000D01*
X154602711Y-96370000D01*
X154583774Y-96351063D01*
X154414256Y-96237795D01*
X154225898Y-96159774D01*
X154025939Y-96120000D01*
X153822061Y-96120000D01*
X153622102Y-96159774D01*
X153433744Y-96237795D01*
X153264226Y-96351063D01*
X153120063Y-96495226D01*
X153006795Y-96664744D01*
X152928774Y-96853102D01*
X152889000Y-97053061D01*
X152889000Y-97256939D01*
X152928774Y-97456898D01*
X153006795Y-97645256D01*
X153120063Y-97814774D01*
X153264226Y-97958937D01*
X153433744Y-98072205D01*
X153622102Y-98150226D01*
X153822061Y-98190000D01*
X154025939Y-98190000D01*
X154225898Y-98150226D01*
X154414256Y-98072205D01*
X154583774Y-97958937D01*
X154602711Y-97940000D01*
X159366410Y-97940000D01*
X159366000Y-97942061D01*
X159366000Y-98004198D01*
X155895199Y-101475000D01*
X152976711Y-101475000D01*
X152932774Y-101431063D01*
X152763256Y-101317795D01*
X152574898Y-101239774D01*
X152374939Y-101200000D01*
X152171061Y-101200000D01*
X151971102Y-101239774D01*
X151782744Y-101317795D01*
X151613226Y-101431063D01*
X151469063Y-101575226D01*
X151355795Y-101744744D01*
X151277774Y-101933102D01*
X151238000Y-102133061D01*
X151238000Y-102336939D01*
X151277774Y-102536898D01*
X151355795Y-102725256D01*
X151469063Y-102894774D01*
X151613226Y-103038937D01*
X151782744Y-103152205D01*
X151971102Y-103230226D01*
X152171061Y-103270000D01*
X152374939Y-103270000D01*
X152574898Y-103230226D01*
X152763256Y-103152205D01*
X152932774Y-103038937D01*
X152976711Y-102995000D01*
X156172678Y-102995000D01*
X156210000Y-102998676D01*
X156247322Y-102995000D01*
X156247333Y-102995000D01*
X156358986Y-102984003D01*
X156502247Y-102940546D01*
X156634276Y-102869974D01*
X156750001Y-102775001D01*
X156773804Y-102745997D01*
X160440802Y-99079000D01*
X160502939Y-99079000D01*
X160702898Y-99039226D01*
X160891256Y-98961205D01*
X161060774Y-98847937D01*
X161204937Y-98703774D01*
X161318205Y-98534256D01*
X161396226Y-98345898D01*
X161436000Y-98145939D01*
X161436000Y-97942061D01*
X161435590Y-97940000D01*
X161632447Y-97940000D01*
X161671000Y-97943797D01*
X161709553Y-97940000D01*
X161709561Y-97940000D01*
X161824887Y-97928641D01*
X161972860Y-97883754D01*
X162109233Y-97810862D01*
X162228764Y-97712764D01*
X162253347Y-97682810D01*
X163317999Y-96618158D01*
X163317999Y-107821411D01*
X163247158Y-107792068D01*
X162960260Y-107735000D01*
X162667740Y-107735000D01*
X162380842Y-107792068D01*
X162110589Y-107904010D01*
X161867368Y-108066525D01*
X161660525Y-108273368D01*
X161544000Y-108447760D01*
X161427475Y-108273368D01*
X161220632Y-108066525D01*
X160977411Y-107904010D01*
X160707158Y-107792068D01*
X160420260Y-107735000D01*
X160127740Y-107735000D01*
X159840842Y-107792068D01*
X159570589Y-107904010D01*
X159327368Y-108066525D01*
X159120525Y-108273368D01*
X159004000Y-108447760D01*
X158887475Y-108273368D01*
X158680632Y-108066525D01*
X158437411Y-107904010D01*
X158167158Y-107792068D01*
X157880260Y-107735000D01*
X157587740Y-107735000D01*
X157300842Y-107792068D01*
X157030589Y-107904010D01*
X156787368Y-108066525D01*
X156580525Y-108273368D01*
X156464000Y-108447760D01*
X156347475Y-108273368D01*
X156140632Y-108066525D01*
X155897411Y-107904010D01*
X155627158Y-107792068D01*
X155340260Y-107735000D01*
X155047740Y-107735000D01*
X154760842Y-107792068D01*
X154490589Y-107904010D01*
X154247368Y-108066525D01*
X154040525Y-108273368D01*
X153924000Y-108447760D01*
X153807475Y-108273368D01*
X153600632Y-108066525D01*
X153357411Y-107904010D01*
X153087158Y-107792068D01*
X152800260Y-107735000D01*
X152507740Y-107735000D01*
X152220842Y-107792068D01*
X151950589Y-107904010D01*
X151707368Y-108066525D01*
X151500525Y-108273368D01*
X151384000Y-108447760D01*
X151267475Y-108273368D01*
X151060632Y-108066525D01*
X150817411Y-107904010D01*
X150547158Y-107792068D01*
X150260260Y-107735000D01*
X149967740Y-107735000D01*
X149680842Y-107792068D01*
X149410589Y-107904010D01*
X149167368Y-108066525D01*
X148960525Y-108273368D01*
X148844000Y-108447760D01*
X148727475Y-108273368D01*
X148520632Y-108066525D01*
X148277411Y-107904010D01*
X148007158Y-107792068D01*
X147720260Y-107735000D01*
X147427740Y-107735000D01*
X147140842Y-107792068D01*
X146870589Y-107904010D01*
X146627368Y-108066525D01*
X146420525Y-108273368D01*
X146304000Y-108447760D01*
X146187475Y-108273368D01*
X145980632Y-108066525D01*
X145737411Y-107904010D01*
X145467158Y-107792068D01*
X145180260Y-107735000D01*
X144887740Y-107735000D01*
X144600842Y-107792068D01*
X144330589Y-107904010D01*
X144087368Y-108066525D01*
X143880525Y-108273368D01*
X143764000Y-108447760D01*
X143647475Y-108273368D01*
X143440632Y-108066525D01*
X143197411Y-107904010D01*
X142927158Y-107792068D01*
X142640260Y-107735000D01*
X142347740Y-107735000D01*
X142060842Y-107792068D01*
X141790589Y-107904010D01*
X141547368Y-108066525D01*
X141340525Y-108273368D01*
X141224000Y-108447760D01*
X141107475Y-108273368D01*
X140900632Y-108066525D01*
X140657411Y-107904010D01*
X140387158Y-107792068D01*
X140100260Y-107735000D01*
X139807740Y-107735000D01*
X139520842Y-107792068D01*
X139250589Y-107904010D01*
X139007368Y-108066525D01*
X138800525Y-108273368D01*
X138638010Y-108516589D01*
X138526068Y-108786842D01*
X138469000Y-109073740D01*
X132865715Y-109073740D01*
X132955561Y-108856834D01*
X133028000Y-108492656D01*
X133028000Y-108121344D01*
X132955561Y-107757166D01*
X132813466Y-107414118D01*
X132607175Y-107105382D01*
X132344618Y-106842825D01*
X132035882Y-106636534D01*
X131692834Y-106494439D01*
X131328656Y-106422000D01*
X130957344Y-106422000D01*
X130593166Y-106494439D01*
X130250118Y-106636534D01*
X129941382Y-106842825D01*
X129678825Y-107105382D01*
X129593829Y-107232587D01*
X129456605Y-107173000D01*
X128322605Y-108307000D01*
X127963395Y-108307000D01*
X127949253Y-108292858D01*
X128128858Y-108113253D01*
X128143000Y-108127395D01*
X129277000Y-106993395D01*
X129151086Y-106703423D01*
X128818874Y-106537567D01*
X128460688Y-106439710D01*
X128090294Y-106413611D01*
X127721925Y-106460275D01*
X127369738Y-106577906D01*
X127134914Y-106703423D01*
X127025000Y-106956548D01*
X127025000Y-105827047D01*
X127250118Y-105977466D01*
X127593166Y-106119561D01*
X127957344Y-106192000D01*
X128328656Y-106192000D01*
X128692834Y-106119561D01*
X129035882Y-105977466D01*
X129344618Y-105771175D01*
X129607175Y-105508618D01*
X129643000Y-105455002D01*
X129678825Y-105508618D01*
X129941382Y-105771175D01*
X130250118Y-105977466D01*
X130593166Y-106119561D01*
X130957344Y-106192000D01*
X131328656Y-106192000D01*
X131692834Y-106119561D01*
X132035882Y-105977466D01*
X132344618Y-105771175D01*
X132607175Y-105508618D01*
X132813466Y-105199882D01*
X132955561Y-104856834D01*
X133028000Y-104492656D01*
X133028000Y-104121344D01*
X132955561Y-103757166D01*
X132813466Y-103414118D01*
X132607175Y-103105382D01*
X132344618Y-102842825D01*
X132035882Y-102636534D01*
X131692834Y-102494439D01*
X131328656Y-102422000D01*
X130957344Y-102422000D01*
X130593166Y-102494439D01*
X130250118Y-102636534D01*
X129941382Y-102842825D01*
X129678825Y-103105382D01*
X129643000Y-103158998D01*
X129607175Y-103105382D01*
X129344618Y-102842825D01*
X129035882Y-102636534D01*
X128692834Y-102494439D01*
X128328656Y-102422000D01*
X127957344Y-102422000D01*
X127593166Y-102494439D01*
X127250118Y-102636534D01*
X127025000Y-102786953D01*
X127025000Y-101827047D01*
X127250118Y-101977466D01*
X127593166Y-102119561D01*
X127957344Y-102192000D01*
X128328656Y-102192000D01*
X128692834Y-102119561D01*
X129035882Y-101977466D01*
X129344618Y-101771175D01*
X129607175Y-101508618D01*
X129643000Y-101455002D01*
X129678825Y-101508618D01*
X129941382Y-101771175D01*
X130250118Y-101977466D01*
X130593166Y-102119561D01*
X130957344Y-102192000D01*
X131328656Y-102192000D01*
X131692834Y-102119561D01*
X132035882Y-101977466D01*
X132344618Y-101771175D01*
X132607175Y-101508618D01*
X132813466Y-101199882D01*
X132955561Y-100856834D01*
X133028000Y-100492656D01*
X133028000Y-100121344D01*
X132955561Y-99757166D01*
X132813466Y-99414118D01*
X132607175Y-99105382D01*
X132344618Y-98842825D01*
X132035882Y-98636534D01*
X131692834Y-98494439D01*
X131328656Y-98422000D01*
X130957344Y-98422000D01*
X130593166Y-98494439D01*
X130250118Y-98636534D01*
X129941382Y-98842825D01*
X129678825Y-99105382D01*
X129643000Y-99158998D01*
X129607175Y-99105382D01*
X129344618Y-98842825D01*
X129035882Y-98636534D01*
X128692834Y-98494439D01*
X128328656Y-98422000D01*
X127957344Y-98422000D01*
X127593166Y-98494439D01*
X127250118Y-98636534D01*
X127025000Y-98786953D01*
X127025000Y-98195072D01*
X129393000Y-98195072D01*
X129517482Y-98182812D01*
X129637180Y-98146502D01*
X129747494Y-98087537D01*
X129844185Y-98008185D01*
X129923537Y-97911494D01*
X129982502Y-97801180D01*
X129983140Y-97799077D01*
X130250118Y-97977466D01*
X130593166Y-98119561D01*
X130957344Y-98192000D01*
X131328656Y-98192000D01*
X131692834Y-98119561D01*
X132035882Y-97977466D01*
X132344618Y-97771175D01*
X132607175Y-97508618D01*
X132813466Y-97199882D01*
X132955561Y-96856834D01*
X133028000Y-96492656D01*
X133028000Y-96121344D01*
X132955561Y-95757166D01*
X132813466Y-95414118D01*
X132607175Y-95105382D01*
X132344618Y-94842825D01*
X132035882Y-94636534D01*
X131692834Y-94494439D01*
X131328656Y-94422000D01*
X130957344Y-94422000D01*
X130593166Y-94494439D01*
X130250118Y-94636534D01*
X129983140Y-94814923D01*
X129982502Y-94812820D01*
X129923537Y-94702506D01*
X129844185Y-94605815D01*
X129747494Y-94526463D01*
X129637180Y-94467498D01*
X129517482Y-94431188D01*
X129393000Y-94418928D01*
X127025000Y-94418928D01*
X127025000Y-87274000D01*
X174879000Y-87274000D01*
X174879000Y-93095937D01*
G04 #@! TA.AperFunction,Conductor*
D19*
G36*
X174879000Y-93095937D02*
G01*
X174825850Y-93067528D01*
X174659254Y-93016992D01*
X174486000Y-92999928D01*
X172986000Y-92999928D01*
X172812746Y-93016992D01*
X172646150Y-93067528D01*
X172492614Y-93149595D01*
X172358038Y-93260038D01*
X172247595Y-93394614D01*
X172165528Y-93548150D01*
X172114992Y-93714746D01*
X172097928Y-93888000D01*
X172097928Y-95088000D01*
X172114992Y-95261254D01*
X172165528Y-95427850D01*
X172247595Y-95581386D01*
X172358038Y-95715962D01*
X172492614Y-95826405D01*
X172594593Y-95880914D01*
X172594205Y-95881198D01*
X172397336Y-96095954D01*
X172246146Y-96344991D01*
X172146446Y-96618739D01*
X172144524Y-96631110D01*
X172265845Y-96861000D01*
X173609000Y-96861000D01*
X173609000Y-96841000D01*
X173863000Y-96841000D01*
X173863000Y-96861000D01*
X173883000Y-96861000D01*
X173883000Y-97115000D01*
X173863000Y-97115000D01*
X173863000Y-98315232D01*
X174095742Y-98459285D01*
X174378745Y-98390096D01*
X174642812Y-98267025D01*
X174877795Y-98094802D01*
X174879000Y-98093488D01*
X174879000Y-133340000D01*
X173756527Y-133340000D01*
X173974269Y-133177588D01*
X174169178Y-132961355D01*
X174318157Y-132711252D01*
X174415481Y-132436891D01*
X174294814Y-132207000D01*
X173101000Y-132207000D01*
X173101000Y-132227000D01*
X172847000Y-132227000D01*
X172847000Y-132207000D01*
X172827000Y-132207000D01*
X172827000Y-131953000D01*
X172847000Y-131953000D01*
X172847000Y-130759845D01*
X173101000Y-130759845D01*
X173101000Y-131953000D01*
X174294814Y-131953000D01*
X174415481Y-131723109D01*
X174318157Y-131448748D01*
X174169178Y-131198645D01*
X173974269Y-130982412D01*
X173740920Y-130808359D01*
X173478099Y-130683175D01*
X173330890Y-130638524D01*
X173101000Y-130759845D01*
X172847000Y-130759845D01*
X172617110Y-130638524D01*
X172469901Y-130683175D01*
X172207080Y-130808359D01*
X171973731Y-130982412D01*
X171778822Y-131198645D01*
X171709195Y-131315534D01*
X171587475Y-131133368D01*
X171380632Y-130926525D01*
X171137411Y-130764010D01*
X170867158Y-130652068D01*
X170580260Y-130595000D01*
X170287740Y-130595000D01*
X170000842Y-130652068D01*
X169730589Y-130764010D01*
X169487368Y-130926525D01*
X169280525Y-131133368D01*
X169164000Y-131307760D01*
X169047475Y-131133368D01*
X168840632Y-130926525D01*
X168597411Y-130764010D01*
X168327158Y-130652068D01*
X168040260Y-130595000D01*
X167747740Y-130595000D01*
X167460842Y-130652068D01*
X167190589Y-130764010D01*
X166947368Y-130926525D01*
X166740525Y-131133368D01*
X166624000Y-131307760D01*
X166507475Y-131133368D01*
X166300632Y-130926525D01*
X166057411Y-130764010D01*
X165787158Y-130652068D01*
X165500260Y-130595000D01*
X165207740Y-130595000D01*
X164920842Y-130652068D01*
X164650589Y-130764010D01*
X164407368Y-130926525D01*
X164200525Y-131133368D01*
X164084000Y-131307760D01*
X163967475Y-131133368D01*
X163760632Y-130926525D01*
X163517411Y-130764010D01*
X163247158Y-130652068D01*
X162960260Y-130595000D01*
X162667740Y-130595000D01*
X162380842Y-130652068D01*
X162110589Y-130764010D01*
X161867368Y-130926525D01*
X161660525Y-131133368D01*
X161544000Y-131307760D01*
X161427475Y-131133368D01*
X161220632Y-130926525D01*
X160977411Y-130764010D01*
X160707158Y-130652068D01*
X160420260Y-130595000D01*
X160127740Y-130595000D01*
X159840842Y-130652068D01*
X159570589Y-130764010D01*
X159327368Y-130926525D01*
X159120525Y-131133368D01*
X159004000Y-131307760D01*
X158887475Y-131133368D01*
X158680632Y-130926525D01*
X158437411Y-130764010D01*
X158167158Y-130652068D01*
X157880260Y-130595000D01*
X157587740Y-130595000D01*
X157300842Y-130652068D01*
X157030589Y-130764010D01*
X156787368Y-130926525D01*
X156580525Y-131133368D01*
X156464000Y-131307760D01*
X156347475Y-131133368D01*
X156140632Y-130926525D01*
X155897411Y-130764010D01*
X155627158Y-130652068D01*
X155340260Y-130595000D01*
X155047740Y-130595000D01*
X154760842Y-130652068D01*
X154490589Y-130764010D01*
X154247368Y-130926525D01*
X154040525Y-131133368D01*
X153924000Y-131307760D01*
X153807475Y-131133368D01*
X153600632Y-130926525D01*
X153357411Y-130764010D01*
X153087158Y-130652068D01*
X152800260Y-130595000D01*
X152507740Y-130595000D01*
X152220842Y-130652068D01*
X151950589Y-130764010D01*
X151707368Y-130926525D01*
X151500525Y-131133368D01*
X151384000Y-131307760D01*
X151267475Y-131133368D01*
X151060632Y-130926525D01*
X150817411Y-130764010D01*
X150547158Y-130652068D01*
X150260260Y-130595000D01*
X149967740Y-130595000D01*
X149680842Y-130652068D01*
X149410589Y-130764010D01*
X149167368Y-130926525D01*
X148960525Y-131133368D01*
X148844000Y-131307760D01*
X148727475Y-131133368D01*
X148520632Y-130926525D01*
X148277411Y-130764010D01*
X148007158Y-130652068D01*
X147720260Y-130595000D01*
X147427740Y-130595000D01*
X147140842Y-130652068D01*
X146870589Y-130764010D01*
X146627368Y-130926525D01*
X146420525Y-131133368D01*
X146304000Y-131307760D01*
X146187475Y-131133368D01*
X145980632Y-130926525D01*
X145737411Y-130764010D01*
X145467158Y-130652068D01*
X145180260Y-130595000D01*
X144887740Y-130595000D01*
X144600842Y-130652068D01*
X144330589Y-130764010D01*
X144087368Y-130926525D01*
X143880525Y-131133368D01*
X143764000Y-131307760D01*
X143647475Y-131133368D01*
X143440632Y-130926525D01*
X143197411Y-130764010D01*
X142927158Y-130652068D01*
X142640260Y-130595000D01*
X142347740Y-130595000D01*
X142060842Y-130652068D01*
X141790589Y-130764010D01*
X141547368Y-130926525D01*
X141340525Y-131133368D01*
X141224000Y-131307760D01*
X141107475Y-131133368D01*
X140900632Y-130926525D01*
X140657411Y-130764010D01*
X140387158Y-130652068D01*
X140100260Y-130595000D01*
X139807740Y-130595000D01*
X139520842Y-130652068D01*
X139250589Y-130764010D01*
X139007368Y-130926525D01*
X138800525Y-131133368D01*
X138684000Y-131307760D01*
X138567475Y-131133368D01*
X138360632Y-130926525D01*
X138174000Y-130801822D01*
X138174000Y-122615322D01*
X138177676Y-122577999D01*
X138174000Y-122540676D01*
X138174000Y-122540667D01*
X138163003Y-122429014D01*
X138119546Y-122285753D01*
X138048974Y-122153724D01*
X137954001Y-122037999D01*
X137925004Y-122014202D01*
X132900519Y-116989718D01*
X132955561Y-116856834D01*
X133028000Y-116492656D01*
X133028000Y-116121344D01*
X132955561Y-115757166D01*
X132813466Y-115414118D01*
X132607175Y-115105382D01*
X132344618Y-114842825D01*
X132035882Y-114636534D01*
X131692834Y-114494439D01*
X131328656Y-114422000D01*
X130957344Y-114422000D01*
X130593166Y-114494439D01*
X130250118Y-114636534D01*
X129941382Y-114842825D01*
X129678825Y-115105382D01*
X129643000Y-115158998D01*
X129607175Y-115105382D01*
X129344618Y-114842825D01*
X129035882Y-114636534D01*
X128692834Y-114494439D01*
X128328656Y-114422000D01*
X127957344Y-114422000D01*
X127593166Y-114494439D01*
X127250118Y-114636534D01*
X127025000Y-114786953D01*
X127025000Y-113657452D01*
X127134914Y-113910577D01*
X127467126Y-114076433D01*
X127825312Y-114174290D01*
X128195706Y-114200389D01*
X128564075Y-114153725D01*
X128916262Y-114036094D01*
X129151086Y-113910577D01*
X129277000Y-113620605D01*
X128143000Y-112486605D01*
X128128858Y-112500748D01*
X127949253Y-112321143D01*
X127963395Y-112307000D01*
X128322605Y-112307000D01*
X129456605Y-113441000D01*
X129593829Y-113381413D01*
X129678825Y-113508618D01*
X129941382Y-113771175D01*
X130250118Y-113977466D01*
X130593166Y-114119561D01*
X130957344Y-114192000D01*
X131328656Y-114192000D01*
X131692834Y-114119561D01*
X132035882Y-113977466D01*
X132344618Y-113771175D01*
X132607175Y-113508618D01*
X132813466Y-113199882D01*
X132955561Y-112856834D01*
X133028000Y-112492656D01*
X133028000Y-112121344D01*
X132955561Y-111757166D01*
X132813466Y-111414118D01*
X132607175Y-111105382D01*
X132344618Y-110842825D01*
X132035882Y-110636534D01*
X131692834Y-110494439D01*
X131328656Y-110422000D01*
X130957344Y-110422000D01*
X130593166Y-110494439D01*
X130250118Y-110636534D01*
X129941382Y-110842825D01*
X129678825Y-111105382D01*
X129593829Y-111232587D01*
X129456605Y-111173000D01*
X128322605Y-112307000D01*
X127963395Y-112307000D01*
X127949253Y-112292858D01*
X128128858Y-112113253D01*
X128143000Y-112127395D01*
X129277000Y-110993395D01*
X129151086Y-110703423D01*
X128818874Y-110537567D01*
X128460688Y-110439710D01*
X128090294Y-110413611D01*
X127721925Y-110460275D01*
X127369738Y-110577906D01*
X127134914Y-110703423D01*
X127025000Y-110956548D01*
X127025000Y-109657452D01*
X127134914Y-109910577D01*
X127467126Y-110076433D01*
X127825312Y-110174290D01*
X128195706Y-110200389D01*
X128564075Y-110153725D01*
X128916262Y-110036094D01*
X129151086Y-109910577D01*
X129277000Y-109620605D01*
X128143000Y-108486605D01*
X128128858Y-108500748D01*
X127949253Y-108321143D01*
X127963395Y-108307000D01*
X128322605Y-108307000D01*
X129456605Y-109441000D01*
X129593829Y-109381413D01*
X129678825Y-109508618D01*
X129941382Y-109771175D01*
X130250118Y-109977466D01*
X130593166Y-110119561D01*
X130957344Y-110192000D01*
X131328656Y-110192000D01*
X131692834Y-110119561D01*
X132035882Y-109977466D01*
X132344618Y-109771175D01*
X132607175Y-109508618D01*
X132813466Y-109199882D01*
X132865715Y-109073740D01*
X138469000Y-109073740D01*
X138469000Y-109366260D01*
X138526068Y-109653158D01*
X138638010Y-109923411D01*
X138800525Y-110166632D01*
X139007368Y-110373475D01*
X139250589Y-110535990D01*
X139520842Y-110647932D01*
X139807740Y-110705000D01*
X140100260Y-110705000D01*
X140387158Y-110647932D01*
X140657411Y-110535990D01*
X140900632Y-110373475D01*
X141107475Y-110166632D01*
X141224000Y-109992240D01*
X141340525Y-110166632D01*
X141547368Y-110373475D01*
X141790589Y-110535990D01*
X142060842Y-110647932D01*
X142347740Y-110705000D01*
X142640260Y-110705000D01*
X142927158Y-110647932D01*
X143197411Y-110535990D01*
X143440632Y-110373475D01*
X143647475Y-110166632D01*
X143764000Y-109992240D01*
X143880525Y-110166632D01*
X144087368Y-110373475D01*
X144330589Y-110535990D01*
X144600842Y-110647932D01*
X144887740Y-110705000D01*
X145180260Y-110705000D01*
X145467158Y-110647932D01*
X145737411Y-110535990D01*
X145980632Y-110373475D01*
X146187475Y-110166632D01*
X146304000Y-109992240D01*
X146420525Y-110166632D01*
X146627368Y-110373475D01*
X146870589Y-110535990D01*
X147140842Y-110647932D01*
X147427740Y-110705000D01*
X147720260Y-110705000D01*
X148007158Y-110647932D01*
X148277411Y-110535990D01*
X148520632Y-110373475D01*
X148727475Y-110166632D01*
X148844000Y-109992240D01*
X148960525Y-110166632D01*
X149167368Y-110373475D01*
X149410589Y-110535990D01*
X149680842Y-110647932D01*
X149967740Y-110705000D01*
X150260260Y-110705000D01*
X150547158Y-110647932D01*
X150817411Y-110535990D01*
X151060632Y-110373475D01*
X151267475Y-110166632D01*
X151384000Y-109992240D01*
X151500525Y-110166632D01*
X151707368Y-110373475D01*
X151950589Y-110535990D01*
X152220842Y-110647932D01*
X152507740Y-110705000D01*
X152800260Y-110705000D01*
X153087158Y-110647932D01*
X153357411Y-110535990D01*
X153600632Y-110373475D01*
X153807475Y-110166632D01*
X153924000Y-109992240D01*
X154040525Y-110166632D01*
X154247368Y-110373475D01*
X154490589Y-110535990D01*
X154760842Y-110647932D01*
X155047740Y-110705000D01*
X155340260Y-110705000D01*
X155627158Y-110647932D01*
X155897411Y-110535990D01*
X156140632Y-110373475D01*
X156347475Y-110166632D01*
X156464000Y-109992240D01*
X156580525Y-110166632D01*
X156787368Y-110373475D01*
X157030589Y-110535990D01*
X157300842Y-110647932D01*
X157587740Y-110705000D01*
X157880260Y-110705000D01*
X158167158Y-110647932D01*
X158437411Y-110535990D01*
X158680632Y-110373475D01*
X158887475Y-110166632D01*
X159004000Y-109992240D01*
X159120525Y-110166632D01*
X159327368Y-110373475D01*
X159570589Y-110535990D01*
X159840842Y-110647932D01*
X160127740Y-110705000D01*
X160420260Y-110705000D01*
X160707158Y-110647932D01*
X160977411Y-110535990D01*
X161220632Y-110373475D01*
X161427475Y-110166632D01*
X161544000Y-109992240D01*
X161660525Y-110166632D01*
X161867368Y-110373475D01*
X162110589Y-110535990D01*
X162380842Y-110647932D01*
X162667740Y-110705000D01*
X162960260Y-110705000D01*
X163247158Y-110647932D01*
X163318000Y-110618589D01*
X163318000Y-119825289D01*
X163280063Y-119863226D01*
X163166795Y-120032744D01*
X163088774Y-120221102D01*
X163049000Y-120421061D01*
X163049000Y-120624939D01*
X163088774Y-120824898D01*
X163166795Y-121013256D01*
X163280063Y-121182774D01*
X163424226Y-121326937D01*
X163593744Y-121440205D01*
X163782102Y-121518226D01*
X163982061Y-121558000D01*
X164185939Y-121558000D01*
X164385898Y-121518226D01*
X164574256Y-121440205D01*
X164743774Y-121326937D01*
X164887937Y-121182774D01*
X165001205Y-121013256D01*
X165079226Y-120824898D01*
X165119000Y-120624939D01*
X165119000Y-120421061D01*
X165079226Y-120221102D01*
X165001205Y-120032744D01*
X164887999Y-119863319D01*
X164887999Y-110634328D01*
X164920842Y-110647932D01*
X165207740Y-110705000D01*
X165500260Y-110705000D01*
X165787158Y-110647932D01*
X166057411Y-110535990D01*
X166300632Y-110373475D01*
X166507475Y-110166632D01*
X166624000Y-109992240D01*
X166740525Y-110166632D01*
X166947368Y-110373475D01*
X167190589Y-110535990D01*
X167460842Y-110647932D01*
X167747740Y-110705000D01*
X168040260Y-110705000D01*
X168327158Y-110647932D01*
X168597411Y-110535990D01*
X168840632Y-110373475D01*
X169047475Y-110166632D01*
X169164000Y-109992240D01*
X169280525Y-110166632D01*
X169487368Y-110373475D01*
X169730589Y-110535990D01*
X170000842Y-110647932D01*
X170287740Y-110705000D01*
X170580260Y-110705000D01*
X170867158Y-110647932D01*
X171137411Y-110535990D01*
X171380632Y-110373475D01*
X171512487Y-110241620D01*
X171534498Y-110314180D01*
X171593463Y-110424494D01*
X171672815Y-110521185D01*
X171769506Y-110600537D01*
X171879820Y-110659502D01*
X171999518Y-110695812D01*
X172124000Y-110708072D01*
X173824000Y-110708072D01*
X173948482Y-110695812D01*
X174068180Y-110659502D01*
X174178494Y-110600537D01*
X174275185Y-110521185D01*
X174354537Y-110424494D01*
X174413502Y-110314180D01*
X174449812Y-110194482D01*
X174462072Y-110070000D01*
X174462072Y-108370000D01*
X174449812Y-108245518D01*
X174413502Y-108125820D01*
X174354537Y-108015506D01*
X174275185Y-107918815D01*
X174178494Y-107839463D01*
X174068180Y-107780498D01*
X173948482Y-107744188D01*
X173824000Y-107731928D01*
X172124000Y-107731928D01*
X171999518Y-107744188D01*
X171879820Y-107780498D01*
X171769506Y-107839463D01*
X171672815Y-107918815D01*
X171593463Y-108015506D01*
X171534498Y-108125820D01*
X171512487Y-108198380D01*
X171380632Y-108066525D01*
X171137411Y-107904010D01*
X170867158Y-107792068D01*
X170580260Y-107735000D01*
X170287740Y-107735000D01*
X170000842Y-107792068D01*
X169730589Y-107904010D01*
X169487368Y-108066525D01*
X169280525Y-108273368D01*
X169164000Y-108447760D01*
X169047475Y-108273368D01*
X168840632Y-108066525D01*
X168597411Y-107904010D01*
X168327158Y-107792068D01*
X168040260Y-107735000D01*
X167747740Y-107735000D01*
X167460842Y-107792068D01*
X167190589Y-107904010D01*
X166947368Y-108066525D01*
X166740525Y-108273368D01*
X166624000Y-108447760D01*
X166507475Y-108273368D01*
X166300632Y-108066525D01*
X166057411Y-107904010D01*
X165787158Y-107792068D01*
X165500260Y-107735000D01*
X165207740Y-107735000D01*
X164920842Y-107792068D01*
X164887999Y-107805672D01*
X164887999Y-97344890D01*
X172144524Y-97344890D01*
X172146446Y-97357261D01*
X172246146Y-97631009D01*
X172397336Y-97880046D01*
X172594205Y-98094802D01*
X172829188Y-98267025D01*
X173093255Y-98390096D01*
X173376258Y-98459285D01*
X173609000Y-98315232D01*
X173609000Y-97115000D01*
X172265845Y-97115000D01*
X172144524Y-97344890D01*
X164887999Y-97344890D01*
X164887999Y-95561551D01*
X164891796Y-95522998D01*
X164887999Y-95484445D01*
X164887999Y-95484438D01*
X164876640Y-95369112D01*
X164831753Y-95221139D01*
X164758861Y-95084766D01*
X164738000Y-95059347D01*
X164738000Y-95021061D01*
X164698226Y-94821102D01*
X164620205Y-94632744D01*
X164506937Y-94463226D01*
X164362774Y-94319063D01*
X164193256Y-94205795D01*
X164004898Y-94127774D01*
X163804939Y-94088000D01*
X163601061Y-94088000D01*
X163401102Y-94127774D01*
X163212744Y-94205795D01*
X163043226Y-94319063D01*
X162899063Y-94463226D01*
X162785795Y-94632744D01*
X162707774Y-94821102D01*
X162668000Y-95021061D01*
X162668000Y-95047842D01*
X161345843Y-96370000D01*
X154602711Y-96370000D01*
X154583774Y-96351063D01*
X154414256Y-96237795D01*
X154225898Y-96159774D01*
X154025939Y-96120000D01*
X153822061Y-96120000D01*
X153622102Y-96159774D01*
X153433744Y-96237795D01*
X153264226Y-96351063D01*
X153120063Y-96495226D01*
X153006795Y-96664744D01*
X152928774Y-96853102D01*
X152889000Y-97053061D01*
X152889000Y-97256939D01*
X152928774Y-97456898D01*
X153006795Y-97645256D01*
X153120063Y-97814774D01*
X153264226Y-97958937D01*
X153433744Y-98072205D01*
X153622102Y-98150226D01*
X153822061Y-98190000D01*
X154025939Y-98190000D01*
X154225898Y-98150226D01*
X154414256Y-98072205D01*
X154583774Y-97958937D01*
X154602711Y-97940000D01*
X159366410Y-97940000D01*
X159366000Y-97942061D01*
X159366000Y-98004198D01*
X155895199Y-101475000D01*
X152976711Y-101475000D01*
X152932774Y-101431063D01*
X152763256Y-101317795D01*
X152574898Y-101239774D01*
X152374939Y-101200000D01*
X152171061Y-101200000D01*
X151971102Y-101239774D01*
X151782744Y-101317795D01*
X151613226Y-101431063D01*
X151469063Y-101575226D01*
X151355795Y-101744744D01*
X151277774Y-101933102D01*
X151238000Y-102133061D01*
X151238000Y-102336939D01*
X151277774Y-102536898D01*
X151355795Y-102725256D01*
X151469063Y-102894774D01*
X151613226Y-103038937D01*
X151782744Y-103152205D01*
X151971102Y-103230226D01*
X152171061Y-103270000D01*
X152374939Y-103270000D01*
X152574898Y-103230226D01*
X152763256Y-103152205D01*
X152932774Y-103038937D01*
X152976711Y-102995000D01*
X156172678Y-102995000D01*
X156210000Y-102998676D01*
X156247322Y-102995000D01*
X156247333Y-102995000D01*
X156358986Y-102984003D01*
X156502247Y-102940546D01*
X156634276Y-102869974D01*
X156750001Y-102775001D01*
X156773804Y-102745997D01*
X160440802Y-99079000D01*
X160502939Y-99079000D01*
X160702898Y-99039226D01*
X160891256Y-98961205D01*
X161060774Y-98847937D01*
X161204937Y-98703774D01*
X161318205Y-98534256D01*
X161396226Y-98345898D01*
X161436000Y-98145939D01*
X161436000Y-97942061D01*
X161435590Y-97940000D01*
X161632447Y-97940000D01*
X161671000Y-97943797D01*
X161709553Y-97940000D01*
X161709561Y-97940000D01*
X161824887Y-97928641D01*
X161972860Y-97883754D01*
X162109233Y-97810862D01*
X162228764Y-97712764D01*
X162253347Y-97682810D01*
X163317999Y-96618158D01*
X163317999Y-107821411D01*
X163247158Y-107792068D01*
X162960260Y-107735000D01*
X162667740Y-107735000D01*
X162380842Y-107792068D01*
X162110589Y-107904010D01*
X161867368Y-108066525D01*
X161660525Y-108273368D01*
X161544000Y-108447760D01*
X161427475Y-108273368D01*
X161220632Y-108066525D01*
X160977411Y-107904010D01*
X160707158Y-107792068D01*
X160420260Y-107735000D01*
X160127740Y-107735000D01*
X159840842Y-107792068D01*
X159570589Y-107904010D01*
X159327368Y-108066525D01*
X159120525Y-108273368D01*
X159004000Y-108447760D01*
X158887475Y-108273368D01*
X158680632Y-108066525D01*
X158437411Y-107904010D01*
X158167158Y-107792068D01*
X157880260Y-107735000D01*
X157587740Y-107735000D01*
X157300842Y-107792068D01*
X157030589Y-107904010D01*
X156787368Y-108066525D01*
X156580525Y-108273368D01*
X156464000Y-108447760D01*
X156347475Y-108273368D01*
X156140632Y-108066525D01*
X155897411Y-107904010D01*
X155627158Y-107792068D01*
X155340260Y-107735000D01*
X155047740Y-107735000D01*
X154760842Y-107792068D01*
X154490589Y-107904010D01*
X154247368Y-108066525D01*
X154040525Y-108273368D01*
X153924000Y-108447760D01*
X153807475Y-108273368D01*
X153600632Y-108066525D01*
X153357411Y-107904010D01*
X153087158Y-107792068D01*
X152800260Y-107735000D01*
X152507740Y-107735000D01*
X152220842Y-107792068D01*
X151950589Y-107904010D01*
X151707368Y-108066525D01*
X151500525Y-108273368D01*
X151384000Y-108447760D01*
X151267475Y-108273368D01*
X151060632Y-108066525D01*
X150817411Y-107904010D01*
X150547158Y-107792068D01*
X150260260Y-107735000D01*
X149967740Y-107735000D01*
X149680842Y-107792068D01*
X149410589Y-107904010D01*
X149167368Y-108066525D01*
X148960525Y-108273368D01*
X148844000Y-108447760D01*
X148727475Y-108273368D01*
X148520632Y-108066525D01*
X148277411Y-107904010D01*
X148007158Y-107792068D01*
X147720260Y-107735000D01*
X147427740Y-107735000D01*
X147140842Y-107792068D01*
X146870589Y-107904010D01*
X146627368Y-108066525D01*
X146420525Y-108273368D01*
X146304000Y-108447760D01*
X146187475Y-108273368D01*
X145980632Y-108066525D01*
X145737411Y-107904010D01*
X145467158Y-107792068D01*
X145180260Y-107735000D01*
X144887740Y-107735000D01*
X144600842Y-107792068D01*
X144330589Y-107904010D01*
X144087368Y-108066525D01*
X143880525Y-108273368D01*
X143764000Y-108447760D01*
X143647475Y-108273368D01*
X143440632Y-108066525D01*
X143197411Y-107904010D01*
X142927158Y-107792068D01*
X142640260Y-107735000D01*
X142347740Y-107735000D01*
X142060842Y-107792068D01*
X141790589Y-107904010D01*
X141547368Y-108066525D01*
X141340525Y-108273368D01*
X141224000Y-108447760D01*
X141107475Y-108273368D01*
X140900632Y-108066525D01*
X140657411Y-107904010D01*
X140387158Y-107792068D01*
X140100260Y-107735000D01*
X139807740Y-107735000D01*
X139520842Y-107792068D01*
X139250589Y-107904010D01*
X139007368Y-108066525D01*
X138800525Y-108273368D01*
X138638010Y-108516589D01*
X138526068Y-108786842D01*
X138469000Y-109073740D01*
X132865715Y-109073740D01*
X132955561Y-108856834D01*
X133028000Y-108492656D01*
X133028000Y-108121344D01*
X132955561Y-107757166D01*
X132813466Y-107414118D01*
X132607175Y-107105382D01*
X132344618Y-106842825D01*
X132035882Y-106636534D01*
X131692834Y-106494439D01*
X131328656Y-106422000D01*
X130957344Y-106422000D01*
X130593166Y-106494439D01*
X130250118Y-106636534D01*
X129941382Y-106842825D01*
X129678825Y-107105382D01*
X129593829Y-107232587D01*
X129456605Y-107173000D01*
X128322605Y-108307000D01*
X127963395Y-108307000D01*
X127949253Y-108292858D01*
X128128858Y-108113253D01*
X128143000Y-108127395D01*
X129277000Y-106993395D01*
X129151086Y-106703423D01*
X128818874Y-106537567D01*
X128460688Y-106439710D01*
X128090294Y-106413611D01*
X127721925Y-106460275D01*
X127369738Y-106577906D01*
X127134914Y-106703423D01*
X127025000Y-106956548D01*
X127025000Y-105827047D01*
X127250118Y-105977466D01*
X127593166Y-106119561D01*
X127957344Y-106192000D01*
X128328656Y-106192000D01*
X128692834Y-106119561D01*
X129035882Y-105977466D01*
X129344618Y-105771175D01*
X129607175Y-105508618D01*
X129643000Y-105455002D01*
X129678825Y-105508618D01*
X129941382Y-105771175D01*
X130250118Y-105977466D01*
X130593166Y-106119561D01*
X130957344Y-106192000D01*
X131328656Y-106192000D01*
X131692834Y-106119561D01*
X132035882Y-105977466D01*
X132344618Y-105771175D01*
X132607175Y-105508618D01*
X132813466Y-105199882D01*
X132955561Y-104856834D01*
X133028000Y-104492656D01*
X133028000Y-104121344D01*
X132955561Y-103757166D01*
X132813466Y-103414118D01*
X132607175Y-103105382D01*
X132344618Y-102842825D01*
X132035882Y-102636534D01*
X131692834Y-102494439D01*
X131328656Y-102422000D01*
X130957344Y-102422000D01*
X130593166Y-102494439D01*
X130250118Y-102636534D01*
X129941382Y-102842825D01*
X129678825Y-103105382D01*
X129643000Y-103158998D01*
X129607175Y-103105382D01*
X129344618Y-102842825D01*
X129035882Y-102636534D01*
X128692834Y-102494439D01*
X128328656Y-102422000D01*
X127957344Y-102422000D01*
X127593166Y-102494439D01*
X127250118Y-102636534D01*
X127025000Y-102786953D01*
X127025000Y-101827047D01*
X127250118Y-101977466D01*
X127593166Y-102119561D01*
X127957344Y-102192000D01*
X128328656Y-102192000D01*
X128692834Y-102119561D01*
X129035882Y-101977466D01*
X129344618Y-101771175D01*
X129607175Y-101508618D01*
X129643000Y-101455002D01*
X129678825Y-101508618D01*
X129941382Y-101771175D01*
X130250118Y-101977466D01*
X130593166Y-102119561D01*
X130957344Y-102192000D01*
X131328656Y-102192000D01*
X131692834Y-102119561D01*
X132035882Y-101977466D01*
X132344618Y-101771175D01*
X132607175Y-101508618D01*
X132813466Y-101199882D01*
X132955561Y-100856834D01*
X133028000Y-100492656D01*
X133028000Y-100121344D01*
X132955561Y-99757166D01*
X132813466Y-99414118D01*
X132607175Y-99105382D01*
X132344618Y-98842825D01*
X132035882Y-98636534D01*
X131692834Y-98494439D01*
X131328656Y-98422000D01*
X130957344Y-98422000D01*
X130593166Y-98494439D01*
X130250118Y-98636534D01*
X129941382Y-98842825D01*
X129678825Y-99105382D01*
X129643000Y-99158998D01*
X129607175Y-99105382D01*
X129344618Y-98842825D01*
X129035882Y-98636534D01*
X128692834Y-98494439D01*
X128328656Y-98422000D01*
X127957344Y-98422000D01*
X127593166Y-98494439D01*
X127250118Y-98636534D01*
X127025000Y-98786953D01*
X127025000Y-98195072D01*
X129393000Y-98195072D01*
X129517482Y-98182812D01*
X129637180Y-98146502D01*
X129747494Y-98087537D01*
X129844185Y-98008185D01*
X129923537Y-97911494D01*
X129982502Y-97801180D01*
X129983140Y-97799077D01*
X130250118Y-97977466D01*
X130593166Y-98119561D01*
X130957344Y-98192000D01*
X131328656Y-98192000D01*
X131692834Y-98119561D01*
X132035882Y-97977466D01*
X132344618Y-97771175D01*
X132607175Y-97508618D01*
X132813466Y-97199882D01*
X132955561Y-96856834D01*
X133028000Y-96492656D01*
X133028000Y-96121344D01*
X132955561Y-95757166D01*
X132813466Y-95414118D01*
X132607175Y-95105382D01*
X132344618Y-94842825D01*
X132035882Y-94636534D01*
X131692834Y-94494439D01*
X131328656Y-94422000D01*
X130957344Y-94422000D01*
X130593166Y-94494439D01*
X130250118Y-94636534D01*
X129983140Y-94814923D01*
X129982502Y-94812820D01*
X129923537Y-94702506D01*
X129844185Y-94605815D01*
X129747494Y-94526463D01*
X129637180Y-94467498D01*
X129517482Y-94431188D01*
X129393000Y-94418928D01*
X127025000Y-94418928D01*
X127025000Y-87274000D01*
X174879000Y-87274000D01*
X174879000Y-93095937D01*
G37*
G04 #@! TD.AperFunction*
M02*
