G04 #@! TF.GenerationSoftware,KiCad,Pcbnew,(5.1.10)-1*
G04 #@! TF.CreationDate,2021-07-26T15:21:50+02:00*
G04 #@! TF.ProjectId,pcb-esp32-power,7063622d-6573-4703-9332-2d706f776572,rev?*
G04 #@! TF.SameCoordinates,Original*
G04 #@! TF.FileFunction,Copper,L2,Bot*
G04 #@! TF.FilePolarity,Positive*
%FSLAX46Y46*%
G04 Gerber Fmt 4.6, Leading zero omitted, Abs format (unit mm)*
G04 Created by KiCad (PCBNEW (5.1.10)-1) date 2021-07-26 15:21:50*
%MOMM*%
%LPD*%
G01*
G04 APERTURE LIST*
G04 #@! TA.AperFunction,ComponentPad*
%ADD10C,1.700000*%
G04 #@! TD*
G04 #@! TA.AperFunction,ComponentPad*
%ADD11O,1.700000X1.700000*%
G04 #@! TD*
G04 #@! TA.AperFunction,ComponentPad*
%ADD12R,1.700000X1.700000*%
G04 #@! TD*
G04 #@! TA.AperFunction,ComponentPad*
%ADD13O,2.000000X1.700000*%
G04 #@! TD*
G04 #@! TA.AperFunction,ComponentPad*
%ADD14R,2.500000X2.500000*%
G04 #@! TD*
G04 #@! TA.AperFunction,ComponentPad*
%ADD15C,2.500000*%
G04 #@! TD*
G04 #@! TA.AperFunction,ViaPad*
%ADD16C,0.800000*%
G04 #@! TD*
G04 #@! TA.AperFunction,Conductor*
%ADD17C,0.400000*%
G04 #@! TD*
G04 #@! TA.AperFunction,Conductor*
%ADD18C,0.254000*%
G04 #@! TD*
G04 #@! TA.AperFunction,Conductor*
%ADD19C,0.100000*%
G04 #@! TD*
G04 APERTURE END LIST*
D10*
X137766000Y-90282000D03*
D11*
X137766000Y-92822000D03*
D10*
X156366000Y-90282000D03*
D12*
X137766000Y-101582000D03*
X156366000Y-101582000D03*
D11*
X156366000Y-92822000D03*
D12*
X137766000Y-104122000D03*
X156366000Y-104122000D03*
G04 #@! TA.AperFunction,ComponentPad*
G36*
G01*
X170192000Y-91606000D02*
X171692000Y-91606000D01*
G75*
G02*
X171942000Y-91856000I0J-250000D01*
G01*
X171942000Y-93056000D01*
G75*
G02*
X171692000Y-93306000I-250000J0D01*
G01*
X170192000Y-93306000D01*
G75*
G02*
X169942000Y-93056000I0J250000D01*
G01*
X169942000Y-91856000D01*
G75*
G02*
X170192000Y-91606000I250000J0D01*
G01*
G37*
G04 #@! TD.AperFunction*
D13*
X170942000Y-94956000D03*
D12*
X172974000Y-109220000D03*
D11*
X170434000Y-109220000D03*
X167894000Y-109220000D03*
X165354000Y-109220000D03*
X162814000Y-109220000D03*
X160274000Y-109220000D03*
X157734000Y-109220000D03*
X155194000Y-109220000D03*
X152654000Y-109220000D03*
X150114000Y-109220000D03*
X147574000Y-109220000D03*
X145034000Y-109220000D03*
X142494000Y-109220000D03*
X139954000Y-109220000D03*
X134874000Y-132080000D03*
X137414000Y-132080000D03*
X139954000Y-132080000D03*
X142494000Y-132080000D03*
X145034000Y-132080000D03*
X147574000Y-132080000D03*
X150114000Y-132080000D03*
X152654000Y-132080000D03*
X155194000Y-132080000D03*
X157734000Y-132080000D03*
X160274000Y-132080000D03*
X162814000Y-132080000D03*
X165354000Y-132080000D03*
X167894000Y-132080000D03*
X170434000Y-132080000D03*
X172974000Y-132080000D03*
D14*
X128143000Y-96307000D03*
D15*
X128143000Y-100307000D03*
X128143000Y-104307000D03*
X128143000Y-108307000D03*
X128143000Y-112307000D03*
X128143000Y-116307000D03*
X128143000Y-120307000D03*
X128143000Y-124307000D03*
X131143000Y-96307000D03*
X131143000Y-100307000D03*
X131143000Y-104307000D03*
X131143000Y-108307000D03*
X131143000Y-112307000D03*
X131143000Y-116307000D03*
X131143000Y-120307000D03*
X131143000Y-124307000D03*
D16*
X145376900Y-122405200D03*
X144907000Y-116052633D03*
X144907000Y-114935000D03*
X154870800Y-122680700D03*
X140551300Y-120206300D03*
X151892000Y-125006600D03*
X163131000Y-122783700D03*
X160724700Y-97586500D03*
X153930000Y-112274000D03*
X149617900Y-112149600D03*
X133924000Y-94052300D03*
X161443100Y-89651600D03*
X169658100Y-112289700D03*
X162052000Y-113450500D03*
X160724700Y-101321700D03*
X160731700Y-93825700D03*
X168815100Y-100285400D03*
X144907000Y-118287900D03*
X144907000Y-117170266D03*
X146177000Y-117170266D03*
X146177000Y-114935000D03*
X146177000Y-118287900D03*
X146177000Y-116052633D03*
X134927100Y-105726700D03*
X154884000Y-107355700D03*
D17*
X170942000Y-92456000D02*
X156464000Y-106934000D01*
X156464000Y-106934000D02*
X156464000Y-113507400D01*
X156464000Y-113507400D02*
X147566200Y-122405200D01*
X147566200Y-122405200D02*
X145376900Y-122405200D01*
X137766000Y-104122000D02*
X136515700Y-104122000D01*
X131143000Y-124307000D02*
X134927100Y-120522900D01*
X134927100Y-120522900D02*
X134927100Y-105726700D01*
X134927100Y-105726700D02*
X136515700Y-104138100D01*
X136515700Y-104138100D02*
X136515700Y-104122000D01*
X137766000Y-104122000D02*
X137766000Y-101582000D01*
X156366000Y-104122000D02*
X156366000Y-105372300D01*
X156366000Y-105372300D02*
X154884000Y-106854300D01*
X154884000Y-106854300D02*
X154884000Y-107355700D01*
X156366000Y-104122000D02*
X156366000Y-101582000D01*
D18*
X174340000Y-107997793D02*
X174275185Y-107918815D01*
X174178494Y-107839463D01*
X174068180Y-107780498D01*
X173948482Y-107744188D01*
X173824000Y-107731928D01*
X172124000Y-107731928D01*
X171999518Y-107744188D01*
X171879820Y-107780498D01*
X171769506Y-107839463D01*
X171672815Y-107918815D01*
X171593463Y-108015506D01*
X171534498Y-108125820D01*
X171512487Y-108198380D01*
X171380632Y-108066525D01*
X171137411Y-107904010D01*
X170867158Y-107792068D01*
X170580260Y-107735000D01*
X170287740Y-107735000D01*
X170000842Y-107792068D01*
X169730589Y-107904010D01*
X169487368Y-108066525D01*
X169280525Y-108273368D01*
X169164000Y-108447760D01*
X169047475Y-108273368D01*
X168840632Y-108066525D01*
X168597411Y-107904010D01*
X168327158Y-107792068D01*
X168040260Y-107735000D01*
X167747740Y-107735000D01*
X167460842Y-107792068D01*
X167190589Y-107904010D01*
X166947368Y-108066525D01*
X166740525Y-108273368D01*
X166624000Y-108447760D01*
X166507475Y-108273368D01*
X166300632Y-108066525D01*
X166057411Y-107904010D01*
X165787158Y-107792068D01*
X165500260Y-107735000D01*
X165207740Y-107735000D01*
X164920842Y-107792068D01*
X164650589Y-107904010D01*
X164407368Y-108066525D01*
X164200525Y-108273368D01*
X164084000Y-108447760D01*
X163967475Y-108273368D01*
X163760632Y-108066525D01*
X163517411Y-107904010D01*
X163247158Y-107792068D01*
X162960260Y-107735000D01*
X162667740Y-107735000D01*
X162380842Y-107792068D01*
X162110589Y-107904010D01*
X161867368Y-108066525D01*
X161660525Y-108273368D01*
X161544000Y-108447760D01*
X161427475Y-108273368D01*
X161220632Y-108066525D01*
X160977411Y-107904010D01*
X160707158Y-107792068D01*
X160420260Y-107735000D01*
X160127740Y-107735000D01*
X159840842Y-107792068D01*
X159570589Y-107904010D01*
X159327368Y-108066525D01*
X159120525Y-108273368D01*
X159004000Y-108447760D01*
X158887475Y-108273368D01*
X158680632Y-108066525D01*
X158437411Y-107904010D01*
X158167158Y-107792068D01*
X157880260Y-107735000D01*
X157587740Y-107735000D01*
X157300842Y-107792068D01*
X157299000Y-107792831D01*
X157299000Y-107279867D01*
X169445000Y-95133869D01*
X169350524Y-95312890D01*
X169352446Y-95325261D01*
X169452146Y-95599009D01*
X169603336Y-95848046D01*
X169800205Y-96062802D01*
X170035188Y-96235025D01*
X170299255Y-96358096D01*
X170582258Y-96427285D01*
X170815000Y-96283232D01*
X170815000Y-95083000D01*
X171069000Y-95083000D01*
X171069000Y-96283232D01*
X171301742Y-96427285D01*
X171584745Y-96358096D01*
X171848812Y-96235025D01*
X172083795Y-96062802D01*
X172280664Y-95848046D01*
X172431854Y-95599009D01*
X172531554Y-95325261D01*
X172533476Y-95312890D01*
X172412155Y-95083000D01*
X171069000Y-95083000D01*
X170815000Y-95083000D01*
X170795000Y-95083000D01*
X170795000Y-94829000D01*
X170815000Y-94829000D01*
X170815000Y-94809000D01*
X171069000Y-94809000D01*
X171069000Y-94829000D01*
X172412155Y-94829000D01*
X172533476Y-94599110D01*
X172531554Y-94586739D01*
X172431854Y-94312991D01*
X172280664Y-94063954D01*
X172083795Y-93849198D01*
X172083407Y-93848914D01*
X172185386Y-93794405D01*
X172319962Y-93683962D01*
X172430405Y-93549386D01*
X172512472Y-93395850D01*
X172563008Y-93229254D01*
X172580072Y-93056000D01*
X172580072Y-91856000D01*
X172563008Y-91682746D01*
X172512472Y-91516150D01*
X172430405Y-91362614D01*
X172319962Y-91228038D01*
X172185386Y-91117595D01*
X172031850Y-91035528D01*
X171865254Y-90984992D01*
X171692000Y-90967928D01*
X170192000Y-90967928D01*
X170018746Y-90984992D01*
X169852150Y-91035528D01*
X169698614Y-91117595D01*
X169564038Y-91228038D01*
X169453595Y-91362614D01*
X169371528Y-91516150D01*
X169320992Y-91682746D01*
X169303928Y-91856000D01*
X169303928Y-92913203D01*
X157854072Y-104363061D01*
X157854072Y-103272000D01*
X157841812Y-103147518D01*
X157805502Y-103027820D01*
X157746537Y-102917506D01*
X157692778Y-102852000D01*
X157746537Y-102786494D01*
X157805502Y-102676180D01*
X157841812Y-102556482D01*
X157854072Y-102432000D01*
X157854072Y-100732000D01*
X157841812Y-100607518D01*
X157805502Y-100487820D01*
X157746537Y-100377506D01*
X157667185Y-100280815D01*
X157570494Y-100201463D01*
X157460180Y-100142498D01*
X157340482Y-100106188D01*
X157216000Y-100093928D01*
X155516000Y-100093928D01*
X155391518Y-100106188D01*
X155271820Y-100142498D01*
X155161506Y-100201463D01*
X155064815Y-100280815D01*
X154985463Y-100377506D01*
X154926498Y-100487820D01*
X154890188Y-100607518D01*
X154877928Y-100732000D01*
X154877928Y-102432000D01*
X154890188Y-102556482D01*
X154926498Y-102676180D01*
X154985463Y-102786494D01*
X155039222Y-102852000D01*
X154985463Y-102917506D01*
X154926498Y-103027820D01*
X154890188Y-103147518D01*
X154877928Y-103272000D01*
X154877928Y-104972000D01*
X154890188Y-105096482D01*
X154926498Y-105216180D01*
X154985463Y-105326494D01*
X155064815Y-105423185D01*
X155102951Y-105454482D01*
X154322579Y-106234854D01*
X154290709Y-106261009D01*
X154187744Y-106386474D01*
X154186364Y-106388155D01*
X154108828Y-106533214D01*
X154061082Y-106690612D01*
X154057187Y-106730163D01*
X153966795Y-106865444D01*
X153888774Y-107053802D01*
X153849000Y-107253761D01*
X153849000Y-107457639D01*
X153888774Y-107657598D01*
X153966795Y-107845956D01*
X154080063Y-108015474D01*
X154189241Y-108124652D01*
X154040525Y-108273368D01*
X153924000Y-108447760D01*
X153807475Y-108273368D01*
X153600632Y-108066525D01*
X153357411Y-107904010D01*
X153087158Y-107792068D01*
X152800260Y-107735000D01*
X152507740Y-107735000D01*
X152220842Y-107792068D01*
X151950589Y-107904010D01*
X151707368Y-108066525D01*
X151500525Y-108273368D01*
X151384000Y-108447760D01*
X151267475Y-108273368D01*
X151060632Y-108066525D01*
X150817411Y-107904010D01*
X150547158Y-107792068D01*
X150260260Y-107735000D01*
X149967740Y-107735000D01*
X149680842Y-107792068D01*
X149410589Y-107904010D01*
X149167368Y-108066525D01*
X148960525Y-108273368D01*
X148844000Y-108447760D01*
X148727475Y-108273368D01*
X148520632Y-108066525D01*
X148277411Y-107904010D01*
X148007158Y-107792068D01*
X147720260Y-107735000D01*
X147427740Y-107735000D01*
X147140842Y-107792068D01*
X146870589Y-107904010D01*
X146627368Y-108066525D01*
X146420525Y-108273368D01*
X146304000Y-108447760D01*
X146187475Y-108273368D01*
X145980632Y-108066525D01*
X145737411Y-107904010D01*
X145467158Y-107792068D01*
X145180260Y-107735000D01*
X144887740Y-107735000D01*
X144600842Y-107792068D01*
X144330589Y-107904010D01*
X144087368Y-108066525D01*
X143880525Y-108273368D01*
X143764000Y-108447760D01*
X143647475Y-108273368D01*
X143440632Y-108066525D01*
X143197411Y-107904010D01*
X142927158Y-107792068D01*
X142640260Y-107735000D01*
X142347740Y-107735000D01*
X142060842Y-107792068D01*
X141790589Y-107904010D01*
X141547368Y-108066525D01*
X141340525Y-108273368D01*
X141224000Y-108447760D01*
X141107475Y-108273368D01*
X140900632Y-108066525D01*
X140657411Y-107904010D01*
X140387158Y-107792068D01*
X140100260Y-107735000D01*
X139807740Y-107735000D01*
X139520842Y-107792068D01*
X139250589Y-107904010D01*
X139007368Y-108066525D01*
X138800525Y-108273368D01*
X138638010Y-108516589D01*
X138526068Y-108786842D01*
X138469000Y-109073740D01*
X138469000Y-109366260D01*
X138526068Y-109653158D01*
X138638010Y-109923411D01*
X138800525Y-110166632D01*
X139007368Y-110373475D01*
X139250589Y-110535990D01*
X139520842Y-110647932D01*
X139807740Y-110705000D01*
X140100260Y-110705000D01*
X140387158Y-110647932D01*
X140657411Y-110535990D01*
X140900632Y-110373475D01*
X141107475Y-110166632D01*
X141224000Y-109992240D01*
X141340525Y-110166632D01*
X141547368Y-110373475D01*
X141790589Y-110535990D01*
X142060842Y-110647932D01*
X142347740Y-110705000D01*
X142640260Y-110705000D01*
X142927158Y-110647932D01*
X143197411Y-110535990D01*
X143440632Y-110373475D01*
X143647475Y-110166632D01*
X143764000Y-109992240D01*
X143880525Y-110166632D01*
X144087368Y-110373475D01*
X144330589Y-110535990D01*
X144600842Y-110647932D01*
X144887740Y-110705000D01*
X145180260Y-110705000D01*
X145467158Y-110647932D01*
X145737411Y-110535990D01*
X145980632Y-110373475D01*
X146187475Y-110166632D01*
X146304000Y-109992240D01*
X146420525Y-110166632D01*
X146627368Y-110373475D01*
X146870589Y-110535990D01*
X147140842Y-110647932D01*
X147427740Y-110705000D01*
X147720260Y-110705000D01*
X148007158Y-110647932D01*
X148277411Y-110535990D01*
X148520632Y-110373475D01*
X148727475Y-110166632D01*
X148844000Y-109992240D01*
X148960525Y-110166632D01*
X149167368Y-110373475D01*
X149410589Y-110535990D01*
X149680842Y-110647932D01*
X149967740Y-110705000D01*
X150260260Y-110705000D01*
X150547158Y-110647932D01*
X150817411Y-110535990D01*
X151060632Y-110373475D01*
X151267475Y-110166632D01*
X151384000Y-109992240D01*
X151500525Y-110166632D01*
X151707368Y-110373475D01*
X151950589Y-110535990D01*
X152220842Y-110647932D01*
X152507740Y-110705000D01*
X152800260Y-110705000D01*
X153087158Y-110647932D01*
X153357411Y-110535990D01*
X153600632Y-110373475D01*
X153807475Y-110166632D01*
X153924000Y-109992240D01*
X154040525Y-110166632D01*
X154247368Y-110373475D01*
X154490589Y-110535990D01*
X154760842Y-110647932D01*
X155047740Y-110705000D01*
X155340260Y-110705000D01*
X155627158Y-110647932D01*
X155629001Y-110647169D01*
X155629001Y-113161531D01*
X147220333Y-121570200D01*
X145990185Y-121570200D01*
X145867156Y-121487995D01*
X145678798Y-121409974D01*
X145478839Y-121370200D01*
X145274961Y-121370200D01*
X145075002Y-121409974D01*
X144886644Y-121487995D01*
X144717126Y-121601263D01*
X144572963Y-121745426D01*
X144459695Y-121914944D01*
X144381674Y-122103302D01*
X144341900Y-122303261D01*
X144341900Y-122507139D01*
X144381674Y-122707098D01*
X144459695Y-122895456D01*
X144572963Y-123064974D01*
X144717126Y-123209137D01*
X144886644Y-123322405D01*
X145075002Y-123400426D01*
X145274961Y-123440200D01*
X145478839Y-123440200D01*
X145678798Y-123400426D01*
X145867156Y-123322405D01*
X145990185Y-123240200D01*
X147525182Y-123240200D01*
X147566200Y-123244240D01*
X147607218Y-123240200D01*
X147607219Y-123240200D01*
X147729889Y-123228118D01*
X147887287Y-123180372D01*
X148032346Y-123102836D01*
X148159491Y-122998491D01*
X148185646Y-122966621D01*
X157025427Y-114126841D01*
X157057291Y-114100691D01*
X157161636Y-113973546D01*
X157239172Y-113828487D01*
X157286918Y-113671089D01*
X157299000Y-113548419D01*
X157299000Y-113548409D01*
X157303039Y-113507401D01*
X157299000Y-113466393D01*
X157299000Y-110647169D01*
X157300842Y-110647932D01*
X157587740Y-110705000D01*
X157880260Y-110705000D01*
X158167158Y-110647932D01*
X158437411Y-110535990D01*
X158680632Y-110373475D01*
X158887475Y-110166632D01*
X159004000Y-109992240D01*
X159120525Y-110166632D01*
X159327368Y-110373475D01*
X159570589Y-110535990D01*
X159840842Y-110647932D01*
X160127740Y-110705000D01*
X160420260Y-110705000D01*
X160707158Y-110647932D01*
X160977411Y-110535990D01*
X161220632Y-110373475D01*
X161427475Y-110166632D01*
X161544000Y-109992240D01*
X161660525Y-110166632D01*
X161867368Y-110373475D01*
X162110589Y-110535990D01*
X162380842Y-110647932D01*
X162667740Y-110705000D01*
X162960260Y-110705000D01*
X163247158Y-110647932D01*
X163517411Y-110535990D01*
X163760632Y-110373475D01*
X163967475Y-110166632D01*
X164084000Y-109992240D01*
X164200525Y-110166632D01*
X164407368Y-110373475D01*
X164650589Y-110535990D01*
X164920842Y-110647932D01*
X165207740Y-110705000D01*
X165500260Y-110705000D01*
X165787158Y-110647932D01*
X166057411Y-110535990D01*
X166300632Y-110373475D01*
X166507475Y-110166632D01*
X166624000Y-109992240D01*
X166740525Y-110166632D01*
X166947368Y-110373475D01*
X167190589Y-110535990D01*
X167460842Y-110647932D01*
X167747740Y-110705000D01*
X168040260Y-110705000D01*
X168327158Y-110647932D01*
X168597411Y-110535990D01*
X168840632Y-110373475D01*
X169047475Y-110166632D01*
X169164000Y-109992240D01*
X169280525Y-110166632D01*
X169487368Y-110373475D01*
X169730589Y-110535990D01*
X170000842Y-110647932D01*
X170287740Y-110705000D01*
X170580260Y-110705000D01*
X170867158Y-110647932D01*
X171137411Y-110535990D01*
X171380632Y-110373475D01*
X171512487Y-110241620D01*
X171534498Y-110314180D01*
X171593463Y-110424494D01*
X171672815Y-110521185D01*
X171769506Y-110600537D01*
X171879820Y-110659502D01*
X171999518Y-110695812D01*
X172124000Y-110708072D01*
X173824000Y-110708072D01*
X173948482Y-110695812D01*
X174068180Y-110659502D01*
X174178494Y-110600537D01*
X174275185Y-110521185D01*
X174340001Y-110442207D01*
X174340001Y-131510327D01*
X174318157Y-131448748D01*
X174169178Y-131198645D01*
X173974269Y-130982412D01*
X173740920Y-130808359D01*
X173478099Y-130683175D01*
X173330890Y-130638524D01*
X173101000Y-130759845D01*
X173101000Y-131953000D01*
X173121000Y-131953000D01*
X173121000Y-132207000D01*
X173101000Y-132207000D01*
X173101000Y-132227000D01*
X172847000Y-132227000D01*
X172847000Y-132207000D01*
X172827000Y-132207000D01*
X172827000Y-131953000D01*
X172847000Y-131953000D01*
X172847000Y-130759845D01*
X172617110Y-130638524D01*
X172469901Y-130683175D01*
X172207080Y-130808359D01*
X171973731Y-130982412D01*
X171778822Y-131198645D01*
X171709195Y-131315534D01*
X171587475Y-131133368D01*
X171380632Y-130926525D01*
X171137411Y-130764010D01*
X170867158Y-130652068D01*
X170580260Y-130595000D01*
X170287740Y-130595000D01*
X170000842Y-130652068D01*
X169730589Y-130764010D01*
X169487368Y-130926525D01*
X169280525Y-131133368D01*
X169164000Y-131307760D01*
X169047475Y-131133368D01*
X168840632Y-130926525D01*
X168597411Y-130764010D01*
X168327158Y-130652068D01*
X168040260Y-130595000D01*
X167747740Y-130595000D01*
X167460842Y-130652068D01*
X167190589Y-130764010D01*
X166947368Y-130926525D01*
X166740525Y-131133368D01*
X166624000Y-131307760D01*
X166507475Y-131133368D01*
X166300632Y-130926525D01*
X166057411Y-130764010D01*
X165787158Y-130652068D01*
X165500260Y-130595000D01*
X165207740Y-130595000D01*
X164920842Y-130652068D01*
X164650589Y-130764010D01*
X164407368Y-130926525D01*
X164200525Y-131133368D01*
X164084000Y-131307760D01*
X163967475Y-131133368D01*
X163760632Y-130926525D01*
X163517411Y-130764010D01*
X163247158Y-130652068D01*
X162960260Y-130595000D01*
X162667740Y-130595000D01*
X162380842Y-130652068D01*
X162110589Y-130764010D01*
X161867368Y-130926525D01*
X161660525Y-131133368D01*
X161544000Y-131307760D01*
X161427475Y-131133368D01*
X161220632Y-130926525D01*
X160977411Y-130764010D01*
X160707158Y-130652068D01*
X160420260Y-130595000D01*
X160127740Y-130595000D01*
X159840842Y-130652068D01*
X159570589Y-130764010D01*
X159327368Y-130926525D01*
X159120525Y-131133368D01*
X159004000Y-131307760D01*
X158887475Y-131133368D01*
X158680632Y-130926525D01*
X158437411Y-130764010D01*
X158167158Y-130652068D01*
X157880260Y-130595000D01*
X157587740Y-130595000D01*
X157300842Y-130652068D01*
X157030589Y-130764010D01*
X156787368Y-130926525D01*
X156580525Y-131133368D01*
X156464000Y-131307760D01*
X156347475Y-131133368D01*
X156140632Y-130926525D01*
X155897411Y-130764010D01*
X155627158Y-130652068D01*
X155340260Y-130595000D01*
X155047740Y-130595000D01*
X154760842Y-130652068D01*
X154490589Y-130764010D01*
X154247368Y-130926525D01*
X154040525Y-131133368D01*
X153924000Y-131307760D01*
X153807475Y-131133368D01*
X153600632Y-130926525D01*
X153357411Y-130764010D01*
X153087158Y-130652068D01*
X152800260Y-130595000D01*
X152507740Y-130595000D01*
X152220842Y-130652068D01*
X151950589Y-130764010D01*
X151707368Y-130926525D01*
X151500525Y-131133368D01*
X151384000Y-131307760D01*
X151267475Y-131133368D01*
X151060632Y-130926525D01*
X150817411Y-130764010D01*
X150547158Y-130652068D01*
X150260260Y-130595000D01*
X149967740Y-130595000D01*
X149680842Y-130652068D01*
X149410589Y-130764010D01*
X149167368Y-130926525D01*
X148960525Y-131133368D01*
X148844000Y-131307760D01*
X148727475Y-131133368D01*
X148520632Y-130926525D01*
X148277411Y-130764010D01*
X148007158Y-130652068D01*
X147720260Y-130595000D01*
X147427740Y-130595000D01*
X147140842Y-130652068D01*
X146870589Y-130764010D01*
X146627368Y-130926525D01*
X146420525Y-131133368D01*
X146304000Y-131307760D01*
X146187475Y-131133368D01*
X145980632Y-130926525D01*
X145737411Y-130764010D01*
X145467158Y-130652068D01*
X145180260Y-130595000D01*
X144887740Y-130595000D01*
X144600842Y-130652068D01*
X144330589Y-130764010D01*
X144087368Y-130926525D01*
X143880525Y-131133368D01*
X143764000Y-131307760D01*
X143647475Y-131133368D01*
X143440632Y-130926525D01*
X143197411Y-130764010D01*
X142927158Y-130652068D01*
X142640260Y-130595000D01*
X142347740Y-130595000D01*
X142060842Y-130652068D01*
X141790589Y-130764010D01*
X141547368Y-130926525D01*
X141340525Y-131133368D01*
X141224000Y-131307760D01*
X141107475Y-131133368D01*
X140900632Y-130926525D01*
X140657411Y-130764010D01*
X140387158Y-130652068D01*
X140100260Y-130595000D01*
X139807740Y-130595000D01*
X139520842Y-130652068D01*
X139250589Y-130764010D01*
X139007368Y-130926525D01*
X138800525Y-131133368D01*
X138684000Y-131307760D01*
X138567475Y-131133368D01*
X138360632Y-130926525D01*
X138117411Y-130764010D01*
X137847158Y-130652068D01*
X137560260Y-130595000D01*
X137267740Y-130595000D01*
X136980842Y-130652068D01*
X136710589Y-130764010D01*
X136467368Y-130926525D01*
X136260525Y-131133368D01*
X136144000Y-131307760D01*
X136027475Y-131133368D01*
X135820632Y-130926525D01*
X135577411Y-130764010D01*
X135307158Y-130652068D01*
X135020260Y-130595000D01*
X134727740Y-130595000D01*
X134440842Y-130652068D01*
X134170589Y-130764010D01*
X133927368Y-130926525D01*
X133720525Y-131133368D01*
X133558010Y-131376589D01*
X133446068Y-131646842D01*
X133389000Y-131933740D01*
X133389000Y-132226260D01*
X133446068Y-132513158D01*
X133558010Y-132783411D01*
X133720525Y-133026632D01*
X133927368Y-133233475D01*
X134086794Y-133340000D01*
X127025000Y-133340000D01*
X127025000Y-125827047D01*
X127250118Y-125977466D01*
X127593166Y-126119561D01*
X127957344Y-126192000D01*
X128328656Y-126192000D01*
X128692834Y-126119561D01*
X129035882Y-125977466D01*
X129344618Y-125771175D01*
X129607175Y-125508618D01*
X129643000Y-125455002D01*
X129678825Y-125508618D01*
X129941382Y-125771175D01*
X130250118Y-125977466D01*
X130593166Y-126119561D01*
X130957344Y-126192000D01*
X131328656Y-126192000D01*
X131692834Y-126119561D01*
X132035882Y-125977466D01*
X132344618Y-125771175D01*
X132607175Y-125508618D01*
X132813466Y-125199882D01*
X132955561Y-124856834D01*
X133028000Y-124492656D01*
X133028000Y-124121344D01*
X132955561Y-123757166D01*
X132931585Y-123699283D01*
X135488533Y-121142336D01*
X135520391Y-121116191D01*
X135624736Y-120989046D01*
X135702272Y-120843987D01*
X135750018Y-120686589D01*
X135762100Y-120563919D01*
X135762100Y-120563918D01*
X135766140Y-120522900D01*
X135762100Y-120481882D01*
X135762100Y-106339985D01*
X135844305Y-106216956D01*
X135922326Y-106028598D01*
X135951193Y-105883475D01*
X136440775Y-105393893D01*
X136464815Y-105423185D01*
X136561506Y-105502537D01*
X136671820Y-105561502D01*
X136791518Y-105597812D01*
X136916000Y-105610072D01*
X138616000Y-105610072D01*
X138740482Y-105597812D01*
X138860180Y-105561502D01*
X138970494Y-105502537D01*
X139067185Y-105423185D01*
X139146537Y-105326494D01*
X139205502Y-105216180D01*
X139241812Y-105096482D01*
X139254072Y-104972000D01*
X139254072Y-103272000D01*
X139241812Y-103147518D01*
X139205502Y-103027820D01*
X139146537Y-102917506D01*
X139092778Y-102852000D01*
X139146537Y-102786494D01*
X139205502Y-102676180D01*
X139241812Y-102556482D01*
X139254072Y-102432000D01*
X139254072Y-100732000D01*
X139241812Y-100607518D01*
X139205502Y-100487820D01*
X139146537Y-100377506D01*
X139067185Y-100280815D01*
X138970494Y-100201463D01*
X138860180Y-100142498D01*
X138740482Y-100106188D01*
X138616000Y-100093928D01*
X136916000Y-100093928D01*
X136791518Y-100106188D01*
X136671820Y-100142498D01*
X136561506Y-100201463D01*
X136464815Y-100280815D01*
X136385463Y-100377506D01*
X136326498Y-100487820D01*
X136290188Y-100607518D01*
X136277928Y-100732000D01*
X136277928Y-102432000D01*
X136290188Y-102556482D01*
X136326498Y-102676180D01*
X136385463Y-102786494D01*
X136439222Y-102852000D01*
X136385463Y-102917506D01*
X136326498Y-103027820D01*
X136290188Y-103147518D01*
X136277928Y-103272000D01*
X136277928Y-103321555D01*
X136194613Y-103346828D01*
X136049554Y-103424364D01*
X135922409Y-103528709D01*
X135822580Y-103650351D01*
X134770325Y-104702607D01*
X134625202Y-104731474D01*
X134436844Y-104809495D01*
X134267326Y-104922763D01*
X134123163Y-105066926D01*
X134009895Y-105236444D01*
X133931874Y-105424802D01*
X133892100Y-105624761D01*
X133892100Y-105828639D01*
X133931874Y-106028598D01*
X134009895Y-106216956D01*
X134092101Y-106339986D01*
X134092100Y-120177031D01*
X131750717Y-122518415D01*
X131692834Y-122494439D01*
X131328656Y-122422000D01*
X130957344Y-122422000D01*
X130593166Y-122494439D01*
X130250118Y-122636534D01*
X129941382Y-122842825D01*
X129678825Y-123105382D01*
X129643000Y-123158998D01*
X129607175Y-123105382D01*
X129344618Y-122842825D01*
X129035882Y-122636534D01*
X128692834Y-122494439D01*
X128328656Y-122422000D01*
X127957344Y-122422000D01*
X127593166Y-122494439D01*
X127250118Y-122636534D01*
X127025000Y-122786953D01*
X127025000Y-121827047D01*
X127250118Y-121977466D01*
X127593166Y-122119561D01*
X127957344Y-122192000D01*
X128328656Y-122192000D01*
X128692834Y-122119561D01*
X129035882Y-121977466D01*
X129344618Y-121771175D01*
X129607175Y-121508618D01*
X129643000Y-121455002D01*
X129678825Y-121508618D01*
X129941382Y-121771175D01*
X130250118Y-121977466D01*
X130593166Y-122119561D01*
X130957344Y-122192000D01*
X131328656Y-122192000D01*
X131692834Y-122119561D01*
X132035882Y-121977466D01*
X132344618Y-121771175D01*
X132607175Y-121508618D01*
X132813466Y-121199882D01*
X132955561Y-120856834D01*
X133028000Y-120492656D01*
X133028000Y-120121344D01*
X132955561Y-119757166D01*
X132813466Y-119414118D01*
X132607175Y-119105382D01*
X132344618Y-118842825D01*
X132035882Y-118636534D01*
X131692834Y-118494439D01*
X131328656Y-118422000D01*
X130957344Y-118422000D01*
X130593166Y-118494439D01*
X130250118Y-118636534D01*
X129941382Y-118842825D01*
X129678825Y-119105382D01*
X129643000Y-119158998D01*
X129607175Y-119105382D01*
X129344618Y-118842825D01*
X129035882Y-118636534D01*
X128692834Y-118494439D01*
X128328656Y-118422000D01*
X127957344Y-118422000D01*
X127593166Y-118494439D01*
X127250118Y-118636534D01*
X127025000Y-118786953D01*
X127025000Y-117827047D01*
X127250118Y-117977466D01*
X127593166Y-118119561D01*
X127957344Y-118192000D01*
X128328656Y-118192000D01*
X128692834Y-118119561D01*
X129035882Y-117977466D01*
X129344618Y-117771175D01*
X129607175Y-117508618D01*
X129643000Y-117455002D01*
X129678825Y-117508618D01*
X129941382Y-117771175D01*
X130250118Y-117977466D01*
X130593166Y-118119561D01*
X130957344Y-118192000D01*
X131328656Y-118192000D01*
X131692834Y-118119561D01*
X132035882Y-117977466D01*
X132344618Y-117771175D01*
X132607175Y-117508618D01*
X132813466Y-117199882D01*
X132955561Y-116856834D01*
X133028000Y-116492656D01*
X133028000Y-116121344D01*
X132955561Y-115757166D01*
X132813466Y-115414118D01*
X132607175Y-115105382D01*
X132344618Y-114842825D01*
X132035882Y-114636534D01*
X131692834Y-114494439D01*
X131328656Y-114422000D01*
X130957344Y-114422000D01*
X130593166Y-114494439D01*
X130250118Y-114636534D01*
X129941382Y-114842825D01*
X129678825Y-115105382D01*
X129643000Y-115158998D01*
X129607175Y-115105382D01*
X129344618Y-114842825D01*
X129035882Y-114636534D01*
X128692834Y-114494439D01*
X128328656Y-114422000D01*
X127957344Y-114422000D01*
X127593166Y-114494439D01*
X127250118Y-114636534D01*
X127025000Y-114786953D01*
X127025000Y-113657452D01*
X127134914Y-113910577D01*
X127467126Y-114076433D01*
X127825312Y-114174290D01*
X128195706Y-114200389D01*
X128564075Y-114153725D01*
X128916262Y-114036094D01*
X129151086Y-113910577D01*
X129277000Y-113620605D01*
X128143000Y-112486605D01*
X128128858Y-112500748D01*
X127949253Y-112321143D01*
X127963395Y-112307000D01*
X128322605Y-112307000D01*
X129456605Y-113441000D01*
X129593829Y-113381413D01*
X129678825Y-113508618D01*
X129941382Y-113771175D01*
X130250118Y-113977466D01*
X130593166Y-114119561D01*
X130957344Y-114192000D01*
X131328656Y-114192000D01*
X131692834Y-114119561D01*
X132035882Y-113977466D01*
X132344618Y-113771175D01*
X132607175Y-113508618D01*
X132813466Y-113199882D01*
X132955561Y-112856834D01*
X133028000Y-112492656D01*
X133028000Y-112121344D01*
X132955561Y-111757166D01*
X132813466Y-111414118D01*
X132607175Y-111105382D01*
X132344618Y-110842825D01*
X132035882Y-110636534D01*
X131692834Y-110494439D01*
X131328656Y-110422000D01*
X130957344Y-110422000D01*
X130593166Y-110494439D01*
X130250118Y-110636534D01*
X129941382Y-110842825D01*
X129678825Y-111105382D01*
X129593829Y-111232587D01*
X129456605Y-111173000D01*
X128322605Y-112307000D01*
X127963395Y-112307000D01*
X127949253Y-112292858D01*
X128128858Y-112113253D01*
X128143000Y-112127395D01*
X129277000Y-110993395D01*
X129151086Y-110703423D01*
X128818874Y-110537567D01*
X128460688Y-110439710D01*
X128090294Y-110413611D01*
X127721925Y-110460275D01*
X127369738Y-110577906D01*
X127134914Y-110703423D01*
X127025000Y-110956548D01*
X127025000Y-109827047D01*
X127250118Y-109977466D01*
X127593166Y-110119561D01*
X127957344Y-110192000D01*
X128328656Y-110192000D01*
X128692834Y-110119561D01*
X129035882Y-109977466D01*
X129344618Y-109771175D01*
X129607175Y-109508618D01*
X129643000Y-109455002D01*
X129678825Y-109508618D01*
X129941382Y-109771175D01*
X130250118Y-109977466D01*
X130593166Y-110119561D01*
X130957344Y-110192000D01*
X131328656Y-110192000D01*
X131692834Y-110119561D01*
X132035882Y-109977466D01*
X132344618Y-109771175D01*
X132607175Y-109508618D01*
X132813466Y-109199882D01*
X132955561Y-108856834D01*
X133028000Y-108492656D01*
X133028000Y-108121344D01*
X132955561Y-107757166D01*
X132813466Y-107414118D01*
X132607175Y-107105382D01*
X132344618Y-106842825D01*
X132035882Y-106636534D01*
X131692834Y-106494439D01*
X131328656Y-106422000D01*
X130957344Y-106422000D01*
X130593166Y-106494439D01*
X130250118Y-106636534D01*
X129941382Y-106842825D01*
X129678825Y-107105382D01*
X129643000Y-107158998D01*
X129607175Y-107105382D01*
X129344618Y-106842825D01*
X129035882Y-106636534D01*
X128692834Y-106494439D01*
X128328656Y-106422000D01*
X127957344Y-106422000D01*
X127593166Y-106494439D01*
X127250118Y-106636534D01*
X127025000Y-106786953D01*
X127025000Y-105827047D01*
X127250118Y-105977466D01*
X127593166Y-106119561D01*
X127957344Y-106192000D01*
X128328656Y-106192000D01*
X128692834Y-106119561D01*
X129035882Y-105977466D01*
X129344618Y-105771175D01*
X129607175Y-105508618D01*
X129643000Y-105455002D01*
X129678825Y-105508618D01*
X129941382Y-105771175D01*
X130250118Y-105977466D01*
X130593166Y-106119561D01*
X130957344Y-106192000D01*
X131328656Y-106192000D01*
X131692834Y-106119561D01*
X132035882Y-105977466D01*
X132344618Y-105771175D01*
X132607175Y-105508618D01*
X132813466Y-105199882D01*
X132955561Y-104856834D01*
X133028000Y-104492656D01*
X133028000Y-104121344D01*
X132955561Y-103757166D01*
X132813466Y-103414118D01*
X132607175Y-103105382D01*
X132344618Y-102842825D01*
X132035882Y-102636534D01*
X131692834Y-102494439D01*
X131328656Y-102422000D01*
X130957344Y-102422000D01*
X130593166Y-102494439D01*
X130250118Y-102636534D01*
X129941382Y-102842825D01*
X129678825Y-103105382D01*
X129643000Y-103158998D01*
X129607175Y-103105382D01*
X129344618Y-102842825D01*
X129035882Y-102636534D01*
X128692834Y-102494439D01*
X128328656Y-102422000D01*
X127957344Y-102422000D01*
X127593166Y-102494439D01*
X127250118Y-102636534D01*
X127025000Y-102786953D01*
X127025000Y-101827047D01*
X127250118Y-101977466D01*
X127593166Y-102119561D01*
X127957344Y-102192000D01*
X128328656Y-102192000D01*
X128692834Y-102119561D01*
X129035882Y-101977466D01*
X129344618Y-101771175D01*
X129607175Y-101508618D01*
X129643000Y-101455002D01*
X129678825Y-101508618D01*
X129941382Y-101771175D01*
X130250118Y-101977466D01*
X130593166Y-102119561D01*
X130957344Y-102192000D01*
X131328656Y-102192000D01*
X131692834Y-102119561D01*
X132035882Y-101977466D01*
X132344618Y-101771175D01*
X132607175Y-101508618D01*
X132813466Y-101199882D01*
X132955561Y-100856834D01*
X133028000Y-100492656D01*
X133028000Y-100121344D01*
X132955561Y-99757166D01*
X132813466Y-99414118D01*
X132607175Y-99105382D01*
X132344618Y-98842825D01*
X132035882Y-98636534D01*
X131692834Y-98494439D01*
X131328656Y-98422000D01*
X130957344Y-98422000D01*
X130593166Y-98494439D01*
X130250118Y-98636534D01*
X129941382Y-98842825D01*
X129678825Y-99105382D01*
X129643000Y-99158998D01*
X129607175Y-99105382D01*
X129344618Y-98842825D01*
X129035882Y-98636534D01*
X128692834Y-98494439D01*
X128328656Y-98422000D01*
X127957344Y-98422000D01*
X127593166Y-98494439D01*
X127250118Y-98636534D01*
X127025000Y-98786953D01*
X127025000Y-98195072D01*
X129393000Y-98195072D01*
X129517482Y-98182812D01*
X129637180Y-98146502D01*
X129747494Y-98087537D01*
X129844185Y-98008185D01*
X129923537Y-97911494D01*
X129982502Y-97801180D01*
X129983140Y-97799077D01*
X130250118Y-97977466D01*
X130593166Y-98119561D01*
X130957344Y-98192000D01*
X131328656Y-98192000D01*
X131692834Y-98119561D01*
X132035882Y-97977466D01*
X132344618Y-97771175D01*
X132607175Y-97508618D01*
X132813466Y-97199882D01*
X132955561Y-96856834D01*
X133028000Y-96492656D01*
X133028000Y-96121344D01*
X132955561Y-95757166D01*
X132813466Y-95414118D01*
X132607175Y-95105382D01*
X132344618Y-94842825D01*
X132035882Y-94636534D01*
X131692834Y-94494439D01*
X131328656Y-94422000D01*
X130957344Y-94422000D01*
X130593166Y-94494439D01*
X130250118Y-94636534D01*
X129983140Y-94814923D01*
X129982502Y-94812820D01*
X129923537Y-94702506D01*
X129844185Y-94605815D01*
X129747494Y-94526463D01*
X129637180Y-94467498D01*
X129517482Y-94431188D01*
X129393000Y-94418928D01*
X127025000Y-94418928D01*
X127025000Y-93178890D01*
X136324524Y-93178890D01*
X136369175Y-93326099D01*
X136494359Y-93588920D01*
X136668412Y-93822269D01*
X136884645Y-94017178D01*
X137134748Y-94166157D01*
X137409109Y-94263481D01*
X137639000Y-94142814D01*
X137639000Y-92949000D01*
X137893000Y-92949000D01*
X137893000Y-94142814D01*
X138122891Y-94263481D01*
X138397252Y-94166157D01*
X138647355Y-94017178D01*
X138863588Y-93822269D01*
X139037641Y-93588920D01*
X139162825Y-93326099D01*
X139207476Y-93178890D01*
X154924524Y-93178890D01*
X154969175Y-93326099D01*
X155094359Y-93588920D01*
X155268412Y-93822269D01*
X155484645Y-94017178D01*
X155734748Y-94166157D01*
X156009109Y-94263481D01*
X156239000Y-94142814D01*
X156239000Y-92949000D01*
X156493000Y-92949000D01*
X156493000Y-94142814D01*
X156722891Y-94263481D01*
X156997252Y-94166157D01*
X157247355Y-94017178D01*
X157463588Y-93822269D01*
X157637641Y-93588920D01*
X157762825Y-93326099D01*
X157807476Y-93178890D01*
X157686155Y-92949000D01*
X156493000Y-92949000D01*
X156239000Y-92949000D01*
X155045845Y-92949000D01*
X154924524Y-93178890D01*
X139207476Y-93178890D01*
X139086155Y-92949000D01*
X137893000Y-92949000D01*
X137639000Y-92949000D01*
X136445845Y-92949000D01*
X136324524Y-93178890D01*
X127025000Y-93178890D01*
X127025000Y-92465110D01*
X136324524Y-92465110D01*
X136445845Y-92695000D01*
X137639000Y-92695000D01*
X137639000Y-92675000D01*
X137893000Y-92675000D01*
X137893000Y-92695000D01*
X139086155Y-92695000D01*
X139207476Y-92465110D01*
X154924524Y-92465110D01*
X155045845Y-92695000D01*
X156239000Y-92695000D01*
X156239000Y-92675000D01*
X156493000Y-92675000D01*
X156493000Y-92695000D01*
X157686155Y-92695000D01*
X157807476Y-92465110D01*
X157762825Y-92317901D01*
X157637641Y-92055080D01*
X157463588Y-91821731D01*
X157247355Y-91626822D01*
X157135645Y-91560280D01*
X157137157Y-91559472D01*
X157214792Y-91310397D01*
X156366000Y-90461605D01*
X155517208Y-91310397D01*
X155594843Y-91559472D01*
X155596436Y-91560231D01*
X155484645Y-91626822D01*
X155268412Y-91821731D01*
X155094359Y-92055080D01*
X154969175Y-92317901D01*
X154924524Y-92465110D01*
X139207476Y-92465110D01*
X139162825Y-92317901D01*
X139037641Y-92055080D01*
X138863588Y-91821731D01*
X138647355Y-91626822D01*
X138535645Y-91560280D01*
X138537157Y-91559472D01*
X138614792Y-91310397D01*
X137766000Y-90461605D01*
X136917208Y-91310397D01*
X136994843Y-91559472D01*
X136996436Y-91560231D01*
X136884645Y-91626822D01*
X136668412Y-91821731D01*
X136494359Y-92055080D01*
X136369175Y-92317901D01*
X136324524Y-92465110D01*
X127025000Y-92465110D01*
X127025000Y-90350531D01*
X136275389Y-90350531D01*
X136317401Y-90640019D01*
X136415081Y-90915747D01*
X136488528Y-91053157D01*
X136737603Y-91130792D01*
X137586395Y-90282000D01*
X137945605Y-90282000D01*
X138794397Y-91130792D01*
X139043472Y-91053157D01*
X139169371Y-90789117D01*
X139241339Y-90505589D01*
X139249445Y-90350531D01*
X154875389Y-90350531D01*
X154917401Y-90640019D01*
X155015081Y-90915747D01*
X155088528Y-91053157D01*
X155337603Y-91130792D01*
X156186395Y-90282000D01*
X156545605Y-90282000D01*
X157394397Y-91130792D01*
X157643472Y-91053157D01*
X157769371Y-90789117D01*
X157841339Y-90505589D01*
X157856611Y-90213469D01*
X157814599Y-89923981D01*
X157716919Y-89648253D01*
X157643472Y-89510843D01*
X157394397Y-89433208D01*
X156545605Y-90282000D01*
X156186395Y-90282000D01*
X155337603Y-89433208D01*
X155088528Y-89510843D01*
X154962629Y-89774883D01*
X154890661Y-90058411D01*
X154875389Y-90350531D01*
X139249445Y-90350531D01*
X139256611Y-90213469D01*
X139214599Y-89923981D01*
X139116919Y-89648253D01*
X139043472Y-89510843D01*
X138794397Y-89433208D01*
X137945605Y-90282000D01*
X137586395Y-90282000D01*
X136737603Y-89433208D01*
X136488528Y-89510843D01*
X136362629Y-89774883D01*
X136290661Y-90058411D01*
X136275389Y-90350531D01*
X127025000Y-90350531D01*
X127025000Y-89253603D01*
X136917208Y-89253603D01*
X137766000Y-90102395D01*
X138614792Y-89253603D01*
X155517208Y-89253603D01*
X156366000Y-90102395D01*
X157214792Y-89253603D01*
X157137157Y-89004528D01*
X156873117Y-88878629D01*
X156589589Y-88806661D01*
X156297469Y-88791389D01*
X156007981Y-88833401D01*
X155732253Y-88931081D01*
X155594843Y-89004528D01*
X155517208Y-89253603D01*
X138614792Y-89253603D01*
X138537157Y-89004528D01*
X138273117Y-88878629D01*
X137989589Y-88806661D01*
X137697469Y-88791389D01*
X137407981Y-88833401D01*
X137132253Y-88931081D01*
X136994843Y-89004528D01*
X136917208Y-89253603D01*
X127025000Y-89253603D01*
X127025000Y-87274000D01*
X174340000Y-87274000D01*
X174340000Y-107997793D01*
G04 #@! TA.AperFunction,Conductor*
D19*
G36*
X174340000Y-107997793D02*
G01*
X174275185Y-107918815D01*
X174178494Y-107839463D01*
X174068180Y-107780498D01*
X173948482Y-107744188D01*
X173824000Y-107731928D01*
X172124000Y-107731928D01*
X171999518Y-107744188D01*
X171879820Y-107780498D01*
X171769506Y-107839463D01*
X171672815Y-107918815D01*
X171593463Y-108015506D01*
X171534498Y-108125820D01*
X171512487Y-108198380D01*
X171380632Y-108066525D01*
X171137411Y-107904010D01*
X170867158Y-107792068D01*
X170580260Y-107735000D01*
X170287740Y-107735000D01*
X170000842Y-107792068D01*
X169730589Y-107904010D01*
X169487368Y-108066525D01*
X169280525Y-108273368D01*
X169164000Y-108447760D01*
X169047475Y-108273368D01*
X168840632Y-108066525D01*
X168597411Y-107904010D01*
X168327158Y-107792068D01*
X168040260Y-107735000D01*
X167747740Y-107735000D01*
X167460842Y-107792068D01*
X167190589Y-107904010D01*
X166947368Y-108066525D01*
X166740525Y-108273368D01*
X166624000Y-108447760D01*
X166507475Y-108273368D01*
X166300632Y-108066525D01*
X166057411Y-107904010D01*
X165787158Y-107792068D01*
X165500260Y-107735000D01*
X165207740Y-107735000D01*
X164920842Y-107792068D01*
X164650589Y-107904010D01*
X164407368Y-108066525D01*
X164200525Y-108273368D01*
X164084000Y-108447760D01*
X163967475Y-108273368D01*
X163760632Y-108066525D01*
X163517411Y-107904010D01*
X163247158Y-107792068D01*
X162960260Y-107735000D01*
X162667740Y-107735000D01*
X162380842Y-107792068D01*
X162110589Y-107904010D01*
X161867368Y-108066525D01*
X161660525Y-108273368D01*
X161544000Y-108447760D01*
X161427475Y-108273368D01*
X161220632Y-108066525D01*
X160977411Y-107904010D01*
X160707158Y-107792068D01*
X160420260Y-107735000D01*
X160127740Y-107735000D01*
X159840842Y-107792068D01*
X159570589Y-107904010D01*
X159327368Y-108066525D01*
X159120525Y-108273368D01*
X159004000Y-108447760D01*
X158887475Y-108273368D01*
X158680632Y-108066525D01*
X158437411Y-107904010D01*
X158167158Y-107792068D01*
X157880260Y-107735000D01*
X157587740Y-107735000D01*
X157300842Y-107792068D01*
X157299000Y-107792831D01*
X157299000Y-107279867D01*
X169445000Y-95133869D01*
X169350524Y-95312890D01*
X169352446Y-95325261D01*
X169452146Y-95599009D01*
X169603336Y-95848046D01*
X169800205Y-96062802D01*
X170035188Y-96235025D01*
X170299255Y-96358096D01*
X170582258Y-96427285D01*
X170815000Y-96283232D01*
X170815000Y-95083000D01*
X171069000Y-95083000D01*
X171069000Y-96283232D01*
X171301742Y-96427285D01*
X171584745Y-96358096D01*
X171848812Y-96235025D01*
X172083795Y-96062802D01*
X172280664Y-95848046D01*
X172431854Y-95599009D01*
X172531554Y-95325261D01*
X172533476Y-95312890D01*
X172412155Y-95083000D01*
X171069000Y-95083000D01*
X170815000Y-95083000D01*
X170795000Y-95083000D01*
X170795000Y-94829000D01*
X170815000Y-94829000D01*
X170815000Y-94809000D01*
X171069000Y-94809000D01*
X171069000Y-94829000D01*
X172412155Y-94829000D01*
X172533476Y-94599110D01*
X172531554Y-94586739D01*
X172431854Y-94312991D01*
X172280664Y-94063954D01*
X172083795Y-93849198D01*
X172083407Y-93848914D01*
X172185386Y-93794405D01*
X172319962Y-93683962D01*
X172430405Y-93549386D01*
X172512472Y-93395850D01*
X172563008Y-93229254D01*
X172580072Y-93056000D01*
X172580072Y-91856000D01*
X172563008Y-91682746D01*
X172512472Y-91516150D01*
X172430405Y-91362614D01*
X172319962Y-91228038D01*
X172185386Y-91117595D01*
X172031850Y-91035528D01*
X171865254Y-90984992D01*
X171692000Y-90967928D01*
X170192000Y-90967928D01*
X170018746Y-90984992D01*
X169852150Y-91035528D01*
X169698614Y-91117595D01*
X169564038Y-91228038D01*
X169453595Y-91362614D01*
X169371528Y-91516150D01*
X169320992Y-91682746D01*
X169303928Y-91856000D01*
X169303928Y-92913203D01*
X157854072Y-104363061D01*
X157854072Y-103272000D01*
X157841812Y-103147518D01*
X157805502Y-103027820D01*
X157746537Y-102917506D01*
X157692778Y-102852000D01*
X157746537Y-102786494D01*
X157805502Y-102676180D01*
X157841812Y-102556482D01*
X157854072Y-102432000D01*
X157854072Y-100732000D01*
X157841812Y-100607518D01*
X157805502Y-100487820D01*
X157746537Y-100377506D01*
X157667185Y-100280815D01*
X157570494Y-100201463D01*
X157460180Y-100142498D01*
X157340482Y-100106188D01*
X157216000Y-100093928D01*
X155516000Y-100093928D01*
X155391518Y-100106188D01*
X155271820Y-100142498D01*
X155161506Y-100201463D01*
X155064815Y-100280815D01*
X154985463Y-100377506D01*
X154926498Y-100487820D01*
X154890188Y-100607518D01*
X154877928Y-100732000D01*
X154877928Y-102432000D01*
X154890188Y-102556482D01*
X154926498Y-102676180D01*
X154985463Y-102786494D01*
X155039222Y-102852000D01*
X154985463Y-102917506D01*
X154926498Y-103027820D01*
X154890188Y-103147518D01*
X154877928Y-103272000D01*
X154877928Y-104972000D01*
X154890188Y-105096482D01*
X154926498Y-105216180D01*
X154985463Y-105326494D01*
X155064815Y-105423185D01*
X155102951Y-105454482D01*
X154322579Y-106234854D01*
X154290709Y-106261009D01*
X154187744Y-106386474D01*
X154186364Y-106388155D01*
X154108828Y-106533214D01*
X154061082Y-106690612D01*
X154057187Y-106730163D01*
X153966795Y-106865444D01*
X153888774Y-107053802D01*
X153849000Y-107253761D01*
X153849000Y-107457639D01*
X153888774Y-107657598D01*
X153966795Y-107845956D01*
X154080063Y-108015474D01*
X154189241Y-108124652D01*
X154040525Y-108273368D01*
X153924000Y-108447760D01*
X153807475Y-108273368D01*
X153600632Y-108066525D01*
X153357411Y-107904010D01*
X153087158Y-107792068D01*
X152800260Y-107735000D01*
X152507740Y-107735000D01*
X152220842Y-107792068D01*
X151950589Y-107904010D01*
X151707368Y-108066525D01*
X151500525Y-108273368D01*
X151384000Y-108447760D01*
X151267475Y-108273368D01*
X151060632Y-108066525D01*
X150817411Y-107904010D01*
X150547158Y-107792068D01*
X150260260Y-107735000D01*
X149967740Y-107735000D01*
X149680842Y-107792068D01*
X149410589Y-107904010D01*
X149167368Y-108066525D01*
X148960525Y-108273368D01*
X148844000Y-108447760D01*
X148727475Y-108273368D01*
X148520632Y-108066525D01*
X148277411Y-107904010D01*
X148007158Y-107792068D01*
X147720260Y-107735000D01*
X147427740Y-107735000D01*
X147140842Y-107792068D01*
X146870589Y-107904010D01*
X146627368Y-108066525D01*
X146420525Y-108273368D01*
X146304000Y-108447760D01*
X146187475Y-108273368D01*
X145980632Y-108066525D01*
X145737411Y-107904010D01*
X145467158Y-107792068D01*
X145180260Y-107735000D01*
X144887740Y-107735000D01*
X144600842Y-107792068D01*
X144330589Y-107904010D01*
X144087368Y-108066525D01*
X143880525Y-108273368D01*
X143764000Y-108447760D01*
X143647475Y-108273368D01*
X143440632Y-108066525D01*
X143197411Y-107904010D01*
X142927158Y-107792068D01*
X142640260Y-107735000D01*
X142347740Y-107735000D01*
X142060842Y-107792068D01*
X141790589Y-107904010D01*
X141547368Y-108066525D01*
X141340525Y-108273368D01*
X141224000Y-108447760D01*
X141107475Y-108273368D01*
X140900632Y-108066525D01*
X140657411Y-107904010D01*
X140387158Y-107792068D01*
X140100260Y-107735000D01*
X139807740Y-107735000D01*
X139520842Y-107792068D01*
X139250589Y-107904010D01*
X139007368Y-108066525D01*
X138800525Y-108273368D01*
X138638010Y-108516589D01*
X138526068Y-108786842D01*
X138469000Y-109073740D01*
X138469000Y-109366260D01*
X138526068Y-109653158D01*
X138638010Y-109923411D01*
X138800525Y-110166632D01*
X139007368Y-110373475D01*
X139250589Y-110535990D01*
X139520842Y-110647932D01*
X139807740Y-110705000D01*
X140100260Y-110705000D01*
X140387158Y-110647932D01*
X140657411Y-110535990D01*
X140900632Y-110373475D01*
X141107475Y-110166632D01*
X141224000Y-109992240D01*
X141340525Y-110166632D01*
X141547368Y-110373475D01*
X141790589Y-110535990D01*
X142060842Y-110647932D01*
X142347740Y-110705000D01*
X142640260Y-110705000D01*
X142927158Y-110647932D01*
X143197411Y-110535990D01*
X143440632Y-110373475D01*
X143647475Y-110166632D01*
X143764000Y-109992240D01*
X143880525Y-110166632D01*
X144087368Y-110373475D01*
X144330589Y-110535990D01*
X144600842Y-110647932D01*
X144887740Y-110705000D01*
X145180260Y-110705000D01*
X145467158Y-110647932D01*
X145737411Y-110535990D01*
X145980632Y-110373475D01*
X146187475Y-110166632D01*
X146304000Y-109992240D01*
X146420525Y-110166632D01*
X146627368Y-110373475D01*
X146870589Y-110535990D01*
X147140842Y-110647932D01*
X147427740Y-110705000D01*
X147720260Y-110705000D01*
X148007158Y-110647932D01*
X148277411Y-110535990D01*
X148520632Y-110373475D01*
X148727475Y-110166632D01*
X148844000Y-109992240D01*
X148960525Y-110166632D01*
X149167368Y-110373475D01*
X149410589Y-110535990D01*
X149680842Y-110647932D01*
X149967740Y-110705000D01*
X150260260Y-110705000D01*
X150547158Y-110647932D01*
X150817411Y-110535990D01*
X151060632Y-110373475D01*
X151267475Y-110166632D01*
X151384000Y-109992240D01*
X151500525Y-110166632D01*
X151707368Y-110373475D01*
X151950589Y-110535990D01*
X152220842Y-110647932D01*
X152507740Y-110705000D01*
X152800260Y-110705000D01*
X153087158Y-110647932D01*
X153357411Y-110535990D01*
X153600632Y-110373475D01*
X153807475Y-110166632D01*
X153924000Y-109992240D01*
X154040525Y-110166632D01*
X154247368Y-110373475D01*
X154490589Y-110535990D01*
X154760842Y-110647932D01*
X155047740Y-110705000D01*
X155340260Y-110705000D01*
X155627158Y-110647932D01*
X155629001Y-110647169D01*
X155629001Y-113161531D01*
X147220333Y-121570200D01*
X145990185Y-121570200D01*
X145867156Y-121487995D01*
X145678798Y-121409974D01*
X145478839Y-121370200D01*
X145274961Y-121370200D01*
X145075002Y-121409974D01*
X144886644Y-121487995D01*
X144717126Y-121601263D01*
X144572963Y-121745426D01*
X144459695Y-121914944D01*
X144381674Y-122103302D01*
X144341900Y-122303261D01*
X144341900Y-122507139D01*
X144381674Y-122707098D01*
X144459695Y-122895456D01*
X144572963Y-123064974D01*
X144717126Y-123209137D01*
X144886644Y-123322405D01*
X145075002Y-123400426D01*
X145274961Y-123440200D01*
X145478839Y-123440200D01*
X145678798Y-123400426D01*
X145867156Y-123322405D01*
X145990185Y-123240200D01*
X147525182Y-123240200D01*
X147566200Y-123244240D01*
X147607218Y-123240200D01*
X147607219Y-123240200D01*
X147729889Y-123228118D01*
X147887287Y-123180372D01*
X148032346Y-123102836D01*
X148159491Y-122998491D01*
X148185646Y-122966621D01*
X157025427Y-114126841D01*
X157057291Y-114100691D01*
X157161636Y-113973546D01*
X157239172Y-113828487D01*
X157286918Y-113671089D01*
X157299000Y-113548419D01*
X157299000Y-113548409D01*
X157303039Y-113507401D01*
X157299000Y-113466393D01*
X157299000Y-110647169D01*
X157300842Y-110647932D01*
X157587740Y-110705000D01*
X157880260Y-110705000D01*
X158167158Y-110647932D01*
X158437411Y-110535990D01*
X158680632Y-110373475D01*
X158887475Y-110166632D01*
X159004000Y-109992240D01*
X159120525Y-110166632D01*
X159327368Y-110373475D01*
X159570589Y-110535990D01*
X159840842Y-110647932D01*
X160127740Y-110705000D01*
X160420260Y-110705000D01*
X160707158Y-110647932D01*
X160977411Y-110535990D01*
X161220632Y-110373475D01*
X161427475Y-110166632D01*
X161544000Y-109992240D01*
X161660525Y-110166632D01*
X161867368Y-110373475D01*
X162110589Y-110535990D01*
X162380842Y-110647932D01*
X162667740Y-110705000D01*
X162960260Y-110705000D01*
X163247158Y-110647932D01*
X163517411Y-110535990D01*
X163760632Y-110373475D01*
X163967475Y-110166632D01*
X164084000Y-109992240D01*
X164200525Y-110166632D01*
X164407368Y-110373475D01*
X164650589Y-110535990D01*
X164920842Y-110647932D01*
X165207740Y-110705000D01*
X165500260Y-110705000D01*
X165787158Y-110647932D01*
X166057411Y-110535990D01*
X166300632Y-110373475D01*
X166507475Y-110166632D01*
X166624000Y-109992240D01*
X166740525Y-110166632D01*
X166947368Y-110373475D01*
X167190589Y-110535990D01*
X167460842Y-110647932D01*
X167747740Y-110705000D01*
X168040260Y-110705000D01*
X168327158Y-110647932D01*
X168597411Y-110535990D01*
X168840632Y-110373475D01*
X169047475Y-110166632D01*
X169164000Y-109992240D01*
X169280525Y-110166632D01*
X169487368Y-110373475D01*
X169730589Y-110535990D01*
X170000842Y-110647932D01*
X170287740Y-110705000D01*
X170580260Y-110705000D01*
X170867158Y-110647932D01*
X171137411Y-110535990D01*
X171380632Y-110373475D01*
X171512487Y-110241620D01*
X171534498Y-110314180D01*
X171593463Y-110424494D01*
X171672815Y-110521185D01*
X171769506Y-110600537D01*
X171879820Y-110659502D01*
X171999518Y-110695812D01*
X172124000Y-110708072D01*
X173824000Y-110708072D01*
X173948482Y-110695812D01*
X174068180Y-110659502D01*
X174178494Y-110600537D01*
X174275185Y-110521185D01*
X174340001Y-110442207D01*
X174340001Y-131510327D01*
X174318157Y-131448748D01*
X174169178Y-131198645D01*
X173974269Y-130982412D01*
X173740920Y-130808359D01*
X173478099Y-130683175D01*
X173330890Y-130638524D01*
X173101000Y-130759845D01*
X173101000Y-131953000D01*
X173121000Y-131953000D01*
X173121000Y-132207000D01*
X173101000Y-132207000D01*
X173101000Y-132227000D01*
X172847000Y-132227000D01*
X172847000Y-132207000D01*
X172827000Y-132207000D01*
X172827000Y-131953000D01*
X172847000Y-131953000D01*
X172847000Y-130759845D01*
X172617110Y-130638524D01*
X172469901Y-130683175D01*
X172207080Y-130808359D01*
X171973731Y-130982412D01*
X171778822Y-131198645D01*
X171709195Y-131315534D01*
X171587475Y-131133368D01*
X171380632Y-130926525D01*
X171137411Y-130764010D01*
X170867158Y-130652068D01*
X170580260Y-130595000D01*
X170287740Y-130595000D01*
X170000842Y-130652068D01*
X169730589Y-130764010D01*
X169487368Y-130926525D01*
X169280525Y-131133368D01*
X169164000Y-131307760D01*
X169047475Y-131133368D01*
X168840632Y-130926525D01*
X168597411Y-130764010D01*
X168327158Y-130652068D01*
X168040260Y-130595000D01*
X167747740Y-130595000D01*
X167460842Y-130652068D01*
X167190589Y-130764010D01*
X166947368Y-130926525D01*
X166740525Y-131133368D01*
X166624000Y-131307760D01*
X166507475Y-131133368D01*
X166300632Y-130926525D01*
X166057411Y-130764010D01*
X165787158Y-130652068D01*
X165500260Y-130595000D01*
X165207740Y-130595000D01*
X164920842Y-130652068D01*
X164650589Y-130764010D01*
X164407368Y-130926525D01*
X164200525Y-131133368D01*
X164084000Y-131307760D01*
X163967475Y-131133368D01*
X163760632Y-130926525D01*
X163517411Y-130764010D01*
X163247158Y-130652068D01*
X162960260Y-130595000D01*
X162667740Y-130595000D01*
X162380842Y-130652068D01*
X162110589Y-130764010D01*
X161867368Y-130926525D01*
X161660525Y-131133368D01*
X161544000Y-131307760D01*
X161427475Y-131133368D01*
X161220632Y-130926525D01*
X160977411Y-130764010D01*
X160707158Y-130652068D01*
X160420260Y-130595000D01*
X160127740Y-130595000D01*
X159840842Y-130652068D01*
X159570589Y-130764010D01*
X159327368Y-130926525D01*
X159120525Y-131133368D01*
X159004000Y-131307760D01*
X158887475Y-131133368D01*
X158680632Y-130926525D01*
X158437411Y-130764010D01*
X158167158Y-130652068D01*
X157880260Y-130595000D01*
X157587740Y-130595000D01*
X157300842Y-130652068D01*
X157030589Y-130764010D01*
X156787368Y-130926525D01*
X156580525Y-131133368D01*
X156464000Y-131307760D01*
X156347475Y-131133368D01*
X156140632Y-130926525D01*
X155897411Y-130764010D01*
X155627158Y-130652068D01*
X155340260Y-130595000D01*
X155047740Y-130595000D01*
X154760842Y-130652068D01*
X154490589Y-130764010D01*
X154247368Y-130926525D01*
X154040525Y-131133368D01*
X153924000Y-131307760D01*
X153807475Y-131133368D01*
X153600632Y-130926525D01*
X153357411Y-130764010D01*
X153087158Y-130652068D01*
X152800260Y-130595000D01*
X152507740Y-130595000D01*
X152220842Y-130652068D01*
X151950589Y-130764010D01*
X151707368Y-130926525D01*
X151500525Y-131133368D01*
X151384000Y-131307760D01*
X151267475Y-131133368D01*
X151060632Y-130926525D01*
X150817411Y-130764010D01*
X150547158Y-130652068D01*
X150260260Y-130595000D01*
X149967740Y-130595000D01*
X149680842Y-130652068D01*
X149410589Y-130764010D01*
X149167368Y-130926525D01*
X148960525Y-131133368D01*
X148844000Y-131307760D01*
X148727475Y-131133368D01*
X148520632Y-130926525D01*
X148277411Y-130764010D01*
X148007158Y-130652068D01*
X147720260Y-130595000D01*
X147427740Y-130595000D01*
X147140842Y-130652068D01*
X146870589Y-130764010D01*
X146627368Y-130926525D01*
X146420525Y-131133368D01*
X146304000Y-131307760D01*
X146187475Y-131133368D01*
X145980632Y-130926525D01*
X145737411Y-130764010D01*
X145467158Y-130652068D01*
X145180260Y-130595000D01*
X144887740Y-130595000D01*
X144600842Y-130652068D01*
X144330589Y-130764010D01*
X144087368Y-130926525D01*
X143880525Y-131133368D01*
X143764000Y-131307760D01*
X143647475Y-131133368D01*
X143440632Y-130926525D01*
X143197411Y-130764010D01*
X142927158Y-130652068D01*
X142640260Y-130595000D01*
X142347740Y-130595000D01*
X142060842Y-130652068D01*
X141790589Y-130764010D01*
X141547368Y-130926525D01*
X141340525Y-131133368D01*
X141224000Y-131307760D01*
X141107475Y-131133368D01*
X140900632Y-130926525D01*
X140657411Y-130764010D01*
X140387158Y-130652068D01*
X140100260Y-130595000D01*
X139807740Y-130595000D01*
X139520842Y-130652068D01*
X139250589Y-130764010D01*
X139007368Y-130926525D01*
X138800525Y-131133368D01*
X138684000Y-131307760D01*
X138567475Y-131133368D01*
X138360632Y-130926525D01*
X138117411Y-130764010D01*
X137847158Y-130652068D01*
X137560260Y-130595000D01*
X137267740Y-130595000D01*
X136980842Y-130652068D01*
X136710589Y-130764010D01*
X136467368Y-130926525D01*
X136260525Y-131133368D01*
X136144000Y-131307760D01*
X136027475Y-131133368D01*
X135820632Y-130926525D01*
X135577411Y-130764010D01*
X135307158Y-130652068D01*
X135020260Y-130595000D01*
X134727740Y-130595000D01*
X134440842Y-130652068D01*
X134170589Y-130764010D01*
X133927368Y-130926525D01*
X133720525Y-131133368D01*
X133558010Y-131376589D01*
X133446068Y-131646842D01*
X133389000Y-131933740D01*
X133389000Y-132226260D01*
X133446068Y-132513158D01*
X133558010Y-132783411D01*
X133720525Y-133026632D01*
X133927368Y-133233475D01*
X134086794Y-133340000D01*
X127025000Y-133340000D01*
X127025000Y-125827047D01*
X127250118Y-125977466D01*
X127593166Y-126119561D01*
X127957344Y-126192000D01*
X128328656Y-126192000D01*
X128692834Y-126119561D01*
X129035882Y-125977466D01*
X129344618Y-125771175D01*
X129607175Y-125508618D01*
X129643000Y-125455002D01*
X129678825Y-125508618D01*
X129941382Y-125771175D01*
X130250118Y-125977466D01*
X130593166Y-126119561D01*
X130957344Y-126192000D01*
X131328656Y-126192000D01*
X131692834Y-126119561D01*
X132035882Y-125977466D01*
X132344618Y-125771175D01*
X132607175Y-125508618D01*
X132813466Y-125199882D01*
X132955561Y-124856834D01*
X133028000Y-124492656D01*
X133028000Y-124121344D01*
X132955561Y-123757166D01*
X132931585Y-123699283D01*
X135488533Y-121142336D01*
X135520391Y-121116191D01*
X135624736Y-120989046D01*
X135702272Y-120843987D01*
X135750018Y-120686589D01*
X135762100Y-120563919D01*
X135762100Y-120563918D01*
X135766140Y-120522900D01*
X135762100Y-120481882D01*
X135762100Y-106339985D01*
X135844305Y-106216956D01*
X135922326Y-106028598D01*
X135951193Y-105883475D01*
X136440775Y-105393893D01*
X136464815Y-105423185D01*
X136561506Y-105502537D01*
X136671820Y-105561502D01*
X136791518Y-105597812D01*
X136916000Y-105610072D01*
X138616000Y-105610072D01*
X138740482Y-105597812D01*
X138860180Y-105561502D01*
X138970494Y-105502537D01*
X139067185Y-105423185D01*
X139146537Y-105326494D01*
X139205502Y-105216180D01*
X139241812Y-105096482D01*
X139254072Y-104972000D01*
X139254072Y-103272000D01*
X139241812Y-103147518D01*
X139205502Y-103027820D01*
X139146537Y-102917506D01*
X139092778Y-102852000D01*
X139146537Y-102786494D01*
X139205502Y-102676180D01*
X139241812Y-102556482D01*
X139254072Y-102432000D01*
X139254072Y-100732000D01*
X139241812Y-100607518D01*
X139205502Y-100487820D01*
X139146537Y-100377506D01*
X139067185Y-100280815D01*
X138970494Y-100201463D01*
X138860180Y-100142498D01*
X138740482Y-100106188D01*
X138616000Y-100093928D01*
X136916000Y-100093928D01*
X136791518Y-100106188D01*
X136671820Y-100142498D01*
X136561506Y-100201463D01*
X136464815Y-100280815D01*
X136385463Y-100377506D01*
X136326498Y-100487820D01*
X136290188Y-100607518D01*
X136277928Y-100732000D01*
X136277928Y-102432000D01*
X136290188Y-102556482D01*
X136326498Y-102676180D01*
X136385463Y-102786494D01*
X136439222Y-102852000D01*
X136385463Y-102917506D01*
X136326498Y-103027820D01*
X136290188Y-103147518D01*
X136277928Y-103272000D01*
X136277928Y-103321555D01*
X136194613Y-103346828D01*
X136049554Y-103424364D01*
X135922409Y-103528709D01*
X135822580Y-103650351D01*
X134770325Y-104702607D01*
X134625202Y-104731474D01*
X134436844Y-104809495D01*
X134267326Y-104922763D01*
X134123163Y-105066926D01*
X134009895Y-105236444D01*
X133931874Y-105424802D01*
X133892100Y-105624761D01*
X133892100Y-105828639D01*
X133931874Y-106028598D01*
X134009895Y-106216956D01*
X134092101Y-106339986D01*
X134092100Y-120177031D01*
X131750717Y-122518415D01*
X131692834Y-122494439D01*
X131328656Y-122422000D01*
X130957344Y-122422000D01*
X130593166Y-122494439D01*
X130250118Y-122636534D01*
X129941382Y-122842825D01*
X129678825Y-123105382D01*
X129643000Y-123158998D01*
X129607175Y-123105382D01*
X129344618Y-122842825D01*
X129035882Y-122636534D01*
X128692834Y-122494439D01*
X128328656Y-122422000D01*
X127957344Y-122422000D01*
X127593166Y-122494439D01*
X127250118Y-122636534D01*
X127025000Y-122786953D01*
X127025000Y-121827047D01*
X127250118Y-121977466D01*
X127593166Y-122119561D01*
X127957344Y-122192000D01*
X128328656Y-122192000D01*
X128692834Y-122119561D01*
X129035882Y-121977466D01*
X129344618Y-121771175D01*
X129607175Y-121508618D01*
X129643000Y-121455002D01*
X129678825Y-121508618D01*
X129941382Y-121771175D01*
X130250118Y-121977466D01*
X130593166Y-122119561D01*
X130957344Y-122192000D01*
X131328656Y-122192000D01*
X131692834Y-122119561D01*
X132035882Y-121977466D01*
X132344618Y-121771175D01*
X132607175Y-121508618D01*
X132813466Y-121199882D01*
X132955561Y-120856834D01*
X133028000Y-120492656D01*
X133028000Y-120121344D01*
X132955561Y-119757166D01*
X132813466Y-119414118D01*
X132607175Y-119105382D01*
X132344618Y-118842825D01*
X132035882Y-118636534D01*
X131692834Y-118494439D01*
X131328656Y-118422000D01*
X130957344Y-118422000D01*
X130593166Y-118494439D01*
X130250118Y-118636534D01*
X129941382Y-118842825D01*
X129678825Y-119105382D01*
X129643000Y-119158998D01*
X129607175Y-119105382D01*
X129344618Y-118842825D01*
X129035882Y-118636534D01*
X128692834Y-118494439D01*
X128328656Y-118422000D01*
X127957344Y-118422000D01*
X127593166Y-118494439D01*
X127250118Y-118636534D01*
X127025000Y-118786953D01*
X127025000Y-117827047D01*
X127250118Y-117977466D01*
X127593166Y-118119561D01*
X127957344Y-118192000D01*
X128328656Y-118192000D01*
X128692834Y-118119561D01*
X129035882Y-117977466D01*
X129344618Y-117771175D01*
X129607175Y-117508618D01*
X129643000Y-117455002D01*
X129678825Y-117508618D01*
X129941382Y-117771175D01*
X130250118Y-117977466D01*
X130593166Y-118119561D01*
X130957344Y-118192000D01*
X131328656Y-118192000D01*
X131692834Y-118119561D01*
X132035882Y-117977466D01*
X132344618Y-117771175D01*
X132607175Y-117508618D01*
X132813466Y-117199882D01*
X132955561Y-116856834D01*
X133028000Y-116492656D01*
X133028000Y-116121344D01*
X132955561Y-115757166D01*
X132813466Y-115414118D01*
X132607175Y-115105382D01*
X132344618Y-114842825D01*
X132035882Y-114636534D01*
X131692834Y-114494439D01*
X131328656Y-114422000D01*
X130957344Y-114422000D01*
X130593166Y-114494439D01*
X130250118Y-114636534D01*
X129941382Y-114842825D01*
X129678825Y-115105382D01*
X129643000Y-115158998D01*
X129607175Y-115105382D01*
X129344618Y-114842825D01*
X129035882Y-114636534D01*
X128692834Y-114494439D01*
X128328656Y-114422000D01*
X127957344Y-114422000D01*
X127593166Y-114494439D01*
X127250118Y-114636534D01*
X127025000Y-114786953D01*
X127025000Y-113657452D01*
X127134914Y-113910577D01*
X127467126Y-114076433D01*
X127825312Y-114174290D01*
X128195706Y-114200389D01*
X128564075Y-114153725D01*
X128916262Y-114036094D01*
X129151086Y-113910577D01*
X129277000Y-113620605D01*
X128143000Y-112486605D01*
X128128858Y-112500748D01*
X127949253Y-112321143D01*
X127963395Y-112307000D01*
X128322605Y-112307000D01*
X129456605Y-113441000D01*
X129593829Y-113381413D01*
X129678825Y-113508618D01*
X129941382Y-113771175D01*
X130250118Y-113977466D01*
X130593166Y-114119561D01*
X130957344Y-114192000D01*
X131328656Y-114192000D01*
X131692834Y-114119561D01*
X132035882Y-113977466D01*
X132344618Y-113771175D01*
X132607175Y-113508618D01*
X132813466Y-113199882D01*
X132955561Y-112856834D01*
X133028000Y-112492656D01*
X133028000Y-112121344D01*
X132955561Y-111757166D01*
X132813466Y-111414118D01*
X132607175Y-111105382D01*
X132344618Y-110842825D01*
X132035882Y-110636534D01*
X131692834Y-110494439D01*
X131328656Y-110422000D01*
X130957344Y-110422000D01*
X130593166Y-110494439D01*
X130250118Y-110636534D01*
X129941382Y-110842825D01*
X129678825Y-111105382D01*
X129593829Y-111232587D01*
X129456605Y-111173000D01*
X128322605Y-112307000D01*
X127963395Y-112307000D01*
X127949253Y-112292858D01*
X128128858Y-112113253D01*
X128143000Y-112127395D01*
X129277000Y-110993395D01*
X129151086Y-110703423D01*
X128818874Y-110537567D01*
X128460688Y-110439710D01*
X128090294Y-110413611D01*
X127721925Y-110460275D01*
X127369738Y-110577906D01*
X127134914Y-110703423D01*
X127025000Y-110956548D01*
X127025000Y-109827047D01*
X127250118Y-109977466D01*
X127593166Y-110119561D01*
X127957344Y-110192000D01*
X128328656Y-110192000D01*
X128692834Y-110119561D01*
X129035882Y-109977466D01*
X129344618Y-109771175D01*
X129607175Y-109508618D01*
X129643000Y-109455002D01*
X129678825Y-109508618D01*
X129941382Y-109771175D01*
X130250118Y-109977466D01*
X130593166Y-110119561D01*
X130957344Y-110192000D01*
X131328656Y-110192000D01*
X131692834Y-110119561D01*
X132035882Y-109977466D01*
X132344618Y-109771175D01*
X132607175Y-109508618D01*
X132813466Y-109199882D01*
X132955561Y-108856834D01*
X133028000Y-108492656D01*
X133028000Y-108121344D01*
X132955561Y-107757166D01*
X132813466Y-107414118D01*
X132607175Y-107105382D01*
X132344618Y-106842825D01*
X132035882Y-106636534D01*
X131692834Y-106494439D01*
X131328656Y-106422000D01*
X130957344Y-106422000D01*
X130593166Y-106494439D01*
X130250118Y-106636534D01*
X129941382Y-106842825D01*
X129678825Y-107105382D01*
X129643000Y-107158998D01*
X129607175Y-107105382D01*
X129344618Y-106842825D01*
X129035882Y-106636534D01*
X128692834Y-106494439D01*
X128328656Y-106422000D01*
X127957344Y-106422000D01*
X127593166Y-106494439D01*
X127250118Y-106636534D01*
X127025000Y-106786953D01*
X127025000Y-105827047D01*
X127250118Y-105977466D01*
X127593166Y-106119561D01*
X127957344Y-106192000D01*
X128328656Y-106192000D01*
X128692834Y-106119561D01*
X129035882Y-105977466D01*
X129344618Y-105771175D01*
X129607175Y-105508618D01*
X129643000Y-105455002D01*
X129678825Y-105508618D01*
X129941382Y-105771175D01*
X130250118Y-105977466D01*
X130593166Y-106119561D01*
X130957344Y-106192000D01*
X131328656Y-106192000D01*
X131692834Y-106119561D01*
X132035882Y-105977466D01*
X132344618Y-105771175D01*
X132607175Y-105508618D01*
X132813466Y-105199882D01*
X132955561Y-104856834D01*
X133028000Y-104492656D01*
X133028000Y-104121344D01*
X132955561Y-103757166D01*
X132813466Y-103414118D01*
X132607175Y-103105382D01*
X132344618Y-102842825D01*
X132035882Y-102636534D01*
X131692834Y-102494439D01*
X131328656Y-102422000D01*
X130957344Y-102422000D01*
X130593166Y-102494439D01*
X130250118Y-102636534D01*
X129941382Y-102842825D01*
X129678825Y-103105382D01*
X129643000Y-103158998D01*
X129607175Y-103105382D01*
X129344618Y-102842825D01*
X129035882Y-102636534D01*
X128692834Y-102494439D01*
X128328656Y-102422000D01*
X127957344Y-102422000D01*
X127593166Y-102494439D01*
X127250118Y-102636534D01*
X127025000Y-102786953D01*
X127025000Y-101827047D01*
X127250118Y-101977466D01*
X127593166Y-102119561D01*
X127957344Y-102192000D01*
X128328656Y-102192000D01*
X128692834Y-102119561D01*
X129035882Y-101977466D01*
X129344618Y-101771175D01*
X129607175Y-101508618D01*
X129643000Y-101455002D01*
X129678825Y-101508618D01*
X129941382Y-101771175D01*
X130250118Y-101977466D01*
X130593166Y-102119561D01*
X130957344Y-102192000D01*
X131328656Y-102192000D01*
X131692834Y-102119561D01*
X132035882Y-101977466D01*
X132344618Y-101771175D01*
X132607175Y-101508618D01*
X132813466Y-101199882D01*
X132955561Y-100856834D01*
X133028000Y-100492656D01*
X133028000Y-100121344D01*
X132955561Y-99757166D01*
X132813466Y-99414118D01*
X132607175Y-99105382D01*
X132344618Y-98842825D01*
X132035882Y-98636534D01*
X131692834Y-98494439D01*
X131328656Y-98422000D01*
X130957344Y-98422000D01*
X130593166Y-98494439D01*
X130250118Y-98636534D01*
X129941382Y-98842825D01*
X129678825Y-99105382D01*
X129643000Y-99158998D01*
X129607175Y-99105382D01*
X129344618Y-98842825D01*
X129035882Y-98636534D01*
X128692834Y-98494439D01*
X128328656Y-98422000D01*
X127957344Y-98422000D01*
X127593166Y-98494439D01*
X127250118Y-98636534D01*
X127025000Y-98786953D01*
X127025000Y-98195072D01*
X129393000Y-98195072D01*
X129517482Y-98182812D01*
X129637180Y-98146502D01*
X129747494Y-98087537D01*
X129844185Y-98008185D01*
X129923537Y-97911494D01*
X129982502Y-97801180D01*
X129983140Y-97799077D01*
X130250118Y-97977466D01*
X130593166Y-98119561D01*
X130957344Y-98192000D01*
X131328656Y-98192000D01*
X131692834Y-98119561D01*
X132035882Y-97977466D01*
X132344618Y-97771175D01*
X132607175Y-97508618D01*
X132813466Y-97199882D01*
X132955561Y-96856834D01*
X133028000Y-96492656D01*
X133028000Y-96121344D01*
X132955561Y-95757166D01*
X132813466Y-95414118D01*
X132607175Y-95105382D01*
X132344618Y-94842825D01*
X132035882Y-94636534D01*
X131692834Y-94494439D01*
X131328656Y-94422000D01*
X130957344Y-94422000D01*
X130593166Y-94494439D01*
X130250118Y-94636534D01*
X129983140Y-94814923D01*
X129982502Y-94812820D01*
X129923537Y-94702506D01*
X129844185Y-94605815D01*
X129747494Y-94526463D01*
X129637180Y-94467498D01*
X129517482Y-94431188D01*
X129393000Y-94418928D01*
X127025000Y-94418928D01*
X127025000Y-93178890D01*
X136324524Y-93178890D01*
X136369175Y-93326099D01*
X136494359Y-93588920D01*
X136668412Y-93822269D01*
X136884645Y-94017178D01*
X137134748Y-94166157D01*
X137409109Y-94263481D01*
X137639000Y-94142814D01*
X137639000Y-92949000D01*
X137893000Y-92949000D01*
X137893000Y-94142814D01*
X138122891Y-94263481D01*
X138397252Y-94166157D01*
X138647355Y-94017178D01*
X138863588Y-93822269D01*
X139037641Y-93588920D01*
X139162825Y-93326099D01*
X139207476Y-93178890D01*
X154924524Y-93178890D01*
X154969175Y-93326099D01*
X155094359Y-93588920D01*
X155268412Y-93822269D01*
X155484645Y-94017178D01*
X155734748Y-94166157D01*
X156009109Y-94263481D01*
X156239000Y-94142814D01*
X156239000Y-92949000D01*
X156493000Y-92949000D01*
X156493000Y-94142814D01*
X156722891Y-94263481D01*
X156997252Y-94166157D01*
X157247355Y-94017178D01*
X157463588Y-93822269D01*
X157637641Y-93588920D01*
X157762825Y-93326099D01*
X157807476Y-93178890D01*
X157686155Y-92949000D01*
X156493000Y-92949000D01*
X156239000Y-92949000D01*
X155045845Y-92949000D01*
X154924524Y-93178890D01*
X139207476Y-93178890D01*
X139086155Y-92949000D01*
X137893000Y-92949000D01*
X137639000Y-92949000D01*
X136445845Y-92949000D01*
X136324524Y-93178890D01*
X127025000Y-93178890D01*
X127025000Y-92465110D01*
X136324524Y-92465110D01*
X136445845Y-92695000D01*
X137639000Y-92695000D01*
X137639000Y-92675000D01*
X137893000Y-92675000D01*
X137893000Y-92695000D01*
X139086155Y-92695000D01*
X139207476Y-92465110D01*
X154924524Y-92465110D01*
X155045845Y-92695000D01*
X156239000Y-92695000D01*
X156239000Y-92675000D01*
X156493000Y-92675000D01*
X156493000Y-92695000D01*
X157686155Y-92695000D01*
X157807476Y-92465110D01*
X157762825Y-92317901D01*
X157637641Y-92055080D01*
X157463588Y-91821731D01*
X157247355Y-91626822D01*
X157135645Y-91560280D01*
X157137157Y-91559472D01*
X157214792Y-91310397D01*
X156366000Y-90461605D01*
X155517208Y-91310397D01*
X155594843Y-91559472D01*
X155596436Y-91560231D01*
X155484645Y-91626822D01*
X155268412Y-91821731D01*
X155094359Y-92055080D01*
X154969175Y-92317901D01*
X154924524Y-92465110D01*
X139207476Y-92465110D01*
X139162825Y-92317901D01*
X139037641Y-92055080D01*
X138863588Y-91821731D01*
X138647355Y-91626822D01*
X138535645Y-91560280D01*
X138537157Y-91559472D01*
X138614792Y-91310397D01*
X137766000Y-90461605D01*
X136917208Y-91310397D01*
X136994843Y-91559472D01*
X136996436Y-91560231D01*
X136884645Y-91626822D01*
X136668412Y-91821731D01*
X136494359Y-92055080D01*
X136369175Y-92317901D01*
X136324524Y-92465110D01*
X127025000Y-92465110D01*
X127025000Y-90350531D01*
X136275389Y-90350531D01*
X136317401Y-90640019D01*
X136415081Y-90915747D01*
X136488528Y-91053157D01*
X136737603Y-91130792D01*
X137586395Y-90282000D01*
X137945605Y-90282000D01*
X138794397Y-91130792D01*
X139043472Y-91053157D01*
X139169371Y-90789117D01*
X139241339Y-90505589D01*
X139249445Y-90350531D01*
X154875389Y-90350531D01*
X154917401Y-90640019D01*
X155015081Y-90915747D01*
X155088528Y-91053157D01*
X155337603Y-91130792D01*
X156186395Y-90282000D01*
X156545605Y-90282000D01*
X157394397Y-91130792D01*
X157643472Y-91053157D01*
X157769371Y-90789117D01*
X157841339Y-90505589D01*
X157856611Y-90213469D01*
X157814599Y-89923981D01*
X157716919Y-89648253D01*
X157643472Y-89510843D01*
X157394397Y-89433208D01*
X156545605Y-90282000D01*
X156186395Y-90282000D01*
X155337603Y-89433208D01*
X155088528Y-89510843D01*
X154962629Y-89774883D01*
X154890661Y-90058411D01*
X154875389Y-90350531D01*
X139249445Y-90350531D01*
X139256611Y-90213469D01*
X139214599Y-89923981D01*
X139116919Y-89648253D01*
X139043472Y-89510843D01*
X138794397Y-89433208D01*
X137945605Y-90282000D01*
X137586395Y-90282000D01*
X136737603Y-89433208D01*
X136488528Y-89510843D01*
X136362629Y-89774883D01*
X136290661Y-90058411D01*
X136275389Y-90350531D01*
X127025000Y-90350531D01*
X127025000Y-89253603D01*
X136917208Y-89253603D01*
X137766000Y-90102395D01*
X138614792Y-89253603D01*
X155517208Y-89253603D01*
X156366000Y-90102395D01*
X157214792Y-89253603D01*
X157137157Y-89004528D01*
X156873117Y-88878629D01*
X156589589Y-88806661D01*
X156297469Y-88791389D01*
X156007981Y-88833401D01*
X155732253Y-88931081D01*
X155594843Y-89004528D01*
X155517208Y-89253603D01*
X138614792Y-89253603D01*
X138537157Y-89004528D01*
X138273117Y-88878629D01*
X137989589Y-88806661D01*
X137697469Y-88791389D01*
X137407981Y-88833401D01*
X137132253Y-88931081D01*
X136994843Y-89004528D01*
X136917208Y-89253603D01*
X127025000Y-89253603D01*
X127025000Y-87274000D01*
X174340000Y-87274000D01*
X174340000Y-107997793D01*
G37*
G04 #@! TD.AperFunction*
M02*
