G04 #@! TF.GenerationSoftware,KiCad,Pcbnew,(5.1.10)-1*
G04 #@! TF.CreationDate,2021-09-10T11:39:35+02:00*
G04 #@! TF.ProjectId,pcb-esp32-power,7063622d-6573-4703-9332-2d706f776572,rev?*
G04 #@! TF.SameCoordinates,Original*
G04 #@! TF.FileFunction,Legend,Top*
G04 #@! TF.FilePolarity,Positive*
%FSLAX46Y46*%
G04 Gerber Fmt 4.6, Leading zero omitted, Abs format (unit mm)*
G04 Created by KiCad (PCBNEW (5.1.10)-1) date 2021-09-10 11:39:35*
%MOMM*%
%LPD*%
G01*
G04 APERTURE LIST*
%ADD10C,0.120000*%
%ADD11C,0.150000*%
%ADD12C,0.200000*%
%ADD13C,0.127000*%
%ADD14C,0.100000*%
%ADD15C,0.152400*%
%ADD16C,0.025400*%
%ADD17R,2.500000X4.200000*%
%ADD18R,1.700000X1.700000*%
%ADD19O,1.700000X1.700000*%
%ADD20C,1.700000*%
%ADD21O,2.000000X1.700000*%
%ADD22R,2.500000X2.500000*%
%ADD23C,2.500000*%
%ADD24R,0.900000X1.200000*%
%ADD25R,0.550000X1.050000*%
%ADD26R,0.600000X1.200000*%
%ADD27R,2.150000X5.500000*%
%ADD28R,0.800000X0.900000*%
%ADD29R,1.397000X0.279400*%
G04 APERTURE END LIST*
D10*
X159766000Y-130302000D02*
X159766000Y-110998000D01*
X159512000Y-130302000D02*
X159766000Y-130302000D01*
X159512000Y-110998000D02*
X159512000Y-130302000D01*
X159766000Y-110998000D02*
X159512000Y-110998000D01*
D11*
X165504761Y-127841047D02*
X165552380Y-127698190D01*
X165552380Y-127460095D01*
X165504761Y-127364857D01*
X165457142Y-127317238D01*
X165361904Y-127269619D01*
X165266666Y-127269619D01*
X165171428Y-127317238D01*
X165123809Y-127364857D01*
X165076190Y-127460095D01*
X165028571Y-127650571D01*
X164980952Y-127745809D01*
X164933333Y-127793428D01*
X164838095Y-127841047D01*
X164742857Y-127841047D01*
X164647619Y-127793428D01*
X164600000Y-127745809D01*
X164552380Y-127650571D01*
X164552380Y-127412476D01*
X164600000Y-127269619D01*
X165076190Y-126650571D02*
X165552380Y-126650571D01*
X164552380Y-126983904D02*
X165076190Y-126650571D01*
X164552380Y-126317238D01*
X164980952Y-125841047D02*
X164933333Y-125936285D01*
X164885714Y-125983904D01*
X164790476Y-126031523D01*
X164742857Y-126031523D01*
X164647619Y-125983904D01*
X164600000Y-125936285D01*
X164552380Y-125841047D01*
X164552380Y-125650571D01*
X164600000Y-125555333D01*
X164647619Y-125507714D01*
X164742857Y-125460095D01*
X164790476Y-125460095D01*
X164885714Y-125507714D01*
X164933333Y-125555333D01*
X164980952Y-125650571D01*
X164980952Y-125841047D01*
X165028571Y-125936285D01*
X165076190Y-125983904D01*
X165171428Y-126031523D01*
X165361904Y-126031523D01*
X165457142Y-125983904D01*
X165504761Y-125936285D01*
X165552380Y-125841047D01*
X165552380Y-125650571D01*
X165504761Y-125555333D01*
X165457142Y-125507714D01*
X165361904Y-125460095D01*
X165171428Y-125460095D01*
X165076190Y-125507714D01*
X165028571Y-125555333D01*
X164980952Y-125650571D01*
X164552380Y-124841047D02*
X164552380Y-124745809D01*
X164600000Y-124650571D01*
X164647619Y-124602952D01*
X164742857Y-124555333D01*
X164933333Y-124507714D01*
X165171428Y-124507714D01*
X165361904Y-124555333D01*
X165457142Y-124602952D01*
X165504761Y-124650571D01*
X165552380Y-124745809D01*
X165552380Y-124841047D01*
X165504761Y-124936285D01*
X165457142Y-124983904D01*
X165361904Y-125031523D01*
X165171428Y-125079142D01*
X164933333Y-125079142D01*
X164742857Y-125031523D01*
X164647619Y-124983904D01*
X164600000Y-124936285D01*
X164552380Y-124841047D01*
X164552380Y-123888666D02*
X164552380Y-123793428D01*
X164600000Y-123698190D01*
X164647619Y-123650571D01*
X164742857Y-123602952D01*
X164933333Y-123555333D01*
X165171428Y-123555333D01*
X165361904Y-123602952D01*
X165457142Y-123650571D01*
X165504761Y-123698190D01*
X165552380Y-123793428D01*
X165552380Y-123888666D01*
X165504761Y-123983904D01*
X165457142Y-124031523D01*
X165361904Y-124079142D01*
X165171428Y-124126761D01*
X164933333Y-124126761D01*
X164742857Y-124079142D01*
X164647619Y-124031523D01*
X164600000Y-123983904D01*
X164552380Y-123888666D01*
X164980952Y-122983904D02*
X164933333Y-123079142D01*
X164885714Y-123126761D01*
X164790476Y-123174380D01*
X164742857Y-123174380D01*
X164647619Y-123126761D01*
X164600000Y-123079142D01*
X164552380Y-122983904D01*
X164552380Y-122793428D01*
X164600000Y-122698190D01*
X164647619Y-122650571D01*
X164742857Y-122602952D01*
X164790476Y-122602952D01*
X164885714Y-122650571D01*
X164933333Y-122698190D01*
X164980952Y-122793428D01*
X164980952Y-122983904D01*
X165028571Y-123079142D01*
X165076190Y-123126761D01*
X165171428Y-123174380D01*
X165361904Y-123174380D01*
X165457142Y-123126761D01*
X165504761Y-123079142D01*
X165552380Y-122983904D01*
X165552380Y-122793428D01*
X165504761Y-122698190D01*
X165457142Y-122650571D01*
X165361904Y-122602952D01*
X165171428Y-122602952D01*
X165076190Y-122650571D01*
X165028571Y-122698190D01*
X164980952Y-122793428D01*
X150058380Y-127444190D02*
X150058380Y-127920380D01*
X149058380Y-127920380D01*
X149058380Y-127253714D02*
X149058380Y-126682285D01*
X150058380Y-126968000D02*
X149058380Y-126968000D01*
X149963142Y-125777523D02*
X150010761Y-125825142D01*
X150058380Y-125968000D01*
X150058380Y-126063238D01*
X150010761Y-126206095D01*
X149915523Y-126301333D01*
X149820285Y-126348952D01*
X149629809Y-126396571D01*
X149486952Y-126396571D01*
X149296476Y-126348952D01*
X149201238Y-126301333D01*
X149106000Y-126206095D01*
X149058380Y-126063238D01*
X149058380Y-125968000D01*
X149106000Y-125825142D01*
X149153619Y-125777523D01*
X149058380Y-125444190D02*
X149058380Y-124825142D01*
X149439333Y-125158476D01*
X149439333Y-125015619D01*
X149486952Y-124920380D01*
X149534571Y-124872761D01*
X149629809Y-124825142D01*
X149867904Y-124825142D01*
X149963142Y-124872761D01*
X150010761Y-124920380D01*
X150058380Y-125015619D01*
X150058380Y-125301333D01*
X150010761Y-125396571D01*
X149963142Y-125444190D01*
X149058380Y-123920380D02*
X149058380Y-124396571D01*
X149534571Y-124444190D01*
X149486952Y-124396571D01*
X149439333Y-124301333D01*
X149439333Y-124063238D01*
X149486952Y-123968000D01*
X149534571Y-123920380D01*
X149629809Y-123872761D01*
X149867904Y-123872761D01*
X149963142Y-123920380D01*
X150010761Y-123968000D01*
X150058380Y-124063238D01*
X150058380Y-124301333D01*
X150010761Y-124396571D01*
X149963142Y-124444190D01*
X149058380Y-123539428D02*
X149058380Y-122920380D01*
X149439333Y-123253714D01*
X149439333Y-123110857D01*
X149486952Y-123015619D01*
X149534571Y-122968000D01*
X149629809Y-122920380D01*
X149867904Y-122920380D01*
X149963142Y-122968000D01*
X150010761Y-123015619D01*
X150058380Y-123110857D01*
X150058380Y-123396571D01*
X150010761Y-123491809D01*
X149963142Y-123539428D01*
X149058380Y-122301333D02*
X149058380Y-122206095D01*
X149106000Y-122110857D01*
X149153619Y-122063238D01*
X149248857Y-122015619D01*
X149439333Y-121968000D01*
X149677428Y-121968000D01*
X149867904Y-122015619D01*
X149963142Y-122063238D01*
X150010761Y-122110857D01*
X150058380Y-122206095D01*
X150058380Y-122301333D01*
X150010761Y-122396571D01*
X149963142Y-122444190D01*
X149867904Y-122491809D01*
X149677428Y-122539428D01*
X149439333Y-122539428D01*
X149248857Y-122491809D01*
X149153619Y-122444190D01*
X149106000Y-122396571D01*
X149058380Y-122301333D01*
D10*
X151384000Y-110998000D02*
X151130000Y-110998000D01*
X151384000Y-130302000D02*
X151384000Y-110998000D01*
X151130000Y-130302000D02*
X151384000Y-130302000D01*
X151130000Y-110998000D02*
X151130000Y-130302000D01*
X151966000Y-97282000D02*
X150566000Y-98582000D01*
X151966000Y-97282000D02*
X150566000Y-95882000D01*
X141966000Y-97282000D02*
X151966000Y-97282000D01*
X136436000Y-94152000D02*
X139096000Y-94152000D01*
X136436000Y-88952000D02*
X137766000Y-88952000D01*
X139096000Y-91552000D02*
X139096000Y-94152000D01*
X155036000Y-90282000D02*
X155036000Y-88952000D01*
X155036000Y-101582000D02*
X155036000Y-100252000D01*
X155036000Y-91552000D02*
X155036000Y-94152000D01*
X155036000Y-102852000D02*
X155036000Y-105452000D01*
X139096000Y-102852000D02*
X139096000Y-105452000D01*
X155036000Y-88952000D02*
X156366000Y-88952000D01*
X136436000Y-100252000D02*
X137766000Y-100252000D01*
X155036000Y-100252000D02*
X156366000Y-100252000D01*
X155036000Y-94152000D02*
X157696000Y-94152000D01*
X136436000Y-105452000D02*
X139096000Y-105452000D01*
X155036000Y-105452000D02*
X157696000Y-105452000D01*
X176486000Y-89606000D02*
X175236000Y-89606000D01*
X176486000Y-90856000D02*
X176486000Y-89606000D01*
X170986000Y-96756000D02*
X170986000Y-93706000D01*
X173936000Y-96756000D02*
X170986000Y-96756000D01*
X173936000Y-97506000D02*
X173936000Y-96756000D01*
X170986000Y-90656000D02*
X170986000Y-93706000D01*
X173936000Y-90656000D02*
X170986000Y-90656000D01*
X173936000Y-89906000D02*
X173936000Y-90656000D01*
X176186000Y-97506000D02*
X176186000Y-95706000D01*
X175436000Y-97506000D02*
X176186000Y-97506000D01*
X175436000Y-95706000D02*
X175436000Y-97506000D01*
X176186000Y-95706000D02*
X175436000Y-95706000D01*
X176186000Y-91706000D02*
X176186000Y-89906000D01*
X175436000Y-91706000D02*
X176186000Y-91706000D01*
X175436000Y-89906000D02*
X175436000Y-91706000D01*
X176186000Y-89906000D02*
X175436000Y-89906000D01*
X176186000Y-94206000D02*
X176186000Y-93206000D01*
X175436000Y-94206000D02*
X176186000Y-94206000D01*
X175436000Y-93206000D02*
X175436000Y-94206000D01*
X176186000Y-93206000D02*
X175436000Y-93206000D01*
X176196000Y-97516000D02*
X176196000Y-89896000D01*
X170226000Y-97516000D02*
X176196000Y-97516000D01*
X170226000Y-89896000D02*
X170226000Y-97516000D01*
X176196000Y-89896000D02*
X170226000Y-89896000D01*
X174244000Y-133350000D02*
X133604000Y-133350000D01*
X174244000Y-130810000D02*
X133604000Y-130810000D01*
X133604000Y-130810000D02*
X133604000Y-133350000D01*
X138624000Y-107890000D02*
X138624000Y-110490000D01*
X171704000Y-107890000D02*
X138624000Y-107890000D01*
X174304000Y-110490000D02*
X138624000Y-110490000D01*
X171704000Y-107890000D02*
X171704000Y-110490000D01*
X171704000Y-110490000D02*
X174304000Y-110490000D01*
X174304000Y-130810000D02*
X174304000Y-133350000D01*
X172974000Y-107890000D02*
X174304000Y-107890000D01*
X174304000Y-107890000D02*
X174304000Y-109220000D01*
D12*
X128243000Y-94307000D02*
G75*
G03*
X128243000Y-94307000I-100000J0D01*
G01*
D13*
X105393000Y-89657000D02*
X125893000Y-89657000D01*
X105393000Y-130957000D02*
X105393000Y-89657000D01*
X125893000Y-130957000D02*
X105393000Y-130957000D01*
X125893000Y-89657000D02*
X125893000Y-130957000D01*
D10*
X170956500Y-104901276D02*
X170956500Y-105410724D01*
X169911500Y-104901276D02*
X169911500Y-105410724D01*
X168416500Y-105410724D02*
X168416500Y-104901276D01*
X167371500Y-105410724D02*
X167371500Y-104901276D01*
X155340267Y-124458000D02*
X155047733Y-124458000D01*
X155340267Y-125478000D02*
X155047733Y-125478000D01*
X162706267Y-125478000D02*
X162413733Y-125478000D01*
X162706267Y-124458000D02*
X162413733Y-124458000D01*
X165930000Y-113078000D02*
X165930000Y-120013000D01*
X165930000Y-120013000D02*
X169350000Y-120013000D01*
X169350000Y-120013000D02*
X169350000Y-113078000D01*
X156936000Y-118348000D02*
X156936000Y-116348000D01*
X156936000Y-116348000D02*
X153036000Y-116348000D01*
X156936000Y-118348000D02*
X153036000Y-118348000D01*
D12*
X173179000Y-98505000D02*
X173179000Y-99555000D01*
X170254000Y-99905000D02*
X173154000Y-99905000D01*
X170254000Y-100755000D02*
X170254000Y-99905000D01*
X173154000Y-100755000D02*
X170254000Y-100755000D01*
X173154000Y-99905000D02*
X173154000Y-100755000D01*
X164035000Y-113950000D02*
X164035000Y-114650000D01*
X164035000Y-114650000D02*
X161085000Y-114650000D01*
X161085000Y-114650000D02*
X161085000Y-113950000D01*
X161085000Y-113950000D02*
X164035000Y-113950000D01*
X164060000Y-112400000D02*
X164060000Y-113600000D01*
D14*
X170172000Y-126806000D02*
X169172000Y-126806000D01*
X170172000Y-121606000D02*
X169172000Y-121606000D01*
D10*
X156266000Y-113032000D02*
X155336000Y-113032000D01*
X153106000Y-113032000D02*
X154036000Y-113032000D01*
X153106000Y-113032000D02*
X153106000Y-115192000D01*
X156266000Y-113032000D02*
X156266000Y-114492000D01*
X162291500Y-104901276D02*
X162291500Y-105410724D01*
X163336500Y-104901276D02*
X163336500Y-105410724D01*
X164831500Y-105410724D02*
X164831500Y-104901276D01*
X165876500Y-105410724D02*
X165876500Y-104901276D01*
X172451500Y-104901276D02*
X172451500Y-105410724D01*
X173496500Y-104901276D02*
X173496500Y-105410724D01*
X154939276Y-126731500D02*
X155448724Y-126731500D01*
X154939276Y-127776500D02*
X155448724Y-127776500D01*
X162305276Y-119873500D02*
X162814724Y-119873500D01*
X162305276Y-120918500D02*
X162814724Y-120918500D01*
X162814724Y-117587500D02*
X162305276Y-117587500D01*
X162814724Y-118632500D02*
X162305276Y-118632500D01*
X162814724Y-127776500D02*
X162305276Y-127776500D01*
X162814724Y-126731500D02*
X162305276Y-126731500D01*
X162305276Y-123204500D02*
X162814724Y-123204500D01*
X162305276Y-122159500D02*
X162814724Y-122159500D01*
X162066000Y-89821000D02*
X162066000Y-94206000D01*
X165086000Y-89821000D02*
X162066000Y-89821000D01*
X165086000Y-94206000D02*
X165086000Y-89821000D01*
X165086000Y-101695000D02*
X165086000Y-97310000D01*
X162066000Y-101695000D02*
X165086000Y-101695000D01*
X162066000Y-97310000D02*
X162066000Y-101695000D01*
X150624000Y-117455733D02*
X150624000Y-117748267D01*
X149604000Y-117455733D02*
X149604000Y-117748267D01*
X137924000Y-113938267D02*
X137924000Y-113645733D01*
X136904000Y-113938267D02*
X136904000Y-113645733D01*
X150624000Y-113938267D02*
X150624000Y-113645733D01*
X149604000Y-113938267D02*
X149604000Y-113645733D01*
X144633733Y-125474000D02*
X144926267Y-125474000D01*
X144633733Y-126494000D02*
X144926267Y-126494000D01*
D14*
X138676000Y-121606000D02*
X137676000Y-121606000D01*
X138676000Y-126806000D02*
X137676000Y-126806000D01*
D10*
X147051500Y-117856724D02*
X147051500Y-117347276D01*
X148096500Y-117856724D02*
X148096500Y-117347276D01*
X143016500Y-114046724D02*
X143016500Y-113537276D01*
X141971500Y-114046724D02*
X141971500Y-113537276D01*
X139431500Y-114046724D02*
X139431500Y-113537276D01*
X140476500Y-114046724D02*
X140476500Y-113537276D01*
X145556500Y-113537276D02*
X145556500Y-114046724D01*
X144511500Y-113537276D02*
X144511500Y-114046724D01*
X145034724Y-120381500D02*
X144525276Y-120381500D01*
X145034724Y-121426500D02*
X144525276Y-121426500D01*
X147051500Y-114046724D02*
X147051500Y-113537276D01*
X148096500Y-114046724D02*
X148096500Y-113537276D01*
X145034724Y-122921500D02*
X144525276Y-122921500D01*
X145034724Y-123966500D02*
X144525276Y-123966500D01*
D15*
X143662400Y-116128800D02*
X143662400Y-115925600D01*
X140309600Y-119075200D02*
X140309600Y-119278400D01*
X140309600Y-119278400D02*
X143662400Y-119278400D01*
X143662400Y-119278400D02*
X143662400Y-119075200D01*
X143662400Y-115925600D02*
X140309600Y-115925600D01*
X140309600Y-115925600D02*
X140309600Y-116128800D01*
D16*
G36*
X145376900Y-116410740D02*
G01*
X145376900Y-116791741D01*
X145122900Y-116791741D01*
X145122900Y-116410740D01*
X145376900Y-116410740D01*
G37*
X145376900Y-116410740D02*
X145376900Y-116791741D01*
X145122900Y-116791741D01*
X145122900Y-116410740D01*
X145376900Y-116410740D01*
D10*
X170248000Y-113078000D02*
X170248000Y-120013000D01*
X170248000Y-120013000D02*
X173668000Y-120013000D01*
X173668000Y-120013000D02*
X173668000Y-113078000D01*
X152448000Y-122868000D02*
X159383000Y-122868000D01*
X159383000Y-122868000D02*
X159383000Y-119448000D01*
X159383000Y-119448000D02*
X152448000Y-119448000D01*
X176078000Y-109322000D02*
X176078000Y-112182000D01*
X176078000Y-112182000D02*
X177998000Y-112182000D01*
X177998000Y-112182000D02*
X177998000Y-109322000D01*
X177560500Y-105663276D02*
X177560500Y-106172724D01*
X176515500Y-105663276D02*
X176515500Y-106172724D01*
D14*
X146532666Y-93088666D02*
X146532666Y-93655333D01*
X146566000Y-93722000D01*
X146599333Y-93755333D01*
X146666000Y-93788666D01*
X146799333Y-93788666D01*
X146866000Y-93755333D01*
X146899333Y-93722000D01*
X146932666Y-93655333D01*
X146932666Y-93088666D01*
X147632666Y-93788666D02*
X147232666Y-93788666D01*
X147432666Y-93788666D02*
X147432666Y-93088666D01*
X147366000Y-93188666D01*
X147299333Y-93255333D01*
X147232666Y-93288666D01*
D11*
X150511833Y-91004380D02*
X150702309Y-91004380D01*
X150797547Y-91052000D01*
X150892785Y-91147238D01*
X150940404Y-91337714D01*
X150940404Y-91671047D01*
X150892785Y-91861523D01*
X150797547Y-91956761D01*
X150702309Y-92004380D01*
X150511833Y-92004380D01*
X150416595Y-91956761D01*
X150321357Y-91861523D01*
X150273738Y-91671047D01*
X150273738Y-91337714D01*
X150321357Y-91147238D01*
X150416595Y-91052000D01*
X150511833Y-91004380D01*
X151368976Y-91004380D02*
X151368976Y-91813904D01*
X151416595Y-91909142D01*
X151464214Y-91956761D01*
X151559452Y-92004380D01*
X151749928Y-92004380D01*
X151845166Y-91956761D01*
X151892785Y-91909142D01*
X151940404Y-91813904D01*
X151940404Y-91004380D01*
X152273738Y-91004380D02*
X152845166Y-91004380D01*
X152559452Y-92004380D02*
X152559452Y-91004380D01*
X153178500Y-91623428D02*
X153940404Y-91623428D01*
X150511833Y-102434380D02*
X150702309Y-102434380D01*
X150797547Y-102482000D01*
X150892785Y-102577238D01*
X150940404Y-102767714D01*
X150940404Y-103101047D01*
X150892785Y-103291523D01*
X150797547Y-103386761D01*
X150702309Y-103434380D01*
X150511833Y-103434380D01*
X150416595Y-103386761D01*
X150321357Y-103291523D01*
X150273738Y-103101047D01*
X150273738Y-102767714D01*
X150321357Y-102577238D01*
X150416595Y-102482000D01*
X150511833Y-102434380D01*
X151368976Y-102434380D02*
X151368976Y-103243904D01*
X151416595Y-103339142D01*
X151464214Y-103386761D01*
X151559452Y-103434380D01*
X151749928Y-103434380D01*
X151845166Y-103386761D01*
X151892785Y-103339142D01*
X151940404Y-103243904D01*
X151940404Y-102434380D01*
X152273738Y-102434380D02*
X152845166Y-102434380D01*
X152559452Y-103434380D02*
X152559452Y-102434380D01*
X153178500Y-103053428D02*
X153940404Y-103053428D01*
X153559452Y-103434380D02*
X153559452Y-102672476D01*
X140641595Y-92004380D02*
X140641595Y-91004380D01*
X141117785Y-92004380D02*
X141117785Y-91004380D01*
X141689214Y-92004380D01*
X141689214Y-91004380D01*
X142165404Y-91623428D02*
X142927309Y-91623428D01*
X140641595Y-103434380D02*
X140641595Y-102434380D01*
X141117785Y-103434380D02*
X141117785Y-102434380D01*
X141689214Y-103434380D01*
X141689214Y-102434380D01*
X142165404Y-103053428D02*
X142927309Y-103053428D01*
X142546357Y-103434380D02*
X142546357Y-102672476D01*
D14*
X171320666Y-93939333D02*
X171820666Y-93939333D01*
X171920666Y-93972666D01*
X171987333Y-94039333D01*
X172020666Y-94139333D01*
X172020666Y-94206000D01*
X171320666Y-93672666D02*
X171320666Y-93239333D01*
X171587333Y-93472666D01*
X171587333Y-93372666D01*
X171620666Y-93306000D01*
X171654000Y-93272666D01*
X171720666Y-93239333D01*
X171887333Y-93239333D01*
X171954000Y-93272666D01*
X171987333Y-93306000D01*
X172020666Y-93372666D01*
X172020666Y-93572666D01*
X171987333Y-93639333D01*
X171954000Y-93672666D01*
X137284666Y-109453333D02*
X137784666Y-109453333D01*
X137884666Y-109486666D01*
X137951333Y-109553333D01*
X137984666Y-109653333D01*
X137984666Y-109720000D01*
X137351333Y-109153333D02*
X137318000Y-109120000D01*
X137284666Y-109053333D01*
X137284666Y-108886666D01*
X137318000Y-108820000D01*
X137351333Y-108786666D01*
X137418000Y-108753333D01*
X137484666Y-108753333D01*
X137584666Y-108786666D01*
X137984666Y-109186666D01*
X137984666Y-108753333D01*
X172091666Y-110868666D02*
X172525000Y-110868666D01*
X172291666Y-111135333D01*
X172391666Y-111135333D01*
X172458333Y-111168666D01*
X172491666Y-111202000D01*
X172525000Y-111268666D01*
X172525000Y-111435333D01*
X172491666Y-111502000D01*
X172458333Y-111535333D01*
X172391666Y-111568666D01*
X172191666Y-111568666D01*
X172125000Y-111535333D01*
X172091666Y-111502000D01*
X172725000Y-110868666D02*
X172958333Y-111568666D01*
X173191666Y-110868666D01*
X173358333Y-110868666D02*
X173791666Y-110868666D01*
X173558333Y-111135333D01*
X173658333Y-111135333D01*
X173725000Y-111168666D01*
X173758333Y-111202000D01*
X173791666Y-111268666D01*
X173791666Y-111435333D01*
X173758333Y-111502000D01*
X173725000Y-111535333D01*
X173658333Y-111568666D01*
X173458333Y-111568666D01*
X173391666Y-111535333D01*
X173358333Y-111502000D01*
X170384000Y-111755000D02*
X170384000Y-111521666D01*
X170750666Y-111421666D02*
X170750666Y-111755000D01*
X170050666Y-111755000D01*
X170050666Y-111421666D01*
X170750666Y-111121666D02*
X170050666Y-111121666D01*
X170750666Y-110721666D01*
X170050666Y-110721666D01*
X168177333Y-112388333D02*
X168210666Y-112288333D01*
X168210666Y-112121666D01*
X168177333Y-112055000D01*
X168144000Y-112021666D01*
X168077333Y-111988333D01*
X168010666Y-111988333D01*
X167944000Y-112021666D01*
X167910666Y-112055000D01*
X167877333Y-112121666D01*
X167844000Y-112255000D01*
X167810666Y-112321666D01*
X167777333Y-112355000D01*
X167710666Y-112388333D01*
X167644000Y-112388333D01*
X167577333Y-112355000D01*
X167544000Y-112321666D01*
X167510666Y-112255000D01*
X167510666Y-112088333D01*
X167544000Y-111988333D01*
X167510666Y-111788333D02*
X168210666Y-111555000D01*
X167510666Y-111321666D01*
X168210666Y-111088333D02*
X167510666Y-111088333D01*
X167510666Y-110821666D01*
X167544000Y-110755000D01*
X167577333Y-110721666D01*
X167644000Y-110688333D01*
X167744000Y-110688333D01*
X167810666Y-110721666D01*
X167844000Y-110755000D01*
X167877333Y-110821666D01*
X167877333Y-111088333D01*
X165637333Y-112421666D02*
X165670666Y-112321666D01*
X165670666Y-112155000D01*
X165637333Y-112088333D01*
X165604000Y-112055000D01*
X165537333Y-112021666D01*
X165470666Y-112021666D01*
X165404000Y-112055000D01*
X165370666Y-112088333D01*
X165337333Y-112155000D01*
X165304000Y-112288333D01*
X165270666Y-112355000D01*
X165237333Y-112388333D01*
X165170666Y-112421666D01*
X165104000Y-112421666D01*
X165037333Y-112388333D01*
X165004000Y-112355000D01*
X164970666Y-112288333D01*
X164970666Y-112121666D01*
X165004000Y-112021666D01*
X164970666Y-111821666D02*
X165670666Y-111588333D01*
X164970666Y-111355000D01*
X165670666Y-111121666D02*
X164970666Y-111121666D01*
X165670666Y-110721666D01*
X164970666Y-110721666D01*
X161531666Y-107758666D02*
X161531666Y-107058666D01*
X161998333Y-107058666D02*
X162131666Y-107058666D01*
X162198333Y-107092000D01*
X162265000Y-107158666D01*
X162298333Y-107292000D01*
X162298333Y-107525333D01*
X162265000Y-107658666D01*
X162198333Y-107725333D01*
X162131666Y-107758666D01*
X161998333Y-107758666D01*
X161931666Y-107725333D01*
X161865000Y-107658666D01*
X161831666Y-107525333D01*
X161831666Y-107292000D01*
X161865000Y-107158666D01*
X161931666Y-107092000D01*
X161998333Y-107058666D01*
X162531666Y-107058666D02*
X162965000Y-107058666D01*
X162731666Y-107325333D01*
X162831666Y-107325333D01*
X162898333Y-107358666D01*
X162931666Y-107392000D01*
X162965000Y-107458666D01*
X162965000Y-107625333D01*
X162931666Y-107692000D01*
X162898333Y-107725333D01*
X162831666Y-107758666D01*
X162631666Y-107758666D01*
X162565000Y-107725333D01*
X162531666Y-107692000D01*
X163565000Y-107292000D02*
X163565000Y-107758666D01*
X163398333Y-107025333D02*
X163231666Y-107525333D01*
X163665000Y-107525333D01*
X160590666Y-112788333D02*
X159890666Y-112788333D01*
X159890666Y-112321666D02*
X159890666Y-112188333D01*
X159924000Y-112121666D01*
X159990666Y-112055000D01*
X160124000Y-112021666D01*
X160357333Y-112021666D01*
X160490666Y-112055000D01*
X160557333Y-112121666D01*
X160590666Y-112188333D01*
X160590666Y-112321666D01*
X160557333Y-112388333D01*
X160490666Y-112455000D01*
X160357333Y-112488333D01*
X160124000Y-112488333D01*
X159990666Y-112455000D01*
X159924000Y-112388333D01*
X159890666Y-112321666D01*
X159890666Y-111788333D02*
X159890666Y-111355000D01*
X160157333Y-111588333D01*
X160157333Y-111488333D01*
X160190666Y-111421666D01*
X160224000Y-111388333D01*
X160290666Y-111355000D01*
X160457333Y-111355000D01*
X160524000Y-111388333D01*
X160557333Y-111421666D01*
X160590666Y-111488333D01*
X160590666Y-111688333D01*
X160557333Y-111755000D01*
X160524000Y-111788333D01*
X159890666Y-110721666D02*
X159890666Y-111055000D01*
X160224000Y-111088333D01*
X160190666Y-111055000D01*
X160157333Y-110988333D01*
X160157333Y-110821666D01*
X160190666Y-110755000D01*
X160224000Y-110721666D01*
X160290666Y-110688333D01*
X160457333Y-110688333D01*
X160524000Y-110721666D01*
X160557333Y-110755000D01*
X160590666Y-110821666D01*
X160590666Y-110988333D01*
X160557333Y-111055000D01*
X160524000Y-111088333D01*
X158050666Y-112788333D02*
X157350666Y-112788333D01*
X157350666Y-112321666D02*
X157350666Y-112188333D01*
X157384000Y-112121666D01*
X157450666Y-112055000D01*
X157584000Y-112021666D01*
X157817333Y-112021666D01*
X157950666Y-112055000D01*
X158017333Y-112121666D01*
X158050666Y-112188333D01*
X158050666Y-112321666D01*
X158017333Y-112388333D01*
X157950666Y-112455000D01*
X157817333Y-112488333D01*
X157584000Y-112488333D01*
X157450666Y-112455000D01*
X157384000Y-112388333D01*
X157350666Y-112321666D01*
X157350666Y-111788333D02*
X157350666Y-111355000D01*
X157617333Y-111588333D01*
X157617333Y-111488333D01*
X157650666Y-111421666D01*
X157684000Y-111388333D01*
X157750666Y-111355000D01*
X157917333Y-111355000D01*
X157984000Y-111388333D01*
X158017333Y-111421666D01*
X158050666Y-111488333D01*
X158050666Y-111688333D01*
X158017333Y-111755000D01*
X157984000Y-111788333D01*
X157417333Y-111088333D02*
X157384000Y-111055000D01*
X157350666Y-110988333D01*
X157350666Y-110821666D01*
X157384000Y-110755000D01*
X157417333Y-110721666D01*
X157484000Y-110688333D01*
X157550666Y-110688333D01*
X157650666Y-110721666D01*
X158050666Y-111121666D01*
X158050666Y-110688333D01*
X155510666Y-107708333D02*
X154810666Y-107708333D01*
X154810666Y-107241666D02*
X154810666Y-107108333D01*
X154844000Y-107041666D01*
X154910666Y-106975000D01*
X155044000Y-106941666D01*
X155277333Y-106941666D01*
X155410666Y-106975000D01*
X155477333Y-107041666D01*
X155510666Y-107108333D01*
X155510666Y-107241666D01*
X155477333Y-107308333D01*
X155410666Y-107375000D01*
X155277333Y-107408333D01*
X155044000Y-107408333D01*
X154910666Y-107375000D01*
X154844000Y-107308333D01*
X154810666Y-107241666D01*
X154810666Y-106708333D02*
X154810666Y-106275000D01*
X155077333Y-106508333D01*
X155077333Y-106408333D01*
X155110666Y-106341666D01*
X155144000Y-106308333D01*
X155210666Y-106275000D01*
X155377333Y-106275000D01*
X155444000Y-106308333D01*
X155477333Y-106341666D01*
X155510666Y-106408333D01*
X155510666Y-106608333D01*
X155477333Y-106675000D01*
X155444000Y-106708333D01*
X154810666Y-106041666D02*
X154810666Y-105608333D01*
X155077333Y-105841666D01*
X155077333Y-105741666D01*
X155110666Y-105675000D01*
X155144000Y-105641666D01*
X155210666Y-105608333D01*
X155377333Y-105608333D01*
X155444000Y-105641666D01*
X155477333Y-105675000D01*
X155510666Y-105741666D01*
X155510666Y-105941666D01*
X155477333Y-106008333D01*
X155444000Y-106041666D01*
X152970666Y-107708333D02*
X152270666Y-107708333D01*
X152270666Y-107241666D02*
X152270666Y-107108333D01*
X152304000Y-107041666D01*
X152370666Y-106975000D01*
X152504000Y-106941666D01*
X152737333Y-106941666D01*
X152870666Y-106975000D01*
X152937333Y-107041666D01*
X152970666Y-107108333D01*
X152970666Y-107241666D01*
X152937333Y-107308333D01*
X152870666Y-107375000D01*
X152737333Y-107408333D01*
X152504000Y-107408333D01*
X152370666Y-107375000D01*
X152304000Y-107308333D01*
X152270666Y-107241666D01*
X152337333Y-106675000D02*
X152304000Y-106641666D01*
X152270666Y-106575000D01*
X152270666Y-106408333D01*
X152304000Y-106341666D01*
X152337333Y-106308333D01*
X152404000Y-106275000D01*
X152470666Y-106275000D01*
X152570666Y-106308333D01*
X152970666Y-106708333D01*
X152970666Y-106275000D01*
X152270666Y-105641666D02*
X152270666Y-105975000D01*
X152604000Y-106008333D01*
X152570666Y-105975000D01*
X152537333Y-105908333D01*
X152537333Y-105741666D01*
X152570666Y-105675000D01*
X152604000Y-105641666D01*
X152670666Y-105608333D01*
X152837333Y-105608333D01*
X152904000Y-105641666D01*
X152937333Y-105675000D01*
X152970666Y-105741666D01*
X152970666Y-105908333D01*
X152937333Y-105975000D01*
X152904000Y-106008333D01*
X150430666Y-107708333D02*
X149730666Y-107708333D01*
X149730666Y-107241666D02*
X149730666Y-107108333D01*
X149764000Y-107041666D01*
X149830666Y-106975000D01*
X149964000Y-106941666D01*
X150197333Y-106941666D01*
X150330666Y-106975000D01*
X150397333Y-107041666D01*
X150430666Y-107108333D01*
X150430666Y-107241666D01*
X150397333Y-107308333D01*
X150330666Y-107375000D01*
X150197333Y-107408333D01*
X149964000Y-107408333D01*
X149830666Y-107375000D01*
X149764000Y-107308333D01*
X149730666Y-107241666D01*
X149797333Y-106675000D02*
X149764000Y-106641666D01*
X149730666Y-106575000D01*
X149730666Y-106408333D01*
X149764000Y-106341666D01*
X149797333Y-106308333D01*
X149864000Y-106275000D01*
X149930666Y-106275000D01*
X150030666Y-106308333D01*
X150430666Y-106708333D01*
X150430666Y-106275000D01*
X149730666Y-105675000D02*
X149730666Y-105808333D01*
X149764000Y-105875000D01*
X149797333Y-105908333D01*
X149897333Y-105975000D01*
X150030666Y-106008333D01*
X150297333Y-106008333D01*
X150364000Y-105975000D01*
X150397333Y-105941666D01*
X150430666Y-105875000D01*
X150430666Y-105741666D01*
X150397333Y-105675000D01*
X150364000Y-105641666D01*
X150297333Y-105608333D01*
X150130666Y-105608333D01*
X150064000Y-105641666D01*
X150030666Y-105675000D01*
X149997333Y-105741666D01*
X149997333Y-105875000D01*
X150030666Y-105941666D01*
X150064000Y-105975000D01*
X150130666Y-106008333D01*
X147890666Y-107708333D02*
X147190666Y-107708333D01*
X147190666Y-107241666D02*
X147190666Y-107108333D01*
X147224000Y-107041666D01*
X147290666Y-106975000D01*
X147424000Y-106941666D01*
X147657333Y-106941666D01*
X147790666Y-106975000D01*
X147857333Y-107041666D01*
X147890666Y-107108333D01*
X147890666Y-107241666D01*
X147857333Y-107308333D01*
X147790666Y-107375000D01*
X147657333Y-107408333D01*
X147424000Y-107408333D01*
X147290666Y-107375000D01*
X147224000Y-107308333D01*
X147190666Y-107241666D01*
X147257333Y-106675000D02*
X147224000Y-106641666D01*
X147190666Y-106575000D01*
X147190666Y-106408333D01*
X147224000Y-106341666D01*
X147257333Y-106308333D01*
X147324000Y-106275000D01*
X147390666Y-106275000D01*
X147490666Y-106308333D01*
X147890666Y-106708333D01*
X147890666Y-106275000D01*
X147190666Y-106041666D02*
X147190666Y-105575000D01*
X147890666Y-105875000D01*
X145350666Y-107708333D02*
X144650666Y-107708333D01*
X144650666Y-107241666D02*
X144650666Y-107108333D01*
X144684000Y-107041666D01*
X144750666Y-106975000D01*
X144884000Y-106941666D01*
X145117333Y-106941666D01*
X145250666Y-106975000D01*
X145317333Y-107041666D01*
X145350666Y-107108333D01*
X145350666Y-107241666D01*
X145317333Y-107308333D01*
X145250666Y-107375000D01*
X145117333Y-107408333D01*
X144884000Y-107408333D01*
X144750666Y-107375000D01*
X144684000Y-107308333D01*
X144650666Y-107241666D01*
X145350666Y-106275000D02*
X145350666Y-106675000D01*
X145350666Y-106475000D02*
X144650666Y-106475000D01*
X144750666Y-106541666D01*
X144817333Y-106608333D01*
X144850666Y-106675000D01*
X144884000Y-105675000D02*
X145350666Y-105675000D01*
X144617333Y-105841666D02*
X145117333Y-106008333D01*
X145117333Y-105575000D01*
X142810666Y-107962333D02*
X142110666Y-107962333D01*
X142110666Y-107495666D02*
X142110666Y-107362333D01*
X142144000Y-107295666D01*
X142210666Y-107229000D01*
X142344000Y-107195666D01*
X142577333Y-107195666D01*
X142710666Y-107229000D01*
X142777333Y-107295666D01*
X142810666Y-107362333D01*
X142810666Y-107495666D01*
X142777333Y-107562333D01*
X142710666Y-107629000D01*
X142577333Y-107662333D01*
X142344000Y-107662333D01*
X142210666Y-107629000D01*
X142144000Y-107562333D01*
X142110666Y-107495666D01*
X142810666Y-106529000D02*
X142810666Y-106929000D01*
X142810666Y-106729000D02*
X142110666Y-106729000D01*
X142210666Y-106795666D01*
X142277333Y-106862333D01*
X142310666Y-106929000D01*
X142177333Y-106262333D02*
X142144000Y-106229000D01*
X142110666Y-106162333D01*
X142110666Y-105995666D01*
X142144000Y-105929000D01*
X142177333Y-105895666D01*
X142244000Y-105862333D01*
X142310666Y-105862333D01*
X142410666Y-105895666D01*
X142810666Y-106295666D01*
X142810666Y-105862333D01*
X140270666Y-107962333D02*
X139570666Y-107962333D01*
X139570666Y-107495666D02*
X139570666Y-107362333D01*
X139604000Y-107295666D01*
X139670666Y-107229000D01*
X139804000Y-107195666D01*
X140037333Y-107195666D01*
X140170666Y-107229000D01*
X140237333Y-107295666D01*
X140270666Y-107362333D01*
X140270666Y-107495666D01*
X140237333Y-107562333D01*
X140170666Y-107629000D01*
X140037333Y-107662333D01*
X139804000Y-107662333D01*
X139670666Y-107629000D01*
X139604000Y-107562333D01*
X139570666Y-107495666D01*
X140270666Y-106529000D02*
X140270666Y-106929000D01*
X140270666Y-106729000D02*
X139570666Y-106729000D01*
X139670666Y-106795666D01*
X139737333Y-106862333D01*
X139770666Y-106929000D01*
X139570666Y-106295666D02*
X139570666Y-105862333D01*
X139837333Y-106095666D01*
X139837333Y-105995666D01*
X139870666Y-105929000D01*
X139904000Y-105895666D01*
X139970666Y-105862333D01*
X140137333Y-105862333D01*
X140204000Y-105895666D01*
X140237333Y-105929000D01*
X140270666Y-105995666D01*
X140270666Y-106195666D01*
X140237333Y-106262333D01*
X140204000Y-106295666D01*
X172624000Y-130211666D02*
X172590666Y-130278333D01*
X172590666Y-130378333D01*
X172624000Y-130478333D01*
X172690666Y-130545000D01*
X172757333Y-130578333D01*
X172890666Y-130611666D01*
X172990666Y-130611666D01*
X173124000Y-130578333D01*
X173190666Y-130545000D01*
X173257333Y-130478333D01*
X173290666Y-130378333D01*
X173290666Y-130311666D01*
X173257333Y-130211666D01*
X173224000Y-130178333D01*
X172990666Y-130178333D01*
X172990666Y-130311666D01*
X173290666Y-129878333D02*
X172590666Y-129878333D01*
X173290666Y-129478333D01*
X172590666Y-129478333D01*
X173290666Y-129145000D02*
X172590666Y-129145000D01*
X172590666Y-128978333D01*
X172624000Y-128878333D01*
X172690666Y-128811666D01*
X172757333Y-128778333D01*
X172890666Y-128745000D01*
X172990666Y-128745000D01*
X173124000Y-128778333D01*
X173190666Y-128811666D01*
X173257333Y-128878333D01*
X173290666Y-128978333D01*
X173290666Y-129145000D01*
X170750666Y-130578333D02*
X170050666Y-130578333D01*
X170050666Y-130111666D02*
X170050666Y-129978333D01*
X170084000Y-129911666D01*
X170150666Y-129845000D01*
X170284000Y-129811666D01*
X170517333Y-129811666D01*
X170650666Y-129845000D01*
X170717333Y-129911666D01*
X170750666Y-129978333D01*
X170750666Y-130111666D01*
X170717333Y-130178333D01*
X170650666Y-130245000D01*
X170517333Y-130278333D01*
X170284000Y-130278333D01*
X170150666Y-130245000D01*
X170084000Y-130178333D01*
X170050666Y-130111666D01*
X170117333Y-129545000D02*
X170084000Y-129511666D01*
X170050666Y-129445000D01*
X170050666Y-129278333D01*
X170084000Y-129211666D01*
X170117333Y-129178333D01*
X170184000Y-129145000D01*
X170250666Y-129145000D01*
X170350666Y-129178333D01*
X170750666Y-129578333D01*
X170750666Y-129145000D01*
X170050666Y-128911666D02*
X170050666Y-128478333D01*
X170317333Y-128711666D01*
X170317333Y-128611666D01*
X170350666Y-128545000D01*
X170384000Y-128511666D01*
X170450666Y-128478333D01*
X170617333Y-128478333D01*
X170684000Y-128511666D01*
X170717333Y-128545000D01*
X170750666Y-128611666D01*
X170750666Y-128811666D01*
X170717333Y-128878333D01*
X170684000Y-128911666D01*
X168210666Y-130578333D02*
X167510666Y-130578333D01*
X167510666Y-130111666D02*
X167510666Y-129978333D01*
X167544000Y-129911666D01*
X167610666Y-129845000D01*
X167744000Y-129811666D01*
X167977333Y-129811666D01*
X168110666Y-129845000D01*
X168177333Y-129911666D01*
X168210666Y-129978333D01*
X168210666Y-130111666D01*
X168177333Y-130178333D01*
X168110666Y-130245000D01*
X167977333Y-130278333D01*
X167744000Y-130278333D01*
X167610666Y-130245000D01*
X167544000Y-130178333D01*
X167510666Y-130111666D01*
X167577333Y-129545000D02*
X167544000Y-129511666D01*
X167510666Y-129445000D01*
X167510666Y-129278333D01*
X167544000Y-129211666D01*
X167577333Y-129178333D01*
X167644000Y-129145000D01*
X167710666Y-129145000D01*
X167810666Y-129178333D01*
X168210666Y-129578333D01*
X168210666Y-129145000D01*
X167577333Y-128878333D02*
X167544000Y-128845000D01*
X167510666Y-128778333D01*
X167510666Y-128611666D01*
X167544000Y-128545000D01*
X167577333Y-128511666D01*
X167644000Y-128478333D01*
X167710666Y-128478333D01*
X167810666Y-128511666D01*
X168210666Y-128911666D01*
X168210666Y-128478333D01*
X164970666Y-130678333D02*
X164970666Y-130278333D01*
X165670666Y-130478333D02*
X164970666Y-130478333D01*
X165670666Y-130111666D02*
X165204000Y-129745000D01*
X165204000Y-130111666D02*
X165670666Y-129745000D01*
X165670666Y-129478333D02*
X164970666Y-129478333D01*
X164970666Y-129311666D01*
X165004000Y-129211666D01*
X165070666Y-129145000D01*
X165137333Y-129111666D01*
X165270666Y-129078333D01*
X165370666Y-129078333D01*
X165504000Y-129111666D01*
X165570666Y-129145000D01*
X165637333Y-129211666D01*
X165670666Y-129311666D01*
X165670666Y-129478333D01*
X163130666Y-130178333D02*
X162797333Y-130411666D01*
X163130666Y-130578333D02*
X162430666Y-130578333D01*
X162430666Y-130311666D01*
X162464000Y-130245000D01*
X162497333Y-130211666D01*
X162564000Y-130178333D01*
X162664000Y-130178333D01*
X162730666Y-130211666D01*
X162764000Y-130245000D01*
X162797333Y-130311666D01*
X162797333Y-130578333D01*
X163130666Y-129945000D02*
X162664000Y-129578333D01*
X162664000Y-129945000D02*
X163130666Y-129578333D01*
X163130666Y-129311666D02*
X162430666Y-129311666D01*
X162430666Y-129145000D01*
X162464000Y-129045000D01*
X162530666Y-128978333D01*
X162597333Y-128945000D01*
X162730666Y-128911666D01*
X162830666Y-128911666D01*
X162964000Y-128945000D01*
X163030666Y-128978333D01*
X163097333Y-129045000D01*
X163130666Y-129145000D01*
X163130666Y-129311666D01*
X160590666Y-130578333D02*
X159890666Y-130578333D01*
X159890666Y-130111666D02*
X159890666Y-129978333D01*
X159924000Y-129911666D01*
X159990666Y-129845000D01*
X160124000Y-129811666D01*
X160357333Y-129811666D01*
X160490666Y-129845000D01*
X160557333Y-129911666D01*
X160590666Y-129978333D01*
X160590666Y-130111666D01*
X160557333Y-130178333D01*
X160490666Y-130245000D01*
X160357333Y-130278333D01*
X160124000Y-130278333D01*
X159990666Y-130245000D01*
X159924000Y-130178333D01*
X159890666Y-130111666D01*
X159957333Y-129545000D02*
X159924000Y-129511666D01*
X159890666Y-129445000D01*
X159890666Y-129278333D01*
X159924000Y-129211666D01*
X159957333Y-129178333D01*
X160024000Y-129145000D01*
X160090666Y-129145000D01*
X160190666Y-129178333D01*
X160590666Y-129578333D01*
X160590666Y-129145000D01*
X160590666Y-128478333D02*
X160590666Y-128878333D01*
X160590666Y-128678333D02*
X159890666Y-128678333D01*
X159990666Y-128745000D01*
X160057333Y-128811666D01*
X160090666Y-128878333D01*
X158050666Y-130578333D02*
X157350666Y-130578333D01*
X157350666Y-130111666D02*
X157350666Y-129978333D01*
X157384000Y-129911666D01*
X157450666Y-129845000D01*
X157584000Y-129811666D01*
X157817333Y-129811666D01*
X157950666Y-129845000D01*
X158017333Y-129911666D01*
X158050666Y-129978333D01*
X158050666Y-130111666D01*
X158017333Y-130178333D01*
X157950666Y-130245000D01*
X157817333Y-130278333D01*
X157584000Y-130278333D01*
X157450666Y-130245000D01*
X157384000Y-130178333D01*
X157350666Y-130111666D01*
X158050666Y-129145000D02*
X158050666Y-129545000D01*
X158050666Y-129345000D02*
X157350666Y-129345000D01*
X157450666Y-129411666D01*
X157517333Y-129478333D01*
X157550666Y-129545000D01*
X158050666Y-128811666D02*
X158050666Y-128678333D01*
X158017333Y-128611666D01*
X157984000Y-128578333D01*
X157884000Y-128511666D01*
X157750666Y-128478333D01*
X157484000Y-128478333D01*
X157417333Y-128511666D01*
X157384000Y-128545000D01*
X157350666Y-128611666D01*
X157350666Y-128745000D01*
X157384000Y-128811666D01*
X157417333Y-128845000D01*
X157484000Y-128878333D01*
X157650666Y-128878333D01*
X157717333Y-128845000D01*
X157750666Y-128811666D01*
X157784000Y-128745000D01*
X157784000Y-128611666D01*
X157750666Y-128545000D01*
X157717333Y-128511666D01*
X157650666Y-128478333D01*
X155510666Y-130578333D02*
X154810666Y-130578333D01*
X154810666Y-130111666D02*
X154810666Y-129978333D01*
X154844000Y-129911666D01*
X154910666Y-129845000D01*
X155044000Y-129811666D01*
X155277333Y-129811666D01*
X155410666Y-129845000D01*
X155477333Y-129911666D01*
X155510666Y-129978333D01*
X155510666Y-130111666D01*
X155477333Y-130178333D01*
X155410666Y-130245000D01*
X155277333Y-130278333D01*
X155044000Y-130278333D01*
X154910666Y-130245000D01*
X154844000Y-130178333D01*
X154810666Y-130111666D01*
X155510666Y-129145000D02*
X155510666Y-129545000D01*
X155510666Y-129345000D02*
X154810666Y-129345000D01*
X154910666Y-129411666D01*
X154977333Y-129478333D01*
X155010666Y-129545000D01*
X155110666Y-128745000D02*
X155077333Y-128811666D01*
X155044000Y-128845000D01*
X154977333Y-128878333D01*
X154944000Y-128878333D01*
X154877333Y-128845000D01*
X154844000Y-128811666D01*
X154810666Y-128745000D01*
X154810666Y-128611666D01*
X154844000Y-128545000D01*
X154877333Y-128511666D01*
X154944000Y-128478333D01*
X154977333Y-128478333D01*
X155044000Y-128511666D01*
X155077333Y-128545000D01*
X155110666Y-128611666D01*
X155110666Y-128745000D01*
X155144000Y-128811666D01*
X155177333Y-128845000D01*
X155244000Y-128878333D01*
X155377333Y-128878333D01*
X155444000Y-128845000D01*
X155477333Y-128811666D01*
X155510666Y-128745000D01*
X155510666Y-128611666D01*
X155477333Y-128545000D01*
X155444000Y-128511666D01*
X155377333Y-128478333D01*
X155244000Y-128478333D01*
X155177333Y-128511666D01*
X155144000Y-128545000D01*
X155110666Y-128611666D01*
X152970666Y-130578333D02*
X152270666Y-130578333D01*
X152270666Y-130111666D02*
X152270666Y-129978333D01*
X152304000Y-129911666D01*
X152370666Y-129845000D01*
X152504000Y-129811666D01*
X152737333Y-129811666D01*
X152870666Y-129845000D01*
X152937333Y-129911666D01*
X152970666Y-129978333D01*
X152970666Y-130111666D01*
X152937333Y-130178333D01*
X152870666Y-130245000D01*
X152737333Y-130278333D01*
X152504000Y-130278333D01*
X152370666Y-130245000D01*
X152304000Y-130178333D01*
X152270666Y-130111666D01*
X152270666Y-129178333D02*
X152270666Y-129511666D01*
X152604000Y-129545000D01*
X152570666Y-129511666D01*
X152537333Y-129445000D01*
X152537333Y-129278333D01*
X152570666Y-129211666D01*
X152604000Y-129178333D01*
X152670666Y-129145000D01*
X152837333Y-129145000D01*
X152904000Y-129178333D01*
X152937333Y-129211666D01*
X152970666Y-129278333D01*
X152970666Y-129445000D01*
X152937333Y-129511666D01*
X152904000Y-129545000D01*
X150430666Y-130578333D02*
X149730666Y-130578333D01*
X149730666Y-130111666D02*
X149730666Y-129978333D01*
X149764000Y-129911666D01*
X149830666Y-129845000D01*
X149964000Y-129811666D01*
X150197333Y-129811666D01*
X150330666Y-129845000D01*
X150397333Y-129911666D01*
X150430666Y-129978333D01*
X150430666Y-130111666D01*
X150397333Y-130178333D01*
X150330666Y-130245000D01*
X150197333Y-130278333D01*
X149964000Y-130278333D01*
X149830666Y-130245000D01*
X149764000Y-130178333D01*
X149730666Y-130111666D01*
X149964000Y-129211666D02*
X150430666Y-129211666D01*
X149697333Y-129378333D02*
X150197333Y-129545000D01*
X150197333Y-129111666D01*
X147890666Y-130578333D02*
X147190666Y-130578333D01*
X147190666Y-130111666D02*
X147190666Y-129978333D01*
X147224000Y-129911666D01*
X147290666Y-129845000D01*
X147424000Y-129811666D01*
X147657333Y-129811666D01*
X147790666Y-129845000D01*
X147857333Y-129911666D01*
X147890666Y-129978333D01*
X147890666Y-130111666D01*
X147857333Y-130178333D01*
X147790666Y-130245000D01*
X147657333Y-130278333D01*
X147424000Y-130278333D01*
X147290666Y-130245000D01*
X147224000Y-130178333D01*
X147190666Y-130111666D01*
X147190666Y-129378333D02*
X147190666Y-129311666D01*
X147224000Y-129245000D01*
X147257333Y-129211666D01*
X147324000Y-129178333D01*
X147457333Y-129145000D01*
X147624000Y-129145000D01*
X147757333Y-129178333D01*
X147824000Y-129211666D01*
X147857333Y-129245000D01*
X147890666Y-129311666D01*
X147890666Y-129378333D01*
X147857333Y-129445000D01*
X147824000Y-129478333D01*
X147757333Y-129511666D01*
X147624000Y-129545000D01*
X147457333Y-129545000D01*
X147324000Y-129511666D01*
X147257333Y-129478333D01*
X147224000Y-129445000D01*
X147190666Y-129378333D01*
X145350666Y-130578333D02*
X144650666Y-130578333D01*
X144650666Y-130111666D02*
X144650666Y-129978333D01*
X144684000Y-129911666D01*
X144750666Y-129845000D01*
X144884000Y-129811666D01*
X145117333Y-129811666D01*
X145250666Y-129845000D01*
X145317333Y-129911666D01*
X145350666Y-129978333D01*
X145350666Y-130111666D01*
X145317333Y-130178333D01*
X145250666Y-130245000D01*
X145117333Y-130278333D01*
X144884000Y-130278333D01*
X144750666Y-130245000D01*
X144684000Y-130178333D01*
X144650666Y-130111666D01*
X144717333Y-129545000D02*
X144684000Y-129511666D01*
X144650666Y-129445000D01*
X144650666Y-129278333D01*
X144684000Y-129211666D01*
X144717333Y-129178333D01*
X144784000Y-129145000D01*
X144850666Y-129145000D01*
X144950666Y-129178333D01*
X145350666Y-129578333D01*
X145350666Y-129145000D01*
X142810666Y-130578333D02*
X142110666Y-130578333D01*
X142110666Y-130111666D02*
X142110666Y-129978333D01*
X142144000Y-129911666D01*
X142210666Y-129845000D01*
X142344000Y-129811666D01*
X142577333Y-129811666D01*
X142710666Y-129845000D01*
X142777333Y-129911666D01*
X142810666Y-129978333D01*
X142810666Y-130111666D01*
X142777333Y-130178333D01*
X142710666Y-130245000D01*
X142577333Y-130278333D01*
X142344000Y-130278333D01*
X142210666Y-130245000D01*
X142144000Y-130178333D01*
X142110666Y-130111666D01*
X142810666Y-129145000D02*
X142810666Y-129545000D01*
X142810666Y-129345000D02*
X142110666Y-129345000D01*
X142210666Y-129411666D01*
X142277333Y-129478333D01*
X142310666Y-129545000D01*
X142110666Y-128511666D02*
X142110666Y-128845000D01*
X142444000Y-128878333D01*
X142410666Y-128845000D01*
X142377333Y-128778333D01*
X142377333Y-128611666D01*
X142410666Y-128545000D01*
X142444000Y-128511666D01*
X142510666Y-128478333D01*
X142677333Y-128478333D01*
X142744000Y-128511666D01*
X142777333Y-128545000D01*
X142810666Y-128611666D01*
X142810666Y-128778333D01*
X142777333Y-128845000D01*
X142744000Y-128878333D01*
X137664000Y-130178333D02*
X137697333Y-130211666D01*
X137730666Y-130311666D01*
X137730666Y-130378333D01*
X137697333Y-130478333D01*
X137630666Y-130545000D01*
X137564000Y-130578333D01*
X137430666Y-130611666D01*
X137330666Y-130611666D01*
X137197333Y-130578333D01*
X137130666Y-130545000D01*
X137064000Y-130478333D01*
X137030666Y-130378333D01*
X137030666Y-130311666D01*
X137064000Y-130211666D01*
X137097333Y-130178333D01*
X137530666Y-129911666D02*
X137530666Y-129578333D01*
X137730666Y-129978333D02*
X137030666Y-129745000D01*
X137730666Y-129511666D01*
X137730666Y-129278333D02*
X137030666Y-129278333D01*
X137730666Y-128878333D01*
X137030666Y-128878333D01*
X137730666Y-128211666D02*
X137730666Y-128545000D01*
X137030666Y-128545000D01*
X135124000Y-130178333D02*
X135157333Y-130211666D01*
X135190666Y-130311666D01*
X135190666Y-130378333D01*
X135157333Y-130478333D01*
X135090666Y-130545000D01*
X135024000Y-130578333D01*
X134890666Y-130611666D01*
X134790666Y-130611666D01*
X134657333Y-130578333D01*
X134590666Y-130545000D01*
X134524000Y-130478333D01*
X134490666Y-130378333D01*
X134490666Y-130311666D01*
X134524000Y-130211666D01*
X134557333Y-130178333D01*
X134990666Y-129911666D02*
X134990666Y-129578333D01*
X135190666Y-129978333D02*
X134490666Y-129745000D01*
X135190666Y-129511666D01*
X135190666Y-129278333D02*
X134490666Y-129278333D01*
X135190666Y-128878333D01*
X134490666Y-128878333D01*
X135190666Y-128545000D02*
X134490666Y-128545000D01*
X134824000Y-128545000D02*
X134824000Y-128145000D01*
X135190666Y-128145000D02*
X134490666Y-128145000D01*
X133394666Y-92715333D02*
X133894666Y-92715333D01*
X133994666Y-92748666D01*
X134061333Y-92815333D01*
X134094666Y-92915333D01*
X134094666Y-92982000D01*
X134094666Y-92015333D02*
X134094666Y-92415333D01*
X134094666Y-92215333D02*
X133394666Y-92215333D01*
X133494666Y-92282000D01*
X133561333Y-92348666D01*
X133594666Y-92415333D01*
X170317333Y-103440666D02*
X170084000Y-103107333D01*
X169917333Y-103440666D02*
X169917333Y-102740666D01*
X170184000Y-102740666D01*
X170250666Y-102774000D01*
X170284000Y-102807333D01*
X170317333Y-102874000D01*
X170317333Y-102974000D01*
X170284000Y-103040666D01*
X170250666Y-103074000D01*
X170184000Y-103107333D01*
X169917333Y-103107333D01*
X170984000Y-103440666D02*
X170584000Y-103440666D01*
X170784000Y-103440666D02*
X170784000Y-102740666D01*
X170717333Y-102840666D01*
X170650666Y-102907333D01*
X170584000Y-102940666D01*
X167777333Y-103440666D02*
X167544000Y-103107333D01*
X167377333Y-103440666D02*
X167377333Y-102740666D01*
X167644000Y-102740666D01*
X167710666Y-102774000D01*
X167744000Y-102807333D01*
X167777333Y-102874000D01*
X167777333Y-102974000D01*
X167744000Y-103040666D01*
X167710666Y-103074000D01*
X167644000Y-103107333D01*
X167377333Y-103107333D01*
X168044000Y-102807333D02*
X168077333Y-102774000D01*
X168144000Y-102740666D01*
X168310666Y-102740666D01*
X168377333Y-102774000D01*
X168410666Y-102807333D01*
X168444000Y-102874000D01*
X168444000Y-102940666D01*
X168410666Y-103040666D01*
X168010666Y-103440666D01*
X168444000Y-103440666D01*
X153158000Y-125084666D02*
X153191333Y-125118000D01*
X153224666Y-125218000D01*
X153224666Y-125284666D01*
X153191333Y-125384666D01*
X153124666Y-125451333D01*
X153058000Y-125484666D01*
X152924666Y-125518000D01*
X152824666Y-125518000D01*
X152691333Y-125484666D01*
X152624666Y-125451333D01*
X152558000Y-125384666D01*
X152524666Y-125284666D01*
X152524666Y-125218000D01*
X152558000Y-125118000D01*
X152591333Y-125084666D01*
X152591333Y-124818000D02*
X152558000Y-124784666D01*
X152524666Y-124718000D01*
X152524666Y-124551333D01*
X152558000Y-124484666D01*
X152591333Y-124451333D01*
X152658000Y-124418000D01*
X152724666Y-124418000D01*
X152824666Y-124451333D01*
X153224666Y-124851333D01*
X153224666Y-124418000D01*
X160778000Y-125084666D02*
X160811333Y-125118000D01*
X160844666Y-125218000D01*
X160844666Y-125284666D01*
X160811333Y-125384666D01*
X160744666Y-125451333D01*
X160678000Y-125484666D01*
X160544666Y-125518000D01*
X160444666Y-125518000D01*
X160311333Y-125484666D01*
X160244666Y-125451333D01*
X160178000Y-125384666D01*
X160144666Y-125284666D01*
X160144666Y-125218000D01*
X160178000Y-125118000D01*
X160211333Y-125084666D01*
X160144666Y-124851333D02*
X160144666Y-124418000D01*
X160411333Y-124651333D01*
X160411333Y-124551333D01*
X160444666Y-124484666D01*
X160478000Y-124451333D01*
X160544666Y-124418000D01*
X160711333Y-124418000D01*
X160778000Y-124451333D01*
X160811333Y-124484666D01*
X160844666Y-124551333D01*
X160844666Y-124751333D01*
X160811333Y-124818000D01*
X160778000Y-124851333D01*
X167427333Y-116328000D02*
X167394000Y-116361333D01*
X167294000Y-116394666D01*
X167227333Y-116394666D01*
X167127333Y-116361333D01*
X167060666Y-116294666D01*
X167027333Y-116228000D01*
X166994000Y-116094666D01*
X166994000Y-115994666D01*
X167027333Y-115861333D01*
X167060666Y-115794666D01*
X167127333Y-115728000D01*
X167227333Y-115694666D01*
X167294000Y-115694666D01*
X167394000Y-115728000D01*
X167427333Y-115761333D01*
X167727333Y-116394666D02*
X167727333Y-115694666D01*
X167994000Y-115694666D01*
X168060666Y-115728000D01*
X168094000Y-115761333D01*
X168127333Y-115828000D01*
X168127333Y-115928000D01*
X168094000Y-115994666D01*
X168060666Y-116028000D01*
X167994000Y-116061333D01*
X167727333Y-116061333D01*
X168794000Y-116394666D02*
X168394000Y-116394666D01*
X168594000Y-116394666D02*
X168594000Y-115694666D01*
X168527333Y-115794666D01*
X168460666Y-115861333D01*
X168394000Y-115894666D01*
X152208666Y-117864666D02*
X151508666Y-117864666D01*
X151508666Y-117698000D01*
X151542000Y-117598000D01*
X151608666Y-117531333D01*
X151675333Y-117498000D01*
X151808666Y-117464666D01*
X151908666Y-117464666D01*
X152042000Y-117498000D01*
X152108666Y-117531333D01*
X152175333Y-117598000D01*
X152208666Y-117698000D01*
X152208666Y-117864666D01*
X152208666Y-116798000D02*
X152208666Y-117198000D01*
X152208666Y-116998000D02*
X151508666Y-116998000D01*
X151608666Y-117064666D01*
X151675333Y-117131333D01*
X151708666Y-117198000D01*
X169734666Y-101013333D02*
X169034666Y-101013333D01*
X169668000Y-100280000D02*
X169701333Y-100313333D01*
X169734666Y-100413333D01*
X169734666Y-100480000D01*
X169701333Y-100580000D01*
X169634666Y-100646666D01*
X169568000Y-100680000D01*
X169434666Y-100713333D01*
X169334666Y-100713333D01*
X169201333Y-100680000D01*
X169134666Y-100646666D01*
X169068000Y-100580000D01*
X169034666Y-100480000D01*
X169034666Y-100413333D01*
X169068000Y-100313333D01*
X169101333Y-100280000D01*
X169734666Y-99613333D02*
X169734666Y-100013333D01*
X169734666Y-99813333D02*
X169034666Y-99813333D01*
X169134666Y-99880000D01*
X169201333Y-99946666D01*
X169234666Y-100013333D01*
X160590666Y-114983333D02*
X159890666Y-114983333D01*
X160524000Y-114250000D02*
X160557333Y-114283333D01*
X160590666Y-114383333D01*
X160590666Y-114450000D01*
X160557333Y-114550000D01*
X160490666Y-114616666D01*
X160424000Y-114650000D01*
X160290666Y-114683333D01*
X160190666Y-114683333D01*
X160057333Y-114650000D01*
X159990666Y-114616666D01*
X159924000Y-114550000D01*
X159890666Y-114450000D01*
X159890666Y-114383333D01*
X159924000Y-114283333D01*
X159957333Y-114250000D01*
X159957333Y-113983333D02*
X159924000Y-113950000D01*
X159890666Y-113883333D01*
X159890666Y-113716666D01*
X159924000Y-113650000D01*
X159957333Y-113616666D01*
X160024000Y-113583333D01*
X160090666Y-113583333D01*
X160190666Y-113616666D01*
X160590666Y-114016666D01*
X160590666Y-113583333D01*
X169988666Y-124322666D02*
X169988666Y-124656000D01*
X169288666Y-124656000D01*
X169988666Y-123722666D02*
X169988666Y-124122666D01*
X169988666Y-123922666D02*
X169288666Y-123922666D01*
X169388666Y-123989333D01*
X169455333Y-124056000D01*
X169488666Y-124122666D01*
X152569333Y-113858666D02*
X152536000Y-113925333D01*
X152469333Y-113992000D01*
X152369333Y-114092000D01*
X152336000Y-114158666D01*
X152336000Y-114225333D01*
X152502666Y-114192000D02*
X152469333Y-114258666D01*
X152402666Y-114325333D01*
X152269333Y-114358666D01*
X152036000Y-114358666D01*
X151902666Y-114325333D01*
X151836000Y-114258666D01*
X151802666Y-114192000D01*
X151802666Y-114058666D01*
X151836000Y-113992000D01*
X151902666Y-113925333D01*
X152036000Y-113892000D01*
X152269333Y-113892000D01*
X152402666Y-113925333D01*
X152469333Y-113992000D01*
X152502666Y-114058666D01*
X152502666Y-114192000D01*
X152502666Y-113225333D02*
X152502666Y-113625333D01*
X152502666Y-113425333D02*
X151802666Y-113425333D01*
X151902666Y-113492000D01*
X151969333Y-113558666D01*
X152002666Y-113625333D01*
X162697333Y-103440666D02*
X162464000Y-103107333D01*
X162297333Y-103440666D02*
X162297333Y-102740666D01*
X162564000Y-102740666D01*
X162630666Y-102774000D01*
X162664000Y-102807333D01*
X162697333Y-102874000D01*
X162697333Y-102974000D01*
X162664000Y-103040666D01*
X162630666Y-103074000D01*
X162564000Y-103107333D01*
X162297333Y-103107333D01*
X162930666Y-102740666D02*
X163364000Y-102740666D01*
X163130666Y-103007333D01*
X163230666Y-103007333D01*
X163297333Y-103040666D01*
X163330666Y-103074000D01*
X163364000Y-103140666D01*
X163364000Y-103307333D01*
X163330666Y-103374000D01*
X163297333Y-103407333D01*
X163230666Y-103440666D01*
X163030666Y-103440666D01*
X162964000Y-103407333D01*
X162930666Y-103374000D01*
X165237333Y-103440666D02*
X165004000Y-103107333D01*
X164837333Y-103440666D02*
X164837333Y-102740666D01*
X165104000Y-102740666D01*
X165170666Y-102774000D01*
X165204000Y-102807333D01*
X165237333Y-102874000D01*
X165237333Y-102974000D01*
X165204000Y-103040666D01*
X165170666Y-103074000D01*
X165104000Y-103107333D01*
X164837333Y-103107333D01*
X165837333Y-102974000D02*
X165837333Y-103440666D01*
X165670666Y-102707333D02*
X165504000Y-103207333D01*
X165937333Y-103207333D01*
X172857333Y-103440666D02*
X172624000Y-103107333D01*
X172457333Y-103440666D02*
X172457333Y-102740666D01*
X172724000Y-102740666D01*
X172790666Y-102774000D01*
X172824000Y-102807333D01*
X172857333Y-102874000D01*
X172857333Y-102974000D01*
X172824000Y-103040666D01*
X172790666Y-103074000D01*
X172724000Y-103107333D01*
X172457333Y-103107333D01*
X173490666Y-102740666D02*
X173157333Y-102740666D01*
X173124000Y-103074000D01*
X173157333Y-103040666D01*
X173224000Y-103007333D01*
X173390666Y-103007333D01*
X173457333Y-103040666D01*
X173490666Y-103074000D01*
X173524000Y-103140666D01*
X173524000Y-103307333D01*
X173490666Y-103374000D01*
X173457333Y-103407333D01*
X173390666Y-103440666D01*
X173224000Y-103440666D01*
X173157333Y-103407333D01*
X173124000Y-103374000D01*
X153224666Y-127370666D02*
X152891333Y-127604000D01*
X153224666Y-127770666D02*
X152524666Y-127770666D01*
X152524666Y-127504000D01*
X152558000Y-127437333D01*
X152591333Y-127404000D01*
X152658000Y-127370666D01*
X152758000Y-127370666D01*
X152824666Y-127404000D01*
X152858000Y-127437333D01*
X152891333Y-127504000D01*
X152891333Y-127770666D01*
X152524666Y-126770666D02*
X152524666Y-126904000D01*
X152558000Y-126970666D01*
X152591333Y-127004000D01*
X152691333Y-127070666D01*
X152824666Y-127104000D01*
X153091333Y-127104000D01*
X153158000Y-127070666D01*
X153191333Y-127037333D01*
X153224666Y-126970666D01*
X153224666Y-126837333D01*
X153191333Y-126770666D01*
X153158000Y-126737333D01*
X153091333Y-126704000D01*
X152924666Y-126704000D01*
X152858000Y-126737333D01*
X152824666Y-126770666D01*
X152791333Y-126837333D01*
X152791333Y-126970666D01*
X152824666Y-127037333D01*
X152858000Y-127070666D01*
X152924666Y-127104000D01*
X160844666Y-120512666D02*
X160511333Y-120746000D01*
X160844666Y-120912666D02*
X160144666Y-120912666D01*
X160144666Y-120646000D01*
X160178000Y-120579333D01*
X160211333Y-120546000D01*
X160278000Y-120512666D01*
X160378000Y-120512666D01*
X160444666Y-120546000D01*
X160478000Y-120579333D01*
X160511333Y-120646000D01*
X160511333Y-120912666D01*
X160144666Y-120279333D02*
X160144666Y-119812666D01*
X160844666Y-120112666D01*
X160844666Y-118226666D02*
X160511333Y-118460000D01*
X160844666Y-118626666D02*
X160144666Y-118626666D01*
X160144666Y-118360000D01*
X160178000Y-118293333D01*
X160211333Y-118260000D01*
X160278000Y-118226666D01*
X160378000Y-118226666D01*
X160444666Y-118260000D01*
X160478000Y-118293333D01*
X160511333Y-118360000D01*
X160511333Y-118626666D01*
X160444666Y-117826666D02*
X160411333Y-117893333D01*
X160378000Y-117926666D01*
X160311333Y-117960000D01*
X160278000Y-117960000D01*
X160211333Y-117926666D01*
X160178000Y-117893333D01*
X160144666Y-117826666D01*
X160144666Y-117693333D01*
X160178000Y-117626666D01*
X160211333Y-117593333D01*
X160278000Y-117560000D01*
X160311333Y-117560000D01*
X160378000Y-117593333D01*
X160411333Y-117626666D01*
X160444666Y-117693333D01*
X160444666Y-117826666D01*
X160478000Y-117893333D01*
X160511333Y-117926666D01*
X160578000Y-117960000D01*
X160711333Y-117960000D01*
X160778000Y-117926666D01*
X160811333Y-117893333D01*
X160844666Y-117826666D01*
X160844666Y-117693333D01*
X160811333Y-117626666D01*
X160778000Y-117593333D01*
X160711333Y-117560000D01*
X160578000Y-117560000D01*
X160511333Y-117593333D01*
X160478000Y-117626666D01*
X160444666Y-117693333D01*
X160844666Y-127370666D02*
X160511333Y-127604000D01*
X160844666Y-127770666D02*
X160144666Y-127770666D01*
X160144666Y-127504000D01*
X160178000Y-127437333D01*
X160211333Y-127404000D01*
X160278000Y-127370666D01*
X160378000Y-127370666D01*
X160444666Y-127404000D01*
X160478000Y-127437333D01*
X160511333Y-127504000D01*
X160511333Y-127770666D01*
X160844666Y-127037333D02*
X160844666Y-126904000D01*
X160811333Y-126837333D01*
X160778000Y-126804000D01*
X160678000Y-126737333D01*
X160544666Y-126704000D01*
X160278000Y-126704000D01*
X160211333Y-126737333D01*
X160178000Y-126770666D01*
X160144666Y-126837333D01*
X160144666Y-126970666D01*
X160178000Y-127037333D01*
X160211333Y-127070666D01*
X160278000Y-127104000D01*
X160444666Y-127104000D01*
X160511333Y-127070666D01*
X160544666Y-127037333D01*
X160578000Y-126970666D01*
X160578000Y-126837333D01*
X160544666Y-126770666D01*
X160511333Y-126737333D01*
X160444666Y-126704000D01*
X160844666Y-123132000D02*
X160511333Y-123365333D01*
X160844666Y-123532000D02*
X160144666Y-123532000D01*
X160144666Y-123265333D01*
X160178000Y-123198666D01*
X160211333Y-123165333D01*
X160278000Y-123132000D01*
X160378000Y-123132000D01*
X160444666Y-123165333D01*
X160478000Y-123198666D01*
X160511333Y-123265333D01*
X160511333Y-123532000D01*
X160844666Y-122465333D02*
X160844666Y-122865333D01*
X160844666Y-122665333D02*
X160144666Y-122665333D01*
X160244666Y-122732000D01*
X160311333Y-122798666D01*
X160344666Y-122865333D01*
X160144666Y-122032000D02*
X160144666Y-121965333D01*
X160178000Y-121898666D01*
X160211333Y-121865333D01*
X160278000Y-121832000D01*
X160411333Y-121798666D01*
X160578000Y-121798666D01*
X160711333Y-121832000D01*
X160778000Y-121865333D01*
X160811333Y-121898666D01*
X160844666Y-121965333D01*
X160844666Y-122032000D01*
X160811333Y-122098666D01*
X160778000Y-122132000D01*
X160711333Y-122165333D01*
X160578000Y-122198666D01*
X160411333Y-122198666D01*
X160278000Y-122165333D01*
X160211333Y-122132000D01*
X160178000Y-122098666D01*
X160144666Y-122032000D01*
X163109333Y-92706000D02*
X163076000Y-92739333D01*
X162976000Y-92772666D01*
X162909333Y-92772666D01*
X162809333Y-92739333D01*
X162742666Y-92672666D01*
X162709333Y-92606000D01*
X162676000Y-92472666D01*
X162676000Y-92372666D01*
X162709333Y-92239333D01*
X162742666Y-92172666D01*
X162809333Y-92106000D01*
X162909333Y-92072666D01*
X162976000Y-92072666D01*
X163076000Y-92106000D01*
X163109333Y-92139333D01*
X163409333Y-92772666D02*
X163409333Y-92072666D01*
X163676000Y-92072666D01*
X163742666Y-92106000D01*
X163776000Y-92139333D01*
X163809333Y-92206000D01*
X163809333Y-92306000D01*
X163776000Y-92372666D01*
X163742666Y-92406000D01*
X163676000Y-92439333D01*
X163409333Y-92439333D01*
X164042666Y-92072666D02*
X164476000Y-92072666D01*
X164242666Y-92339333D01*
X164342666Y-92339333D01*
X164409333Y-92372666D01*
X164442666Y-92406000D01*
X164476000Y-92472666D01*
X164476000Y-92639333D01*
X164442666Y-92706000D01*
X164409333Y-92739333D01*
X164342666Y-92772666D01*
X164142666Y-92772666D01*
X164076000Y-92739333D01*
X164042666Y-92706000D01*
X163109333Y-99310000D02*
X163076000Y-99343333D01*
X162976000Y-99376666D01*
X162909333Y-99376666D01*
X162809333Y-99343333D01*
X162742666Y-99276666D01*
X162709333Y-99210000D01*
X162676000Y-99076666D01*
X162676000Y-98976666D01*
X162709333Y-98843333D01*
X162742666Y-98776666D01*
X162809333Y-98710000D01*
X162909333Y-98676666D01*
X162976000Y-98676666D01*
X163076000Y-98710000D01*
X163109333Y-98743333D01*
X163409333Y-99376666D02*
X163409333Y-98676666D01*
X163676000Y-98676666D01*
X163742666Y-98710000D01*
X163776000Y-98743333D01*
X163809333Y-98810000D01*
X163809333Y-98910000D01*
X163776000Y-98976666D01*
X163742666Y-99010000D01*
X163676000Y-99043333D01*
X163409333Y-99043333D01*
X164409333Y-98910000D02*
X164409333Y-99376666D01*
X164242666Y-98643333D02*
X164076000Y-99143333D01*
X164509333Y-99143333D01*
X149348000Y-117718666D02*
X149381333Y-117752000D01*
X149414666Y-117852000D01*
X149414666Y-117918666D01*
X149381333Y-118018666D01*
X149314666Y-118085333D01*
X149248000Y-118118666D01*
X149114666Y-118152000D01*
X149014666Y-118152000D01*
X148881333Y-118118666D01*
X148814666Y-118085333D01*
X148748000Y-118018666D01*
X148714666Y-117918666D01*
X148714666Y-117852000D01*
X148748000Y-117752000D01*
X148781333Y-117718666D01*
X149414666Y-117052000D02*
X149414666Y-117452000D01*
X149414666Y-117252000D02*
X148714666Y-117252000D01*
X148814666Y-117318666D01*
X148881333Y-117385333D01*
X148914666Y-117452000D01*
X137297333Y-112010000D02*
X137264000Y-112043333D01*
X137164000Y-112076666D01*
X137097333Y-112076666D01*
X136997333Y-112043333D01*
X136930666Y-111976666D01*
X136897333Y-111910000D01*
X136864000Y-111776666D01*
X136864000Y-111676666D01*
X136897333Y-111543333D01*
X136930666Y-111476666D01*
X136997333Y-111410000D01*
X137097333Y-111376666D01*
X137164000Y-111376666D01*
X137264000Y-111410000D01*
X137297333Y-111443333D01*
X137897333Y-111610000D02*
X137897333Y-112076666D01*
X137730666Y-111343333D02*
X137564000Y-111843333D01*
X137997333Y-111843333D01*
X149997333Y-112010000D02*
X149964000Y-112043333D01*
X149864000Y-112076666D01*
X149797333Y-112076666D01*
X149697333Y-112043333D01*
X149630666Y-111976666D01*
X149597333Y-111910000D01*
X149564000Y-111776666D01*
X149564000Y-111676666D01*
X149597333Y-111543333D01*
X149630666Y-111476666D01*
X149697333Y-111410000D01*
X149797333Y-111376666D01*
X149864000Y-111376666D01*
X149964000Y-111410000D01*
X149997333Y-111443333D01*
X150630666Y-111376666D02*
X150297333Y-111376666D01*
X150264000Y-111710000D01*
X150297333Y-111676666D01*
X150364000Y-111643333D01*
X150530666Y-111643333D01*
X150597333Y-111676666D01*
X150630666Y-111710000D01*
X150664000Y-111776666D01*
X150664000Y-111943333D01*
X150630666Y-112010000D01*
X150597333Y-112043333D01*
X150530666Y-112076666D01*
X150364000Y-112076666D01*
X150297333Y-112043333D01*
X150264000Y-112010000D01*
X142998000Y-126100666D02*
X143031333Y-126134000D01*
X143064666Y-126234000D01*
X143064666Y-126300666D01*
X143031333Y-126400666D01*
X142964666Y-126467333D01*
X142898000Y-126500666D01*
X142764666Y-126534000D01*
X142664666Y-126534000D01*
X142531333Y-126500666D01*
X142464666Y-126467333D01*
X142398000Y-126400666D01*
X142364666Y-126300666D01*
X142364666Y-126234000D01*
X142398000Y-126134000D01*
X142431333Y-126100666D01*
X142364666Y-125500666D02*
X142364666Y-125634000D01*
X142398000Y-125700666D01*
X142431333Y-125734000D01*
X142531333Y-125800666D01*
X142664666Y-125834000D01*
X142931333Y-125834000D01*
X142998000Y-125800666D01*
X143031333Y-125767333D01*
X143064666Y-125700666D01*
X143064666Y-125567333D01*
X143031333Y-125500666D01*
X142998000Y-125467333D01*
X142931333Y-125434000D01*
X142764666Y-125434000D01*
X142698000Y-125467333D01*
X142664666Y-125500666D01*
X142631333Y-125567333D01*
X142631333Y-125700666D01*
X142664666Y-125767333D01*
X142698000Y-125800666D01*
X142764666Y-125834000D01*
X138492666Y-124322666D02*
X138492666Y-124656000D01*
X137792666Y-124656000D01*
X137859333Y-124122666D02*
X137826000Y-124089333D01*
X137792666Y-124022666D01*
X137792666Y-123856000D01*
X137826000Y-123789333D01*
X137859333Y-123756000D01*
X137926000Y-123722666D01*
X137992666Y-123722666D01*
X138092666Y-123756000D01*
X138492666Y-124156000D01*
X138492666Y-123722666D01*
X146620666Y-118052000D02*
X146287333Y-118285333D01*
X146620666Y-118452000D02*
X145920666Y-118452000D01*
X145920666Y-118185333D01*
X145954000Y-118118666D01*
X145987333Y-118085333D01*
X146054000Y-118052000D01*
X146154000Y-118052000D01*
X146220666Y-118085333D01*
X146254000Y-118118666D01*
X146287333Y-118185333D01*
X146287333Y-118452000D01*
X146620666Y-117385333D02*
X146620666Y-117785333D01*
X146620666Y-117585333D02*
X145920666Y-117585333D01*
X146020666Y-117652000D01*
X146087333Y-117718666D01*
X146120666Y-117785333D01*
X146620666Y-116718666D02*
X146620666Y-117118666D01*
X146620666Y-116918666D02*
X145920666Y-116918666D01*
X146020666Y-116985333D01*
X146087333Y-117052000D01*
X146120666Y-117118666D01*
X142044000Y-112076666D02*
X141810666Y-111743333D01*
X141644000Y-112076666D02*
X141644000Y-111376666D01*
X141910666Y-111376666D01*
X141977333Y-111410000D01*
X142010666Y-111443333D01*
X142044000Y-111510000D01*
X142044000Y-111610000D01*
X142010666Y-111676666D01*
X141977333Y-111710000D01*
X141910666Y-111743333D01*
X141644000Y-111743333D01*
X142710666Y-112076666D02*
X142310666Y-112076666D01*
X142510666Y-112076666D02*
X142510666Y-111376666D01*
X142444000Y-111476666D01*
X142377333Y-111543333D01*
X142310666Y-111576666D01*
X142977333Y-111443333D02*
X143010666Y-111410000D01*
X143077333Y-111376666D01*
X143244000Y-111376666D01*
X143310666Y-111410000D01*
X143344000Y-111443333D01*
X143377333Y-111510000D01*
X143377333Y-111576666D01*
X143344000Y-111676666D01*
X142944000Y-112076666D01*
X143377333Y-112076666D01*
X139504000Y-112076666D02*
X139270666Y-111743333D01*
X139104000Y-112076666D02*
X139104000Y-111376666D01*
X139370666Y-111376666D01*
X139437333Y-111410000D01*
X139470666Y-111443333D01*
X139504000Y-111510000D01*
X139504000Y-111610000D01*
X139470666Y-111676666D01*
X139437333Y-111710000D01*
X139370666Y-111743333D01*
X139104000Y-111743333D01*
X140170666Y-112076666D02*
X139770666Y-112076666D01*
X139970666Y-112076666D02*
X139970666Y-111376666D01*
X139904000Y-111476666D01*
X139837333Y-111543333D01*
X139770666Y-111576666D01*
X140404000Y-111376666D02*
X140837333Y-111376666D01*
X140604000Y-111643333D01*
X140704000Y-111643333D01*
X140770666Y-111676666D01*
X140804000Y-111710000D01*
X140837333Y-111776666D01*
X140837333Y-111943333D01*
X140804000Y-112010000D01*
X140770666Y-112043333D01*
X140704000Y-112076666D01*
X140504000Y-112076666D01*
X140437333Y-112043333D01*
X140404000Y-112010000D01*
X144584000Y-112076666D02*
X144350666Y-111743333D01*
X144184000Y-112076666D02*
X144184000Y-111376666D01*
X144450666Y-111376666D01*
X144517333Y-111410000D01*
X144550666Y-111443333D01*
X144584000Y-111510000D01*
X144584000Y-111610000D01*
X144550666Y-111676666D01*
X144517333Y-111710000D01*
X144450666Y-111743333D01*
X144184000Y-111743333D01*
X145250666Y-112076666D02*
X144850666Y-112076666D01*
X145050666Y-112076666D02*
X145050666Y-111376666D01*
X144984000Y-111476666D01*
X144917333Y-111543333D01*
X144850666Y-111576666D01*
X145850666Y-111610000D02*
X145850666Y-112076666D01*
X145684000Y-111343333D02*
X145517333Y-111843333D01*
X145950666Y-111843333D01*
X143064666Y-121354000D02*
X142731333Y-121587333D01*
X143064666Y-121754000D02*
X142364666Y-121754000D01*
X142364666Y-121487333D01*
X142398000Y-121420666D01*
X142431333Y-121387333D01*
X142498000Y-121354000D01*
X142598000Y-121354000D01*
X142664666Y-121387333D01*
X142698000Y-121420666D01*
X142731333Y-121487333D01*
X142731333Y-121754000D01*
X143064666Y-120687333D02*
X143064666Y-121087333D01*
X143064666Y-120887333D02*
X142364666Y-120887333D01*
X142464666Y-120954000D01*
X142531333Y-121020666D01*
X142564666Y-121087333D01*
X142364666Y-120054000D02*
X142364666Y-120387333D01*
X142698000Y-120420666D01*
X142664666Y-120387333D01*
X142631333Y-120320666D01*
X142631333Y-120154000D01*
X142664666Y-120087333D01*
X142698000Y-120054000D01*
X142764666Y-120020666D01*
X142931333Y-120020666D01*
X142998000Y-120054000D01*
X143031333Y-120087333D01*
X143064666Y-120154000D01*
X143064666Y-120320666D01*
X143031333Y-120387333D01*
X142998000Y-120420666D01*
X147124000Y-112076666D02*
X146890666Y-111743333D01*
X146724000Y-112076666D02*
X146724000Y-111376666D01*
X146990666Y-111376666D01*
X147057333Y-111410000D01*
X147090666Y-111443333D01*
X147124000Y-111510000D01*
X147124000Y-111610000D01*
X147090666Y-111676666D01*
X147057333Y-111710000D01*
X146990666Y-111743333D01*
X146724000Y-111743333D01*
X147790666Y-112076666D02*
X147390666Y-112076666D01*
X147590666Y-112076666D02*
X147590666Y-111376666D01*
X147524000Y-111476666D01*
X147457333Y-111543333D01*
X147390666Y-111576666D01*
X148390666Y-111376666D02*
X148257333Y-111376666D01*
X148190666Y-111410000D01*
X148157333Y-111443333D01*
X148090666Y-111543333D01*
X148057333Y-111676666D01*
X148057333Y-111943333D01*
X148090666Y-112010000D01*
X148124000Y-112043333D01*
X148190666Y-112076666D01*
X148324000Y-112076666D01*
X148390666Y-112043333D01*
X148424000Y-112010000D01*
X148457333Y-111943333D01*
X148457333Y-111776666D01*
X148424000Y-111710000D01*
X148390666Y-111676666D01*
X148324000Y-111643333D01*
X148190666Y-111643333D01*
X148124000Y-111676666D01*
X148090666Y-111710000D01*
X148057333Y-111776666D01*
X143064666Y-123894000D02*
X142731333Y-124127333D01*
X143064666Y-124294000D02*
X142364666Y-124294000D01*
X142364666Y-124027333D01*
X142398000Y-123960666D01*
X142431333Y-123927333D01*
X142498000Y-123894000D01*
X142598000Y-123894000D01*
X142664666Y-123927333D01*
X142698000Y-123960666D01*
X142731333Y-124027333D01*
X142731333Y-124294000D01*
X143064666Y-123227333D02*
X143064666Y-123627333D01*
X143064666Y-123427333D02*
X142364666Y-123427333D01*
X142464666Y-123494000D01*
X142531333Y-123560666D01*
X142564666Y-123627333D01*
X142364666Y-122994000D02*
X142364666Y-122527333D01*
X143064666Y-122827333D01*
X141452666Y-117218666D02*
X141452666Y-117785333D01*
X141486000Y-117852000D01*
X141519333Y-117885333D01*
X141586000Y-117918666D01*
X141719333Y-117918666D01*
X141786000Y-117885333D01*
X141819333Y-117852000D01*
X141852666Y-117785333D01*
X141852666Y-117218666D01*
X142152666Y-117285333D02*
X142186000Y-117252000D01*
X142252666Y-117218666D01*
X142419333Y-117218666D01*
X142486000Y-117252000D01*
X142519333Y-117285333D01*
X142552666Y-117352000D01*
X142552666Y-117418666D01*
X142519333Y-117518666D01*
X142119333Y-117918666D01*
X142552666Y-117918666D01*
D11*
X138963400Y-115911380D02*
X138963400Y-116149476D01*
X138725304Y-116054238D02*
X138963400Y-116149476D01*
X139201495Y-116054238D01*
X138820542Y-116339952D02*
X138963400Y-116149476D01*
X139106257Y-116339952D01*
D14*
X169658000Y-116544666D02*
X169691333Y-116578000D01*
X169724666Y-116678000D01*
X169724666Y-116744666D01*
X169691333Y-116844666D01*
X169624666Y-116911333D01*
X169558000Y-116944666D01*
X169424666Y-116978000D01*
X169324666Y-116978000D01*
X169191333Y-116944666D01*
X169124666Y-116911333D01*
X169058000Y-116844666D01*
X169024666Y-116744666D01*
X169024666Y-116678000D01*
X169058000Y-116578000D01*
X169091333Y-116544666D01*
X169724666Y-116244666D02*
X169024666Y-116244666D01*
X169024666Y-115978000D01*
X169058000Y-115911333D01*
X169091333Y-115878000D01*
X169158000Y-115844666D01*
X169258000Y-115844666D01*
X169324666Y-115878000D01*
X169358000Y-115911333D01*
X169391333Y-115978000D01*
X169391333Y-116244666D01*
X169091333Y-115578000D02*
X169058000Y-115544666D01*
X169024666Y-115478000D01*
X169024666Y-115311333D01*
X169058000Y-115244666D01*
X169091333Y-115211333D01*
X169158000Y-115178000D01*
X169224666Y-115178000D01*
X169324666Y-115211333D01*
X169724666Y-115611333D01*
X169724666Y-115178000D01*
X154981333Y-121408000D02*
X154948000Y-121441333D01*
X154848000Y-121474666D01*
X154781333Y-121474666D01*
X154681333Y-121441333D01*
X154614666Y-121374666D01*
X154581333Y-121308000D01*
X154548000Y-121174666D01*
X154548000Y-121074666D01*
X154581333Y-120941333D01*
X154614666Y-120874666D01*
X154681333Y-120808000D01*
X154781333Y-120774666D01*
X154848000Y-120774666D01*
X154948000Y-120808000D01*
X154981333Y-120841333D01*
X155281333Y-121474666D02*
X155281333Y-120774666D01*
X155548000Y-120774666D01*
X155614666Y-120808000D01*
X155648000Y-120841333D01*
X155681333Y-120908000D01*
X155681333Y-121008000D01*
X155648000Y-121074666D01*
X155614666Y-121108000D01*
X155548000Y-121141333D01*
X155281333Y-121141333D01*
X156314666Y-120774666D02*
X155981333Y-120774666D01*
X155948000Y-121108000D01*
X155981333Y-121074666D01*
X156048000Y-121041333D01*
X156214666Y-121041333D01*
X156281333Y-121074666D01*
X156314666Y-121108000D01*
X156348000Y-121174666D01*
X156348000Y-121341333D01*
X156314666Y-121408000D01*
X156281333Y-121441333D01*
X156214666Y-121474666D01*
X156048000Y-121474666D01*
X155981333Y-121441333D01*
X155948000Y-121408000D01*
X177354666Y-113546666D02*
X176654666Y-113546666D01*
X176654666Y-113380000D01*
X176688000Y-113280000D01*
X176754666Y-113213333D01*
X176821333Y-113180000D01*
X176954666Y-113146666D01*
X177054666Y-113146666D01*
X177188000Y-113180000D01*
X177254666Y-113213333D01*
X177321333Y-113280000D01*
X177354666Y-113380000D01*
X177354666Y-113546666D01*
X176721333Y-112880000D02*
X176688000Y-112846666D01*
X176654666Y-112780000D01*
X176654666Y-112613333D01*
X176688000Y-112546666D01*
X176721333Y-112513333D01*
X176788000Y-112480000D01*
X176854666Y-112480000D01*
X176954666Y-112513333D01*
X177354666Y-112913333D01*
X177354666Y-112480000D01*
X177354666Y-103574000D02*
X177021333Y-103807333D01*
X177354666Y-103974000D02*
X176654666Y-103974000D01*
X176654666Y-103707333D01*
X176688000Y-103640666D01*
X176721333Y-103607333D01*
X176788000Y-103574000D01*
X176888000Y-103574000D01*
X176954666Y-103607333D01*
X176988000Y-103640666D01*
X177021333Y-103707333D01*
X177021333Y-103974000D01*
X177354666Y-102907333D02*
X177354666Y-103307333D01*
X177354666Y-103107333D02*
X176654666Y-103107333D01*
X176754666Y-103174000D01*
X176821333Y-103240666D01*
X176854666Y-103307333D01*
X176954666Y-102507333D02*
X176921333Y-102574000D01*
X176888000Y-102607333D01*
X176821333Y-102640666D01*
X176788000Y-102640666D01*
X176721333Y-102607333D01*
X176688000Y-102574000D01*
X176654666Y-102507333D01*
X176654666Y-102374000D01*
X176688000Y-102307333D01*
X176721333Y-102274000D01*
X176788000Y-102240666D01*
X176821333Y-102240666D01*
X176888000Y-102274000D01*
X176921333Y-102307333D01*
X176954666Y-102374000D01*
X176954666Y-102507333D01*
X176988000Y-102574000D01*
X177021333Y-102607333D01*
X177088000Y-102640666D01*
X177221333Y-102640666D01*
X177288000Y-102607333D01*
X177321333Y-102574000D01*
X177354666Y-102507333D01*
X177354666Y-102374000D01*
X177321333Y-102307333D01*
X177288000Y-102274000D01*
X177221333Y-102240666D01*
X177088000Y-102240666D01*
X177021333Y-102274000D01*
X176988000Y-102307333D01*
X176954666Y-102374000D01*
%LPC*%
D17*
X158506000Y-102832000D03*
X158506000Y-91572000D03*
X135626000Y-102832000D03*
X135626000Y-91572000D03*
D18*
X156366000Y-104122000D03*
X137766000Y-104122000D03*
D19*
X156366000Y-92822000D03*
D18*
X156366000Y-101582000D03*
X137766000Y-101582000D03*
D20*
X156366000Y-90282000D03*
D19*
X137766000Y-92822000D03*
D20*
X137766000Y-90282000D03*
G36*
G01*
X172986000Y-91606000D02*
X174486000Y-91606000D01*
G75*
G02*
X174736000Y-91856000I0J-250000D01*
G01*
X174736000Y-93056000D01*
G75*
G02*
X174486000Y-93306000I-250000J0D01*
G01*
X172986000Y-93306000D01*
G75*
G02*
X172736000Y-93056000I0J250000D01*
G01*
X172736000Y-91856000D01*
G75*
G02*
X172986000Y-91606000I250000J0D01*
G01*
G37*
D21*
X173736000Y-94956000D03*
D18*
X172974000Y-109220000D03*
D19*
X170434000Y-109220000D03*
X167894000Y-109220000D03*
X165354000Y-109220000D03*
X162814000Y-109220000D03*
X160274000Y-109220000D03*
X157734000Y-109220000D03*
X155194000Y-109220000D03*
X152654000Y-109220000D03*
X150114000Y-109220000D03*
X147574000Y-109220000D03*
X145034000Y-109220000D03*
X142494000Y-109220000D03*
X139954000Y-109220000D03*
X134874000Y-132080000D03*
X137414000Y-132080000D03*
X139954000Y-132080000D03*
X142494000Y-132080000D03*
X145034000Y-132080000D03*
X147574000Y-132080000D03*
X150114000Y-132080000D03*
X152654000Y-132080000D03*
X155194000Y-132080000D03*
X157734000Y-132080000D03*
X160274000Y-132080000D03*
X162814000Y-132080000D03*
X165354000Y-132080000D03*
X167894000Y-132080000D03*
X170434000Y-132080000D03*
X172974000Y-132080000D03*
D22*
X128143000Y-96307000D03*
D23*
X128143000Y-100307000D03*
X128143000Y-104307000D03*
X128143000Y-108307000D03*
X128143000Y-112307000D03*
X128143000Y-116307000D03*
X128143000Y-120307000D03*
X128143000Y-124307000D03*
X131143000Y-96307000D03*
X131143000Y-100307000D03*
X131143000Y-104307000D03*
X131143000Y-108307000D03*
X131143000Y-112307000D03*
X131143000Y-116307000D03*
X131143000Y-120307000D03*
X131143000Y-124307000D03*
G36*
G01*
X170196500Y-105581000D02*
X170671500Y-105581000D01*
G75*
G02*
X170909000Y-105818500I0J-237500D01*
G01*
X170909000Y-106318500D01*
G75*
G02*
X170671500Y-106556000I-237500J0D01*
G01*
X170196500Y-106556000D01*
G75*
G02*
X169959000Y-106318500I0J237500D01*
G01*
X169959000Y-105818500D01*
G75*
G02*
X170196500Y-105581000I237500J0D01*
G01*
G37*
G36*
G01*
X170196500Y-103756000D02*
X170671500Y-103756000D01*
G75*
G02*
X170909000Y-103993500I0J-237500D01*
G01*
X170909000Y-104493500D01*
G75*
G02*
X170671500Y-104731000I-237500J0D01*
G01*
X170196500Y-104731000D01*
G75*
G02*
X169959000Y-104493500I0J237500D01*
G01*
X169959000Y-103993500D01*
G75*
G02*
X170196500Y-103756000I237500J0D01*
G01*
G37*
G36*
G01*
X168131500Y-106556000D02*
X167656500Y-106556000D01*
G75*
G02*
X167419000Y-106318500I0J237500D01*
G01*
X167419000Y-105818500D01*
G75*
G02*
X167656500Y-105581000I237500J0D01*
G01*
X168131500Y-105581000D01*
G75*
G02*
X168369000Y-105818500I0J-237500D01*
G01*
X168369000Y-106318500D01*
G75*
G02*
X168131500Y-106556000I-237500J0D01*
G01*
G37*
G36*
G01*
X168131500Y-104731000D02*
X167656500Y-104731000D01*
G75*
G02*
X167419000Y-104493500I0J237500D01*
G01*
X167419000Y-103993500D01*
G75*
G02*
X167656500Y-103756000I237500J0D01*
G01*
X168131500Y-103756000D01*
G75*
G02*
X168369000Y-103993500I0J-237500D01*
G01*
X168369000Y-104493500D01*
G75*
G02*
X168131500Y-104731000I-237500J0D01*
G01*
G37*
G36*
G01*
X154869000Y-124730500D02*
X154869000Y-125205500D01*
G75*
G02*
X154631500Y-125443000I-237500J0D01*
G01*
X154031500Y-125443000D01*
G75*
G02*
X153794000Y-125205500I0J237500D01*
G01*
X153794000Y-124730500D01*
G75*
G02*
X154031500Y-124493000I237500J0D01*
G01*
X154631500Y-124493000D01*
G75*
G02*
X154869000Y-124730500I0J-237500D01*
G01*
G37*
G36*
G01*
X156594000Y-124730500D02*
X156594000Y-125205500D01*
G75*
G02*
X156356500Y-125443000I-237500J0D01*
G01*
X155756500Y-125443000D01*
G75*
G02*
X155519000Y-125205500I0J237500D01*
G01*
X155519000Y-124730500D01*
G75*
G02*
X155756500Y-124493000I237500J0D01*
G01*
X156356500Y-124493000D01*
G75*
G02*
X156594000Y-124730500I0J-237500D01*
G01*
G37*
G36*
G01*
X163960000Y-124730500D02*
X163960000Y-125205500D01*
G75*
G02*
X163722500Y-125443000I-237500J0D01*
G01*
X163122500Y-125443000D01*
G75*
G02*
X162885000Y-125205500I0J237500D01*
G01*
X162885000Y-124730500D01*
G75*
G02*
X163122500Y-124493000I237500J0D01*
G01*
X163722500Y-124493000D01*
G75*
G02*
X163960000Y-124730500I0J-237500D01*
G01*
G37*
G36*
G01*
X162235000Y-124730500D02*
X162235000Y-125205500D01*
G75*
G02*
X161997500Y-125443000I-237500J0D01*
G01*
X161397500Y-125443000D01*
G75*
G02*
X161160000Y-125205500I0J237500D01*
G01*
X161160000Y-124730500D01*
G75*
G02*
X161397500Y-124493000I237500J0D01*
G01*
X161997500Y-124493000D01*
G75*
G02*
X162235000Y-124730500I0J-237500D01*
G01*
G37*
G36*
G01*
X168565001Y-119753000D02*
X166714999Y-119753000D01*
G75*
G02*
X166465000Y-119503001I0J249999D01*
G01*
X166465000Y-117752999D01*
G75*
G02*
X166714999Y-117503000I249999J0D01*
G01*
X168565001Y-117503000D01*
G75*
G02*
X168815000Y-117752999I0J-249999D01*
G01*
X168815000Y-119503001D01*
G75*
G02*
X168565001Y-119753000I-249999J0D01*
G01*
G37*
G36*
G01*
X168565001Y-114653000D02*
X166714999Y-114653000D01*
G75*
G02*
X166465000Y-114403001I0J249999D01*
G01*
X166465000Y-112652999D01*
G75*
G02*
X166714999Y-112403000I249999J0D01*
G01*
X168565001Y-112403000D01*
G75*
G02*
X168815000Y-112652999I0J-249999D01*
G01*
X168815000Y-114403001D01*
G75*
G02*
X168565001Y-114653000I-249999J0D01*
G01*
G37*
D24*
X156336000Y-117348000D03*
X153036000Y-117348000D03*
D25*
X172654000Y-99030000D03*
X171704000Y-99030000D03*
X170754000Y-99030000D03*
X170754000Y-101630000D03*
X172654000Y-101630000D03*
D26*
X163510000Y-113000000D03*
X162560000Y-113000000D03*
X161610000Y-113000000D03*
X161610000Y-115600000D03*
X163510000Y-115600000D03*
D27*
X171597000Y-124206000D03*
X167747000Y-124206000D03*
D28*
X153736000Y-114792000D03*
X155636000Y-114792000D03*
X154686000Y-112792000D03*
G36*
G01*
X162576500Y-105581000D02*
X163051500Y-105581000D01*
G75*
G02*
X163289000Y-105818500I0J-237500D01*
G01*
X163289000Y-106318500D01*
G75*
G02*
X163051500Y-106556000I-237500J0D01*
G01*
X162576500Y-106556000D01*
G75*
G02*
X162339000Y-106318500I0J237500D01*
G01*
X162339000Y-105818500D01*
G75*
G02*
X162576500Y-105581000I237500J0D01*
G01*
G37*
G36*
G01*
X162576500Y-103756000D02*
X163051500Y-103756000D01*
G75*
G02*
X163289000Y-103993500I0J-237500D01*
G01*
X163289000Y-104493500D01*
G75*
G02*
X163051500Y-104731000I-237500J0D01*
G01*
X162576500Y-104731000D01*
G75*
G02*
X162339000Y-104493500I0J237500D01*
G01*
X162339000Y-103993500D01*
G75*
G02*
X162576500Y-103756000I237500J0D01*
G01*
G37*
G36*
G01*
X165591500Y-106556000D02*
X165116500Y-106556000D01*
G75*
G02*
X164879000Y-106318500I0J237500D01*
G01*
X164879000Y-105818500D01*
G75*
G02*
X165116500Y-105581000I237500J0D01*
G01*
X165591500Y-105581000D01*
G75*
G02*
X165829000Y-105818500I0J-237500D01*
G01*
X165829000Y-106318500D01*
G75*
G02*
X165591500Y-106556000I-237500J0D01*
G01*
G37*
G36*
G01*
X165591500Y-104731000D02*
X165116500Y-104731000D01*
G75*
G02*
X164879000Y-104493500I0J237500D01*
G01*
X164879000Y-103993500D01*
G75*
G02*
X165116500Y-103756000I237500J0D01*
G01*
X165591500Y-103756000D01*
G75*
G02*
X165829000Y-103993500I0J-237500D01*
G01*
X165829000Y-104493500D01*
G75*
G02*
X165591500Y-104731000I-237500J0D01*
G01*
G37*
G36*
G01*
X172736500Y-105581000D02*
X173211500Y-105581000D01*
G75*
G02*
X173449000Y-105818500I0J-237500D01*
G01*
X173449000Y-106318500D01*
G75*
G02*
X173211500Y-106556000I-237500J0D01*
G01*
X172736500Y-106556000D01*
G75*
G02*
X172499000Y-106318500I0J237500D01*
G01*
X172499000Y-105818500D01*
G75*
G02*
X172736500Y-105581000I237500J0D01*
G01*
G37*
G36*
G01*
X172736500Y-103756000D02*
X173211500Y-103756000D01*
G75*
G02*
X173449000Y-103993500I0J-237500D01*
G01*
X173449000Y-104493500D01*
G75*
G02*
X173211500Y-104731000I-237500J0D01*
G01*
X172736500Y-104731000D01*
G75*
G02*
X172499000Y-104493500I0J237500D01*
G01*
X172499000Y-103993500D01*
G75*
G02*
X172736500Y-103756000I237500J0D01*
G01*
G37*
G36*
G01*
X153794000Y-127491500D02*
X153794000Y-127016500D01*
G75*
G02*
X154031500Y-126779000I237500J0D01*
G01*
X154531500Y-126779000D01*
G75*
G02*
X154769000Y-127016500I0J-237500D01*
G01*
X154769000Y-127491500D01*
G75*
G02*
X154531500Y-127729000I-237500J0D01*
G01*
X154031500Y-127729000D01*
G75*
G02*
X153794000Y-127491500I0J237500D01*
G01*
G37*
G36*
G01*
X155619000Y-127491500D02*
X155619000Y-127016500D01*
G75*
G02*
X155856500Y-126779000I237500J0D01*
G01*
X156356500Y-126779000D01*
G75*
G02*
X156594000Y-127016500I0J-237500D01*
G01*
X156594000Y-127491500D01*
G75*
G02*
X156356500Y-127729000I-237500J0D01*
G01*
X155856500Y-127729000D01*
G75*
G02*
X155619000Y-127491500I0J237500D01*
G01*
G37*
G36*
G01*
X161160000Y-120633500D02*
X161160000Y-120158500D01*
G75*
G02*
X161397500Y-119921000I237500J0D01*
G01*
X161897500Y-119921000D01*
G75*
G02*
X162135000Y-120158500I0J-237500D01*
G01*
X162135000Y-120633500D01*
G75*
G02*
X161897500Y-120871000I-237500J0D01*
G01*
X161397500Y-120871000D01*
G75*
G02*
X161160000Y-120633500I0J237500D01*
G01*
G37*
G36*
G01*
X162985000Y-120633500D02*
X162985000Y-120158500D01*
G75*
G02*
X163222500Y-119921000I237500J0D01*
G01*
X163722500Y-119921000D01*
G75*
G02*
X163960000Y-120158500I0J-237500D01*
G01*
X163960000Y-120633500D01*
G75*
G02*
X163722500Y-120871000I-237500J0D01*
G01*
X163222500Y-120871000D01*
G75*
G02*
X162985000Y-120633500I0J237500D01*
G01*
G37*
G36*
G01*
X162135000Y-117872500D02*
X162135000Y-118347500D01*
G75*
G02*
X161897500Y-118585000I-237500J0D01*
G01*
X161397500Y-118585000D01*
G75*
G02*
X161160000Y-118347500I0J237500D01*
G01*
X161160000Y-117872500D01*
G75*
G02*
X161397500Y-117635000I237500J0D01*
G01*
X161897500Y-117635000D01*
G75*
G02*
X162135000Y-117872500I0J-237500D01*
G01*
G37*
G36*
G01*
X163960000Y-117872500D02*
X163960000Y-118347500D01*
G75*
G02*
X163722500Y-118585000I-237500J0D01*
G01*
X163222500Y-118585000D01*
G75*
G02*
X162985000Y-118347500I0J237500D01*
G01*
X162985000Y-117872500D01*
G75*
G02*
X163222500Y-117635000I237500J0D01*
G01*
X163722500Y-117635000D01*
G75*
G02*
X163960000Y-117872500I0J-237500D01*
G01*
G37*
G36*
G01*
X163960000Y-127016500D02*
X163960000Y-127491500D01*
G75*
G02*
X163722500Y-127729000I-237500J0D01*
G01*
X163222500Y-127729000D01*
G75*
G02*
X162985000Y-127491500I0J237500D01*
G01*
X162985000Y-127016500D01*
G75*
G02*
X163222500Y-126779000I237500J0D01*
G01*
X163722500Y-126779000D01*
G75*
G02*
X163960000Y-127016500I0J-237500D01*
G01*
G37*
G36*
G01*
X162135000Y-127016500D02*
X162135000Y-127491500D01*
G75*
G02*
X161897500Y-127729000I-237500J0D01*
G01*
X161397500Y-127729000D01*
G75*
G02*
X161160000Y-127491500I0J237500D01*
G01*
X161160000Y-127016500D01*
G75*
G02*
X161397500Y-126779000I237500J0D01*
G01*
X161897500Y-126779000D01*
G75*
G02*
X162135000Y-127016500I0J-237500D01*
G01*
G37*
G36*
G01*
X162985000Y-122919500D02*
X162985000Y-122444500D01*
G75*
G02*
X163222500Y-122207000I237500J0D01*
G01*
X163722500Y-122207000D01*
G75*
G02*
X163960000Y-122444500I0J-237500D01*
G01*
X163960000Y-122919500D01*
G75*
G02*
X163722500Y-123157000I-237500J0D01*
G01*
X163222500Y-123157000D01*
G75*
G02*
X162985000Y-122919500I0J237500D01*
G01*
G37*
G36*
G01*
X161160000Y-122919500D02*
X161160000Y-122444500D01*
G75*
G02*
X161397500Y-122207000I237500J0D01*
G01*
X161897500Y-122207000D01*
G75*
G02*
X162135000Y-122444500I0J-237500D01*
G01*
X162135000Y-122919500D01*
G75*
G02*
X161897500Y-123157000I-237500J0D01*
G01*
X161397500Y-123157000D01*
G75*
G02*
X161160000Y-122919500I0J237500D01*
G01*
G37*
G36*
G01*
X162651000Y-90081000D02*
X164501000Y-90081000D01*
G75*
G02*
X164751000Y-90331000I0J-250000D01*
G01*
X164751000Y-91331000D01*
G75*
G02*
X164501000Y-91581000I-250000J0D01*
G01*
X162651000Y-91581000D01*
G75*
G02*
X162401000Y-91331000I0J250000D01*
G01*
X162401000Y-90331000D01*
G75*
G02*
X162651000Y-90081000I250000J0D01*
G01*
G37*
G36*
G01*
X162651000Y-93331000D02*
X164501000Y-93331000D01*
G75*
G02*
X164751000Y-93581000I0J-250000D01*
G01*
X164751000Y-94581000D01*
G75*
G02*
X164501000Y-94831000I-250000J0D01*
G01*
X162651000Y-94831000D01*
G75*
G02*
X162401000Y-94581000I0J250000D01*
G01*
X162401000Y-93581000D01*
G75*
G02*
X162651000Y-93331000I250000J0D01*
G01*
G37*
G36*
G01*
X164501000Y-101435000D02*
X162651000Y-101435000D01*
G75*
G02*
X162401000Y-101185000I0J250000D01*
G01*
X162401000Y-100185000D01*
G75*
G02*
X162651000Y-99935000I250000J0D01*
G01*
X164501000Y-99935000D01*
G75*
G02*
X164751000Y-100185000I0J-250000D01*
G01*
X164751000Y-101185000D01*
G75*
G02*
X164501000Y-101435000I-250000J0D01*
G01*
G37*
G36*
G01*
X164501000Y-98185000D02*
X162651000Y-98185000D01*
G75*
G02*
X162401000Y-97935000I0J250000D01*
G01*
X162401000Y-96935000D01*
G75*
G02*
X162651000Y-96685000I250000J0D01*
G01*
X164501000Y-96685000D01*
G75*
G02*
X164751000Y-96935000I0J-250000D01*
G01*
X164751000Y-97935000D01*
G75*
G02*
X164501000Y-98185000I-250000J0D01*
G01*
G37*
G36*
G01*
X149876500Y-116202000D02*
X150351500Y-116202000D01*
G75*
G02*
X150589000Y-116439500I0J-237500D01*
G01*
X150589000Y-117039500D01*
G75*
G02*
X150351500Y-117277000I-237500J0D01*
G01*
X149876500Y-117277000D01*
G75*
G02*
X149639000Y-117039500I0J237500D01*
G01*
X149639000Y-116439500D01*
G75*
G02*
X149876500Y-116202000I237500J0D01*
G01*
G37*
G36*
G01*
X149876500Y-117927000D02*
X150351500Y-117927000D01*
G75*
G02*
X150589000Y-118164500I0J-237500D01*
G01*
X150589000Y-118764500D01*
G75*
G02*
X150351500Y-119002000I-237500J0D01*
G01*
X149876500Y-119002000D01*
G75*
G02*
X149639000Y-118764500I0J237500D01*
G01*
X149639000Y-118164500D01*
G75*
G02*
X149876500Y-117927000I237500J0D01*
G01*
G37*
G36*
G01*
X137651500Y-113467000D02*
X137176500Y-113467000D01*
G75*
G02*
X136939000Y-113229500I0J237500D01*
G01*
X136939000Y-112629500D01*
G75*
G02*
X137176500Y-112392000I237500J0D01*
G01*
X137651500Y-112392000D01*
G75*
G02*
X137889000Y-112629500I0J-237500D01*
G01*
X137889000Y-113229500D01*
G75*
G02*
X137651500Y-113467000I-237500J0D01*
G01*
G37*
G36*
G01*
X137651500Y-115192000D02*
X137176500Y-115192000D01*
G75*
G02*
X136939000Y-114954500I0J237500D01*
G01*
X136939000Y-114354500D01*
G75*
G02*
X137176500Y-114117000I237500J0D01*
G01*
X137651500Y-114117000D01*
G75*
G02*
X137889000Y-114354500I0J-237500D01*
G01*
X137889000Y-114954500D01*
G75*
G02*
X137651500Y-115192000I-237500J0D01*
G01*
G37*
G36*
G01*
X150351500Y-113467000D02*
X149876500Y-113467000D01*
G75*
G02*
X149639000Y-113229500I0J237500D01*
G01*
X149639000Y-112629500D01*
G75*
G02*
X149876500Y-112392000I237500J0D01*
G01*
X150351500Y-112392000D01*
G75*
G02*
X150589000Y-112629500I0J-237500D01*
G01*
X150589000Y-113229500D01*
G75*
G02*
X150351500Y-113467000I-237500J0D01*
G01*
G37*
G36*
G01*
X150351500Y-115192000D02*
X149876500Y-115192000D01*
G75*
G02*
X149639000Y-114954500I0J237500D01*
G01*
X149639000Y-114354500D01*
G75*
G02*
X149876500Y-114117000I237500J0D01*
G01*
X150351500Y-114117000D01*
G75*
G02*
X150589000Y-114354500I0J-237500D01*
G01*
X150589000Y-114954500D01*
G75*
G02*
X150351500Y-115192000I-237500J0D01*
G01*
G37*
G36*
G01*
X143380000Y-126221500D02*
X143380000Y-125746500D01*
G75*
G02*
X143617500Y-125509000I237500J0D01*
G01*
X144217500Y-125509000D01*
G75*
G02*
X144455000Y-125746500I0J-237500D01*
G01*
X144455000Y-126221500D01*
G75*
G02*
X144217500Y-126459000I-237500J0D01*
G01*
X143617500Y-126459000D01*
G75*
G02*
X143380000Y-126221500I0J237500D01*
G01*
G37*
G36*
G01*
X145105000Y-126221500D02*
X145105000Y-125746500D01*
G75*
G02*
X145342500Y-125509000I237500J0D01*
G01*
X145942500Y-125509000D01*
G75*
G02*
X146180000Y-125746500I0J-237500D01*
G01*
X146180000Y-126221500D01*
G75*
G02*
X145942500Y-126459000I-237500J0D01*
G01*
X145342500Y-126459000D01*
G75*
G02*
X145105000Y-126221500I0J237500D01*
G01*
G37*
D27*
X140101000Y-124206000D03*
X136251000Y-124206000D03*
G36*
G01*
X147811500Y-119002000D02*
X147336500Y-119002000D01*
G75*
G02*
X147099000Y-118764500I0J237500D01*
G01*
X147099000Y-118264500D01*
G75*
G02*
X147336500Y-118027000I237500J0D01*
G01*
X147811500Y-118027000D01*
G75*
G02*
X148049000Y-118264500I0J-237500D01*
G01*
X148049000Y-118764500D01*
G75*
G02*
X147811500Y-119002000I-237500J0D01*
G01*
G37*
G36*
G01*
X147811500Y-117177000D02*
X147336500Y-117177000D01*
G75*
G02*
X147099000Y-116939500I0J237500D01*
G01*
X147099000Y-116439500D01*
G75*
G02*
X147336500Y-116202000I237500J0D01*
G01*
X147811500Y-116202000D01*
G75*
G02*
X148049000Y-116439500I0J-237500D01*
G01*
X148049000Y-116939500D01*
G75*
G02*
X147811500Y-117177000I-237500J0D01*
G01*
G37*
G36*
G01*
X142731500Y-113367000D02*
X142256500Y-113367000D01*
G75*
G02*
X142019000Y-113129500I0J237500D01*
G01*
X142019000Y-112629500D01*
G75*
G02*
X142256500Y-112392000I237500J0D01*
G01*
X142731500Y-112392000D01*
G75*
G02*
X142969000Y-112629500I0J-237500D01*
G01*
X142969000Y-113129500D01*
G75*
G02*
X142731500Y-113367000I-237500J0D01*
G01*
G37*
G36*
G01*
X142731500Y-115192000D02*
X142256500Y-115192000D01*
G75*
G02*
X142019000Y-114954500I0J237500D01*
G01*
X142019000Y-114454500D01*
G75*
G02*
X142256500Y-114217000I237500J0D01*
G01*
X142731500Y-114217000D01*
G75*
G02*
X142969000Y-114454500I0J-237500D01*
G01*
X142969000Y-114954500D01*
G75*
G02*
X142731500Y-115192000I-237500J0D01*
G01*
G37*
G36*
G01*
X140191500Y-115192000D02*
X139716500Y-115192000D01*
G75*
G02*
X139479000Y-114954500I0J237500D01*
G01*
X139479000Y-114454500D01*
G75*
G02*
X139716500Y-114217000I237500J0D01*
G01*
X140191500Y-114217000D01*
G75*
G02*
X140429000Y-114454500I0J-237500D01*
G01*
X140429000Y-114954500D01*
G75*
G02*
X140191500Y-115192000I-237500J0D01*
G01*
G37*
G36*
G01*
X140191500Y-113367000D02*
X139716500Y-113367000D01*
G75*
G02*
X139479000Y-113129500I0J237500D01*
G01*
X139479000Y-112629500D01*
G75*
G02*
X139716500Y-112392000I237500J0D01*
G01*
X140191500Y-112392000D01*
G75*
G02*
X140429000Y-112629500I0J-237500D01*
G01*
X140429000Y-113129500D01*
G75*
G02*
X140191500Y-113367000I-237500J0D01*
G01*
G37*
G36*
G01*
X144796500Y-112392000D02*
X145271500Y-112392000D01*
G75*
G02*
X145509000Y-112629500I0J-237500D01*
G01*
X145509000Y-113129500D01*
G75*
G02*
X145271500Y-113367000I-237500J0D01*
G01*
X144796500Y-113367000D01*
G75*
G02*
X144559000Y-113129500I0J237500D01*
G01*
X144559000Y-112629500D01*
G75*
G02*
X144796500Y-112392000I237500J0D01*
G01*
G37*
G36*
G01*
X144796500Y-114217000D02*
X145271500Y-114217000D01*
G75*
G02*
X145509000Y-114454500I0J-237500D01*
G01*
X145509000Y-114954500D01*
G75*
G02*
X145271500Y-115192000I-237500J0D01*
G01*
X144796500Y-115192000D01*
G75*
G02*
X144559000Y-114954500I0J237500D01*
G01*
X144559000Y-114454500D01*
G75*
G02*
X144796500Y-114217000I237500J0D01*
G01*
G37*
G36*
G01*
X144355000Y-120666500D02*
X144355000Y-121141500D01*
G75*
G02*
X144117500Y-121379000I-237500J0D01*
G01*
X143617500Y-121379000D01*
G75*
G02*
X143380000Y-121141500I0J237500D01*
G01*
X143380000Y-120666500D01*
G75*
G02*
X143617500Y-120429000I237500J0D01*
G01*
X144117500Y-120429000D01*
G75*
G02*
X144355000Y-120666500I0J-237500D01*
G01*
G37*
G36*
G01*
X146180000Y-120666500D02*
X146180000Y-121141500D01*
G75*
G02*
X145942500Y-121379000I-237500J0D01*
G01*
X145442500Y-121379000D01*
G75*
G02*
X145205000Y-121141500I0J237500D01*
G01*
X145205000Y-120666500D01*
G75*
G02*
X145442500Y-120429000I237500J0D01*
G01*
X145942500Y-120429000D01*
G75*
G02*
X146180000Y-120666500I0J-237500D01*
G01*
G37*
G36*
G01*
X147811500Y-115192000D02*
X147336500Y-115192000D01*
G75*
G02*
X147099000Y-114954500I0J237500D01*
G01*
X147099000Y-114454500D01*
G75*
G02*
X147336500Y-114217000I237500J0D01*
G01*
X147811500Y-114217000D01*
G75*
G02*
X148049000Y-114454500I0J-237500D01*
G01*
X148049000Y-114954500D01*
G75*
G02*
X147811500Y-115192000I-237500J0D01*
G01*
G37*
G36*
G01*
X147811500Y-113367000D02*
X147336500Y-113367000D01*
G75*
G02*
X147099000Y-113129500I0J237500D01*
G01*
X147099000Y-112629500D01*
G75*
G02*
X147336500Y-112392000I237500J0D01*
G01*
X147811500Y-112392000D01*
G75*
G02*
X148049000Y-112629500I0J-237500D01*
G01*
X148049000Y-113129500D01*
G75*
G02*
X147811500Y-113367000I-237500J0D01*
G01*
G37*
G36*
G01*
X144355000Y-123206500D02*
X144355000Y-123681500D01*
G75*
G02*
X144117500Y-123919000I-237500J0D01*
G01*
X143617500Y-123919000D01*
G75*
G02*
X143380000Y-123681500I0J237500D01*
G01*
X143380000Y-123206500D01*
G75*
G02*
X143617500Y-122969000I237500J0D01*
G01*
X144117500Y-122969000D01*
G75*
G02*
X144355000Y-123206500I0J-237500D01*
G01*
G37*
G36*
G01*
X146180000Y-123206500D02*
X146180000Y-123681500D01*
G75*
G02*
X145942500Y-123919000I-237500J0D01*
G01*
X145442500Y-123919000D01*
G75*
G02*
X145205000Y-123681500I0J237500D01*
G01*
X145205000Y-123206500D01*
G75*
G02*
X145442500Y-122969000I237500J0D01*
G01*
X145942500Y-122969000D01*
G75*
G02*
X146180000Y-123206500I0J-237500D01*
G01*
G37*
D29*
X144170400Y-116601240D03*
X144170400Y-117101619D03*
X144170400Y-117602000D03*
X144170400Y-118102381D03*
X144170400Y-118602760D03*
X139801600Y-118602760D03*
X139801600Y-118102381D03*
X139801600Y-117602000D03*
X139801600Y-117101619D03*
X139801600Y-116601240D03*
G36*
G01*
X172883001Y-119753000D02*
X171032999Y-119753000D01*
G75*
G02*
X170783000Y-119503001I0J249999D01*
G01*
X170783000Y-117752999D01*
G75*
G02*
X171032999Y-117503000I249999J0D01*
G01*
X172883001Y-117503000D01*
G75*
G02*
X173133000Y-117752999I0J-249999D01*
G01*
X173133000Y-119503001D01*
G75*
G02*
X172883001Y-119753000I-249999J0D01*
G01*
G37*
G36*
G01*
X172883001Y-114653000D02*
X171032999Y-114653000D01*
G75*
G02*
X170783000Y-114403001I0J249999D01*
G01*
X170783000Y-112652999D01*
G75*
G02*
X171032999Y-112403000I249999J0D01*
G01*
X172883001Y-112403000D01*
G75*
G02*
X173133000Y-112652999I0J-249999D01*
G01*
X173133000Y-114403001D01*
G75*
G02*
X172883001Y-114653000I-249999J0D01*
G01*
G37*
G36*
G01*
X159123000Y-120232999D02*
X159123000Y-122083001D01*
G75*
G02*
X158873001Y-122333000I-249999J0D01*
G01*
X157122999Y-122333000D01*
G75*
G02*
X156873000Y-122083001I0J249999D01*
G01*
X156873000Y-120232999D01*
G75*
G02*
X157122999Y-119983000I249999J0D01*
G01*
X158873001Y-119983000D01*
G75*
G02*
X159123000Y-120232999I0J-249999D01*
G01*
G37*
G36*
G01*
X154023000Y-120232999D02*
X154023000Y-122083001D01*
G75*
G02*
X153773001Y-122333000I-249999J0D01*
G01*
X152022999Y-122333000D01*
G75*
G02*
X151773000Y-122083001I0J249999D01*
G01*
X151773000Y-120232999D01*
G75*
G02*
X152022999Y-119983000I249999J0D01*
G01*
X153773001Y-119983000D01*
G75*
G02*
X154023000Y-120232999I0J-249999D01*
G01*
G37*
G36*
G01*
X177488001Y-111922000D02*
X176587999Y-111922000D01*
G75*
G02*
X176338000Y-111672001I0J249999D01*
G01*
X176338000Y-111021999D01*
G75*
G02*
X176587999Y-110772000I249999J0D01*
G01*
X177488001Y-110772000D01*
G75*
G02*
X177738000Y-111021999I0J-249999D01*
G01*
X177738000Y-111672001D01*
G75*
G02*
X177488001Y-111922000I-249999J0D01*
G01*
G37*
G36*
G01*
X177488001Y-109872000D02*
X176587999Y-109872000D01*
G75*
G02*
X176338000Y-109622001I0J249999D01*
G01*
X176338000Y-108971999D01*
G75*
G02*
X176587999Y-108722000I249999J0D01*
G01*
X177488001Y-108722000D01*
G75*
G02*
X177738000Y-108971999I0J-249999D01*
G01*
X177738000Y-109622001D01*
G75*
G02*
X177488001Y-109872000I-249999J0D01*
G01*
G37*
G36*
G01*
X176800500Y-104518000D02*
X177275500Y-104518000D01*
G75*
G02*
X177513000Y-104755500I0J-237500D01*
G01*
X177513000Y-105255500D01*
G75*
G02*
X177275500Y-105493000I-237500J0D01*
G01*
X176800500Y-105493000D01*
G75*
G02*
X176563000Y-105255500I0J237500D01*
G01*
X176563000Y-104755500D01*
G75*
G02*
X176800500Y-104518000I237500J0D01*
G01*
G37*
G36*
G01*
X176800500Y-106343000D02*
X177275500Y-106343000D01*
G75*
G02*
X177513000Y-106580500I0J-237500D01*
G01*
X177513000Y-107080500D01*
G75*
G02*
X177275500Y-107318000I-237500J0D01*
G01*
X176800500Y-107318000D01*
G75*
G02*
X176563000Y-107080500I0J237500D01*
G01*
X176563000Y-106580500D01*
G75*
G02*
X176800500Y-106343000I237500J0D01*
G01*
G37*
M02*
