G04 #@! TF.GenerationSoftware,KiCad,Pcbnew,(5.1.10)-1*
G04 #@! TF.CreationDate,2021-09-10T11:39:35+02:00*
G04 #@! TF.ProjectId,pcb-esp32-power,7063622d-6573-4703-9332-2d706f776572,rev?*
G04 #@! TF.SameCoordinates,Original*
G04 #@! TF.FileFunction,Copper,L1,Top*
G04 #@! TF.FilePolarity,Positive*
%FSLAX46Y46*%
G04 Gerber Fmt 4.6, Leading zero omitted, Abs format (unit mm)*
G04 Created by KiCad (PCBNEW (5.1.10)-1) date 2021-09-10 11:39:35*
%MOMM*%
%LPD*%
G01*
G04 APERTURE LIST*
G04 #@! TA.AperFunction,SMDPad,CuDef*
%ADD10R,2.500000X4.200000*%
G04 #@! TD*
G04 #@! TA.AperFunction,ComponentPad*
%ADD11R,1.700000X1.700000*%
G04 #@! TD*
G04 #@! TA.AperFunction,ComponentPad*
%ADD12O,1.700000X1.700000*%
G04 #@! TD*
G04 #@! TA.AperFunction,ComponentPad*
%ADD13C,1.700000*%
G04 #@! TD*
G04 #@! TA.AperFunction,ComponentPad*
%ADD14O,2.000000X1.700000*%
G04 #@! TD*
G04 #@! TA.AperFunction,ComponentPad*
%ADD15R,2.500000X2.500000*%
G04 #@! TD*
G04 #@! TA.AperFunction,ComponentPad*
%ADD16C,2.500000*%
G04 #@! TD*
G04 #@! TA.AperFunction,SMDPad,CuDef*
%ADD17R,0.900000X1.200000*%
G04 #@! TD*
G04 #@! TA.AperFunction,SMDPad,CuDef*
%ADD18R,0.550000X1.050000*%
G04 #@! TD*
G04 #@! TA.AperFunction,SMDPad,CuDef*
%ADD19R,0.600000X1.200000*%
G04 #@! TD*
G04 #@! TA.AperFunction,SMDPad,CuDef*
%ADD20R,2.150000X5.500000*%
G04 #@! TD*
G04 #@! TA.AperFunction,SMDPad,CuDef*
%ADD21R,0.800000X0.900000*%
G04 #@! TD*
G04 #@! TA.AperFunction,SMDPad,CuDef*
%ADD22R,1.397000X0.279400*%
G04 #@! TD*
G04 #@! TA.AperFunction,ViaPad*
%ADD23C,0.800000*%
G04 #@! TD*
G04 #@! TA.AperFunction,Conductor*
%ADD24C,0.400000*%
G04 #@! TD*
G04 #@! TA.AperFunction,Conductor*
%ADD25C,0.279200*%
G04 #@! TD*
G04 #@! TA.AperFunction,Conductor*
%ADD26C,0.250000*%
G04 #@! TD*
G04 APERTURE END LIST*
D10*
X158506000Y-102832000D03*
X158506000Y-91572000D03*
X135626000Y-102832000D03*
X135626000Y-91572000D03*
D11*
X156366000Y-104122000D03*
X137766000Y-104122000D03*
D12*
X156366000Y-92822000D03*
D11*
X156366000Y-101582000D03*
X137766000Y-101582000D03*
D13*
X156366000Y-90282000D03*
D12*
X137766000Y-92822000D03*
D13*
X137766000Y-90282000D03*
G04 #@! TA.AperFunction,ComponentPad*
G36*
G01*
X172986000Y-91606000D02*
X174486000Y-91606000D01*
G75*
G02*
X174736000Y-91856000I0J-250000D01*
G01*
X174736000Y-93056000D01*
G75*
G02*
X174486000Y-93306000I-250000J0D01*
G01*
X172986000Y-93306000D01*
G75*
G02*
X172736000Y-93056000I0J250000D01*
G01*
X172736000Y-91856000D01*
G75*
G02*
X172986000Y-91606000I250000J0D01*
G01*
G37*
G04 #@! TD.AperFunction*
D14*
X173736000Y-94956000D03*
D11*
X172974000Y-109220000D03*
D12*
X170434000Y-109220000D03*
X167894000Y-109220000D03*
X165354000Y-109220000D03*
X162814000Y-109220000D03*
X160274000Y-109220000D03*
X157734000Y-109220000D03*
X155194000Y-109220000D03*
X152654000Y-109220000D03*
X150114000Y-109220000D03*
X147574000Y-109220000D03*
X145034000Y-109220000D03*
X142494000Y-109220000D03*
X139954000Y-109220000D03*
X134874000Y-132080000D03*
X137414000Y-132080000D03*
X139954000Y-132080000D03*
X142494000Y-132080000D03*
X145034000Y-132080000D03*
X147574000Y-132080000D03*
X150114000Y-132080000D03*
X152654000Y-132080000D03*
X155194000Y-132080000D03*
X157734000Y-132080000D03*
X160274000Y-132080000D03*
X162814000Y-132080000D03*
X165354000Y-132080000D03*
X167894000Y-132080000D03*
X170434000Y-132080000D03*
X172974000Y-132080000D03*
D15*
X128143000Y-96307000D03*
D16*
X128143000Y-100307000D03*
X128143000Y-104307000D03*
X128143000Y-108307000D03*
X128143000Y-112307000D03*
X128143000Y-116307000D03*
X128143000Y-120307000D03*
X128143000Y-124307000D03*
X131143000Y-96307000D03*
X131143000Y-100307000D03*
X131143000Y-104307000D03*
X131143000Y-108307000D03*
X131143000Y-112307000D03*
X131143000Y-116307000D03*
X131143000Y-120307000D03*
X131143000Y-124307000D03*
G04 #@! TA.AperFunction,SMDPad,CuDef*
G36*
G01*
X170196500Y-105581000D02*
X170671500Y-105581000D01*
G75*
G02*
X170909000Y-105818500I0J-237500D01*
G01*
X170909000Y-106318500D01*
G75*
G02*
X170671500Y-106556000I-237500J0D01*
G01*
X170196500Y-106556000D01*
G75*
G02*
X169959000Y-106318500I0J237500D01*
G01*
X169959000Y-105818500D01*
G75*
G02*
X170196500Y-105581000I237500J0D01*
G01*
G37*
G04 #@! TD.AperFunction*
G04 #@! TA.AperFunction,SMDPad,CuDef*
G36*
G01*
X170196500Y-103756000D02*
X170671500Y-103756000D01*
G75*
G02*
X170909000Y-103993500I0J-237500D01*
G01*
X170909000Y-104493500D01*
G75*
G02*
X170671500Y-104731000I-237500J0D01*
G01*
X170196500Y-104731000D01*
G75*
G02*
X169959000Y-104493500I0J237500D01*
G01*
X169959000Y-103993500D01*
G75*
G02*
X170196500Y-103756000I237500J0D01*
G01*
G37*
G04 #@! TD.AperFunction*
G04 #@! TA.AperFunction,SMDPad,CuDef*
G36*
G01*
X168131500Y-106556000D02*
X167656500Y-106556000D01*
G75*
G02*
X167419000Y-106318500I0J237500D01*
G01*
X167419000Y-105818500D01*
G75*
G02*
X167656500Y-105581000I237500J0D01*
G01*
X168131500Y-105581000D01*
G75*
G02*
X168369000Y-105818500I0J-237500D01*
G01*
X168369000Y-106318500D01*
G75*
G02*
X168131500Y-106556000I-237500J0D01*
G01*
G37*
G04 #@! TD.AperFunction*
G04 #@! TA.AperFunction,SMDPad,CuDef*
G36*
G01*
X168131500Y-104731000D02*
X167656500Y-104731000D01*
G75*
G02*
X167419000Y-104493500I0J237500D01*
G01*
X167419000Y-103993500D01*
G75*
G02*
X167656500Y-103756000I237500J0D01*
G01*
X168131500Y-103756000D01*
G75*
G02*
X168369000Y-103993500I0J-237500D01*
G01*
X168369000Y-104493500D01*
G75*
G02*
X168131500Y-104731000I-237500J0D01*
G01*
G37*
G04 #@! TD.AperFunction*
G04 #@! TA.AperFunction,SMDPad,CuDef*
G36*
G01*
X154869000Y-124730500D02*
X154869000Y-125205500D01*
G75*
G02*
X154631500Y-125443000I-237500J0D01*
G01*
X154031500Y-125443000D01*
G75*
G02*
X153794000Y-125205500I0J237500D01*
G01*
X153794000Y-124730500D01*
G75*
G02*
X154031500Y-124493000I237500J0D01*
G01*
X154631500Y-124493000D01*
G75*
G02*
X154869000Y-124730500I0J-237500D01*
G01*
G37*
G04 #@! TD.AperFunction*
G04 #@! TA.AperFunction,SMDPad,CuDef*
G36*
G01*
X156594000Y-124730500D02*
X156594000Y-125205500D01*
G75*
G02*
X156356500Y-125443000I-237500J0D01*
G01*
X155756500Y-125443000D01*
G75*
G02*
X155519000Y-125205500I0J237500D01*
G01*
X155519000Y-124730500D01*
G75*
G02*
X155756500Y-124493000I237500J0D01*
G01*
X156356500Y-124493000D01*
G75*
G02*
X156594000Y-124730500I0J-237500D01*
G01*
G37*
G04 #@! TD.AperFunction*
G04 #@! TA.AperFunction,SMDPad,CuDef*
G36*
G01*
X163960000Y-124730500D02*
X163960000Y-125205500D01*
G75*
G02*
X163722500Y-125443000I-237500J0D01*
G01*
X163122500Y-125443000D01*
G75*
G02*
X162885000Y-125205500I0J237500D01*
G01*
X162885000Y-124730500D01*
G75*
G02*
X163122500Y-124493000I237500J0D01*
G01*
X163722500Y-124493000D01*
G75*
G02*
X163960000Y-124730500I0J-237500D01*
G01*
G37*
G04 #@! TD.AperFunction*
G04 #@! TA.AperFunction,SMDPad,CuDef*
G36*
G01*
X162235000Y-124730500D02*
X162235000Y-125205500D01*
G75*
G02*
X161997500Y-125443000I-237500J0D01*
G01*
X161397500Y-125443000D01*
G75*
G02*
X161160000Y-125205500I0J237500D01*
G01*
X161160000Y-124730500D01*
G75*
G02*
X161397500Y-124493000I237500J0D01*
G01*
X161997500Y-124493000D01*
G75*
G02*
X162235000Y-124730500I0J-237500D01*
G01*
G37*
G04 #@! TD.AperFunction*
G04 #@! TA.AperFunction,SMDPad,CuDef*
G36*
G01*
X168565001Y-119753000D02*
X166714999Y-119753000D01*
G75*
G02*
X166465000Y-119503001I0J249999D01*
G01*
X166465000Y-117752999D01*
G75*
G02*
X166714999Y-117503000I249999J0D01*
G01*
X168565001Y-117503000D01*
G75*
G02*
X168815000Y-117752999I0J-249999D01*
G01*
X168815000Y-119503001D01*
G75*
G02*
X168565001Y-119753000I-249999J0D01*
G01*
G37*
G04 #@! TD.AperFunction*
G04 #@! TA.AperFunction,SMDPad,CuDef*
G36*
G01*
X168565001Y-114653000D02*
X166714999Y-114653000D01*
G75*
G02*
X166465000Y-114403001I0J249999D01*
G01*
X166465000Y-112652999D01*
G75*
G02*
X166714999Y-112403000I249999J0D01*
G01*
X168565001Y-112403000D01*
G75*
G02*
X168815000Y-112652999I0J-249999D01*
G01*
X168815000Y-114403001D01*
G75*
G02*
X168565001Y-114653000I-249999J0D01*
G01*
G37*
G04 #@! TD.AperFunction*
D17*
X156336000Y-117348000D03*
X153036000Y-117348000D03*
D18*
X172654000Y-99030000D03*
X171704000Y-99030000D03*
X170754000Y-99030000D03*
X170754000Y-101630000D03*
X172654000Y-101630000D03*
D19*
X163510000Y-113000000D03*
X162560000Y-113000000D03*
X161610000Y-113000000D03*
X161610000Y-115600000D03*
X163510000Y-115600000D03*
D20*
X171597000Y-124206000D03*
X167747000Y-124206000D03*
D21*
X153736000Y-114792000D03*
X155636000Y-114792000D03*
X154686000Y-112792000D03*
G04 #@! TA.AperFunction,SMDPad,CuDef*
G36*
G01*
X162576500Y-105581000D02*
X163051500Y-105581000D01*
G75*
G02*
X163289000Y-105818500I0J-237500D01*
G01*
X163289000Y-106318500D01*
G75*
G02*
X163051500Y-106556000I-237500J0D01*
G01*
X162576500Y-106556000D01*
G75*
G02*
X162339000Y-106318500I0J237500D01*
G01*
X162339000Y-105818500D01*
G75*
G02*
X162576500Y-105581000I237500J0D01*
G01*
G37*
G04 #@! TD.AperFunction*
G04 #@! TA.AperFunction,SMDPad,CuDef*
G36*
G01*
X162576500Y-103756000D02*
X163051500Y-103756000D01*
G75*
G02*
X163289000Y-103993500I0J-237500D01*
G01*
X163289000Y-104493500D01*
G75*
G02*
X163051500Y-104731000I-237500J0D01*
G01*
X162576500Y-104731000D01*
G75*
G02*
X162339000Y-104493500I0J237500D01*
G01*
X162339000Y-103993500D01*
G75*
G02*
X162576500Y-103756000I237500J0D01*
G01*
G37*
G04 #@! TD.AperFunction*
G04 #@! TA.AperFunction,SMDPad,CuDef*
G36*
G01*
X165591500Y-106556000D02*
X165116500Y-106556000D01*
G75*
G02*
X164879000Y-106318500I0J237500D01*
G01*
X164879000Y-105818500D01*
G75*
G02*
X165116500Y-105581000I237500J0D01*
G01*
X165591500Y-105581000D01*
G75*
G02*
X165829000Y-105818500I0J-237500D01*
G01*
X165829000Y-106318500D01*
G75*
G02*
X165591500Y-106556000I-237500J0D01*
G01*
G37*
G04 #@! TD.AperFunction*
G04 #@! TA.AperFunction,SMDPad,CuDef*
G36*
G01*
X165591500Y-104731000D02*
X165116500Y-104731000D01*
G75*
G02*
X164879000Y-104493500I0J237500D01*
G01*
X164879000Y-103993500D01*
G75*
G02*
X165116500Y-103756000I237500J0D01*
G01*
X165591500Y-103756000D01*
G75*
G02*
X165829000Y-103993500I0J-237500D01*
G01*
X165829000Y-104493500D01*
G75*
G02*
X165591500Y-104731000I-237500J0D01*
G01*
G37*
G04 #@! TD.AperFunction*
G04 #@! TA.AperFunction,SMDPad,CuDef*
G36*
G01*
X172736500Y-105581000D02*
X173211500Y-105581000D01*
G75*
G02*
X173449000Y-105818500I0J-237500D01*
G01*
X173449000Y-106318500D01*
G75*
G02*
X173211500Y-106556000I-237500J0D01*
G01*
X172736500Y-106556000D01*
G75*
G02*
X172499000Y-106318500I0J237500D01*
G01*
X172499000Y-105818500D01*
G75*
G02*
X172736500Y-105581000I237500J0D01*
G01*
G37*
G04 #@! TD.AperFunction*
G04 #@! TA.AperFunction,SMDPad,CuDef*
G36*
G01*
X172736500Y-103756000D02*
X173211500Y-103756000D01*
G75*
G02*
X173449000Y-103993500I0J-237500D01*
G01*
X173449000Y-104493500D01*
G75*
G02*
X173211500Y-104731000I-237500J0D01*
G01*
X172736500Y-104731000D01*
G75*
G02*
X172499000Y-104493500I0J237500D01*
G01*
X172499000Y-103993500D01*
G75*
G02*
X172736500Y-103756000I237500J0D01*
G01*
G37*
G04 #@! TD.AperFunction*
G04 #@! TA.AperFunction,SMDPad,CuDef*
G36*
G01*
X153794000Y-127491500D02*
X153794000Y-127016500D01*
G75*
G02*
X154031500Y-126779000I237500J0D01*
G01*
X154531500Y-126779000D01*
G75*
G02*
X154769000Y-127016500I0J-237500D01*
G01*
X154769000Y-127491500D01*
G75*
G02*
X154531500Y-127729000I-237500J0D01*
G01*
X154031500Y-127729000D01*
G75*
G02*
X153794000Y-127491500I0J237500D01*
G01*
G37*
G04 #@! TD.AperFunction*
G04 #@! TA.AperFunction,SMDPad,CuDef*
G36*
G01*
X155619000Y-127491500D02*
X155619000Y-127016500D01*
G75*
G02*
X155856500Y-126779000I237500J0D01*
G01*
X156356500Y-126779000D01*
G75*
G02*
X156594000Y-127016500I0J-237500D01*
G01*
X156594000Y-127491500D01*
G75*
G02*
X156356500Y-127729000I-237500J0D01*
G01*
X155856500Y-127729000D01*
G75*
G02*
X155619000Y-127491500I0J237500D01*
G01*
G37*
G04 #@! TD.AperFunction*
G04 #@! TA.AperFunction,SMDPad,CuDef*
G36*
G01*
X161160000Y-120633500D02*
X161160000Y-120158500D01*
G75*
G02*
X161397500Y-119921000I237500J0D01*
G01*
X161897500Y-119921000D01*
G75*
G02*
X162135000Y-120158500I0J-237500D01*
G01*
X162135000Y-120633500D01*
G75*
G02*
X161897500Y-120871000I-237500J0D01*
G01*
X161397500Y-120871000D01*
G75*
G02*
X161160000Y-120633500I0J237500D01*
G01*
G37*
G04 #@! TD.AperFunction*
G04 #@! TA.AperFunction,SMDPad,CuDef*
G36*
G01*
X162985000Y-120633500D02*
X162985000Y-120158500D01*
G75*
G02*
X163222500Y-119921000I237500J0D01*
G01*
X163722500Y-119921000D01*
G75*
G02*
X163960000Y-120158500I0J-237500D01*
G01*
X163960000Y-120633500D01*
G75*
G02*
X163722500Y-120871000I-237500J0D01*
G01*
X163222500Y-120871000D01*
G75*
G02*
X162985000Y-120633500I0J237500D01*
G01*
G37*
G04 #@! TD.AperFunction*
G04 #@! TA.AperFunction,SMDPad,CuDef*
G36*
G01*
X162135000Y-117872500D02*
X162135000Y-118347500D01*
G75*
G02*
X161897500Y-118585000I-237500J0D01*
G01*
X161397500Y-118585000D01*
G75*
G02*
X161160000Y-118347500I0J237500D01*
G01*
X161160000Y-117872500D01*
G75*
G02*
X161397500Y-117635000I237500J0D01*
G01*
X161897500Y-117635000D01*
G75*
G02*
X162135000Y-117872500I0J-237500D01*
G01*
G37*
G04 #@! TD.AperFunction*
G04 #@! TA.AperFunction,SMDPad,CuDef*
G36*
G01*
X163960000Y-117872500D02*
X163960000Y-118347500D01*
G75*
G02*
X163722500Y-118585000I-237500J0D01*
G01*
X163222500Y-118585000D01*
G75*
G02*
X162985000Y-118347500I0J237500D01*
G01*
X162985000Y-117872500D01*
G75*
G02*
X163222500Y-117635000I237500J0D01*
G01*
X163722500Y-117635000D01*
G75*
G02*
X163960000Y-117872500I0J-237500D01*
G01*
G37*
G04 #@! TD.AperFunction*
G04 #@! TA.AperFunction,SMDPad,CuDef*
G36*
G01*
X163960000Y-127016500D02*
X163960000Y-127491500D01*
G75*
G02*
X163722500Y-127729000I-237500J0D01*
G01*
X163222500Y-127729000D01*
G75*
G02*
X162985000Y-127491500I0J237500D01*
G01*
X162985000Y-127016500D01*
G75*
G02*
X163222500Y-126779000I237500J0D01*
G01*
X163722500Y-126779000D01*
G75*
G02*
X163960000Y-127016500I0J-237500D01*
G01*
G37*
G04 #@! TD.AperFunction*
G04 #@! TA.AperFunction,SMDPad,CuDef*
G36*
G01*
X162135000Y-127016500D02*
X162135000Y-127491500D01*
G75*
G02*
X161897500Y-127729000I-237500J0D01*
G01*
X161397500Y-127729000D01*
G75*
G02*
X161160000Y-127491500I0J237500D01*
G01*
X161160000Y-127016500D01*
G75*
G02*
X161397500Y-126779000I237500J0D01*
G01*
X161897500Y-126779000D01*
G75*
G02*
X162135000Y-127016500I0J-237500D01*
G01*
G37*
G04 #@! TD.AperFunction*
G04 #@! TA.AperFunction,SMDPad,CuDef*
G36*
G01*
X162985000Y-122919500D02*
X162985000Y-122444500D01*
G75*
G02*
X163222500Y-122207000I237500J0D01*
G01*
X163722500Y-122207000D01*
G75*
G02*
X163960000Y-122444500I0J-237500D01*
G01*
X163960000Y-122919500D01*
G75*
G02*
X163722500Y-123157000I-237500J0D01*
G01*
X163222500Y-123157000D01*
G75*
G02*
X162985000Y-122919500I0J237500D01*
G01*
G37*
G04 #@! TD.AperFunction*
G04 #@! TA.AperFunction,SMDPad,CuDef*
G36*
G01*
X161160000Y-122919500D02*
X161160000Y-122444500D01*
G75*
G02*
X161397500Y-122207000I237500J0D01*
G01*
X161897500Y-122207000D01*
G75*
G02*
X162135000Y-122444500I0J-237500D01*
G01*
X162135000Y-122919500D01*
G75*
G02*
X161897500Y-123157000I-237500J0D01*
G01*
X161397500Y-123157000D01*
G75*
G02*
X161160000Y-122919500I0J237500D01*
G01*
G37*
G04 #@! TD.AperFunction*
G04 #@! TA.AperFunction,SMDPad,CuDef*
G36*
G01*
X162651000Y-90081000D02*
X164501000Y-90081000D01*
G75*
G02*
X164751000Y-90331000I0J-250000D01*
G01*
X164751000Y-91331000D01*
G75*
G02*
X164501000Y-91581000I-250000J0D01*
G01*
X162651000Y-91581000D01*
G75*
G02*
X162401000Y-91331000I0J250000D01*
G01*
X162401000Y-90331000D01*
G75*
G02*
X162651000Y-90081000I250000J0D01*
G01*
G37*
G04 #@! TD.AperFunction*
G04 #@! TA.AperFunction,SMDPad,CuDef*
G36*
G01*
X162651000Y-93331000D02*
X164501000Y-93331000D01*
G75*
G02*
X164751000Y-93581000I0J-250000D01*
G01*
X164751000Y-94581000D01*
G75*
G02*
X164501000Y-94831000I-250000J0D01*
G01*
X162651000Y-94831000D01*
G75*
G02*
X162401000Y-94581000I0J250000D01*
G01*
X162401000Y-93581000D01*
G75*
G02*
X162651000Y-93331000I250000J0D01*
G01*
G37*
G04 #@! TD.AperFunction*
G04 #@! TA.AperFunction,SMDPad,CuDef*
G36*
G01*
X164501000Y-101435000D02*
X162651000Y-101435000D01*
G75*
G02*
X162401000Y-101185000I0J250000D01*
G01*
X162401000Y-100185000D01*
G75*
G02*
X162651000Y-99935000I250000J0D01*
G01*
X164501000Y-99935000D01*
G75*
G02*
X164751000Y-100185000I0J-250000D01*
G01*
X164751000Y-101185000D01*
G75*
G02*
X164501000Y-101435000I-250000J0D01*
G01*
G37*
G04 #@! TD.AperFunction*
G04 #@! TA.AperFunction,SMDPad,CuDef*
G36*
G01*
X164501000Y-98185000D02*
X162651000Y-98185000D01*
G75*
G02*
X162401000Y-97935000I0J250000D01*
G01*
X162401000Y-96935000D01*
G75*
G02*
X162651000Y-96685000I250000J0D01*
G01*
X164501000Y-96685000D01*
G75*
G02*
X164751000Y-96935000I0J-250000D01*
G01*
X164751000Y-97935000D01*
G75*
G02*
X164501000Y-98185000I-250000J0D01*
G01*
G37*
G04 #@! TD.AperFunction*
G04 #@! TA.AperFunction,SMDPad,CuDef*
G36*
G01*
X149876500Y-116202000D02*
X150351500Y-116202000D01*
G75*
G02*
X150589000Y-116439500I0J-237500D01*
G01*
X150589000Y-117039500D01*
G75*
G02*
X150351500Y-117277000I-237500J0D01*
G01*
X149876500Y-117277000D01*
G75*
G02*
X149639000Y-117039500I0J237500D01*
G01*
X149639000Y-116439500D01*
G75*
G02*
X149876500Y-116202000I237500J0D01*
G01*
G37*
G04 #@! TD.AperFunction*
G04 #@! TA.AperFunction,SMDPad,CuDef*
G36*
G01*
X149876500Y-117927000D02*
X150351500Y-117927000D01*
G75*
G02*
X150589000Y-118164500I0J-237500D01*
G01*
X150589000Y-118764500D01*
G75*
G02*
X150351500Y-119002000I-237500J0D01*
G01*
X149876500Y-119002000D01*
G75*
G02*
X149639000Y-118764500I0J237500D01*
G01*
X149639000Y-118164500D01*
G75*
G02*
X149876500Y-117927000I237500J0D01*
G01*
G37*
G04 #@! TD.AperFunction*
G04 #@! TA.AperFunction,SMDPad,CuDef*
G36*
G01*
X137651500Y-113467000D02*
X137176500Y-113467000D01*
G75*
G02*
X136939000Y-113229500I0J237500D01*
G01*
X136939000Y-112629500D01*
G75*
G02*
X137176500Y-112392000I237500J0D01*
G01*
X137651500Y-112392000D01*
G75*
G02*
X137889000Y-112629500I0J-237500D01*
G01*
X137889000Y-113229500D01*
G75*
G02*
X137651500Y-113467000I-237500J0D01*
G01*
G37*
G04 #@! TD.AperFunction*
G04 #@! TA.AperFunction,SMDPad,CuDef*
G36*
G01*
X137651500Y-115192000D02*
X137176500Y-115192000D01*
G75*
G02*
X136939000Y-114954500I0J237500D01*
G01*
X136939000Y-114354500D01*
G75*
G02*
X137176500Y-114117000I237500J0D01*
G01*
X137651500Y-114117000D01*
G75*
G02*
X137889000Y-114354500I0J-237500D01*
G01*
X137889000Y-114954500D01*
G75*
G02*
X137651500Y-115192000I-237500J0D01*
G01*
G37*
G04 #@! TD.AperFunction*
G04 #@! TA.AperFunction,SMDPad,CuDef*
G36*
G01*
X150351500Y-113467000D02*
X149876500Y-113467000D01*
G75*
G02*
X149639000Y-113229500I0J237500D01*
G01*
X149639000Y-112629500D01*
G75*
G02*
X149876500Y-112392000I237500J0D01*
G01*
X150351500Y-112392000D01*
G75*
G02*
X150589000Y-112629500I0J-237500D01*
G01*
X150589000Y-113229500D01*
G75*
G02*
X150351500Y-113467000I-237500J0D01*
G01*
G37*
G04 #@! TD.AperFunction*
G04 #@! TA.AperFunction,SMDPad,CuDef*
G36*
G01*
X150351500Y-115192000D02*
X149876500Y-115192000D01*
G75*
G02*
X149639000Y-114954500I0J237500D01*
G01*
X149639000Y-114354500D01*
G75*
G02*
X149876500Y-114117000I237500J0D01*
G01*
X150351500Y-114117000D01*
G75*
G02*
X150589000Y-114354500I0J-237500D01*
G01*
X150589000Y-114954500D01*
G75*
G02*
X150351500Y-115192000I-237500J0D01*
G01*
G37*
G04 #@! TD.AperFunction*
G04 #@! TA.AperFunction,SMDPad,CuDef*
G36*
G01*
X143380000Y-126221500D02*
X143380000Y-125746500D01*
G75*
G02*
X143617500Y-125509000I237500J0D01*
G01*
X144217500Y-125509000D01*
G75*
G02*
X144455000Y-125746500I0J-237500D01*
G01*
X144455000Y-126221500D01*
G75*
G02*
X144217500Y-126459000I-237500J0D01*
G01*
X143617500Y-126459000D01*
G75*
G02*
X143380000Y-126221500I0J237500D01*
G01*
G37*
G04 #@! TD.AperFunction*
G04 #@! TA.AperFunction,SMDPad,CuDef*
G36*
G01*
X145105000Y-126221500D02*
X145105000Y-125746500D01*
G75*
G02*
X145342500Y-125509000I237500J0D01*
G01*
X145942500Y-125509000D01*
G75*
G02*
X146180000Y-125746500I0J-237500D01*
G01*
X146180000Y-126221500D01*
G75*
G02*
X145942500Y-126459000I-237500J0D01*
G01*
X145342500Y-126459000D01*
G75*
G02*
X145105000Y-126221500I0J237500D01*
G01*
G37*
G04 #@! TD.AperFunction*
D20*
X140101000Y-124206000D03*
X136251000Y-124206000D03*
G04 #@! TA.AperFunction,SMDPad,CuDef*
G36*
G01*
X147811500Y-119002000D02*
X147336500Y-119002000D01*
G75*
G02*
X147099000Y-118764500I0J237500D01*
G01*
X147099000Y-118264500D01*
G75*
G02*
X147336500Y-118027000I237500J0D01*
G01*
X147811500Y-118027000D01*
G75*
G02*
X148049000Y-118264500I0J-237500D01*
G01*
X148049000Y-118764500D01*
G75*
G02*
X147811500Y-119002000I-237500J0D01*
G01*
G37*
G04 #@! TD.AperFunction*
G04 #@! TA.AperFunction,SMDPad,CuDef*
G36*
G01*
X147811500Y-117177000D02*
X147336500Y-117177000D01*
G75*
G02*
X147099000Y-116939500I0J237500D01*
G01*
X147099000Y-116439500D01*
G75*
G02*
X147336500Y-116202000I237500J0D01*
G01*
X147811500Y-116202000D01*
G75*
G02*
X148049000Y-116439500I0J-237500D01*
G01*
X148049000Y-116939500D01*
G75*
G02*
X147811500Y-117177000I-237500J0D01*
G01*
G37*
G04 #@! TD.AperFunction*
G04 #@! TA.AperFunction,SMDPad,CuDef*
G36*
G01*
X142731500Y-113367000D02*
X142256500Y-113367000D01*
G75*
G02*
X142019000Y-113129500I0J237500D01*
G01*
X142019000Y-112629500D01*
G75*
G02*
X142256500Y-112392000I237500J0D01*
G01*
X142731500Y-112392000D01*
G75*
G02*
X142969000Y-112629500I0J-237500D01*
G01*
X142969000Y-113129500D01*
G75*
G02*
X142731500Y-113367000I-237500J0D01*
G01*
G37*
G04 #@! TD.AperFunction*
G04 #@! TA.AperFunction,SMDPad,CuDef*
G36*
G01*
X142731500Y-115192000D02*
X142256500Y-115192000D01*
G75*
G02*
X142019000Y-114954500I0J237500D01*
G01*
X142019000Y-114454500D01*
G75*
G02*
X142256500Y-114217000I237500J0D01*
G01*
X142731500Y-114217000D01*
G75*
G02*
X142969000Y-114454500I0J-237500D01*
G01*
X142969000Y-114954500D01*
G75*
G02*
X142731500Y-115192000I-237500J0D01*
G01*
G37*
G04 #@! TD.AperFunction*
G04 #@! TA.AperFunction,SMDPad,CuDef*
G36*
G01*
X140191500Y-115192000D02*
X139716500Y-115192000D01*
G75*
G02*
X139479000Y-114954500I0J237500D01*
G01*
X139479000Y-114454500D01*
G75*
G02*
X139716500Y-114217000I237500J0D01*
G01*
X140191500Y-114217000D01*
G75*
G02*
X140429000Y-114454500I0J-237500D01*
G01*
X140429000Y-114954500D01*
G75*
G02*
X140191500Y-115192000I-237500J0D01*
G01*
G37*
G04 #@! TD.AperFunction*
G04 #@! TA.AperFunction,SMDPad,CuDef*
G36*
G01*
X140191500Y-113367000D02*
X139716500Y-113367000D01*
G75*
G02*
X139479000Y-113129500I0J237500D01*
G01*
X139479000Y-112629500D01*
G75*
G02*
X139716500Y-112392000I237500J0D01*
G01*
X140191500Y-112392000D01*
G75*
G02*
X140429000Y-112629500I0J-237500D01*
G01*
X140429000Y-113129500D01*
G75*
G02*
X140191500Y-113367000I-237500J0D01*
G01*
G37*
G04 #@! TD.AperFunction*
G04 #@! TA.AperFunction,SMDPad,CuDef*
G36*
G01*
X144796500Y-112392000D02*
X145271500Y-112392000D01*
G75*
G02*
X145509000Y-112629500I0J-237500D01*
G01*
X145509000Y-113129500D01*
G75*
G02*
X145271500Y-113367000I-237500J0D01*
G01*
X144796500Y-113367000D01*
G75*
G02*
X144559000Y-113129500I0J237500D01*
G01*
X144559000Y-112629500D01*
G75*
G02*
X144796500Y-112392000I237500J0D01*
G01*
G37*
G04 #@! TD.AperFunction*
G04 #@! TA.AperFunction,SMDPad,CuDef*
G36*
G01*
X144796500Y-114217000D02*
X145271500Y-114217000D01*
G75*
G02*
X145509000Y-114454500I0J-237500D01*
G01*
X145509000Y-114954500D01*
G75*
G02*
X145271500Y-115192000I-237500J0D01*
G01*
X144796500Y-115192000D01*
G75*
G02*
X144559000Y-114954500I0J237500D01*
G01*
X144559000Y-114454500D01*
G75*
G02*
X144796500Y-114217000I237500J0D01*
G01*
G37*
G04 #@! TD.AperFunction*
G04 #@! TA.AperFunction,SMDPad,CuDef*
G36*
G01*
X144355000Y-120666500D02*
X144355000Y-121141500D01*
G75*
G02*
X144117500Y-121379000I-237500J0D01*
G01*
X143617500Y-121379000D01*
G75*
G02*
X143380000Y-121141500I0J237500D01*
G01*
X143380000Y-120666500D01*
G75*
G02*
X143617500Y-120429000I237500J0D01*
G01*
X144117500Y-120429000D01*
G75*
G02*
X144355000Y-120666500I0J-237500D01*
G01*
G37*
G04 #@! TD.AperFunction*
G04 #@! TA.AperFunction,SMDPad,CuDef*
G36*
G01*
X146180000Y-120666500D02*
X146180000Y-121141500D01*
G75*
G02*
X145942500Y-121379000I-237500J0D01*
G01*
X145442500Y-121379000D01*
G75*
G02*
X145205000Y-121141500I0J237500D01*
G01*
X145205000Y-120666500D01*
G75*
G02*
X145442500Y-120429000I237500J0D01*
G01*
X145942500Y-120429000D01*
G75*
G02*
X146180000Y-120666500I0J-237500D01*
G01*
G37*
G04 #@! TD.AperFunction*
G04 #@! TA.AperFunction,SMDPad,CuDef*
G36*
G01*
X147811500Y-115192000D02*
X147336500Y-115192000D01*
G75*
G02*
X147099000Y-114954500I0J237500D01*
G01*
X147099000Y-114454500D01*
G75*
G02*
X147336500Y-114217000I237500J0D01*
G01*
X147811500Y-114217000D01*
G75*
G02*
X148049000Y-114454500I0J-237500D01*
G01*
X148049000Y-114954500D01*
G75*
G02*
X147811500Y-115192000I-237500J0D01*
G01*
G37*
G04 #@! TD.AperFunction*
G04 #@! TA.AperFunction,SMDPad,CuDef*
G36*
G01*
X147811500Y-113367000D02*
X147336500Y-113367000D01*
G75*
G02*
X147099000Y-113129500I0J237500D01*
G01*
X147099000Y-112629500D01*
G75*
G02*
X147336500Y-112392000I237500J0D01*
G01*
X147811500Y-112392000D01*
G75*
G02*
X148049000Y-112629500I0J-237500D01*
G01*
X148049000Y-113129500D01*
G75*
G02*
X147811500Y-113367000I-237500J0D01*
G01*
G37*
G04 #@! TD.AperFunction*
G04 #@! TA.AperFunction,SMDPad,CuDef*
G36*
G01*
X144355000Y-123206500D02*
X144355000Y-123681500D01*
G75*
G02*
X144117500Y-123919000I-237500J0D01*
G01*
X143617500Y-123919000D01*
G75*
G02*
X143380000Y-123681500I0J237500D01*
G01*
X143380000Y-123206500D01*
G75*
G02*
X143617500Y-122969000I237500J0D01*
G01*
X144117500Y-122969000D01*
G75*
G02*
X144355000Y-123206500I0J-237500D01*
G01*
G37*
G04 #@! TD.AperFunction*
G04 #@! TA.AperFunction,SMDPad,CuDef*
G36*
G01*
X146180000Y-123206500D02*
X146180000Y-123681500D01*
G75*
G02*
X145942500Y-123919000I-237500J0D01*
G01*
X145442500Y-123919000D01*
G75*
G02*
X145205000Y-123681500I0J237500D01*
G01*
X145205000Y-123206500D01*
G75*
G02*
X145442500Y-122969000I237500J0D01*
G01*
X145942500Y-122969000D01*
G75*
G02*
X146180000Y-123206500I0J-237500D01*
G01*
G37*
G04 #@! TD.AperFunction*
D22*
X144170400Y-116601240D03*
X144170400Y-117101619D03*
X144170400Y-117602000D03*
X144170400Y-118102381D03*
X144170400Y-118602760D03*
X139801600Y-118602760D03*
X139801600Y-118102381D03*
X139801600Y-117602000D03*
X139801600Y-117101619D03*
X139801600Y-116601240D03*
G04 #@! TA.AperFunction,SMDPad,CuDef*
G36*
G01*
X172883001Y-119753000D02*
X171032999Y-119753000D01*
G75*
G02*
X170783000Y-119503001I0J249999D01*
G01*
X170783000Y-117752999D01*
G75*
G02*
X171032999Y-117503000I249999J0D01*
G01*
X172883001Y-117503000D01*
G75*
G02*
X173133000Y-117752999I0J-249999D01*
G01*
X173133000Y-119503001D01*
G75*
G02*
X172883001Y-119753000I-249999J0D01*
G01*
G37*
G04 #@! TD.AperFunction*
G04 #@! TA.AperFunction,SMDPad,CuDef*
G36*
G01*
X172883001Y-114653000D02*
X171032999Y-114653000D01*
G75*
G02*
X170783000Y-114403001I0J249999D01*
G01*
X170783000Y-112652999D01*
G75*
G02*
X171032999Y-112403000I249999J0D01*
G01*
X172883001Y-112403000D01*
G75*
G02*
X173133000Y-112652999I0J-249999D01*
G01*
X173133000Y-114403001D01*
G75*
G02*
X172883001Y-114653000I-249999J0D01*
G01*
G37*
G04 #@! TD.AperFunction*
G04 #@! TA.AperFunction,SMDPad,CuDef*
G36*
G01*
X159123000Y-120232999D02*
X159123000Y-122083001D01*
G75*
G02*
X158873001Y-122333000I-249999J0D01*
G01*
X157122999Y-122333000D01*
G75*
G02*
X156873000Y-122083001I0J249999D01*
G01*
X156873000Y-120232999D01*
G75*
G02*
X157122999Y-119983000I249999J0D01*
G01*
X158873001Y-119983000D01*
G75*
G02*
X159123000Y-120232999I0J-249999D01*
G01*
G37*
G04 #@! TD.AperFunction*
G04 #@! TA.AperFunction,SMDPad,CuDef*
G36*
G01*
X154023000Y-120232999D02*
X154023000Y-122083001D01*
G75*
G02*
X153773001Y-122333000I-249999J0D01*
G01*
X152022999Y-122333000D01*
G75*
G02*
X151773000Y-122083001I0J249999D01*
G01*
X151773000Y-120232999D01*
G75*
G02*
X152022999Y-119983000I249999J0D01*
G01*
X153773001Y-119983000D01*
G75*
G02*
X154023000Y-120232999I0J-249999D01*
G01*
G37*
G04 #@! TD.AperFunction*
G04 #@! TA.AperFunction,SMDPad,CuDef*
G36*
G01*
X177488001Y-111922000D02*
X176587999Y-111922000D01*
G75*
G02*
X176338000Y-111672001I0J249999D01*
G01*
X176338000Y-111021999D01*
G75*
G02*
X176587999Y-110772000I249999J0D01*
G01*
X177488001Y-110772000D01*
G75*
G02*
X177738000Y-111021999I0J-249999D01*
G01*
X177738000Y-111672001D01*
G75*
G02*
X177488001Y-111922000I-249999J0D01*
G01*
G37*
G04 #@! TD.AperFunction*
G04 #@! TA.AperFunction,SMDPad,CuDef*
G36*
G01*
X177488001Y-109872000D02*
X176587999Y-109872000D01*
G75*
G02*
X176338000Y-109622001I0J249999D01*
G01*
X176338000Y-108971999D01*
G75*
G02*
X176587999Y-108722000I249999J0D01*
G01*
X177488001Y-108722000D01*
G75*
G02*
X177738000Y-108971999I0J-249999D01*
G01*
X177738000Y-109622001D01*
G75*
G02*
X177488001Y-109872000I-249999J0D01*
G01*
G37*
G04 #@! TD.AperFunction*
G04 #@! TA.AperFunction,SMDPad,CuDef*
G36*
G01*
X176800500Y-104518000D02*
X177275500Y-104518000D01*
G75*
G02*
X177513000Y-104755500I0J-237500D01*
G01*
X177513000Y-105255500D01*
G75*
G02*
X177275500Y-105493000I-237500J0D01*
G01*
X176800500Y-105493000D01*
G75*
G02*
X176563000Y-105255500I0J237500D01*
G01*
X176563000Y-104755500D01*
G75*
G02*
X176800500Y-104518000I237500J0D01*
G01*
G37*
G04 #@! TD.AperFunction*
G04 #@! TA.AperFunction,SMDPad,CuDef*
G36*
G01*
X176800500Y-106343000D02*
X177275500Y-106343000D01*
G75*
G02*
X177513000Y-106580500I0J-237500D01*
G01*
X177513000Y-107080500D01*
G75*
G02*
X177275500Y-107318000I-237500J0D01*
G01*
X176800500Y-107318000D01*
G75*
G02*
X176563000Y-107080500I0J237500D01*
G01*
X176563000Y-106580500D01*
G75*
G02*
X176800500Y-106343000I237500J0D01*
G01*
G37*
G04 #@! TD.AperFunction*
D23*
X153231500Y-119373400D03*
X163576000Y-96047600D03*
X163472500Y-123770100D03*
X162560000Y-114241200D03*
X155355100Y-125991500D03*
X151200000Y-118464500D03*
X166624000Y-104243500D03*
X138736900Y-112879500D03*
X169479900Y-113411400D03*
X173817600Y-105224900D03*
X161647500Y-119193900D03*
X147574000Y-111503900D03*
X139801600Y-119371000D03*
X172212000Y-100167500D03*
X171186600Y-100167500D03*
X174498000Y-111506000D03*
X175514000Y-106426000D03*
D24*
X163576000Y-90831000D02*
X165201000Y-92456000D01*
X165201000Y-92456000D02*
X168490200Y-92456000D01*
X168490200Y-98567300D02*
X168490200Y-92456000D01*
X168490200Y-98567300D02*
X162814000Y-104243500D01*
X170754000Y-98567300D02*
X168490200Y-98567300D01*
X170754000Y-99030000D02*
X170754000Y-98567300D01*
X162814000Y-104243500D02*
X159004000Y-108053500D01*
X159004000Y-108053500D02*
X159004000Y-109721700D01*
X159004000Y-109721700D02*
X155933700Y-112792000D01*
X155933700Y-112792000D02*
X154686000Y-112792000D01*
X173736000Y-92456000D02*
X168490200Y-92456000D01*
X171704000Y-99030000D02*
X171704000Y-99955300D01*
X171186600Y-100167500D02*
X171398800Y-99955300D01*
X171398800Y-99955300D02*
X171704000Y-99955300D01*
X156366000Y-92822000D02*
X157616300Y-92822000D01*
X157616300Y-92822000D02*
X157616300Y-92461700D01*
X157616300Y-92461700D02*
X158506000Y-91572000D01*
X153231500Y-119373400D02*
X152898000Y-119706900D01*
X152898000Y-119706900D02*
X152898000Y-121158000D01*
X163576000Y-96047600D02*
X163576000Y-94081000D01*
X163576000Y-97435000D02*
X163576000Y-96047600D01*
X163472500Y-122682000D02*
X163472500Y-123770100D01*
X162560000Y-114241200D02*
X162560000Y-113000000D01*
X155355100Y-125991500D02*
X156106500Y-126743000D01*
X156106500Y-126743000D02*
X156106500Y-127254000D01*
X154331500Y-124968000D02*
X155355100Y-125991500D01*
X169479900Y-113411400D02*
X171841400Y-113411400D01*
X171841400Y-113411400D02*
X171958000Y-113528000D01*
X167640000Y-113528000D02*
X167756600Y-113411400D01*
X167756600Y-113411400D02*
X169479900Y-113411400D01*
X150114000Y-118464500D02*
X151200000Y-118464500D01*
X137766000Y-92822000D02*
X136515700Y-92822000D01*
X136515700Y-92822000D02*
X136515700Y-92461700D01*
X136515700Y-92461700D02*
X135626000Y-91572000D01*
X166624000Y-104243500D02*
X165354000Y-104243500D01*
X167894000Y-104243500D02*
X166624000Y-104243500D01*
X138736900Y-112879500D02*
X138686900Y-112929500D01*
X138686900Y-112929500D02*
X137414000Y-112929500D01*
X138736900Y-112879500D02*
X139954000Y-112879500D01*
X172974000Y-106068500D02*
X173817600Y-105224900D01*
X161647500Y-118110000D02*
X161647500Y-119193900D01*
X142494000Y-112879500D02*
X139954000Y-112879500D01*
X147574000Y-112879500D02*
X147574000Y-111503900D01*
X139801600Y-118642600D02*
X139801600Y-119371000D01*
D25*
X139801600Y-118642600D02*
X139801600Y-118602800D01*
D24*
X171916200Y-100167500D02*
X171704000Y-99955300D01*
X172212000Y-100167500D02*
X171916200Y-100167500D01*
X176879000Y-111506000D02*
X177038000Y-111347000D01*
X174498000Y-111506000D02*
X176879000Y-111506000D01*
D26*
X161647500Y-122682000D02*
X162560000Y-121769500D01*
X162560000Y-121769500D02*
X162560000Y-117475300D01*
X162560000Y-117475300D02*
X163510000Y-116525300D01*
X161647500Y-122682000D02*
X161697500Y-122732000D01*
X161697500Y-122732000D02*
X161697500Y-124968000D01*
X163510000Y-115600000D02*
X163510000Y-116525300D01*
X161647500Y-127254000D02*
X161647500Y-125018000D01*
X161647500Y-125018000D02*
X161697500Y-124968000D01*
D24*
X137766000Y-104122000D02*
X136515700Y-104122000D01*
X136515700Y-104122000D02*
X136515700Y-103721700D01*
X136515700Y-103721700D02*
X135626000Y-102832000D01*
X137766000Y-101582000D02*
X136515700Y-101582000D01*
X136515700Y-101582000D02*
X136515700Y-101942300D01*
X136515700Y-101942300D02*
X135626000Y-102832000D01*
D26*
X137414000Y-132080000D02*
X137414000Y-130904700D01*
X131143000Y-116307000D02*
X133168800Y-118332800D01*
X133168800Y-118332800D02*
X133168800Y-126659500D01*
X133168800Y-126659500D02*
X137414000Y-130904700D01*
X134874000Y-132080000D02*
X134874000Y-130904700D01*
X128143000Y-116307000D02*
X130355300Y-118519300D01*
X130355300Y-118519300D02*
X131610800Y-118519300D01*
X131610800Y-118519300D02*
X132718400Y-119626900D01*
X132718400Y-119626900D02*
X132718400Y-128749100D01*
X132718400Y-128749100D02*
X134874000Y-130904700D01*
D24*
X157036400Y-124968000D02*
X157036400Y-127775100D01*
X157036400Y-127775100D02*
X156672700Y-128138800D01*
X156672700Y-128138800D02*
X153767900Y-128138800D01*
X153767900Y-128138800D02*
X147574000Y-121944900D01*
X147574000Y-121944900D02*
X147574000Y-118514500D01*
X157998000Y-121158000D02*
X157036400Y-122119600D01*
X157036400Y-122119600D02*
X157036400Y-124968000D01*
X156056500Y-124968000D02*
X157036400Y-124968000D01*
X160683900Y-120396000D02*
X158760000Y-120396000D01*
X158760000Y-120396000D02*
X157998000Y-121158000D01*
X145269300Y-118102400D02*
X147161900Y-118102400D01*
X147161900Y-118102400D02*
X147574000Y-118514500D01*
X155636100Y-117348000D02*
X155636100Y-115642400D01*
X155636100Y-115642400D02*
X155636000Y-115642300D01*
X156336000Y-117348000D02*
X155636100Y-117348000D01*
X155636000Y-114792000D02*
X155636000Y-115642300D01*
X156336000Y-117348000D02*
X160683900Y-117348000D01*
X160683900Y-117348000D02*
X160683900Y-120396000D01*
X161610000Y-116600300D02*
X161431600Y-116600300D01*
X161431600Y-116600300D02*
X160683900Y-117348000D01*
X161647500Y-120396000D02*
X160683900Y-120396000D01*
X161610000Y-115600000D02*
X161610000Y-116600300D01*
D25*
X145269300Y-118102400D02*
X144170400Y-118102400D01*
D24*
X145692500Y-123444000D02*
X151008100Y-128759600D01*
X151008100Y-128759600D02*
X161966900Y-128759600D01*
X161966900Y-128759600D02*
X163472500Y-127254000D01*
X145692500Y-120904000D02*
X145692500Y-123444000D01*
X171958000Y-118628000D02*
X173542900Y-117043100D01*
X173542900Y-117043100D02*
X173542900Y-111039200D01*
X173542900Y-111039200D02*
X172974000Y-110470300D01*
X171958000Y-118628000D02*
X167640000Y-118628000D01*
X172974000Y-109220000D02*
X172974000Y-110470300D01*
X144170400Y-118642600D02*
X144170400Y-119381900D01*
X144170400Y-119381900D02*
X145692500Y-120904000D01*
D25*
X144170400Y-118642600D02*
X144170400Y-118602800D01*
D24*
X171597000Y-127356300D02*
X163574800Y-127356300D01*
X163574800Y-127356300D02*
X163472500Y-127254000D01*
X171597000Y-124206000D02*
X171597000Y-127356300D01*
X171597000Y-122630800D02*
X171597000Y-124206000D01*
X171597000Y-122630800D02*
X171597000Y-121055700D01*
X171597000Y-121055700D02*
X171958000Y-120694700D01*
X171958000Y-120694700D02*
X171958000Y-118628000D01*
X163472500Y-127254000D02*
X163422500Y-127204000D01*
X163422500Y-127204000D02*
X163422500Y-124968000D01*
D26*
X163472500Y-118110000D02*
X164135300Y-117447200D01*
X164135300Y-117447200D02*
X164135300Y-114550600D01*
X164135300Y-114550600D02*
X163510000Y-113925300D01*
X163472500Y-120396000D02*
X163472500Y-118110000D01*
X163510000Y-113000000D02*
X163510000Y-113925300D01*
X166346700Y-124206000D02*
X166346700Y-122168800D01*
X166346700Y-122168800D02*
X164902900Y-120725000D01*
X164902900Y-120725000D02*
X164902900Y-113026800D01*
X164902900Y-113026800D02*
X163950800Y-112074700D01*
X163950800Y-112074700D02*
X161610000Y-112074700D01*
X161610000Y-113000000D02*
X161610000Y-112074700D01*
X167747000Y-124206000D02*
X166346700Y-124206000D01*
D24*
X170754000Y-104243500D02*
X170434000Y-104243500D01*
X153830000Y-113697500D02*
X157476000Y-113697500D01*
X157476000Y-113697500D02*
X160404300Y-110769200D01*
X160404300Y-110769200D02*
X168149800Y-110769200D01*
X168149800Y-110769200D02*
X169144400Y-109774600D01*
X169144400Y-109774600D02*
X169144400Y-108683200D01*
X169144400Y-108683200D02*
X169858000Y-107969600D01*
X169858000Y-107969600D02*
X169934600Y-107969600D01*
X169934600Y-107969600D02*
X171311700Y-106592500D01*
X171311700Y-106592500D02*
X171311700Y-104801200D01*
X171311700Y-104801200D02*
X170754000Y-104243500D01*
X170754000Y-104243500D02*
X170754000Y-102555300D01*
X170754000Y-101630000D02*
X170754000Y-102555300D01*
X153736000Y-114792000D02*
X153736000Y-113791500D01*
X153736000Y-113791500D02*
X153830000Y-113697500D01*
X156366000Y-105372300D02*
X153924000Y-107814300D01*
X153924000Y-107814300D02*
X153924000Y-110432000D01*
X153924000Y-110432000D02*
X153830000Y-110526000D01*
X153830000Y-110526000D02*
X153830000Y-113697500D01*
X153036000Y-117348000D02*
X153036000Y-118348300D01*
X153036000Y-118348300D02*
X152963600Y-118348300D01*
X152963600Y-118348300D02*
X151358800Y-119953100D01*
X151358800Y-119953100D02*
X151358800Y-124331300D01*
X151358800Y-124331300D02*
X154281500Y-127254000D01*
X153736000Y-115642300D02*
X153036000Y-116342300D01*
X153036000Y-116342300D02*
X153036000Y-117348000D01*
X156366000Y-104122000D02*
X156366000Y-105372300D01*
X163576000Y-100685000D02*
X159403000Y-100685000D01*
X159403000Y-100685000D02*
X158506000Y-101582000D01*
X158506000Y-102832000D02*
X158506000Y-101582000D01*
X156366000Y-101582000D02*
X158506000Y-101582000D01*
X153736000Y-114792000D02*
X153736000Y-115642300D01*
D26*
X167894000Y-106068500D02*
X170434000Y-106068500D01*
X163989300Y-109220000D02*
X163989300Y-108852600D01*
X163989300Y-108852600D02*
X166773400Y-106068500D01*
X166773400Y-106068500D02*
X167894000Y-106068500D01*
X162814000Y-109220000D02*
X163989300Y-109220000D01*
X172974000Y-104243500D02*
X172654000Y-103923500D01*
X172654000Y-103923500D02*
X172654000Y-101630000D01*
X160274000Y-109220000D02*
X160274000Y-108044700D01*
X162814000Y-106068500D02*
X160837800Y-108044700D01*
X160837800Y-108044700D02*
X160274000Y-108044700D01*
X165354000Y-106068500D02*
X162814000Y-106068500D01*
X147574000Y-116689500D02*
X146696800Y-117566700D01*
X146696800Y-117566700D02*
X144205700Y-117566700D01*
X144205700Y-117566700D02*
X144170400Y-117602000D01*
X150114000Y-116739500D02*
X150064000Y-116689500D01*
X150064000Y-116689500D02*
X147574000Y-116689500D01*
X138777800Y-115880700D02*
X139954000Y-114704500D01*
X138777800Y-117101600D02*
X138777800Y-115880700D01*
X138777800Y-115880700D02*
X138640200Y-115880700D01*
X138640200Y-115880700D02*
X137414000Y-114654500D01*
X139801600Y-117101600D02*
X138777800Y-117101600D01*
X145034000Y-112879500D02*
X145891400Y-113736900D01*
X145891400Y-113736900D02*
X149306600Y-113736900D01*
X149306600Y-113736900D02*
X150114000Y-112929500D01*
X145642500Y-125984000D02*
X144780000Y-125121500D01*
X144780000Y-125121500D02*
X144780000Y-121816500D01*
X144780000Y-121816500D02*
X143867500Y-120904000D01*
X144170400Y-117101600D02*
X143146600Y-117101600D01*
X143867500Y-120904000D02*
X143146600Y-120183100D01*
X143146600Y-120183100D02*
X143146600Y-117101600D01*
X147574000Y-114704500D02*
X150064000Y-114704500D01*
X150064000Y-114704500D02*
X150114000Y-114654500D01*
X145194200Y-117101600D02*
X145194200Y-117084300D01*
X145194200Y-117084300D02*
X147574000Y-114704500D01*
X144170400Y-117101600D02*
X145194200Y-117101600D01*
X143867500Y-123444000D02*
X143917500Y-123494000D01*
X143917500Y-123494000D02*
X143917500Y-125984000D01*
X140101000Y-124206000D02*
X140101000Y-121130700D01*
X139801600Y-118102400D02*
X140825400Y-118102400D01*
X140825400Y-118102400D02*
X140825400Y-120406300D01*
X140825400Y-120406300D02*
X140101000Y-121130700D01*
X139801600Y-117602000D02*
X138777800Y-117602000D01*
X138777800Y-117602000D02*
X136251000Y-120128800D01*
X136251000Y-120128800D02*
X136251000Y-124206000D01*
X139801600Y-116601200D02*
X140825400Y-116601200D01*
X140825400Y-116601200D02*
X140825400Y-116373100D01*
X140825400Y-116373100D02*
X142494000Y-114704500D01*
X144170400Y-116601200D02*
X145034000Y-115737600D01*
X145034000Y-115737600D02*
X145034000Y-114704500D01*
X177038000Y-106830500D02*
X177038000Y-109297000D01*
X175617500Y-106426000D02*
X177038000Y-105005500D01*
X175514000Y-106426000D02*
X175617500Y-106426000D01*
M02*
