M48
; DRILL file {KiCad (5.1.10)-1} date 11/05/21 15:58:12
; FORMAT={-:-/ absolute / metric / decimal}
; #@! TF.CreationDate,2021-11-05T15:58:12+01:00
; #@! TF.GenerationSoftware,Kicad,Pcbnew,(5.1.10)-1
; #@! TF.FileFunction,Plated,1,2,PTH
FMAT,2
METRIC
T1C0.400
T2C1.000
T3C1.500
%
G90
G05
T1
X134.551Y-109.908
X137.503Y-101.551
X137.668Y-97.663
X139.638Y-96.22
X140.649Y-92.968
X142.685Y-100.498
X146.545Y-103.027
X148.148Y-100.564
X150.281Y-124.953
X152.138Y-101.745
X152.206Y-118.749
X153.772Y-118.206
X154.432Y-96.901
X155.854Y-102.807
X156.21Y-94.488
X161.162Y-97.48
X162.052Y-101.799
X162.494Y-115.456
X164.338Y-97.79
X165.016Y-121.171
X165.6Y-99.684
X165.99Y-102.763
X167.132Y-91.275
X168.148Y-118.872
X169.672Y-117.063
X169.672Y-123.739
X174.576Y-111.506
T2
X134.874Y-132.08
X137.414Y-132.08
X139.954Y-109.22
X139.954Y-132.08
X142.494Y-109.22
X142.494Y-132.08
X145.034Y-109.22
X145.034Y-132.08
X147.574Y-109.22
X147.574Y-132.08
X150.114Y-109.22
X150.114Y-132.08
X152.654Y-109.22
X152.654Y-132.08
X155.194Y-109.22
X155.194Y-132.08
X157.734Y-109.22
X157.734Y-132.08
X160.274Y-109.22
X160.274Y-132.08
X162.814Y-109.22
X162.814Y-132.08
X165.354Y-109.22
X165.354Y-132.08
X167.894Y-109.22
X167.894Y-132.08
X170.434Y-109.22
X170.434Y-132.08
X172.974Y-109.22
X172.974Y-132.08
X173.736Y-92.456
X173.736Y-94.956
T3
X128.143Y-96.307
X128.143Y-100.307
X128.143Y-104.307
X128.143Y-108.307
X128.143Y-112.307
X128.143Y-116.307
X128.143Y-120.307
X128.143Y-124.307
X131.143Y-96.307
X131.143Y-100.307
X131.143Y-104.307
X131.143Y-108.307
X131.143Y-112.307
X131.143Y-116.307
X131.143Y-120.307
X131.143Y-124.307
T0
M30
