M48
; DRILL file {KiCad (5.1.10)-1} date 07/26/21 15:21:57
; FORMAT={-:-/ absolute / metric / decimal}
; #@! TF.CreationDate,2021-07-26T15:21:57+02:00
; #@! TF.GenerationSoftware,Kicad,Pcbnew,(5.1.10)-1
; #@! TF.FileFunction,Plated,1,2,PTH
FMAT,2
METRIC
T1C0.400
T2C1.000
T3C1.500
%
G90
G05
T1
X133.924Y-94.052
X134.927Y-105.727
X140.551Y-120.206
X144.907Y-114.935
X144.907Y-116.053
X144.907Y-117.17
X144.907Y-118.288
X145.377Y-122.405
X146.177Y-114.935
X146.177Y-116.053
X146.177Y-117.17
X146.177Y-118.288
X149.618Y-112.15
X151.892Y-125.007
X153.93Y-112.274
X154.871Y-122.681
X154.884Y-107.356
X160.725Y-97.587
X160.725Y-101.322
X160.732Y-93.826
X161.443Y-89.652
X162.052Y-113.45
X163.131Y-122.784
X168.815Y-100.285
X169.658Y-112.29
T2
X134.874Y-132.08
X137.414Y-132.08
X137.766Y-90.282
X137.766Y-92.822
X137.766Y-101.582
X137.766Y-104.122
X139.954Y-109.22
X139.954Y-132.08
X142.494Y-109.22
X142.494Y-132.08
X145.034Y-109.22
X145.034Y-132.08
X147.574Y-109.22
X147.574Y-132.08
X150.114Y-109.22
X150.114Y-132.08
X152.654Y-109.22
X152.654Y-132.08
X155.194Y-109.22
X155.194Y-132.08
X156.366Y-90.282
X156.366Y-92.822
X156.366Y-101.582
X156.366Y-104.122
X157.734Y-109.22
X157.734Y-132.08
X160.274Y-109.22
X160.274Y-132.08
X162.814Y-109.22
X162.814Y-132.08
X165.354Y-109.22
X165.354Y-132.08
X167.894Y-109.22
X167.894Y-132.08
X170.434Y-109.22
X170.434Y-132.08
X170.942Y-92.456
X170.942Y-94.956
X172.974Y-109.22
X172.974Y-132.08
T3
X128.143Y-96.307
X128.143Y-100.307
X128.143Y-104.307
X128.143Y-108.307
X128.143Y-112.307
X128.143Y-116.307
X128.143Y-120.307
X128.143Y-124.307
X131.143Y-96.307
X131.143Y-100.307
X131.143Y-104.307
X131.143Y-108.307
X131.143Y-112.307
X131.143Y-116.307
X131.143Y-120.307
X131.143Y-124.307
T0
M30
