%FSLAX45Y45*%
G04 Gerber Fmt 4.5, Leading zero omitted, Abs format (unit mm)*
G04 Created by KiCad (PCBNEW (5.1.10)-1) date 2021-11-07 12:17:21*
%MOMM*%
%LPD*%
G01*
G04 APERTURE LIST*
%TA.AperFunction,Profile*%
%ADD10C,0.050000*%
%TD*%
%ADD11C,0.200000*%
%ADD12C,0.300000*%
G04 APERTURE END LIST*
D10*
X12636500Y-13400000D02*
X12636500Y-8661400D01*
X17900000Y-8661400D02*
X12636500Y-8661400D01*
X17900000Y-8661400D02*
X17900000Y-13400000D01*
X12636500Y-13400000D02*
X17900000Y-13400000D01*
D11*
D12*
X12920428Y-13868214D02*
X12920428Y-13568214D01*
X12991857Y-13568214D01*
X13034714Y-13582500D01*
X13063286Y-13611071D01*
X13077571Y-13639643D01*
X13091857Y-13696786D01*
X13091857Y-13739643D01*
X13077571Y-13796786D01*
X13063286Y-13825357D01*
X13034714Y-13853929D01*
X12991857Y-13868214D01*
X12920428Y-13868214D01*
X13220428Y-13868214D02*
X13220428Y-13668214D01*
X13220428Y-13725357D02*
X13234714Y-13696786D01*
X13249000Y-13682500D01*
X13277571Y-13668214D01*
X13306143Y-13668214D01*
X13406143Y-13868214D02*
X13406143Y-13668214D01*
X13406143Y-13568214D02*
X13391857Y-13582500D01*
X13406143Y-13596786D01*
X13420428Y-13582500D01*
X13406143Y-13568214D01*
X13406143Y-13596786D01*
X13591857Y-13868214D02*
X13563286Y-13853929D01*
X13549000Y-13825357D01*
X13549000Y-13568214D01*
X13749000Y-13868214D02*
X13720428Y-13853929D01*
X13706143Y-13825357D01*
X13706143Y-13568214D01*
X14091857Y-13868214D02*
X14091857Y-13568214D01*
X14191857Y-13782500D01*
X14291857Y-13568214D01*
X14291857Y-13868214D01*
X14563286Y-13868214D02*
X14563286Y-13711071D01*
X14549000Y-13682500D01*
X14520428Y-13668214D01*
X14463286Y-13668214D01*
X14434714Y-13682500D01*
X14563286Y-13853929D02*
X14534714Y-13868214D01*
X14463286Y-13868214D01*
X14434714Y-13853929D01*
X14420428Y-13825357D01*
X14420428Y-13796786D01*
X14434714Y-13768214D01*
X14463286Y-13753929D01*
X14534714Y-13753929D01*
X14563286Y-13739643D01*
X14706143Y-13668214D02*
X14706143Y-13968214D01*
X14706143Y-13682500D02*
X14734714Y-13668214D01*
X14791857Y-13668214D01*
X14820428Y-13682500D01*
X14834714Y-13696786D01*
X14849000Y-13725357D01*
X14849000Y-13811071D01*
X14834714Y-13839643D01*
X14820428Y-13853929D01*
X14791857Y-13868214D01*
X14734714Y-13868214D01*
X14706143Y-13853929D01*
X14977571Y-13839643D02*
X14991857Y-13853929D01*
X14977571Y-13868214D01*
X14963286Y-13853929D01*
X14977571Y-13839643D01*
X14977571Y-13868214D01*
X14977571Y-13682500D02*
X14991857Y-13696786D01*
X14977571Y-13711071D01*
X14963286Y-13696786D01*
X14977571Y-13682500D01*
X14977571Y-13711071D01*
M02*
