G04 #@! TF.GenerationSoftware,KiCad,Pcbnew,(5.1.10)-1*
G04 #@! TF.CreationDate,2021-08-06T13:57:32+02:00*
G04 #@! TF.ProjectId,pcb-esp32-power,7063622d-6573-4703-9332-2d706f776572,rev?*
G04 #@! TF.SameCoordinates,Original*
G04 #@! TF.FileFunction,Copper,L1,Top*
G04 #@! TF.FilePolarity,Positive*
%FSLAX46Y46*%
G04 Gerber Fmt 4.6, Leading zero omitted, Abs format (unit mm)*
G04 Created by KiCad (PCBNEW (5.1.10)-1) date 2021-08-06 13:57:32*
%MOMM*%
%LPD*%
G01*
G04 APERTURE LIST*
G04 #@! TA.AperFunction,ComponentPad*
%ADD10C,1.700000*%
G04 #@! TD*
G04 #@! TA.AperFunction,ComponentPad*
%ADD11O,1.700000X1.700000*%
G04 #@! TD*
G04 #@! TA.AperFunction,ComponentPad*
%ADD12R,1.700000X1.700000*%
G04 #@! TD*
G04 #@! TA.AperFunction,SMDPad,CuDef*
%ADD13R,2.500000X4.200000*%
G04 #@! TD*
G04 #@! TA.AperFunction,SMDPad,CuDef*
%ADD14R,0.600000X1.200000*%
G04 #@! TD*
G04 #@! TA.AperFunction,ComponentPad*
%ADD15O,2.000000X1.700000*%
G04 #@! TD*
G04 #@! TA.AperFunction,SMDPad,CuDef*
%ADD16R,1.525000X0.700000*%
G04 #@! TD*
G04 #@! TA.AperFunction,SMDPad,CuDef*
%ADD17R,2.410000X4.570000*%
G04 #@! TD*
G04 #@! TA.AperFunction,SMDPad,CuDef*
%ADD18R,2.150000X5.500000*%
G04 #@! TD*
G04 #@! TA.AperFunction,ComponentPad*
%ADD19R,2.500000X2.500000*%
G04 #@! TD*
G04 #@! TA.AperFunction,ComponentPad*
%ADD20C,2.500000*%
G04 #@! TD*
G04 #@! TA.AperFunction,ViaPad*
%ADD21C,0.800000*%
G04 #@! TD*
G04 #@! TA.AperFunction,Conductor*
%ADD22C,0.400000*%
G04 #@! TD*
G04 #@! TA.AperFunction,Conductor*
%ADD23C,0.250000*%
G04 #@! TD*
G04 APERTURE END LIST*
D10*
X137766000Y-90282000D03*
D11*
X137766000Y-92822000D03*
D10*
X156366000Y-90282000D03*
D12*
X137766000Y-101582000D03*
X156366000Y-101582000D03*
D11*
X156366000Y-92822000D03*
D12*
X137766000Y-104122000D03*
X156366000Y-104122000D03*
D13*
X135626000Y-91572000D03*
X135626000Y-102832000D03*
X158506000Y-91572000D03*
X158506000Y-102832000D03*
D14*
X163002000Y-112238000D03*
X162052000Y-112238000D03*
X161102000Y-112238000D03*
X161102000Y-114838000D03*
X163002000Y-114838000D03*
G04 #@! TA.AperFunction,ComponentPad*
G36*
G01*
X170192000Y-91606000D02*
X171692000Y-91606000D01*
G75*
G02*
X171942000Y-91856000I0J-250000D01*
G01*
X171942000Y-93056000D01*
G75*
G02*
X171692000Y-93306000I-250000J0D01*
G01*
X170192000Y-93306000D01*
G75*
G02*
X169942000Y-93056000I0J250000D01*
G01*
X169942000Y-91856000D01*
G75*
G02*
X170192000Y-91606000I250000J0D01*
G01*
G37*
G04 #@! TD.AperFunction*
D15*
X170942000Y-94956000D03*
D16*
X148254000Y-121031000D03*
X148254000Y-119761000D03*
X148254000Y-118491000D03*
X148254000Y-117221000D03*
X148254000Y-115951000D03*
X148254000Y-114681000D03*
X148254000Y-113411000D03*
X148254000Y-112141000D03*
X142830000Y-112141000D03*
X142830000Y-113411000D03*
X142830000Y-114681000D03*
X142830000Y-115951000D03*
X142830000Y-117221000D03*
X142830000Y-118491000D03*
X142830000Y-119761000D03*
X142830000Y-121031000D03*
D17*
X145542000Y-116586000D03*
D18*
X147721000Y-125984000D03*
X143871000Y-125984000D03*
X171089000Y-123952000D03*
X167239000Y-123952000D03*
D12*
X172974000Y-109220000D03*
D11*
X170434000Y-109220000D03*
X167894000Y-109220000D03*
X165354000Y-109220000D03*
X162814000Y-109220000D03*
X160274000Y-109220000D03*
X157734000Y-109220000D03*
X155194000Y-109220000D03*
X152654000Y-109220000D03*
X150114000Y-109220000D03*
X147574000Y-109220000D03*
X145034000Y-109220000D03*
X142494000Y-109220000D03*
X139954000Y-109220000D03*
X134874000Y-132080000D03*
X137414000Y-132080000D03*
X139954000Y-132080000D03*
X142494000Y-132080000D03*
X145034000Y-132080000D03*
X147574000Y-132080000D03*
X150114000Y-132080000D03*
X152654000Y-132080000D03*
X155194000Y-132080000D03*
X157734000Y-132080000D03*
X160274000Y-132080000D03*
X162814000Y-132080000D03*
X165354000Y-132080000D03*
X167894000Y-132080000D03*
X170434000Y-132080000D03*
X172974000Y-132080000D03*
D19*
X128143000Y-96307000D03*
D20*
X128143000Y-100307000D03*
X128143000Y-104307000D03*
X128143000Y-108307000D03*
X128143000Y-112307000D03*
X128143000Y-116307000D03*
X128143000Y-120307000D03*
X128143000Y-124307000D03*
X131143000Y-96307000D03*
X131143000Y-100307000D03*
X131143000Y-104307000D03*
X131143000Y-108307000D03*
X131143000Y-112307000D03*
X131143000Y-116307000D03*
X131143000Y-120307000D03*
X131143000Y-124307000D03*
G04 #@! TA.AperFunction,SMDPad,CuDef*
G36*
G01*
X156393000Y-122444500D02*
X156393000Y-122919500D01*
G75*
G02*
X156155500Y-123157000I-237500J0D01*
G01*
X155555500Y-123157000D01*
G75*
G02*
X155318000Y-122919500I0J237500D01*
G01*
X155318000Y-122444500D01*
G75*
G02*
X155555500Y-122207000I237500J0D01*
G01*
X156155500Y-122207000D01*
G75*
G02*
X156393000Y-122444500I0J-237500D01*
G01*
G37*
G04 #@! TD.AperFunction*
G04 #@! TA.AperFunction,SMDPad,CuDef*
G36*
G01*
X158118000Y-122444500D02*
X158118000Y-122919500D01*
G75*
G02*
X157880500Y-123157000I-237500J0D01*
G01*
X157280500Y-123157000D01*
G75*
G02*
X157043000Y-122919500I0J237500D01*
G01*
X157043000Y-122444500D01*
G75*
G02*
X157280500Y-122207000I237500J0D01*
G01*
X157880500Y-122207000D01*
G75*
G02*
X158118000Y-122444500I0J-237500D01*
G01*
G37*
G04 #@! TD.AperFunction*
G04 #@! TA.AperFunction,SMDPad,CuDef*
G36*
G01*
X169909500Y-106302000D02*
X169434500Y-106302000D01*
G75*
G02*
X169197000Y-106064500I0J237500D01*
G01*
X169197000Y-105464500D01*
G75*
G02*
X169434500Y-105227000I237500J0D01*
G01*
X169909500Y-105227000D01*
G75*
G02*
X170147000Y-105464500I0J-237500D01*
G01*
X170147000Y-106064500D01*
G75*
G02*
X169909500Y-106302000I-237500J0D01*
G01*
G37*
G04 #@! TD.AperFunction*
G04 #@! TA.AperFunction,SMDPad,CuDef*
G36*
G01*
X169909500Y-104577000D02*
X169434500Y-104577000D01*
G75*
G02*
X169197000Y-104339500I0J237500D01*
G01*
X169197000Y-103739500D01*
G75*
G02*
X169434500Y-103502000I237500J0D01*
G01*
X169909500Y-103502000D01*
G75*
G02*
X170147000Y-103739500I0J-237500D01*
G01*
X170147000Y-104339500D01*
G75*
G02*
X169909500Y-104577000I-237500J0D01*
G01*
G37*
G04 #@! TD.AperFunction*
G04 #@! TA.AperFunction,SMDPad,CuDef*
G36*
G01*
X156393000Y-120158500D02*
X156393000Y-120633500D01*
G75*
G02*
X156155500Y-120871000I-237500J0D01*
G01*
X155555500Y-120871000D01*
G75*
G02*
X155318000Y-120633500I0J237500D01*
G01*
X155318000Y-120158500D01*
G75*
G02*
X155555500Y-119921000I237500J0D01*
G01*
X156155500Y-119921000D01*
G75*
G02*
X156393000Y-120158500I0J-237500D01*
G01*
G37*
G04 #@! TD.AperFunction*
G04 #@! TA.AperFunction,SMDPad,CuDef*
G36*
G01*
X158118000Y-120158500D02*
X158118000Y-120633500D01*
G75*
G02*
X157880500Y-120871000I-237500J0D01*
G01*
X157280500Y-120871000D01*
G75*
G02*
X157043000Y-120633500I0J237500D01*
G01*
X157043000Y-120158500D01*
G75*
G02*
X157280500Y-119921000I237500J0D01*
G01*
X157880500Y-119921000D01*
G75*
G02*
X158118000Y-120158500I0J-237500D01*
G01*
G37*
G04 #@! TD.AperFunction*
G04 #@! TA.AperFunction,SMDPad,CuDef*
G36*
G01*
X138300000Y-119363500D02*
X138300000Y-118888500D01*
G75*
G02*
X138537500Y-118651000I237500J0D01*
G01*
X139137500Y-118651000D01*
G75*
G02*
X139375000Y-118888500I0J-237500D01*
G01*
X139375000Y-119363500D01*
G75*
G02*
X139137500Y-119601000I-237500J0D01*
G01*
X138537500Y-119601000D01*
G75*
G02*
X138300000Y-119363500I0J237500D01*
G01*
G37*
G04 #@! TD.AperFunction*
G04 #@! TA.AperFunction,SMDPad,CuDef*
G36*
G01*
X140025000Y-119363500D02*
X140025000Y-118888500D01*
G75*
G02*
X140262500Y-118651000I237500J0D01*
G01*
X140862500Y-118651000D01*
G75*
G02*
X141100000Y-118888500I0J-237500D01*
G01*
X141100000Y-119363500D01*
G75*
G02*
X140862500Y-119601000I-237500J0D01*
G01*
X140262500Y-119601000D01*
G75*
G02*
X140025000Y-119363500I0J237500D01*
G01*
G37*
G04 #@! TD.AperFunction*
G04 #@! TA.AperFunction,SMDPad,CuDef*
G36*
G01*
X162797500Y-91316000D02*
X162322500Y-91316000D01*
G75*
G02*
X162085000Y-91078500I0J237500D01*
G01*
X162085000Y-90478500D01*
G75*
G02*
X162322500Y-90241000I237500J0D01*
G01*
X162797500Y-90241000D01*
G75*
G02*
X163035000Y-90478500I0J-237500D01*
G01*
X163035000Y-91078500D01*
G75*
G02*
X162797500Y-91316000I-237500J0D01*
G01*
G37*
G04 #@! TD.AperFunction*
G04 #@! TA.AperFunction,SMDPad,CuDef*
G36*
G01*
X162797500Y-89591000D02*
X162322500Y-89591000D01*
G75*
G02*
X162085000Y-89353500I0J237500D01*
G01*
X162085000Y-88753500D01*
G75*
G02*
X162322500Y-88516000I237500J0D01*
G01*
X162797500Y-88516000D01*
G75*
G02*
X163035000Y-88753500I0J-237500D01*
G01*
X163035000Y-89353500D01*
G75*
G02*
X162797500Y-89591000I-237500J0D01*
G01*
G37*
G04 #@! TD.AperFunction*
G04 #@! TA.AperFunction,SMDPad,CuDef*
G36*
G01*
X161981000Y-123714500D02*
X161981000Y-124189500D01*
G75*
G02*
X161743500Y-124427000I-237500J0D01*
G01*
X161143500Y-124427000D01*
G75*
G02*
X160906000Y-124189500I0J237500D01*
G01*
X160906000Y-123714500D01*
G75*
G02*
X161143500Y-123477000I237500J0D01*
G01*
X161743500Y-123477000D01*
G75*
G02*
X161981000Y-123714500I0J-237500D01*
G01*
G37*
G04 #@! TD.AperFunction*
G04 #@! TA.AperFunction,SMDPad,CuDef*
G36*
G01*
X163706000Y-123714500D02*
X163706000Y-124189500D01*
G75*
G02*
X163468500Y-124427000I-237500J0D01*
G01*
X162868500Y-124427000D01*
G75*
G02*
X162631000Y-124189500I0J237500D01*
G01*
X162631000Y-123714500D01*
G75*
G02*
X162868500Y-123477000I237500J0D01*
G01*
X163468500Y-123477000D01*
G75*
G02*
X163706000Y-123714500I0J-237500D01*
G01*
G37*
G04 #@! TD.AperFunction*
G04 #@! TA.AperFunction,SMDPad,CuDef*
G36*
G01*
X138300000Y-117077500D02*
X138300000Y-116602500D01*
G75*
G02*
X138537500Y-116365000I237500J0D01*
G01*
X139137500Y-116365000D01*
G75*
G02*
X139375000Y-116602500I0J-237500D01*
G01*
X139375000Y-117077500D01*
G75*
G02*
X139137500Y-117315000I-237500J0D01*
G01*
X138537500Y-117315000D01*
G75*
G02*
X138300000Y-117077500I0J237500D01*
G01*
G37*
G04 #@! TD.AperFunction*
G04 #@! TA.AperFunction,SMDPad,CuDef*
G36*
G01*
X140025000Y-117077500D02*
X140025000Y-116602500D01*
G75*
G02*
X140262500Y-116365000I237500J0D01*
G01*
X140862500Y-116365000D01*
G75*
G02*
X141100000Y-116602500I0J-237500D01*
G01*
X141100000Y-117077500D01*
G75*
G02*
X140862500Y-117315000I-237500J0D01*
G01*
X140262500Y-117315000D01*
G75*
G02*
X140025000Y-117077500I0J237500D01*
G01*
G37*
G04 #@! TD.AperFunction*
G04 #@! TA.AperFunction,SMDPad,CuDef*
G36*
G01*
X157643001Y-118737000D02*
X155792999Y-118737000D01*
G75*
G02*
X155543000Y-118487001I0J249999D01*
G01*
X155543000Y-116736999D01*
G75*
G02*
X155792999Y-116487000I249999J0D01*
G01*
X157643001Y-116487000D01*
G75*
G02*
X157893000Y-116736999I0J-249999D01*
G01*
X157893000Y-118487001D01*
G75*
G02*
X157643001Y-118737000I-249999J0D01*
G01*
G37*
G04 #@! TD.AperFunction*
G04 #@! TA.AperFunction,SMDPad,CuDef*
G36*
G01*
X157643001Y-113637000D02*
X155792999Y-113637000D01*
G75*
G02*
X155543000Y-113387001I0J249999D01*
G01*
X155543000Y-111636999D01*
G75*
G02*
X155792999Y-111387000I249999J0D01*
G01*
X157643001Y-111387000D01*
G75*
G02*
X157893000Y-111636999I0J-249999D01*
G01*
X157893000Y-113387001D01*
G75*
G02*
X157643001Y-113637000I-249999J0D01*
G01*
G37*
G04 #@! TD.AperFunction*
G04 #@! TA.AperFunction,SMDPad,CuDef*
G36*
G01*
X165951000Y-100421000D02*
X165951000Y-102271000D01*
G75*
G02*
X165701000Y-102521000I-250000J0D01*
G01*
X164701000Y-102521000D01*
G75*
G02*
X164451000Y-102271000I0J250000D01*
G01*
X164451000Y-100421000D01*
G75*
G02*
X164701000Y-100171000I250000J0D01*
G01*
X165701000Y-100171000D01*
G75*
G02*
X165951000Y-100421000I0J-250000D01*
G01*
G37*
G04 #@! TD.AperFunction*
G04 #@! TA.AperFunction,SMDPad,CuDef*
G36*
G01*
X162701000Y-100421000D02*
X162701000Y-102271000D01*
G75*
G02*
X162451000Y-102521000I-250000J0D01*
G01*
X161451000Y-102521000D01*
G75*
G02*
X161201000Y-102271000I0J250000D01*
G01*
X161201000Y-100421000D01*
G75*
G02*
X161451000Y-100171000I250000J0D01*
G01*
X162451000Y-100171000D01*
G75*
G02*
X162701000Y-100421000I0J-250000D01*
G01*
G37*
G04 #@! TD.AperFunction*
G04 #@! TA.AperFunction,SMDPad,CuDef*
G36*
G01*
X153071001Y-113637000D02*
X151220999Y-113637000D01*
G75*
G02*
X150971000Y-113387001I0J249999D01*
G01*
X150971000Y-111636999D01*
G75*
G02*
X151220999Y-111387000I249999J0D01*
G01*
X153071001Y-111387000D01*
G75*
G02*
X153321000Y-111636999I0J-249999D01*
G01*
X153321000Y-113387001D01*
G75*
G02*
X153071001Y-113637000I-249999J0D01*
G01*
G37*
G04 #@! TD.AperFunction*
G04 #@! TA.AperFunction,SMDPad,CuDef*
G36*
G01*
X153071001Y-118737000D02*
X151220999Y-118737000D01*
G75*
G02*
X150971000Y-118487001I0J249999D01*
G01*
X150971000Y-116736999D01*
G75*
G02*
X151220999Y-116487000I249999J0D01*
G01*
X153071001Y-116487000D01*
G75*
G02*
X153321000Y-116736999I0J-249999D01*
G01*
X153321000Y-118487001D01*
G75*
G02*
X153071001Y-118737000I-249999J0D01*
G01*
G37*
G04 #@! TD.AperFunction*
G04 #@! TA.AperFunction,SMDPad,CuDef*
G36*
G01*
X150967000Y-123049000D02*
X152817000Y-123049000D01*
G75*
G02*
X153067000Y-123299000I0J-250000D01*
G01*
X153067000Y-124299000D01*
G75*
G02*
X152817000Y-124549000I-250000J0D01*
G01*
X150967000Y-124549000D01*
G75*
G02*
X150717000Y-124299000I0J250000D01*
G01*
X150717000Y-123299000D01*
G75*
G02*
X150967000Y-123049000I250000J0D01*
G01*
G37*
G04 #@! TD.AperFunction*
G04 #@! TA.AperFunction,SMDPad,CuDef*
G36*
G01*
X150967000Y-119799000D02*
X152817000Y-119799000D01*
G75*
G02*
X153067000Y-120049000I0J-250000D01*
G01*
X153067000Y-121049000D01*
G75*
G02*
X152817000Y-121299000I-250000J0D01*
G01*
X150967000Y-121299000D01*
G75*
G02*
X150717000Y-121049000I0J250000D01*
G01*
X150717000Y-120049000D01*
G75*
G02*
X150967000Y-119799000I250000J0D01*
G01*
G37*
G04 #@! TD.AperFunction*
G04 #@! TA.AperFunction,SMDPad,CuDef*
G36*
G01*
X165951000Y-103977000D02*
X165951000Y-105827000D01*
G75*
G02*
X165701000Y-106077000I-250000J0D01*
G01*
X164701000Y-106077000D01*
G75*
G02*
X164451000Y-105827000I0J250000D01*
G01*
X164451000Y-103977000D01*
G75*
G02*
X164701000Y-103727000I250000J0D01*
G01*
X165701000Y-103727000D01*
G75*
G02*
X165951000Y-103977000I0J-250000D01*
G01*
G37*
G04 #@! TD.AperFunction*
G04 #@! TA.AperFunction,SMDPad,CuDef*
G36*
G01*
X162701000Y-103977000D02*
X162701000Y-105827000D01*
G75*
G02*
X162451000Y-106077000I-250000J0D01*
G01*
X161451000Y-106077000D01*
G75*
G02*
X161201000Y-105827000I0J250000D01*
G01*
X161201000Y-103977000D01*
G75*
G02*
X161451000Y-103727000I250000J0D01*
G01*
X162451000Y-103727000D01*
G75*
G02*
X162701000Y-103977000I0J-250000D01*
G01*
G37*
G04 #@! TD.AperFunction*
G04 #@! TA.AperFunction,SMDPad,CuDef*
G36*
G01*
X162715000Y-93309000D02*
X162715000Y-95159000D01*
G75*
G02*
X162465000Y-95409000I-250000J0D01*
G01*
X161465000Y-95409000D01*
G75*
G02*
X161215000Y-95159000I0J250000D01*
G01*
X161215000Y-93309000D01*
G75*
G02*
X161465000Y-93059000I250000J0D01*
G01*
X162465000Y-93059000D01*
G75*
G02*
X162715000Y-93309000I0J-250000D01*
G01*
G37*
G04 #@! TD.AperFunction*
G04 #@! TA.AperFunction,SMDPad,CuDef*
G36*
G01*
X165965000Y-93309000D02*
X165965000Y-95159000D01*
G75*
G02*
X165715000Y-95409000I-250000J0D01*
G01*
X164715000Y-95409000D01*
G75*
G02*
X164465000Y-95159000I0J250000D01*
G01*
X164465000Y-93309000D01*
G75*
G02*
X164715000Y-93059000I250000J0D01*
G01*
X165715000Y-93059000D01*
G75*
G02*
X165965000Y-93309000I0J-250000D01*
G01*
G37*
G04 #@! TD.AperFunction*
G04 #@! TA.AperFunction,SMDPad,CuDef*
G36*
G01*
X165951000Y-96865000D02*
X165951000Y-98715000D01*
G75*
G02*
X165701000Y-98965000I-250000J0D01*
G01*
X164701000Y-98965000D01*
G75*
G02*
X164451000Y-98715000I0J250000D01*
G01*
X164451000Y-96865000D01*
G75*
G02*
X164701000Y-96615000I250000J0D01*
G01*
X165701000Y-96615000D01*
G75*
G02*
X165951000Y-96865000I0J-250000D01*
G01*
G37*
G04 #@! TD.AperFunction*
G04 #@! TA.AperFunction,SMDPad,CuDef*
G36*
G01*
X162701000Y-96865000D02*
X162701000Y-98715000D01*
G75*
G02*
X162451000Y-98965000I-250000J0D01*
G01*
X161451000Y-98965000D01*
G75*
G02*
X161201000Y-98715000I0J250000D01*
G01*
X161201000Y-96865000D01*
G75*
G02*
X161451000Y-96615000I250000J0D01*
G01*
X162451000Y-96615000D01*
G75*
G02*
X162701000Y-96865000I0J-250000D01*
G01*
G37*
G04 #@! TD.AperFunction*
G04 #@! TA.AperFunction,SMDPad,CuDef*
G36*
G01*
X167803001Y-113637000D02*
X165952999Y-113637000D01*
G75*
G02*
X165703000Y-113387001I0J249999D01*
G01*
X165703000Y-111636999D01*
G75*
G02*
X165952999Y-111387000I249999J0D01*
G01*
X167803001Y-111387000D01*
G75*
G02*
X168053000Y-111636999I0J-249999D01*
G01*
X168053000Y-113387001D01*
G75*
G02*
X167803001Y-113637000I-249999J0D01*
G01*
G37*
G04 #@! TD.AperFunction*
G04 #@! TA.AperFunction,SMDPad,CuDef*
G36*
G01*
X167803001Y-118737000D02*
X165952999Y-118737000D01*
G75*
G02*
X165703000Y-118487001I0J249999D01*
G01*
X165703000Y-116736999D01*
G75*
G02*
X165952999Y-116487000I249999J0D01*
G01*
X167803001Y-116487000D01*
G75*
G02*
X168053000Y-116736999I0J-249999D01*
G01*
X168053000Y-118487001D01*
G75*
G02*
X167803001Y-118737000I-249999J0D01*
G01*
G37*
G04 #@! TD.AperFunction*
G04 #@! TA.AperFunction,SMDPad,CuDef*
G36*
G01*
X172375001Y-118737000D02*
X170524999Y-118737000D01*
G75*
G02*
X170275000Y-118487001I0J249999D01*
G01*
X170275000Y-116736999D01*
G75*
G02*
X170524999Y-116487000I249999J0D01*
G01*
X172375001Y-116487000D01*
G75*
G02*
X172625000Y-116736999I0J-249999D01*
G01*
X172625000Y-118487001D01*
G75*
G02*
X172375001Y-118737000I-249999J0D01*
G01*
G37*
G04 #@! TD.AperFunction*
G04 #@! TA.AperFunction,SMDPad,CuDef*
G36*
G01*
X172375001Y-113637000D02*
X170524999Y-113637000D01*
G75*
G02*
X170275000Y-113387001I0J249999D01*
G01*
X170275000Y-111636999D01*
G75*
G02*
X170524999Y-111387000I249999J0D01*
G01*
X172375001Y-111387000D01*
G75*
G02*
X172625000Y-111636999I0J-249999D01*
G01*
X172625000Y-113387001D01*
G75*
G02*
X172375001Y-113637000I-249999J0D01*
G01*
G37*
G04 #@! TD.AperFunction*
G04 #@! TA.AperFunction,SMDPad,CuDef*
G36*
G01*
X167656500Y-98930000D02*
X168131500Y-98930000D01*
G75*
G02*
X168369000Y-99167500I0J-237500D01*
G01*
X168369000Y-99667500D01*
G75*
G02*
X168131500Y-99905000I-237500J0D01*
G01*
X167656500Y-99905000D01*
G75*
G02*
X167419000Y-99667500I0J237500D01*
G01*
X167419000Y-99167500D01*
G75*
G02*
X167656500Y-98930000I237500J0D01*
G01*
G37*
G04 #@! TD.AperFunction*
G04 #@! TA.AperFunction,SMDPad,CuDef*
G36*
G01*
X167656500Y-100755000D02*
X168131500Y-100755000D01*
G75*
G02*
X168369000Y-100992500I0J-237500D01*
G01*
X168369000Y-101492500D01*
G75*
G02*
X168131500Y-101730000I-237500J0D01*
G01*
X167656500Y-101730000D01*
G75*
G02*
X167419000Y-101492500I0J237500D01*
G01*
X167419000Y-100992500D01*
G75*
G02*
X167656500Y-100755000I237500J0D01*
G01*
G37*
G04 #@! TD.AperFunction*
G04 #@! TA.AperFunction,SMDPad,CuDef*
G36*
G01*
X168131500Y-106302000D02*
X167656500Y-106302000D01*
G75*
G02*
X167419000Y-106064500I0J237500D01*
G01*
X167419000Y-105564500D01*
G75*
G02*
X167656500Y-105327000I237500J0D01*
G01*
X168131500Y-105327000D01*
G75*
G02*
X168369000Y-105564500I0J-237500D01*
G01*
X168369000Y-106064500D01*
G75*
G02*
X168131500Y-106302000I-237500J0D01*
G01*
G37*
G04 #@! TD.AperFunction*
G04 #@! TA.AperFunction,SMDPad,CuDef*
G36*
G01*
X168131500Y-104477000D02*
X167656500Y-104477000D01*
G75*
G02*
X167419000Y-104239500I0J237500D01*
G01*
X167419000Y-103739500D01*
G75*
G02*
X167656500Y-103502000I237500J0D01*
G01*
X168131500Y-103502000D01*
G75*
G02*
X168369000Y-103739500I0J-237500D01*
G01*
X168369000Y-104239500D01*
G75*
G02*
X168131500Y-104477000I-237500J0D01*
G01*
G37*
G04 #@! TD.AperFunction*
G04 #@! TA.AperFunction,SMDPad,CuDef*
G36*
G01*
X140125000Y-114791500D02*
X140125000Y-114316500D01*
G75*
G02*
X140362500Y-114079000I237500J0D01*
G01*
X140862500Y-114079000D01*
G75*
G02*
X141100000Y-114316500I0J-237500D01*
G01*
X141100000Y-114791500D01*
G75*
G02*
X140862500Y-115029000I-237500J0D01*
G01*
X140362500Y-115029000D01*
G75*
G02*
X140125000Y-114791500I0J237500D01*
G01*
G37*
G04 #@! TD.AperFunction*
G04 #@! TA.AperFunction,SMDPad,CuDef*
G36*
G01*
X138300000Y-114791500D02*
X138300000Y-114316500D01*
G75*
G02*
X138537500Y-114079000I237500J0D01*
G01*
X139037500Y-114079000D01*
G75*
G02*
X139275000Y-114316500I0J-237500D01*
G01*
X139275000Y-114791500D01*
G75*
G02*
X139037500Y-115029000I-237500J0D01*
G01*
X138537500Y-115029000D01*
G75*
G02*
X138300000Y-114791500I0J237500D01*
G01*
G37*
G04 #@! TD.AperFunction*
G04 #@! TA.AperFunction,SMDPad,CuDef*
G36*
G01*
X140125000Y-112505500D02*
X140125000Y-112030500D01*
G75*
G02*
X140362500Y-111793000I237500J0D01*
G01*
X140862500Y-111793000D01*
G75*
G02*
X141100000Y-112030500I0J-237500D01*
G01*
X141100000Y-112505500D01*
G75*
G02*
X140862500Y-112743000I-237500J0D01*
G01*
X140362500Y-112743000D01*
G75*
G02*
X140125000Y-112505500I0J237500D01*
G01*
G37*
G04 #@! TD.AperFunction*
G04 #@! TA.AperFunction,SMDPad,CuDef*
G36*
G01*
X138300000Y-112505500D02*
X138300000Y-112030500D01*
G75*
G02*
X138537500Y-111793000I237500J0D01*
G01*
X139037500Y-111793000D01*
G75*
G02*
X139275000Y-112030500I0J-237500D01*
G01*
X139275000Y-112505500D01*
G75*
G02*
X139037500Y-112743000I-237500J0D01*
G01*
X138537500Y-112743000D01*
G75*
G02*
X138300000Y-112505500I0J237500D01*
G01*
G37*
G04 #@! TD.AperFunction*
G04 #@! TA.AperFunction,SMDPad,CuDef*
G36*
G01*
X165471000Y-91862000D02*
X164221000Y-91862000D01*
G75*
G02*
X163971000Y-91612000I0J250000D01*
G01*
X163971000Y-90812000D01*
G75*
G02*
X164221000Y-90562000I250000J0D01*
G01*
X165471000Y-90562000D01*
G75*
G02*
X165721000Y-90812000I0J-250000D01*
G01*
X165721000Y-91612000D01*
G75*
G02*
X165471000Y-91862000I-250000J0D01*
G01*
G37*
G04 #@! TD.AperFunction*
G04 #@! TA.AperFunction,SMDPad,CuDef*
G36*
G01*
X165471000Y-88762000D02*
X164221000Y-88762000D01*
G75*
G02*
X163971000Y-88512000I0J250000D01*
G01*
X163971000Y-87712000D01*
G75*
G02*
X164221000Y-87462000I250000J0D01*
G01*
X165471000Y-87462000D01*
G75*
G02*
X165721000Y-87712000I0J-250000D01*
G01*
X165721000Y-88512000D01*
G75*
G02*
X165471000Y-88762000I-250000J0D01*
G01*
G37*
G04 #@! TD.AperFunction*
G04 #@! TA.AperFunction,SMDPad,CuDef*
G36*
G01*
X171687500Y-99905000D02*
X171212500Y-99905000D01*
G75*
G02*
X170975000Y-99667500I0J237500D01*
G01*
X170975000Y-99167500D01*
G75*
G02*
X171212500Y-98930000I237500J0D01*
G01*
X171687500Y-98930000D01*
G75*
G02*
X171925000Y-99167500I0J-237500D01*
G01*
X171925000Y-99667500D01*
G75*
G02*
X171687500Y-99905000I-237500J0D01*
G01*
G37*
G04 #@! TD.AperFunction*
G04 #@! TA.AperFunction,SMDPad,CuDef*
G36*
G01*
X171687500Y-101730000D02*
X171212500Y-101730000D01*
G75*
G02*
X170975000Y-101492500I0J237500D01*
G01*
X170975000Y-100992500D01*
G75*
G02*
X171212500Y-100755000I237500J0D01*
G01*
X171687500Y-100755000D01*
G75*
G02*
X171925000Y-100992500I0J-237500D01*
G01*
X171925000Y-101492500D01*
G75*
G02*
X171687500Y-101730000I-237500J0D01*
G01*
G37*
G04 #@! TD.AperFunction*
G04 #@! TA.AperFunction,SMDPad,CuDef*
G36*
G01*
X169909500Y-101730000D02*
X169434500Y-101730000D01*
G75*
G02*
X169197000Y-101492500I0J237500D01*
G01*
X169197000Y-100992500D01*
G75*
G02*
X169434500Y-100755000I237500J0D01*
G01*
X169909500Y-100755000D01*
G75*
G02*
X170147000Y-100992500I0J-237500D01*
G01*
X170147000Y-101492500D01*
G75*
G02*
X169909500Y-101730000I-237500J0D01*
G01*
G37*
G04 #@! TD.AperFunction*
G04 #@! TA.AperFunction,SMDPad,CuDef*
G36*
G01*
X169909500Y-99905000D02*
X169434500Y-99905000D01*
G75*
G02*
X169197000Y-99667500I0J237500D01*
G01*
X169197000Y-99167500D01*
G75*
G02*
X169434500Y-98930000I237500J0D01*
G01*
X169909500Y-98930000D01*
G75*
G02*
X170147000Y-99167500I0J-237500D01*
G01*
X170147000Y-99667500D01*
G75*
G02*
X169909500Y-99905000I-237500J0D01*
G01*
G37*
G04 #@! TD.AperFunction*
G04 #@! TA.AperFunction,SMDPad,CuDef*
G36*
G01*
X160906000Y-119617500D02*
X160906000Y-119142500D01*
G75*
G02*
X161143500Y-118905000I237500J0D01*
G01*
X161643500Y-118905000D01*
G75*
G02*
X161881000Y-119142500I0J-237500D01*
G01*
X161881000Y-119617500D01*
G75*
G02*
X161643500Y-119855000I-237500J0D01*
G01*
X161143500Y-119855000D01*
G75*
G02*
X160906000Y-119617500I0J237500D01*
G01*
G37*
G04 #@! TD.AperFunction*
G04 #@! TA.AperFunction,SMDPad,CuDef*
G36*
G01*
X162731000Y-119617500D02*
X162731000Y-119142500D01*
G75*
G02*
X162968500Y-118905000I237500J0D01*
G01*
X163468500Y-118905000D01*
G75*
G02*
X163706000Y-119142500I0J-237500D01*
G01*
X163706000Y-119617500D01*
G75*
G02*
X163468500Y-119855000I-237500J0D01*
G01*
X162968500Y-119855000D01*
G75*
G02*
X162731000Y-119617500I0J237500D01*
G01*
G37*
G04 #@! TD.AperFunction*
G04 #@! TA.AperFunction,SMDPad,CuDef*
G36*
G01*
X161881000Y-116856500D02*
X161881000Y-117331500D01*
G75*
G02*
X161643500Y-117569000I-237500J0D01*
G01*
X161143500Y-117569000D01*
G75*
G02*
X160906000Y-117331500I0J237500D01*
G01*
X160906000Y-116856500D01*
G75*
G02*
X161143500Y-116619000I237500J0D01*
G01*
X161643500Y-116619000D01*
G75*
G02*
X161881000Y-116856500I0J-237500D01*
G01*
G37*
G04 #@! TD.AperFunction*
G04 #@! TA.AperFunction,SMDPad,CuDef*
G36*
G01*
X163706000Y-116856500D02*
X163706000Y-117331500D01*
G75*
G02*
X163468500Y-117569000I-237500J0D01*
G01*
X162968500Y-117569000D01*
G75*
G02*
X162731000Y-117331500I0J237500D01*
G01*
X162731000Y-116856500D01*
G75*
G02*
X162968500Y-116619000I237500J0D01*
G01*
X163468500Y-116619000D01*
G75*
G02*
X163706000Y-116856500I0J-237500D01*
G01*
G37*
G04 #@! TD.AperFunction*
G04 #@! TA.AperFunction,SMDPad,CuDef*
G36*
G01*
X161881000Y-126000500D02*
X161881000Y-126475500D01*
G75*
G02*
X161643500Y-126713000I-237500J0D01*
G01*
X161143500Y-126713000D01*
G75*
G02*
X160906000Y-126475500I0J237500D01*
G01*
X160906000Y-126000500D01*
G75*
G02*
X161143500Y-125763000I237500J0D01*
G01*
X161643500Y-125763000D01*
G75*
G02*
X161881000Y-126000500I0J-237500D01*
G01*
G37*
G04 #@! TD.AperFunction*
G04 #@! TA.AperFunction,SMDPad,CuDef*
G36*
G01*
X163706000Y-126000500D02*
X163706000Y-126475500D01*
G75*
G02*
X163468500Y-126713000I-237500J0D01*
G01*
X162968500Y-126713000D01*
G75*
G02*
X162731000Y-126475500I0J237500D01*
G01*
X162731000Y-126000500D01*
G75*
G02*
X162968500Y-125763000I237500J0D01*
G01*
X163468500Y-125763000D01*
G75*
G02*
X163706000Y-126000500I0J-237500D01*
G01*
G37*
G04 #@! TD.AperFunction*
G04 #@! TA.AperFunction,SMDPad,CuDef*
G36*
G01*
X160906000Y-121903500D02*
X160906000Y-121428500D01*
G75*
G02*
X161143500Y-121191000I237500J0D01*
G01*
X161643500Y-121191000D01*
G75*
G02*
X161881000Y-121428500I0J-237500D01*
G01*
X161881000Y-121903500D01*
G75*
G02*
X161643500Y-122141000I-237500J0D01*
G01*
X161143500Y-122141000D01*
G75*
G02*
X160906000Y-121903500I0J237500D01*
G01*
G37*
G04 #@! TD.AperFunction*
G04 #@! TA.AperFunction,SMDPad,CuDef*
G36*
G01*
X162731000Y-121903500D02*
X162731000Y-121428500D01*
G75*
G02*
X162968500Y-121191000I237500J0D01*
G01*
X163468500Y-121191000D01*
G75*
G02*
X163706000Y-121428500I0J-237500D01*
G01*
X163706000Y-121903500D01*
G75*
G02*
X163468500Y-122141000I-237500J0D01*
G01*
X162968500Y-122141000D01*
G75*
G02*
X162731000Y-121903500I0J237500D01*
G01*
G37*
G04 #@! TD.AperFunction*
D21*
X146304000Y-117178666D03*
X146304000Y-115993333D03*
X144780000Y-115993333D03*
X146304000Y-118364000D03*
X146304000Y-114808000D03*
X144780000Y-118364000D03*
X144780000Y-114808000D03*
X145965400Y-121771000D03*
X163218500Y-120588100D03*
X161951000Y-96012000D03*
X169672000Y-98324800D03*
X160579600Y-101289600D03*
X162228200Y-116223900D03*
X158523800Y-112390900D03*
X135626000Y-88832100D03*
X158637300Y-88441900D03*
X162052000Y-113510200D03*
X154711900Y-122680700D03*
X161441700Y-89567800D03*
X150355300Y-112289700D03*
X168712600Y-112289700D03*
X144780000Y-117178666D03*
X135024600Y-105636700D03*
X157560900Y-107355700D03*
D22*
X142830000Y-121031000D02*
X143992800Y-121031000D01*
X145965400Y-121771000D02*
X144732800Y-121771000D01*
X144732800Y-121771000D02*
X143992800Y-121031000D01*
X168312500Y-94678500D02*
X170535000Y-92456000D01*
X170535000Y-92456000D02*
X170942000Y-92456000D01*
X165201000Y-97790000D02*
X168312500Y-94678500D01*
X164846000Y-91212000D02*
X168312500Y-94678500D01*
X162560000Y-90778500D02*
X162993500Y-91212000D01*
X162993500Y-91212000D02*
X164846000Y-91212000D01*
X163218500Y-121666000D02*
X163218500Y-120588100D01*
X161951000Y-97790000D02*
X161951000Y-96012000D01*
X161951000Y-96012000D02*
X161965000Y-95998000D01*
X161965000Y-95998000D02*
X161965000Y-94234000D01*
X154711900Y-122680700D02*
X153010300Y-122680700D01*
X153010300Y-122680700D02*
X151892000Y-123799000D01*
X155855500Y-122682000D02*
X155854200Y-122680700D01*
X155854200Y-122680700D02*
X154711900Y-122680700D01*
X169672000Y-98324800D02*
X169672000Y-99417500D01*
X160579600Y-101289600D02*
X161894600Y-101289600D01*
X161894600Y-101289600D02*
X161951000Y-101346000D01*
X162228200Y-116223900D02*
X161393500Y-117058600D01*
X161393500Y-117058600D02*
X161393500Y-117094000D01*
X158523800Y-112390900D02*
X156839100Y-112390900D01*
X156839100Y-112390900D02*
X156718000Y-112512000D01*
X148254000Y-112141000D02*
X149416800Y-112141000D01*
X150355300Y-112289700D02*
X149565500Y-112289700D01*
X149565500Y-112289700D02*
X149416800Y-112141000D01*
X152146000Y-112512000D02*
X151923700Y-112289700D01*
X151923700Y-112289700D02*
X150355300Y-112289700D01*
X141432400Y-118256100D02*
X140562500Y-117386300D01*
X140562500Y-117386300D02*
X140562500Y-116840000D01*
X141817300Y-118491000D02*
X141667200Y-118491000D01*
X141667200Y-118491000D02*
X141432400Y-118256100D01*
X141432400Y-118256100D02*
X140562500Y-119126000D01*
X142830000Y-118491000D02*
X141817300Y-118491000D01*
X135626000Y-88832100D02*
X135626000Y-91572000D01*
X158637300Y-88441900D02*
X158506000Y-88573200D01*
X158506000Y-88573200D02*
X158506000Y-91572000D01*
X162052000Y-113510200D02*
X162052000Y-112238000D01*
X143992800Y-118491000D02*
X145262800Y-119761000D01*
X145262800Y-119761000D02*
X148254000Y-119761000D01*
X143992800Y-118491000D02*
X143992800Y-118135200D01*
X143992800Y-118135200D02*
X144970500Y-117157500D01*
X148254000Y-112141000D02*
X147091200Y-112141000D01*
X145542000Y-116586000D02*
X145542000Y-113900700D01*
X145542000Y-113900700D02*
X147091200Y-112351500D01*
X147091200Y-112351500D02*
X147091200Y-112141000D01*
X142830000Y-118491000D02*
X143992800Y-118491000D01*
X161441700Y-89567800D02*
X162045700Y-89567800D01*
X162045700Y-89567800D02*
X162560000Y-89053500D01*
X168712600Y-112289700D02*
X171227700Y-112289700D01*
X171227700Y-112289700D02*
X171450000Y-112512000D01*
X166878000Y-112512000D02*
X167100300Y-112289700D01*
X167100300Y-112289700D02*
X168712600Y-112289700D01*
X144970500Y-117157500D02*
X145542000Y-116586000D01*
D23*
X149341800Y-121523300D02*
X149520500Y-121702000D01*
X149520500Y-121702000D02*
X154549500Y-121702000D01*
X154549500Y-121702000D02*
X155855500Y-120396000D01*
X149341800Y-118491000D02*
X149341800Y-121523300D01*
X149341800Y-121523300D02*
X147956400Y-122908700D01*
X147956400Y-122908700D02*
X147721000Y-122908700D01*
X148254000Y-117221000D02*
X149341800Y-117221000D01*
X149341800Y-117221000D02*
X149341800Y-118491000D01*
X148254000Y-118491000D02*
X149341800Y-118491000D01*
X147721000Y-125984000D02*
X147721000Y-122908700D01*
X166718700Y-132080000D02*
X166718700Y-131712600D01*
X166718700Y-131712600D02*
X165460500Y-130454400D01*
X165460500Y-130454400D02*
X144000400Y-130454400D01*
X144000400Y-130454400D02*
X137972300Y-124426300D01*
X137972300Y-124426300D02*
X137972300Y-111789500D01*
X137972300Y-111789500D02*
X138301400Y-111460400D01*
X138301400Y-111460400D02*
X139804900Y-111460400D01*
X139804900Y-111460400D02*
X140612500Y-112268000D01*
X140612500Y-112268000D02*
X141615200Y-112268000D01*
X141615200Y-112268000D02*
X141742200Y-112141000D01*
X167894000Y-132080000D02*
X166718700Y-132080000D01*
X142830000Y-112141000D02*
X141742200Y-112141000D01*
X142830000Y-113411000D02*
X141742200Y-113411000D01*
X140612500Y-114554000D02*
X141742200Y-113424300D01*
X141742200Y-113424300D02*
X141742200Y-113411000D01*
X160274000Y-132080000D02*
X159098700Y-132080000D01*
X142830000Y-113411000D02*
X143917800Y-113411000D01*
X143917800Y-113411000D02*
X143917800Y-111605100D01*
X143917800Y-111605100D02*
X143282100Y-110969400D01*
X143282100Y-110969400D02*
X138075600Y-110969400D01*
X138075600Y-110969400D02*
X137470300Y-111574700D01*
X137470300Y-111574700D02*
X137470300Y-124634300D01*
X137470300Y-124634300D02*
X143740700Y-130904700D01*
X143740700Y-130904700D02*
X158290800Y-130904700D01*
X158290800Y-130904700D02*
X159098700Y-131712600D01*
X159098700Y-131712600D02*
X159098700Y-132080000D01*
D22*
X135626000Y-102832000D02*
X135626000Y-105332300D01*
X135024600Y-105636700D02*
X135329000Y-105332300D01*
X135329000Y-105332300D02*
X135626000Y-105332300D01*
D23*
X137414000Y-132080000D02*
X137414000Y-130904700D01*
X131143000Y-116307000D02*
X136238700Y-121402700D01*
X136238700Y-121402700D02*
X136238700Y-129729400D01*
X136238700Y-129729400D02*
X137414000Y-130904700D01*
X128143000Y-116307000D02*
X130355300Y-118519300D01*
X130355300Y-118519300D02*
X131593500Y-118519300D01*
X131593500Y-118519300D02*
X134874000Y-121799800D01*
X134874000Y-121799800D02*
X134874000Y-132080000D01*
D22*
X158596500Y-119380000D02*
X157580500Y-120396000D01*
X161393500Y-119380000D02*
X158596500Y-119380000D01*
X157925500Y-118014500D02*
X157925500Y-118709000D01*
X157925500Y-118709000D02*
X158596500Y-119380000D01*
X157925500Y-118014500D02*
X161102000Y-114838000D01*
X156718000Y-117612000D02*
X157120500Y-118014500D01*
X157120500Y-118014500D02*
X157925500Y-118014500D01*
X152146000Y-117612000D02*
X156718000Y-117612000D01*
X149416800Y-115951000D02*
X150485000Y-115951000D01*
X150485000Y-115951000D02*
X152146000Y-117612000D01*
X149266700Y-115951000D02*
X149416800Y-115951000D01*
X148254000Y-115951000D02*
X149266700Y-115951000D01*
X148254000Y-114681000D02*
X149416800Y-114681000D01*
X149416800Y-114681000D02*
X149416800Y-115951000D01*
X157580500Y-120396000D02*
X157580500Y-122682000D01*
X151892000Y-120549000D02*
X152146000Y-120295000D01*
X152146000Y-120295000D02*
X152146000Y-117612000D01*
X171089000Y-123952000D02*
X171089000Y-127102300D01*
X163218500Y-126238000D02*
X164082800Y-127102300D01*
X164082800Y-127102300D02*
X171089000Y-127102300D01*
X163168500Y-123952000D02*
X163168500Y-126188000D01*
X163168500Y-126188000D02*
X163218500Y-126238000D01*
X171089000Y-117612000D02*
X171089000Y-123952000D01*
X172974000Y-109220000D02*
X172974000Y-110470300D01*
X172974000Y-110470300D02*
X173039400Y-110535700D01*
X173039400Y-110535700D02*
X173039400Y-116022600D01*
X173039400Y-116022600D02*
X171450000Y-117612000D01*
X171089000Y-117612000D02*
X171450000Y-117612000D01*
X166878000Y-117612000D02*
X171089000Y-117612000D01*
D23*
X161393500Y-121666000D02*
X162220600Y-120838900D01*
X162220600Y-120838900D02*
X162220600Y-118849000D01*
X162220600Y-118849000D02*
X161608600Y-118237000D01*
X161608600Y-118237000D02*
X161235800Y-118237000D01*
X161235800Y-118237000D02*
X160571900Y-117573100D01*
X160571900Y-117573100D02*
X160571900Y-116609400D01*
X160571900Y-116609400D02*
X160888600Y-116292700D01*
X160888600Y-116292700D02*
X161021800Y-116292700D01*
X161021800Y-116292700D02*
X162476500Y-114838000D01*
X162476500Y-114838000D02*
X163002000Y-114838000D01*
X161393500Y-121666000D02*
X161443500Y-121716000D01*
X161443500Y-121716000D02*
X161443500Y-123952000D01*
X161393500Y-126238000D02*
X161393500Y-124002000D01*
X161393500Y-124002000D02*
X161443500Y-123952000D01*
X163218500Y-117094000D02*
X163627300Y-116685200D01*
X163627300Y-116685200D02*
X163627300Y-113788600D01*
X163627300Y-113788600D02*
X163002000Y-113163300D01*
X163218500Y-117094000D02*
X163218500Y-119380000D01*
X163002000Y-112238000D02*
X163002000Y-113163300D01*
X161102000Y-112238000D02*
X161102000Y-111312700D01*
X167239000Y-123952000D02*
X165838700Y-123952000D01*
X165838700Y-123952000D02*
X164210100Y-122323400D01*
X164210100Y-122323400D02*
X164210100Y-112056300D01*
X164210100Y-112056300D02*
X163466500Y-111312700D01*
X163466500Y-111312700D02*
X161102000Y-111312700D01*
D22*
X157560900Y-107355700D02*
X157790500Y-107355700D01*
X157790500Y-107355700D02*
X158663200Y-106483000D01*
X148254000Y-113411000D02*
X150242600Y-113411000D01*
X150242600Y-113411000D02*
X150883400Y-114051800D01*
X150883400Y-114051800D02*
X153396600Y-114051800D01*
X153396600Y-114051800D02*
X154751900Y-112696500D01*
X154751900Y-112696500D02*
X154751900Y-111756200D01*
X154751900Y-111756200D02*
X156464000Y-110044100D01*
X156464000Y-110044100D02*
X156464000Y-108452600D01*
X156464000Y-108452600D02*
X157560900Y-107355700D01*
X167894000Y-105814500D02*
X166113500Y-105814500D01*
X166113500Y-105814500D02*
X165201000Y-104902000D01*
X169672000Y-105764500D02*
X169622000Y-105814500D01*
X169622000Y-105814500D02*
X167894000Y-105814500D01*
X158663200Y-106483000D02*
X163620000Y-106483000D01*
X163620000Y-106483000D02*
X165201000Y-104902000D01*
X158663200Y-106483000D02*
X158663200Y-105489500D01*
X158663200Y-105489500D02*
X158506000Y-105332300D01*
X158506000Y-102832000D02*
X158506000Y-105332300D01*
X169672000Y-105764500D02*
X170584800Y-104851700D01*
X170584800Y-104851700D02*
X170584800Y-103508500D01*
X170584800Y-103508500D02*
X169904700Y-102828400D01*
X169904700Y-102828400D02*
X169479900Y-102828400D01*
X169479900Y-102828400D02*
X167894000Y-101242500D01*
X171450000Y-101242500D02*
X170534100Y-100326600D01*
X170534100Y-100326600D02*
X168809900Y-100326600D01*
X168809900Y-100326600D02*
X167894000Y-101242500D01*
D23*
X167894000Y-103989500D02*
X167944000Y-104039500D01*
X167944000Y-104039500D02*
X169672000Y-104039500D01*
X161951000Y-104902000D02*
X163458500Y-103394500D01*
X163458500Y-103394500D02*
X167299000Y-103394500D01*
X167299000Y-103394500D02*
X167894000Y-103989500D01*
X170513800Y-97197900D02*
X168597300Y-97197900D01*
X168597300Y-97197900D02*
X166498200Y-99297000D01*
X166498200Y-99297000D02*
X164425200Y-99297000D01*
X164425200Y-99297000D02*
X164124500Y-98996300D01*
X164124500Y-98996300D02*
X164124500Y-95324500D01*
X164124500Y-95324500D02*
X165215000Y-94234000D01*
X143871000Y-124146500D02*
X144641600Y-124146500D01*
X144641600Y-124146500D02*
X147166200Y-121621900D01*
X147166200Y-121621900D02*
X147166200Y-121031000D01*
X138837500Y-119126000D02*
X143858000Y-124146500D01*
X143858000Y-124146500D02*
X143871000Y-124146500D01*
X143871000Y-124146500D02*
X143871000Y-124716700D01*
X148254000Y-121031000D02*
X147166200Y-121031000D01*
X143871000Y-125984000D02*
X143871000Y-129059300D01*
X170513800Y-97197900D02*
X174162500Y-100846600D01*
X174162500Y-100846600D02*
X174162500Y-125184700D01*
X174162500Y-125184700D02*
X170287900Y-129059300D01*
X170287900Y-129059300D02*
X143871000Y-129059300D01*
X170513800Y-97197900D02*
X172320100Y-95391600D01*
X172320100Y-95391600D02*
X172320100Y-91669300D01*
X172320100Y-91669300D02*
X168762800Y-88112000D01*
X168762800Y-88112000D02*
X164846000Y-88112000D01*
X143871000Y-125984000D02*
X143871000Y-124716700D01*
X167894000Y-99417500D02*
X167129500Y-99417500D01*
X167129500Y-99417500D02*
X165201000Y-101346000D01*
X139726500Y-115951000D02*
X141742200Y-115951000D01*
X138837500Y-116840000D02*
X139726500Y-115951000D01*
X139726500Y-115951000D02*
X138787500Y-115012000D01*
X138787500Y-115012000D02*
X138787500Y-114554000D01*
X138787500Y-114554000D02*
X138787500Y-112268000D01*
X142830000Y-115951000D02*
X141742200Y-115951000D01*
X171144100Y-102109500D02*
X170539000Y-102109500D01*
X170539000Y-102109500D02*
X169672000Y-101242500D01*
X171450000Y-99417500D02*
X172267300Y-100234800D01*
X172267300Y-100234800D02*
X172267300Y-101726400D01*
X172267300Y-101726400D02*
X171884200Y-102109500D01*
X171884200Y-102109500D02*
X171144100Y-102109500D01*
X161449300Y-109220000D02*
X161449300Y-108852600D01*
X161449300Y-108852600D02*
X162257200Y-108044700D01*
X162257200Y-108044700D02*
X168744700Y-108044700D01*
X168744700Y-108044700D02*
X171144100Y-105645300D01*
X171144100Y-105645300D02*
X171144100Y-102109500D01*
X160274000Y-109220000D02*
X161449300Y-109220000D01*
M02*
