%TF.GenerationSoftware,KiCad,Pcbnew,(5.1.10)-1*%
%TF.CreationDate,2021-07-24T11:50:19+02:00*%
%TF.ProjectId,pcb-esp32-power,7063622d-6573-4703-9332-2d706f776572,rev?*%
%TF.SameCoordinates,Original*%
%TF.FileFunction,Copper,L1,Top*%
%TF.FilePolarity,Positive*%
%FSLAX46Y46*%
G04 Gerber Fmt 4.6, Leading zero omitted, Abs format (unit mm)*
G04 Created by KiCad (PCBNEW (5.1.10)-1) date 2021-07-24 11:50:19*
%MOMM*%
%LPD*%
G01*
G04 APERTURE LIST*
%TA.AperFunction,ComponentPad*%
%ADD10C,1.700000*%
%TD*%
%TA.AperFunction,ComponentPad*%
%ADD11O,1.700000X1.700000*%
%TD*%
%TA.AperFunction,ComponentPad*%
%ADD12R,1.700000X1.700000*%
%TD*%
%TA.AperFunction,SMDPad,CuDef*%
%ADD13R,2.500000X4.200000*%
%TD*%
%TA.AperFunction,SMDPad,CuDef*%
%ADD14R,0.600000X1.200000*%
%TD*%
%TA.AperFunction,ComponentPad*%
%ADD15O,2.000000X1.700000*%
%TD*%
%TA.AperFunction,SMDPad,CuDef*%
%ADD16R,1.525000X0.700000*%
%TD*%
%TA.AperFunction,SMDPad,CuDef*%
%ADD17R,2.410000X4.570000*%
%TD*%
%TA.AperFunction,SMDPad,CuDef*%
%ADD18R,2.150000X5.500000*%
%TD*%
%TA.AperFunction,ComponentPad*%
%ADD19R,2.500000X2.500000*%
%TD*%
%TA.AperFunction,ComponentPad*%
%ADD20C,2.500000*%
%TD*%
%TA.AperFunction,ViaPad*%
%ADD21C,0.800000*%
%TD*%
%TA.AperFunction,Conductor*%
%ADD22C,0.400000*%
%TD*%
%TA.AperFunction,Conductor*%
%ADD23C,0.250000*%
%TD*%
G04 APERTURE END LIST*
D10*
%TO.P,U1,4*%
%TO.N,GND*%
X137766000Y-90282000D03*
D11*
%TO.P,U1,3*%
X137766000Y-92822000D03*
D10*
%TO.P,U1,8*%
X156366000Y-90282000D03*
D12*
%TO.P,U1,2*%
%TO.N,+12V*%
X137766000Y-101582000D03*
%TO.P,U1,6*%
%TO.N,5VIN*%
X156366000Y-101582000D03*
D11*
%TO.P,U1,7*%
%TO.N,GND*%
X156366000Y-92822000D03*
D12*
%TO.P,U1,1*%
%TO.N,+12V*%
X137766000Y-104122000D03*
%TO.P,U1,5*%
%TO.N,5VIN*%
X156366000Y-104122000D03*
D13*
%TO.P,U1,4*%
%TO.N,GND*%
X135626000Y-91572000D03*
%TO.P,U1,2*%
%TO.N,+12V*%
X135626000Y-102832000D03*
%TO.P,U1,8*%
%TO.N,GND*%
X158506000Y-91572000D03*
%TO.P,U1,6*%
%TO.N,5VIN*%
X158506000Y-102832000D03*
%TD*%
%TO.P,C6,1*%
%TO.N,+3V3*%
%TA.AperFunction,SMDPad,CuDef*%
G36*
G01*
X163531000Y-123702000D02*
X163531000Y-124202000D01*
G75*
G02*
X163306000Y-124427000I-225000J0D01*
G01*
X162856000Y-124427000D01*
G75*
G02*
X162631000Y-124202000I0J225000D01*
G01*
X162631000Y-123702000D01*
G75*
G02*
X162856000Y-123477000I225000J0D01*
G01*
X163306000Y-123477000D01*
G75*
G02*
X163531000Y-123702000I0J-225000D01*
G01*
G37*
%TD.AperFunction*%
%TO.P,C6,2*%
%TO.N,Net-(C6-Pad2)*%
%TA.AperFunction,SMDPad,CuDef*%
G36*
G01*
X161981000Y-123702000D02*
X161981000Y-124202000D01*
G75*
G02*
X161756000Y-124427000I-225000J0D01*
G01*
X161306000Y-124427000D01*
G75*
G02*
X161081000Y-124202000I0J225000D01*
G01*
X161081000Y-123702000D01*
G75*
G02*
X161306000Y-123477000I225000J0D01*
G01*
X161756000Y-123477000D01*
G75*
G02*
X161981000Y-123702000I0J-225000D01*
G01*
G37*
%TD.AperFunction*%
%TD*%
%TO.P,CP8,1*%
%TO.N,+3V3*%
%TA.AperFunction,SMDPad,CuDef*%
G36*
G01*
X167803000Y-118562000D02*
X165953000Y-118562000D01*
G75*
G02*
X165703000Y-118312000I0J250000D01*
G01*
X165703000Y-116737000D01*
G75*
G02*
X165953000Y-116487000I250000J0D01*
G01*
X167803000Y-116487000D01*
G75*
G02*
X168053000Y-116737000I0J-250000D01*
G01*
X168053000Y-118312000D01*
G75*
G02*
X167803000Y-118562000I-250000J0D01*
G01*
G37*
%TD.AperFunction*%
%TO.P,CP8,2*%
%TO.N,GND*%
%TA.AperFunction,SMDPad,CuDef*%
G36*
G01*
X167803000Y-113637000D02*
X165953000Y-113637000D01*
G75*
G02*
X165703000Y-113387000I0J250000D01*
G01*
X165703000Y-111812000D01*
G75*
G02*
X165953000Y-111562000I250000J0D01*
G01*
X167803000Y-111562000D01*
G75*
G02*
X168053000Y-111812000I0J-250000D01*
G01*
X168053000Y-113387000D01*
G75*
G02*
X167803000Y-113637000I-250000J0D01*
G01*
G37*
%TD.AperFunction*%
%TD*%
%TO.P,CP9,2*%
%TO.N,GND*%
%TA.AperFunction,SMDPad,CuDef*%
G36*
G01*
X172375000Y-113637000D02*
X170525000Y-113637000D01*
G75*
G02*
X170275000Y-113387000I0J250000D01*
G01*
X170275000Y-111812000D01*
G75*
G02*
X170525000Y-111562000I250000J0D01*
G01*
X172375000Y-111562000D01*
G75*
G02*
X172625000Y-111812000I0J-250000D01*
G01*
X172625000Y-113387000D01*
G75*
G02*
X172375000Y-113637000I-250000J0D01*
G01*
G37*
%TD.AperFunction*%
%TO.P,CP9,1*%
%TO.N,+3V3*%
%TA.AperFunction,SMDPad,CuDef*%
G36*
G01*
X172375000Y-118562000D02*
X170525000Y-118562000D01*
G75*
G02*
X170275000Y-118312000I0J250000D01*
G01*
X170275000Y-116737000D01*
G75*
G02*
X170525000Y-116487000I250000J0D01*
G01*
X172375000Y-116487000D01*
G75*
G02*
X172625000Y-116737000I0J-250000D01*
G01*
X172625000Y-118312000D01*
G75*
G02*
X172375000Y-118562000I-250000J0D01*
G01*
G37*
%TD.AperFunction*%
%TD*%
D14*
%TO.P,IC2,1*%
%TO.N,Net-(IC2-Pad1)*%
X163002000Y-112238000D03*
%TO.P,IC2,2*%
%TO.N,GND*%
X162052000Y-112238000D03*
%TO.P,IC2,3*%
%TO.N,Net-(IC2-Pad3)*%
X161102000Y-112238000D03*
%TO.P,IC2,4*%
%TO.N,5VOUT*%
X161102000Y-114838000D03*
%TO.P,IC2,5*%
%TO.N,Net-(C6-Pad2)*%
X163002000Y-114838000D03*
%TD*%
%TO.P,R11,1*%
%TO.N,5VOUT*%
%TA.AperFunction,SMDPad,CuDef*%
G36*
G01*
X161081000Y-119655000D02*
X161081000Y-119105000D01*
G75*
G02*
X161281000Y-118905000I200000J0D01*
G01*
X161681000Y-118905000D01*
G75*
G02*
X161881000Y-119105000I0J-200000D01*
G01*
X161881000Y-119655000D01*
G75*
G02*
X161681000Y-119855000I-200000J0D01*
G01*
X161281000Y-119855000D01*
G75*
G02*
X161081000Y-119655000I0J200000D01*
G01*
G37*
%TD.AperFunction*%
%TO.P,R11,2*%
%TO.N,Net-(IC2-Pad1)*%
%TA.AperFunction,SMDPad,CuDef*%
G36*
G01*
X162731000Y-119655000D02*
X162731000Y-119105000D01*
G75*
G02*
X162931000Y-118905000I200000J0D01*
G01*
X163331000Y-118905000D01*
G75*
G02*
X163531000Y-119105000I0J-200000D01*
G01*
X163531000Y-119655000D01*
G75*
G02*
X163331000Y-119855000I-200000J0D01*
G01*
X162931000Y-119855000D01*
G75*
G02*
X162731000Y-119655000I0J200000D01*
G01*
G37*
%TD.AperFunction*%
%TD*%
%TO.P,R12,2*%
%TO.N,GND*%
%TA.AperFunction,SMDPad,CuDef*%
G36*
G01*
X161881000Y-116819000D02*
X161881000Y-117369000D01*
G75*
G02*
X161681000Y-117569000I-200000J0D01*
G01*
X161281000Y-117569000D01*
G75*
G02*
X161081000Y-117369000I0J200000D01*
G01*
X161081000Y-116819000D01*
G75*
G02*
X161281000Y-116619000I200000J0D01*
G01*
X161681000Y-116619000D01*
G75*
G02*
X161881000Y-116819000I0J-200000D01*
G01*
G37*
%TD.AperFunction*%
%TO.P,R12,1*%
%TO.N,Net-(IC2-Pad1)*%
%TA.AperFunction,SMDPad,CuDef*%
G36*
G01*
X163531000Y-116819000D02*
X163531000Y-117369000D01*
G75*
G02*
X163331000Y-117569000I-200000J0D01*
G01*
X162931000Y-117569000D01*
G75*
G02*
X162731000Y-117369000I0J200000D01*
G01*
X162731000Y-116819000D01*
G75*
G02*
X162931000Y-116619000I200000J0D01*
G01*
X163331000Y-116619000D01*
G75*
G02*
X163531000Y-116819000I0J-200000D01*
G01*
G37*
%TD.AperFunction*%
%TD*%
%TO.P,R13,1*%
%TO.N,+3V3*%
%TA.AperFunction,SMDPad,CuDef*%
G36*
G01*
X163531000Y-125963000D02*
X163531000Y-126513000D01*
G75*
G02*
X163331000Y-126713000I-200000J0D01*
G01*
X162931000Y-126713000D01*
G75*
G02*
X162731000Y-126513000I0J200000D01*
G01*
X162731000Y-125963000D01*
G75*
G02*
X162931000Y-125763000I200000J0D01*
G01*
X163331000Y-125763000D01*
G75*
G02*
X163531000Y-125963000I0J-200000D01*
G01*
G37*
%TD.AperFunction*%
%TO.P,R13,2*%
%TO.N,Net-(C6-Pad2)*%
%TA.AperFunction,SMDPad,CuDef*%
G36*
G01*
X161881000Y-125963000D02*
X161881000Y-126513000D01*
G75*
G02*
X161681000Y-126713000I-200000J0D01*
G01*
X161281000Y-126713000D01*
G75*
G02*
X161081000Y-126513000I0J200000D01*
G01*
X161081000Y-125963000D01*
G75*
G02*
X161281000Y-125763000I200000J0D01*
G01*
X161681000Y-125763000D01*
G75*
G02*
X161881000Y-125963000I0J-200000D01*
G01*
G37*
%TD.AperFunction*%
%TD*%
%TO.P,R14,2*%
%TO.N,GND*%
%TA.AperFunction,SMDPad,CuDef*%
G36*
G01*
X162731000Y-121941000D02*
X162731000Y-121391000D01*
G75*
G02*
X162931000Y-121191000I200000J0D01*
G01*
X163331000Y-121191000D01*
G75*
G02*
X163531000Y-121391000I0J-200000D01*
G01*
X163531000Y-121941000D01*
G75*
G02*
X163331000Y-122141000I-200000J0D01*
G01*
X162931000Y-122141000D01*
G75*
G02*
X162731000Y-121941000I0J200000D01*
G01*
G37*
%TD.AperFunction*%
%TO.P,R14,1*%
%TO.N,Net-(C6-Pad2)*%
%TA.AperFunction,SMDPad,CuDef*%
G36*
G01*
X161081000Y-121941000D02*
X161081000Y-121391000D01*
G75*
G02*
X161281000Y-121191000I200000J0D01*
G01*
X161681000Y-121191000D01*
G75*
G02*
X161881000Y-121391000I0J-200000D01*
G01*
X161881000Y-121941000D01*
G75*
G02*
X161681000Y-122141000I-200000J0D01*
G01*
X161281000Y-122141000D01*
G75*
G02*
X161081000Y-121941000I0J200000D01*
G01*
G37*
%TD.AperFunction*%
%TD*%
%TO.P,J2,1*%
%TO.N,+BATT*%
%TA.AperFunction,ComponentPad*%
G36*
G01*
X170192000Y-91606000D02*
X171692000Y-91606000D01*
G75*
G02*
X171942000Y-91856000I0J-250000D01*
G01*
X171942000Y-93056000D01*
G75*
G02*
X171692000Y-93306000I-250000J0D01*
G01*
X170192000Y-93306000D01*
G75*
G02*
X169942000Y-93056000I0J250000D01*
G01*
X169942000Y-91856000D01*
G75*
G02*
X170192000Y-91606000I250000J0D01*
G01*
G37*
%TD.AperFunction*%
D15*
%TO.P,J2,2*%
%TO.N,GND*%
X170942000Y-94956000D03*
%TD*%
%TO.P,C1,1*%
%TO.N,5VOUT*%
%TA.AperFunction,SMDPad,CuDef*%
G36*
G01*
X157943000Y-122432000D02*
X157943000Y-122932000D01*
G75*
G02*
X157718000Y-123157000I-225000J0D01*
G01*
X157268000Y-123157000D01*
G75*
G02*
X157043000Y-122932000I0J225000D01*
G01*
X157043000Y-122432000D01*
G75*
G02*
X157268000Y-122207000I225000J0D01*
G01*
X157718000Y-122207000D01*
G75*
G02*
X157943000Y-122432000I0J-225000D01*
G01*
G37*
%TD.AperFunction*%
%TO.P,C1,2*%
%TO.N,GND*%
%TA.AperFunction,SMDPad,CuDef*%
G36*
G01*
X156393000Y-122432000D02*
X156393000Y-122932000D01*
G75*
G02*
X156168000Y-123157000I-225000J0D01*
G01*
X155718000Y-123157000D01*
G75*
G02*
X155493000Y-122932000I0J225000D01*
G01*
X155493000Y-122432000D01*
G75*
G02*
X155718000Y-122207000I225000J0D01*
G01*
X156168000Y-122207000D01*
G75*
G02*
X156393000Y-122432000I0J-225000D01*
G01*
G37*
%TD.AperFunction*%
%TD*%
%TO.P,C2,1*%
%TO.N,5VIN*%
%TA.AperFunction,SMDPad,CuDef*%
G36*
G01*
X169922000Y-106127000D02*
X169422000Y-106127000D01*
G75*
G02*
X169197000Y-105902000I0J225000D01*
G01*
X169197000Y-105452000D01*
G75*
G02*
X169422000Y-105227000I225000J0D01*
G01*
X169922000Y-105227000D01*
G75*
G02*
X170147000Y-105452000I0J-225000D01*
G01*
X170147000Y-105902000D01*
G75*
G02*
X169922000Y-106127000I-225000J0D01*
G01*
G37*
%TD.AperFunction*%
%TO.P,C2,2*%
%TO.N,Net-(C2-Pad2)*%
%TA.AperFunction,SMDPad,CuDef*%
G36*
G01*
X169922000Y-104577000D02*
X169422000Y-104577000D01*
G75*
G02*
X169197000Y-104352000I0J225000D01*
G01*
X169197000Y-103902000D01*
G75*
G02*
X169422000Y-103677000I225000J0D01*
G01*
X169922000Y-103677000D01*
G75*
G02*
X170147000Y-103902000I0J-225000D01*
G01*
X170147000Y-104352000D01*
G75*
G02*
X169922000Y-104577000I-225000J0D01*
G01*
G37*
%TD.AperFunction*%
%TD*%
%TO.P,C3,2*%
%TO.N,Net-(C3-Pad2)*%
%TA.AperFunction,SMDPad,CuDef*%
G36*
G01*
X156393000Y-120146000D02*
X156393000Y-120646000D01*
G75*
G02*
X156168000Y-120871000I-225000J0D01*
G01*
X155718000Y-120871000D01*
G75*
G02*
X155493000Y-120646000I0J225000D01*
G01*
X155493000Y-120146000D01*
G75*
G02*
X155718000Y-119921000I225000J0D01*
G01*
X156168000Y-119921000D01*
G75*
G02*
X156393000Y-120146000I0J-225000D01*
G01*
G37*
%TD.AperFunction*%
%TO.P,C3,1*%
%TO.N,5VOUT*%
%TA.AperFunction,SMDPad,CuDef*%
G36*
G01*
X157943000Y-120146000D02*
X157943000Y-120646000D01*
G75*
G02*
X157718000Y-120871000I-225000J0D01*
G01*
X157268000Y-120871000D01*
G75*
G02*
X157043000Y-120646000I0J225000D01*
G01*
X157043000Y-120146000D01*
G75*
G02*
X157268000Y-119921000I225000J0D01*
G01*
X157718000Y-119921000D01*
G75*
G02*
X157943000Y-120146000I0J-225000D01*
G01*
G37*
%TD.AperFunction*%
%TD*%
%TO.P,C4,2*%
%TO.N,GND*%
%TA.AperFunction,SMDPad,CuDef*%
G36*
G01*
X140025000Y-119376000D02*
X140025000Y-118876000D01*
G75*
G02*
X140250000Y-118651000I225000J0D01*
G01*
X140700000Y-118651000D01*
G75*
G02*
X140925000Y-118876000I0J-225000D01*
G01*
X140925000Y-119376000D01*
G75*
G02*
X140700000Y-119601000I-225000J0D01*
G01*
X140250000Y-119601000D01*
G75*
G02*
X140025000Y-119376000I0J225000D01*
G01*
G37*
%TD.AperFunction*%
%TO.P,C4,1*%
%TO.N,Net-(C4-Pad1)*%
%TA.AperFunction,SMDPad,CuDef*%
G36*
G01*
X138475000Y-119376000D02*
X138475000Y-118876000D01*
G75*
G02*
X138700000Y-118651000I225000J0D01*
G01*
X139150000Y-118651000D01*
G75*
G02*
X139375000Y-118876000I0J-225000D01*
G01*
X139375000Y-119376000D01*
G75*
G02*
X139150000Y-119601000I-225000J0D01*
G01*
X138700000Y-119601000D01*
G75*
G02*
X138475000Y-119376000I0J225000D01*
G01*
G37*
%TD.AperFunction*%
%TD*%
%TO.P,C5,1*%
%TO.N,+BATT*%
%TA.AperFunction,SMDPad,CuDef*%
G36*
G01*
X162810000Y-91141000D02*
X162310000Y-91141000D01*
G75*
G02*
X162085000Y-90916000I0J225000D01*
G01*
X162085000Y-90466000D01*
G75*
G02*
X162310000Y-90241000I225000J0D01*
G01*
X162810000Y-90241000D01*
G75*
G02*
X163035000Y-90466000I0J-225000D01*
G01*
X163035000Y-90916000D01*
G75*
G02*
X162810000Y-91141000I-225000J0D01*
G01*
G37*
%TD.AperFunction*%
%TO.P,C5,2*%
%TO.N,GND*%
%TA.AperFunction,SMDPad,CuDef*%
G36*
G01*
X162810000Y-89591000D02*
X162310000Y-89591000D01*
G75*
G02*
X162085000Y-89366000I0J225000D01*
G01*
X162085000Y-88916000D01*
G75*
G02*
X162310000Y-88691000I225000J0D01*
G01*
X162810000Y-88691000D01*
G75*
G02*
X163035000Y-88916000I0J-225000D01*
G01*
X163035000Y-89366000D01*
G75*
G02*
X162810000Y-89591000I-225000J0D01*
G01*
G37*
%TD.AperFunction*%
%TD*%
%TO.P,CP1,2*%
%TO.N,GND*%
%TA.AperFunction,SMDPad,CuDef*%
G36*
G01*
X157643000Y-113637000D02*
X155793000Y-113637000D01*
G75*
G02*
X155543000Y-113387000I0J250000D01*
G01*
X155543000Y-111812000D01*
G75*
G02*
X155793000Y-111562000I250000J0D01*
G01*
X157643000Y-111562000D01*
G75*
G02*
X157893000Y-111812000I0J-250000D01*
G01*
X157893000Y-113387000D01*
G75*
G02*
X157643000Y-113637000I-250000J0D01*
G01*
G37*
%TD.AperFunction*%
%TO.P,CP1,1*%
%TO.N,5VOUT*%
%TA.AperFunction,SMDPad,CuDef*%
G36*
G01*
X157643000Y-118562000D02*
X155793000Y-118562000D01*
G75*
G02*
X155543000Y-118312000I0J250000D01*
G01*
X155543000Y-116737000D01*
G75*
G02*
X155793000Y-116487000I250000J0D01*
G01*
X157643000Y-116487000D01*
G75*
G02*
X157893000Y-116737000I0J-250000D01*
G01*
X157893000Y-118312000D01*
G75*
G02*
X157643000Y-118562000I-250000J0D01*
G01*
G37*
%TD.AperFunction*%
%TD*%
%TO.P,CP2,1*%
%TO.N,Net-(CP2-Pad1)*%
%TA.AperFunction,SMDPad,CuDef*%
G36*
G01*
X165776000Y-100420998D02*
X165776000Y-102271002D01*
G75*
G02*
X165526002Y-102521000I-249998J0D01*
G01*
X164700998Y-102521000D01*
G75*
G02*
X164451000Y-102271002I0J249998D01*
G01*
X164451000Y-100420998D01*
G75*
G02*
X164700998Y-100171000I249998J0D01*
G01*
X165526002Y-100171000D01*
G75*
G02*
X165776000Y-100420998I0J-249998D01*
G01*
G37*
%TD.AperFunction*%
%TO.P,CP2,2*%
%TO.N,GND*%
%TA.AperFunction,SMDPad,CuDef*%
G36*
G01*
X162701000Y-100420998D02*
X162701000Y-102271002D01*
G75*
G02*
X162451002Y-102521000I-249998J0D01*
G01*
X161625998Y-102521000D01*
G75*
G02*
X161376000Y-102271002I0J249998D01*
G01*
X161376000Y-100420998D01*
G75*
G02*
X161625998Y-100171000I249998J0D01*
G01*
X162451002Y-100171000D01*
G75*
G02*
X162701000Y-100420998I0J-249998D01*
G01*
G37*
%TD.AperFunction*%
%TD*%
%TO.P,CP3,1*%
%TO.N,5VOUT*%
%TA.AperFunction,SMDPad,CuDef*%
G36*
G01*
X153071000Y-118562000D02*
X151221000Y-118562000D01*
G75*
G02*
X150971000Y-118312000I0J250000D01*
G01*
X150971000Y-116737000D01*
G75*
G02*
X151221000Y-116487000I250000J0D01*
G01*
X153071000Y-116487000D01*
G75*
G02*
X153321000Y-116737000I0J-250000D01*
G01*
X153321000Y-118312000D01*
G75*
G02*
X153071000Y-118562000I-250000J0D01*
G01*
G37*
%TD.AperFunction*%
%TO.P,CP3,2*%
%TO.N,GND*%
%TA.AperFunction,SMDPad,CuDef*%
G36*
G01*
X153071000Y-113637000D02*
X151221000Y-113637000D01*
G75*
G02*
X150971000Y-113387000I0J250000D01*
G01*
X150971000Y-111812000D01*
G75*
G02*
X151221000Y-111562000I250000J0D01*
G01*
X153071000Y-111562000D01*
G75*
G02*
X153321000Y-111812000I0J-250000D01*
G01*
X153321000Y-113387000D01*
G75*
G02*
X153071000Y-113637000I-250000J0D01*
G01*
G37*
%TD.AperFunction*%
%TD*%
%TO.P,CP4,1*%
%TO.N,5VOUT*%
%TA.AperFunction,SMDPad,CuDef*%
G36*
G01*
X150966998Y-119974000D02*
X152817002Y-119974000D01*
G75*
G02*
X153067000Y-120223998I0J-249998D01*
G01*
X153067000Y-121049002D01*
G75*
G02*
X152817002Y-121299000I-249998J0D01*
G01*
X150966998Y-121299000D01*
G75*
G02*
X150717000Y-121049002I0J249998D01*
G01*
X150717000Y-120223998D01*
G75*
G02*
X150966998Y-119974000I249998J0D01*
G01*
G37*
%TD.AperFunction*%
%TO.P,CP4,2*%
%TO.N,GND*%
%TA.AperFunction,SMDPad,CuDef*%
G36*
G01*
X150966998Y-123049000D02*
X152817002Y-123049000D01*
G75*
G02*
X153067000Y-123298998I0J-249998D01*
G01*
X153067000Y-124124002D01*
G75*
G02*
X152817002Y-124374000I-249998J0D01*
G01*
X150966998Y-124374000D01*
G75*
G02*
X150717000Y-124124002I0J249998D01*
G01*
X150717000Y-123298998D01*
G75*
G02*
X150966998Y-123049000I249998J0D01*
G01*
G37*
%TD.AperFunction*%
%TD*%
%TO.P,CP5,2*%
%TO.N,Net-(C2-Pad2)*%
%TA.AperFunction,SMDPad,CuDef*%
G36*
G01*
X162701000Y-103976998D02*
X162701000Y-105827002D01*
G75*
G02*
X162451002Y-106077000I-249998J0D01*
G01*
X161625998Y-106077000D01*
G75*
G02*
X161376000Y-105827002I0J249998D01*
G01*
X161376000Y-103976998D01*
G75*
G02*
X161625998Y-103727000I249998J0D01*
G01*
X162451002Y-103727000D01*
G75*
G02*
X162701000Y-103976998I0J-249998D01*
G01*
G37*
%TD.AperFunction*%
%TO.P,CP5,1*%
%TO.N,5VIN*%
%TA.AperFunction,SMDPad,CuDef*%
G36*
G01*
X165776000Y-103976998D02*
X165776000Y-105827002D01*
G75*
G02*
X165526002Y-106077000I-249998J0D01*
G01*
X164700998Y-106077000D01*
G75*
G02*
X164451000Y-105827002I0J249998D01*
G01*
X164451000Y-103976998D01*
G75*
G02*
X164700998Y-103727000I249998J0D01*
G01*
X165526002Y-103727000D01*
G75*
G02*
X165776000Y-103976998I0J-249998D01*
G01*
G37*
%TD.AperFunction*%
%TD*%
%TO.P,CP6,1*%
%TO.N,Net-(C4-Pad1)*%
%TA.AperFunction,SMDPad,CuDef*%
G36*
G01*
X165790000Y-93308998D02*
X165790000Y-95159002D01*
G75*
G02*
X165540002Y-95409000I-249998J0D01*
G01*
X164714998Y-95409000D01*
G75*
G02*
X164465000Y-95159002I0J249998D01*
G01*
X164465000Y-93308998D01*
G75*
G02*
X164714998Y-93059000I249998J0D01*
G01*
X165540002Y-93059000D01*
G75*
G02*
X165790000Y-93308998I0J-249998D01*
G01*
G37*
%TD.AperFunction*%
%TO.P,CP6,2*%
%TO.N,GND*%
%TA.AperFunction,SMDPad,CuDef*%
G36*
G01*
X162715000Y-93308998D02*
X162715000Y-95159002D01*
G75*
G02*
X162465002Y-95409000I-249998J0D01*
G01*
X161639998Y-95409000D01*
G75*
G02*
X161390000Y-95159002I0J249998D01*
G01*
X161390000Y-93308998D01*
G75*
G02*
X161639998Y-93059000I249998J0D01*
G01*
X162465002Y-93059000D01*
G75*
G02*
X162715000Y-93308998I0J-249998D01*
G01*
G37*
%TD.AperFunction*%
%TD*%
%TO.P,CP7,2*%
%TO.N,GND*%
%TA.AperFunction,SMDPad,CuDef*%
G36*
G01*
X162701000Y-96864998D02*
X162701000Y-98715002D01*
G75*
G02*
X162451002Y-98965000I-249998J0D01*
G01*
X161625998Y-98965000D01*
G75*
G02*
X161376000Y-98715002I0J249998D01*
G01*
X161376000Y-96864998D01*
G75*
G02*
X161625998Y-96615000I249998J0D01*
G01*
X162451002Y-96615000D01*
G75*
G02*
X162701000Y-96864998I0J-249998D01*
G01*
G37*
%TD.AperFunction*%
%TO.P,CP7,1*%
%TO.N,+BATT*%
%TA.AperFunction,SMDPad,CuDef*%
G36*
G01*
X165776000Y-96864998D02*
X165776000Y-98715002D01*
G75*
G02*
X165526002Y-98965000I-249998J0D01*
G01*
X164700998Y-98965000D01*
G75*
G02*
X164451000Y-98715002I0J249998D01*
G01*
X164451000Y-96864998D01*
G75*
G02*
X164700998Y-96615000I249998J0D01*
G01*
X165526002Y-96615000D01*
G75*
G02*
X165776000Y-96864998I0J-249998D01*
G01*
G37*
%TD.AperFunction*%
%TD*%
%TO.P,R1,1*%
%TO.N,Net-(CP2-Pad1)*%
%TA.AperFunction,SMDPad,CuDef*%
G36*
G01*
X167619000Y-99105000D02*
X168169000Y-99105000D01*
G75*
G02*
X168369000Y-99305000I0J-200000D01*
G01*
X168369000Y-99705000D01*
G75*
G02*
X168169000Y-99905000I-200000J0D01*
G01*
X167619000Y-99905000D01*
G75*
G02*
X167419000Y-99705000I0J200000D01*
G01*
X167419000Y-99305000D01*
G75*
G02*
X167619000Y-99105000I200000J0D01*
G01*
G37*
%TD.AperFunction*%
%TO.P,R1,2*%
%TO.N,5VIN*%
%TA.AperFunction,SMDPad,CuDef*%
G36*
G01*
X167619000Y-100755000D02*
X168169000Y-100755000D01*
G75*
G02*
X168369000Y-100955000I0J-200000D01*
G01*
X168369000Y-101355000D01*
G75*
G02*
X168169000Y-101555000I-200000J0D01*
G01*
X167619000Y-101555000D01*
G75*
G02*
X167419000Y-101355000I0J200000D01*
G01*
X167419000Y-100955000D01*
G75*
G02*
X167619000Y-100755000I200000J0D01*
G01*
G37*
%TD.AperFunction*%
%TD*%
%TO.P,R2,2*%
%TO.N,Net-(C2-Pad2)*%
%TA.AperFunction,SMDPad,CuDef*%
G36*
G01*
X168169000Y-104477000D02*
X167619000Y-104477000D01*
G75*
G02*
X167419000Y-104277000I0J200000D01*
G01*
X167419000Y-103877000D01*
G75*
G02*
X167619000Y-103677000I200000J0D01*
G01*
X168169000Y-103677000D01*
G75*
G02*
X168369000Y-103877000I0J-200000D01*
G01*
X168369000Y-104277000D01*
G75*
G02*
X168169000Y-104477000I-200000J0D01*
G01*
G37*
%TD.AperFunction*%
%TO.P,R2,1*%
%TO.N,5VIN*%
%TA.AperFunction,SMDPad,CuDef*%
G36*
G01*
X168169000Y-106127000D02*
X167619000Y-106127000D01*
G75*
G02*
X167419000Y-105927000I0J200000D01*
G01*
X167419000Y-105527000D01*
G75*
G02*
X167619000Y-105327000I200000J0D01*
G01*
X168169000Y-105327000D01*
G75*
G02*
X168369000Y-105527000I0J-200000D01*
G01*
X168369000Y-105927000D01*
G75*
G02*
X168169000Y-106127000I-200000J0D01*
G01*
G37*
%TD.AperFunction*%
%TD*%
%TO.P,R3,1*%
%TO.N,Net-(C7-Pad1)*%
%TA.AperFunction,SMDPad,CuDef*%
G36*
G01*
X138475000Y-114829000D02*
X138475000Y-114279000D01*
G75*
G02*
X138675000Y-114079000I200000J0D01*
G01*
X139075000Y-114079000D01*
G75*
G02*
X139275000Y-114279000I0J-200000D01*
G01*
X139275000Y-114829000D01*
G75*
G02*
X139075000Y-115029000I-200000J0D01*
G01*
X138675000Y-115029000D01*
G75*
G02*
X138475000Y-114829000I0J200000D01*
G01*
G37*
%TD.AperFunction*%
%TO.P,R3,2*%
%TO.N,SDA*%
%TA.AperFunction,SMDPad,CuDef*%
G36*
G01*
X140125000Y-114829000D02*
X140125000Y-114279000D01*
G75*
G02*
X140325000Y-114079000I200000J0D01*
G01*
X140725000Y-114079000D01*
G75*
G02*
X140925000Y-114279000I0J-200000D01*
G01*
X140925000Y-114829000D01*
G75*
G02*
X140725000Y-115029000I-200000J0D01*
G01*
X140325000Y-115029000D01*
G75*
G02*
X140125000Y-114829000I0J200000D01*
G01*
G37*
%TD.AperFunction*%
%TD*%
%TO.P,R4,2*%
%TO.N,SCL*%
%TA.AperFunction,SMDPad,CuDef*%
G36*
G01*
X140125000Y-112543000D02*
X140125000Y-111993000D01*
G75*
G02*
X140325000Y-111793000I200000J0D01*
G01*
X140725000Y-111793000D01*
G75*
G02*
X140925000Y-111993000I0J-200000D01*
G01*
X140925000Y-112543000D01*
G75*
G02*
X140725000Y-112743000I-200000J0D01*
G01*
X140325000Y-112743000D01*
G75*
G02*
X140125000Y-112543000I0J200000D01*
G01*
G37*
%TD.AperFunction*%
%TO.P,R4,1*%
%TO.N,Net-(C7-Pad1)*%
%TA.AperFunction,SMDPad,CuDef*%
G36*
G01*
X138475000Y-112543000D02*
X138475000Y-111993000D01*
G75*
G02*
X138675000Y-111793000I200000J0D01*
G01*
X139075000Y-111793000D01*
G75*
G02*
X139275000Y-111993000I0J-200000D01*
G01*
X139275000Y-112543000D01*
G75*
G02*
X139075000Y-112743000I-200000J0D01*
G01*
X138675000Y-112743000D01*
G75*
G02*
X138475000Y-112543000I0J200000D01*
G01*
G37*
%TD.AperFunction*%
%TD*%
%TO.P,R5,1*%
%TO.N,+BATT*%
%TA.AperFunction,SMDPad,CuDef*%
G36*
G01*
X165471002Y-91687000D02*
X164220998Y-91687000D01*
G75*
G02*
X163971000Y-91437002I0J249998D01*
G01*
X163971000Y-90811998D01*
G75*
G02*
X164220998Y-90562000I249998J0D01*
G01*
X165471002Y-90562000D01*
G75*
G02*
X165721000Y-90811998I0J-249998D01*
G01*
X165721000Y-91437002D01*
G75*
G02*
X165471002Y-91687000I-249998J0D01*
G01*
G37*
%TD.AperFunction*%
%TO.P,R5,2*%
%TO.N,Net-(C4-Pad1)*%
%TA.AperFunction,SMDPad,CuDef*%
G36*
G01*
X165471002Y-88762000D02*
X164220998Y-88762000D01*
G75*
G02*
X163971000Y-88512002I0J249998D01*
G01*
X163971000Y-87886998D01*
G75*
G02*
X164220998Y-87637000I249998J0D01*
G01*
X165471002Y-87637000D01*
G75*
G02*
X165721000Y-87886998I0J-249998D01*
G01*
X165721000Y-88512002D01*
G75*
G02*
X165471002Y-88762000I-249998J0D01*
G01*
G37*
%TD.AperFunction*%
%TD*%
%TO.P,C7,1*%
%TO.N,Net-(C7-Pad1)*%
%TA.AperFunction,SMDPad,CuDef*%
G36*
G01*
X138475000Y-117090000D02*
X138475000Y-116590000D01*
G75*
G02*
X138700000Y-116365000I225000J0D01*
G01*
X139150000Y-116365000D01*
G75*
G02*
X139375000Y-116590000I0J-225000D01*
G01*
X139375000Y-117090000D01*
G75*
G02*
X139150000Y-117315000I-225000J0D01*
G01*
X138700000Y-117315000D01*
G75*
G02*
X138475000Y-117090000I0J225000D01*
G01*
G37*
%TD.AperFunction*%
%TO.P,C7,2*%
%TO.N,GND*%
%TA.AperFunction,SMDPad,CuDef*%
G36*
G01*
X140025000Y-117090000D02*
X140025000Y-116590000D01*
G75*
G02*
X140250000Y-116365000I225000J0D01*
G01*
X140700000Y-116365000D01*
G75*
G02*
X140925000Y-116590000I0J-225000D01*
G01*
X140925000Y-117090000D01*
G75*
G02*
X140700000Y-117315000I-225000J0D01*
G01*
X140250000Y-117315000D01*
G75*
G02*
X140025000Y-117090000I0J225000D01*
G01*
G37*
%TD.AperFunction*%
%TD*%
D16*
%TO.P,IC1,1*%
%TO.N,Net-(C4-Pad1)*%
X148254000Y-121031000D03*
%TO.P,IC1,2*%
%TO.N,GND*%
X148254000Y-119761000D03*
%TO.P,IC1,3*%
%TO.N,Net-(C3-Pad2)*%
X148254000Y-118491000D03*
%TO.P,IC1,4*%
X148254000Y-117221000D03*
%TO.P,IC1,5*%
%TO.N,5VOUT*%
X148254000Y-115951000D03*
%TO.P,IC1,6*%
X148254000Y-114681000D03*
%TO.P,IC1,7*%
%TO.N,5VIN*%
X148254000Y-113411000D03*
%TO.P,IC1,8*%
%TO.N,GND*%
X148254000Y-112141000D03*
%TO.P,IC1,9*%
%TO.N,SCL*%
X142830000Y-112141000D03*
%TO.P,IC1,10*%
%TO.N,SDA*%
X142830000Y-113411000D03*
%TO.P,IC1,11*%
%TO.N,IRQ*%
X142830000Y-114681000D03*
%TO.P,IC1,12*%
%TO.N,Net-(C7-Pad1)*%
X142830000Y-115951000D03*
%TO.P,IC1,13*%
%TO.N,Net-(IC1-Pad13)*%
X142830000Y-117221000D03*
%TO.P,IC1,14*%
%TO.N,GND*%
X142830000Y-118491000D03*
%TO.P,IC1,15*%
%TO.N,Net-(IC1-Pad15)*%
X142830000Y-119761000D03*
%TO.P,IC1,16*%
%TO.N,+BATT*%
X142830000Y-121031000D03*
D17*
%TO.P,IC1,17*%
%TO.N,GND*%
X145542000Y-116586000D03*
%TD*%
D18*
%TO.P,L1,2*%
%TO.N,Net-(C3-Pad2)*%
X147721000Y-125984000D03*
%TO.P,L1,1*%
%TO.N,Net-(C4-Pad1)*%
X143871000Y-125984000D03*
%TD*%
%TO.P,L2,1*%
%TO.N,+3V3*%
X171089000Y-123952000D03*
%TO.P,L2,2*%
%TO.N,Net-(IC2-Pad3)*%
X167239000Y-123952000D03*
%TD*%
%TO.P,R6,2*%
%TO.N,EXTPOW*%
%TA.AperFunction,SMDPad,CuDef*%
G36*
G01*
X171725000Y-99905000D02*
X171175000Y-99905000D01*
G75*
G02*
X170975000Y-99705000I0J200000D01*
G01*
X170975000Y-99305000D01*
G75*
G02*
X171175000Y-99105000I200000J0D01*
G01*
X171725000Y-99105000D01*
G75*
G02*
X171925000Y-99305000I0J-200000D01*
G01*
X171925000Y-99705000D01*
G75*
G02*
X171725000Y-99905000I-200000J0D01*
G01*
G37*
%TD.AperFunction*%
%TO.P,R6,1*%
%TO.N,5VIN*%
%TA.AperFunction,SMDPad,CuDef*%
G36*
G01*
X171725000Y-101555000D02*
X171175000Y-101555000D01*
G75*
G02*
X170975000Y-101355000I0J200000D01*
G01*
X170975000Y-100955000D01*
G75*
G02*
X171175000Y-100755000I200000J0D01*
G01*
X171725000Y-100755000D01*
G75*
G02*
X171925000Y-100955000I0J-200000D01*
G01*
X171925000Y-101355000D01*
G75*
G02*
X171725000Y-101555000I-200000J0D01*
G01*
G37*
%TD.AperFunction*%
%TD*%
%TO.P,R7,1*%
%TO.N,EXTPOW*%
%TA.AperFunction,SMDPad,CuDef*%
G36*
G01*
X169947000Y-101555000D02*
X169397000Y-101555000D01*
G75*
G02*
X169197000Y-101355000I0J200000D01*
G01*
X169197000Y-100955000D01*
G75*
G02*
X169397000Y-100755000I200000J0D01*
G01*
X169947000Y-100755000D01*
G75*
G02*
X170147000Y-100955000I0J-200000D01*
G01*
X170147000Y-101355000D01*
G75*
G02*
X169947000Y-101555000I-200000J0D01*
G01*
G37*
%TD.AperFunction*%
%TO.P,R7,2*%
%TO.N,GND*%
%TA.AperFunction,SMDPad,CuDef*%
G36*
G01*
X169947000Y-99905000D02*
X169397000Y-99905000D01*
G75*
G02*
X169197000Y-99705000I0J200000D01*
G01*
X169197000Y-99305000D01*
G75*
G02*
X169397000Y-99105000I200000J0D01*
G01*
X169947000Y-99105000D01*
G75*
G02*
X170147000Y-99305000I0J-200000D01*
G01*
X170147000Y-99705000D01*
G75*
G02*
X169947000Y-99905000I-200000J0D01*
G01*
G37*
%TD.AperFunction*%
%TD*%
D12*
%TO.P,J3,1*%
%TO.N,+3V3*%
X172974000Y-109220000D03*
D11*
%TO.P,J3,2*%
%TO.N,Net-(J3-Pad2)*%
X170434000Y-109220000D03*
%TO.P,J3,3*%
%TO.N,Net-(J3-Pad3)*%
X167894000Y-109220000D03*
%TO.P,J3,4*%
%TO.N,Net-(J3-Pad4)*%
X165354000Y-109220000D03*
%TO.P,J3,5*%
%TO.N,Net-(J3-Pad5)*%
X162814000Y-109220000D03*
%TO.P,J3,6*%
%TO.N,EXTPOW*%
X160274000Y-109220000D03*
%TO.P,J3,7*%
%TO.N,Net-(J3-Pad7)*%
X157734000Y-109220000D03*
%TO.P,J3,8*%
%TO.N,Net-(J3-Pad8)*%
X155194000Y-109220000D03*
%TO.P,J3,9*%
%TO.N,Net-(J3-Pad9)*%
X152654000Y-109220000D03*
%TO.P,J3,10*%
%TO.N,Net-(J3-Pad10)*%
X150114000Y-109220000D03*
%TO.P,J3,11*%
%TO.N,INT*%
X147574000Y-109220000D03*
%TO.P,J3,12*%
%TO.N,Net-(J3-Pad12)*%
X145034000Y-109220000D03*
%TO.P,J3,13*%
%TO.N,Net-(J3-Pad13)*%
X142494000Y-109220000D03*
%TO.P,J3,14*%
%TO.N,Net-(J3-Pad14)*%
X139954000Y-109220000D03*
%TO.P,J3,15*%
%TO.N,CANH*%
X134874000Y-132080000D03*
%TO.P,J3,16*%
%TO.N,CANL*%
X137414000Y-132080000D03*
%TO.P,J3,17*%
%TO.N,Net-(J3-Pad17)*%
X139954000Y-132080000D03*
%TO.P,J3,18*%
%TO.N,Net-(J3-Pad18)*%
X142494000Y-132080000D03*
%TO.P,J3,19*%
%TO.N,Net-(J3-Pad19)*%
X145034000Y-132080000D03*
%TO.P,J3,20*%
%TO.N,Net-(J3-Pad20)*%
X147574000Y-132080000D03*
%TO.P,J3,21*%
%TO.N,Net-(J3-Pad21)*%
X150114000Y-132080000D03*
%TO.P,J3,22*%
%TO.N,Net-(J3-Pad22)*%
X152654000Y-132080000D03*
%TO.P,J3,23*%
%TO.N,Net-(J3-Pad23)*%
X155194000Y-132080000D03*
%TO.P,J3,24*%
%TO.N,Net-(J3-Pad24)*%
X157734000Y-132080000D03*
%TO.P,J3,25*%
%TO.N,SDA*%
X160274000Y-132080000D03*
%TO.P,J3,26*%
%TO.N,Net-(J3-Pad26)*%
X162814000Y-132080000D03*
%TO.P,J3,27*%
%TO.N,Net-(J3-Pad27)*%
X165354000Y-132080000D03*
%TO.P,J3,28*%
%TO.N,SCL*%
X167894000Y-132080000D03*
%TO.P,J3,29*%
%TO.N,Net-(J3-Pad29)*%
X170434000Y-132080000D03*
%TO.P,J3,30*%
%TO.N,GND*%
X172974000Y-132080000D03*
%TD*%
D19*
%TO.P,J1,1*%
%TO.N,Net-(J1-Pad1)*%
X128143000Y-96307000D03*
D20*
%TO.P,J1,2*%
%TO.N,Net-(J1-Pad2)*%
X128143000Y-100307000D03*
%TO.P,J1,3*%
%TO.N,Net-(J1-Pad3)*%
X128143000Y-104307000D03*
%TO.P,J1,4*%
%TO.N,Net-(J1-Pad4)*%
X128143000Y-108307000D03*
%TO.P,J1,5*%
%TO.N,GND*%
X128143000Y-112307000D03*
%TO.P,J1,6*%
%TO.N,CANH*%
X128143000Y-116307000D03*
%TO.P,J1,7*%
%TO.N,Net-(J1-Pad7)*%
X128143000Y-120307000D03*
%TO.P,J1,8*%
%TO.N,Net-(J1-Pad8)*%
X128143000Y-124307000D03*
%TO.P,J1,9*%
%TO.N,Net-(J1-Pad9)*%
X131143000Y-96307000D03*
%TO.P,J1,10*%
%TO.N,Net-(J1-Pad10)*%
X131143000Y-100307000D03*
%TO.P,J1,11*%
%TO.N,Net-(J1-Pad11)*%
X131143000Y-104307000D03*
%TO.P,J1,12*%
%TO.N,Net-(J1-Pad12)*%
X131143000Y-108307000D03*
%TO.P,J1,13*%
%TO.N,Net-(J1-Pad13)*%
X131143000Y-112307000D03*
%TO.P,J1,14*%
%TO.N,CANL*%
X131143000Y-116307000D03*
%TO.P,J1,15*%
%TO.N,Net-(J1-Pad15)*%
X131143000Y-120307000D03*
%TO.P,J1,16*%
%TO.N,+12V*%
X131143000Y-124307000D03*
%TD*%
D21*
%TO.N,+BATT*%
X145376900Y-122405200D03*
%TO.N,GND*%
X144907000Y-116052633D03*
X144907000Y-114935000D03*
X154870800Y-122680700D03*
X140551300Y-120206300D03*
X151892000Y-125006600D03*
X163131000Y-122783700D03*
X160724700Y-97586500D03*
X153930000Y-112274000D03*
X149617900Y-112149600D03*
X133924000Y-94052300D03*
X161443100Y-89651600D03*
X169658100Y-112289700D03*
X162052000Y-113450500D03*
X160724700Y-101321700D03*
X160731700Y-93825700D03*
X168815100Y-100285400D03*
X144907000Y-118287900D03*
X144907000Y-117170266D03*
X146177000Y-117170266D03*
X146177000Y-114935000D03*
X146177000Y-118287900D03*
X146177000Y-116052633D03*
%TO.N,+12V*%
X134927100Y-105726700D03*
%TO.N,5VIN*%
X154884000Y-107355700D03*
%TD*%
D22*
%TO.N,+BATT*%
X164061000Y-91124500D02*
X162993500Y-91124500D01*
X162993500Y-91124500D02*
X162560000Y-90691000D01*
X164846000Y-91124500D02*
X164061000Y-91124500D01*
X165113500Y-97790000D02*
X164061000Y-96737500D01*
X164061000Y-96737500D02*
X164061000Y-91124500D01*
X170942000Y-92456000D02*
X166177500Y-92456000D01*
X166177500Y-92456000D02*
X164846000Y-91124500D01*
X142830000Y-121031000D02*
X143992800Y-121031000D01*
X145376900Y-122405200D02*
X145213000Y-122241300D01*
X145213000Y-122241300D02*
X145213000Y-122241200D01*
X145213000Y-122241200D02*
X145203000Y-122241200D01*
X145203000Y-122241200D02*
X143992800Y-121031000D01*
%TO.N,GND*%
X144907000Y-117576800D02*
X145338900Y-117144900D01*
X145542000Y-116941800D02*
X145542000Y-116586000D01*
X143992800Y-118491000D02*
X144907000Y-117576800D01*
X144907000Y-117576800D02*
X145618100Y-118287900D01*
X148254000Y-119761000D02*
X147091200Y-119761000D01*
X154870800Y-122680700D02*
X155941700Y-122680700D01*
X155941700Y-122680700D02*
X155943000Y-122682000D01*
X140475000Y-118491000D02*
X140475000Y-116840000D01*
X140475000Y-119126000D02*
X140475000Y-118491000D01*
X140475000Y-118491000D02*
X141667200Y-118491000D01*
X142830000Y-118491000D02*
X141667200Y-118491000D01*
X140551300Y-120206300D02*
X140551300Y-119202300D01*
X140551300Y-119202300D02*
X140475000Y-119126000D01*
X162052000Y-113450500D02*
X162052000Y-115853800D01*
X162052000Y-115853800D02*
X161481000Y-116424800D01*
X161481000Y-116424800D02*
X161481000Y-117094000D01*
X162052000Y-112238000D02*
X162052000Y-113450500D01*
X160731700Y-93825700D02*
X160505100Y-94052300D01*
X160505100Y-94052300D02*
X158906000Y-94052300D01*
X162052500Y-94234000D02*
X161644200Y-93825700D01*
X161644200Y-93825700D02*
X160731700Y-93825700D01*
X158906000Y-91552000D02*
X158906000Y-94052300D01*
X151892000Y-125006600D02*
X151892000Y-123711500D01*
X142830000Y-118491000D02*
X143992800Y-118491000D01*
X163131000Y-121666000D02*
X163131000Y-122783700D01*
X160724700Y-97586500D02*
X161835000Y-97586500D01*
X161835000Y-97586500D02*
X162038500Y-97790000D01*
X153930000Y-112274000D02*
X156392500Y-112274000D01*
X156392500Y-112274000D02*
X156718000Y-112599500D01*
X152146000Y-112599500D02*
X152471500Y-112274000D01*
X152471500Y-112274000D02*
X153930000Y-112274000D01*
X148254000Y-112141000D02*
X149416800Y-112141000D01*
X149617900Y-112149600D02*
X149425400Y-112149600D01*
X149425400Y-112149600D02*
X149416800Y-112141000D01*
X133924000Y-94052300D02*
X135226000Y-94052300D01*
X135226000Y-91552000D02*
X135226000Y-94052300D01*
X161443100Y-89651600D02*
X162049400Y-89651600D01*
X162049400Y-89651600D02*
X162560000Y-89141000D01*
X169658100Y-112289700D02*
X167187800Y-112289700D01*
X167187800Y-112289700D02*
X166878000Y-112599500D01*
X171450000Y-112599500D02*
X171140200Y-112289700D01*
X171140200Y-112289700D02*
X169658100Y-112289700D01*
X160724700Y-101321700D02*
X162014200Y-101321700D01*
X162014200Y-101321700D02*
X162038500Y-101346000D01*
X168815100Y-100285400D02*
X168891600Y-100285400D01*
X168891600Y-100285400D02*
X169672000Y-99505000D01*
X145618100Y-118287900D02*
X147091200Y-119761000D01*
X145338900Y-117144900D02*
X145542000Y-116941800D01*
D23*
%TO.N,Net-(C3-Pad2)*%
X149341800Y-121657700D02*
X154681300Y-121657700D01*
X154681300Y-121657700D02*
X155943000Y-120396000D01*
X147721000Y-122908700D02*
X148090800Y-122908700D01*
X148090800Y-122908700D02*
X149341800Y-121657700D01*
X149341800Y-121657700D02*
X149341800Y-118491000D01*
X147721000Y-125984000D02*
X147721000Y-122908700D01*
X148254000Y-118491000D02*
X149341800Y-118491000D01*
X148254000Y-117221000D02*
X149341800Y-117221000D01*
X149341800Y-117221000D02*
X149341800Y-118491000D01*
%TO.N,SCL*%
X140525000Y-112141000D02*
X139802400Y-111418400D01*
X139802400Y-111418400D02*
X138474600Y-111418400D01*
X138474600Y-111418400D02*
X138142800Y-111750200D01*
X138142800Y-111750200D02*
X138142800Y-124552100D01*
X138142800Y-124552100D02*
X143546600Y-129955900D01*
X143546600Y-129955900D02*
X164961900Y-129955900D01*
X164961900Y-129955900D02*
X166718700Y-131712700D01*
X166718700Y-131712700D02*
X166718700Y-132080000D01*
X140525000Y-112141000D02*
X140525000Y-112268000D01*
X140525000Y-112141000D02*
X141742200Y-112141000D01*
X142830000Y-112141000D02*
X141742200Y-112141000D01*
X167894000Y-132080000D02*
X166718700Y-132080000D01*
%TO.N,SDA*%
X143917800Y-113411000D02*
X143917800Y-111642600D01*
X143917800Y-111642600D02*
X143194900Y-110919700D01*
X143194900Y-110919700D02*
X138336400Y-110919700D01*
X138336400Y-110919700D02*
X137686300Y-111569800D01*
X137686300Y-111569800D02*
X137686300Y-124732700D01*
X137686300Y-124732700D02*
X143387000Y-130433400D01*
X143387000Y-130433400D02*
X157819500Y-130433400D01*
X157819500Y-130433400D02*
X159098700Y-131712600D01*
X159098700Y-131712600D02*
X159098700Y-132080000D01*
X142830000Y-113411000D02*
X143917800Y-113411000D01*
X160274000Y-132080000D02*
X159098700Y-132080000D01*
X142830000Y-113411000D02*
X141668000Y-113411000D01*
X141668000Y-113411000D02*
X140525000Y-114554000D01*
D22*
%TO.N,+12V*%
X135226000Y-103012000D02*
X135226000Y-105512300D01*
X134927100Y-105726700D02*
X135141500Y-105512300D01*
X135141500Y-105512300D02*
X135226000Y-105512300D01*
D23*
%TO.N,CANL*%
X137414000Y-132080000D02*
X137414000Y-130904700D01*
X131143000Y-116307000D02*
X136963700Y-122127700D01*
X136963700Y-122127700D02*
X136963700Y-130454400D01*
X136963700Y-130454400D02*
X137414000Y-130904700D01*
%TO.N,CANH*%
X128143000Y-116307000D02*
X130355300Y-118519300D01*
X130355300Y-118519300D02*
X131593500Y-118519300D01*
X131593500Y-118519300D02*
X134874000Y-121799800D01*
X134874000Y-121799800D02*
X134874000Y-132080000D01*
D22*
%TO.N,5VOUT*%
X149416800Y-115951000D02*
X150572500Y-115951000D01*
X150572500Y-115951000D02*
X152146000Y-117524500D01*
X149266700Y-115951000D02*
X149416800Y-115951000D01*
X149416800Y-115951000D02*
X149416800Y-114681000D01*
X161102000Y-114838000D02*
X161102000Y-115838300D01*
X160624800Y-119380000D02*
X161481000Y-119380000D01*
X157493000Y-119380000D02*
X160624800Y-119380000D01*
X160624800Y-119380000D02*
X160624800Y-116315500D01*
X160624800Y-116315500D02*
X161102000Y-115838300D01*
X156718000Y-117524500D02*
X152146000Y-117524500D01*
X157493000Y-119380000D02*
X157493000Y-118299500D01*
X157493000Y-118299500D02*
X156718000Y-117524500D01*
X157493000Y-120396000D02*
X157493000Y-119380000D01*
X151892000Y-120636500D02*
X152146000Y-120382500D01*
X152146000Y-120382500D02*
X152146000Y-117524500D01*
X157493000Y-120396000D02*
X157493000Y-122682000D01*
X148254000Y-115951000D02*
X149266700Y-115951000D01*
X148254000Y-114681000D02*
X149416800Y-114681000D01*
%TO.N,+3V3*%
X171089000Y-123952000D02*
X171089000Y-127102300D01*
X171089000Y-127102300D02*
X163995300Y-127102300D01*
X163995300Y-127102300D02*
X163131000Y-126238000D01*
X171089000Y-117885500D02*
X171089000Y-123952000D01*
X171089000Y-117885500D02*
X171450000Y-117524500D01*
X171089000Y-117885500D02*
X167239000Y-117885500D01*
X167239000Y-117885500D02*
X166878000Y-117524500D01*
X163131000Y-126238000D02*
X163081000Y-126188000D01*
X163081000Y-126188000D02*
X163081000Y-123952000D01*
X172974000Y-109220000D02*
X172974000Y-110470300D01*
X172974000Y-110470300D02*
X173039400Y-110535700D01*
X173039400Y-110535700D02*
X173039400Y-115935100D01*
X173039400Y-115935100D02*
X171450000Y-117524500D01*
D23*
%TO.N,Net-(C6-Pad2)*%
X161481000Y-121666000D02*
X162277500Y-120869500D01*
X162277500Y-120869500D02*
X162277500Y-116487800D01*
X162277500Y-116487800D02*
X163002000Y-115763300D01*
X161481000Y-121666000D02*
X161531000Y-121716000D01*
X161531000Y-121716000D02*
X161531000Y-123952000D01*
X163002000Y-114838000D02*
X163002000Y-115763300D01*
X161481000Y-126238000D02*
X161481000Y-124002000D01*
X161481000Y-124002000D02*
X161531000Y-123952000D01*
%TO.N,Net-(IC2-Pad1)*%
X163131000Y-117094000D02*
X163131000Y-119380000D01*
X163002000Y-113163300D02*
X163627300Y-113788600D01*
X163627300Y-113788600D02*
X163627300Y-116597700D01*
X163627300Y-116597700D02*
X163131000Y-117094000D01*
X163002000Y-112238000D02*
X163002000Y-113163300D01*
%TO.N,Net-(IC2-Pad3)*%
X167239000Y-123952000D02*
X165838700Y-123952000D01*
X161102000Y-112238000D02*
X161102000Y-111312700D01*
X161102000Y-111312700D02*
X163474700Y-111312700D01*
X163474700Y-111312700D02*
X164693900Y-112531900D01*
X164693900Y-112531900D02*
X164693900Y-122807200D01*
X164693900Y-122807200D02*
X165838700Y-123952000D01*
D22*
%TO.N,5VIN*%
X158906000Y-103012000D02*
X158906000Y-105512300D01*
X159034500Y-106512200D02*
X158191000Y-107355700D01*
X158191000Y-107355700D02*
X154884000Y-107355700D01*
X158906000Y-105512300D02*
X159034500Y-105640800D01*
X159034500Y-105640800D02*
X159034500Y-106512200D01*
X159034500Y-106512200D02*
X163503300Y-106512200D01*
X163503300Y-106512200D02*
X165113500Y-104902000D01*
X167894000Y-105727000D02*
X165938500Y-105727000D01*
X165938500Y-105727000D02*
X165113500Y-104902000D01*
X148254000Y-113411000D02*
X149488500Y-113411000D01*
X149488500Y-113411000D02*
X150418300Y-112481200D01*
X150418300Y-112481200D02*
X150418300Y-111485000D01*
X150418300Y-111485000D02*
X151384000Y-110519300D01*
X151384000Y-110519300D02*
X151384000Y-108686700D01*
X151384000Y-108686700D02*
X152715000Y-107355700D01*
X152715000Y-107355700D02*
X154884000Y-107355700D01*
X169672000Y-105677000D02*
X169622000Y-105727000D01*
X169622000Y-105727000D02*
X167894000Y-105727000D01*
X170548300Y-102003300D02*
X170548300Y-104800700D01*
X170548300Y-104800700D02*
X169672000Y-105677000D01*
X170548300Y-102003300D02*
X170601700Y-102003300D01*
X170601700Y-102003300D02*
X171450000Y-101155000D01*
X167894000Y-101155000D02*
X168742300Y-102003300D01*
X168742300Y-102003300D02*
X170548300Y-102003300D01*
D23*
%TO.N,Net-(C2-Pad2)*%
X162038500Y-104902000D02*
X163578200Y-103362300D01*
X163578200Y-103362300D02*
X167179300Y-103362300D01*
X167179300Y-103362300D02*
X167894000Y-104077000D01*
X167894000Y-104077000D02*
X167944000Y-104127000D01*
X167944000Y-104127000D02*
X169672000Y-104127000D01*
%TO.N,Net-(C4-Pad1)*%
X143871000Y-125984000D02*
X143871000Y-129059300D01*
X171922000Y-93706500D02*
X165655000Y-93706500D01*
X165655000Y-93706500D02*
X165127500Y-94234000D01*
X164846000Y-88199500D02*
X168910500Y-88199500D01*
X168910500Y-88199500D02*
X172301500Y-91590500D01*
X172301500Y-91590500D02*
X172301500Y-93327000D01*
X172301500Y-93327000D02*
X171922000Y-93706500D01*
X143871000Y-129059300D02*
X170345900Y-129059300D01*
X170345900Y-129059300D02*
X174149400Y-125255800D01*
X174149400Y-125255800D02*
X174149400Y-95933900D01*
X174149400Y-95933900D02*
X171922000Y-93706500D01*
X143871000Y-124446300D02*
X143871000Y-125984000D01*
X148254000Y-121031000D02*
X147166200Y-121031000D01*
X143871000Y-123677500D02*
X145195000Y-123677500D01*
X145195000Y-123677500D02*
X147166200Y-121706300D01*
X147166200Y-121706300D02*
X147166200Y-121031000D01*
X143871000Y-123677500D02*
X143871000Y-122908700D01*
X143871000Y-124446300D02*
X143871000Y-123677500D01*
X138925000Y-119126000D02*
X138925000Y-119671200D01*
X138925000Y-119671200D02*
X142162500Y-122908700D01*
X142162500Y-122908700D02*
X143871000Y-122908700D01*
%TO.N,Net-(CP2-Pad1)*%
X165113500Y-101346000D02*
X166954500Y-99505000D01*
X166954500Y-99505000D02*
X167894000Y-99505000D01*
%TO.N,Net-(C7-Pad1)*%
X138875000Y-112268000D02*
X138875000Y-114554000D01*
X140043000Y-115722000D02*
X138875000Y-114554000D01*
X142830000Y-115951000D02*
X140272000Y-115951000D01*
X140272000Y-115951000D02*
X140043000Y-115722000D01*
X140043000Y-115722000D02*
X138925000Y-116840000D01*
%TO.N,EXTPOW*%
X160274000Y-109220000D02*
X161449300Y-109220000D01*
X161449300Y-109220000D02*
X161449300Y-109587300D01*
X161449300Y-109587300D02*
X162341400Y-110479400D01*
X162341400Y-110479400D02*
X163297600Y-110479400D01*
X163297600Y-110479400D02*
X164084000Y-109693000D01*
X164084000Y-109693000D02*
X164084000Y-108765800D01*
X164084000Y-108765800D02*
X166317800Y-106532000D01*
X166317800Y-106532000D02*
X170071700Y-106532000D01*
X170071700Y-106532000D02*
X172267200Y-104336500D01*
X172267200Y-104336500D02*
X172267200Y-100322200D01*
X172267200Y-100322200D02*
X171450000Y-99505000D01*
X169672000Y-101155000D02*
X171322000Y-99505000D01*
X171322000Y-99505000D02*
X171450000Y-99505000D01*
%TD*%
M02*
