G04 #@! TF.GenerationSoftware,KiCad,Pcbnew,(5.1.10)-1*
G04 #@! TF.CreationDate,2021-11-05T15:58:08+01:00*
G04 #@! TF.ProjectId,pcb-esp32-power,7063622d-6573-4703-9332-2d706f776572,rev?*
G04 #@! TF.SameCoordinates,Original*
G04 #@! TF.FileFunction,Legend,Top*
G04 #@! TF.FilePolarity,Positive*
%FSLAX46Y46*%
G04 Gerber Fmt 4.6, Leading zero omitted, Abs format (unit mm)*
G04 Created by KiCad (PCBNEW (5.1.10)-1) date 2021-11-05 15:58:08*
%MOMM*%
%LPD*%
G01*
G04 APERTURE LIST*
%ADD10C,0.120000*%
%ADD11C,0.127000*%
%ADD12C,0.200000*%
%ADD13C,0.025400*%
%ADD14C,0.152400*%
%ADD15C,0.100000*%
%ADD16C,0.150000*%
%ADD17O,2.000000X1.700000*%
%ADD18R,1.700000X1.700000*%
%ADD19O,1.700000X1.700000*%
%ADD20R,2.500000X2.500000*%
%ADD21C,2.500000*%
%ADD22R,1.397000X0.279400*%
%ADD23R,0.900000X1.200000*%
%ADD24R,0.250000X0.700000*%
%ADD25R,2.225000X1.650000*%
%ADD26R,0.865000X0.889000*%
%ADD27R,0.650000X0.400000*%
%ADD28R,0.800000X0.900000*%
%ADD29R,2.500000X1.800000*%
%ADD30R,1.200000X2.300000*%
G04 APERTURE END LIST*
D10*
X176196000Y-89896000D02*
X170226000Y-89896000D01*
X170226000Y-89896000D02*
X170226000Y-97516000D01*
X170226000Y-97516000D02*
X176196000Y-97516000D01*
X176196000Y-97516000D02*
X176196000Y-89896000D01*
X176186000Y-93206000D02*
X175436000Y-93206000D01*
X175436000Y-93206000D02*
X175436000Y-94206000D01*
X175436000Y-94206000D02*
X176186000Y-94206000D01*
X176186000Y-94206000D02*
X176186000Y-93206000D01*
X176186000Y-89906000D02*
X175436000Y-89906000D01*
X175436000Y-89906000D02*
X175436000Y-91706000D01*
X175436000Y-91706000D02*
X176186000Y-91706000D01*
X176186000Y-91706000D02*
X176186000Y-89906000D01*
X176186000Y-95706000D02*
X175436000Y-95706000D01*
X175436000Y-95706000D02*
X175436000Y-97506000D01*
X175436000Y-97506000D02*
X176186000Y-97506000D01*
X176186000Y-97506000D02*
X176186000Y-95706000D01*
X173936000Y-89906000D02*
X173936000Y-90656000D01*
X173936000Y-90656000D02*
X170986000Y-90656000D01*
X170986000Y-90656000D02*
X170986000Y-93706000D01*
X173936000Y-97506000D02*
X173936000Y-96756000D01*
X173936000Y-96756000D02*
X170986000Y-96756000D01*
X170986000Y-96756000D02*
X170986000Y-93706000D01*
X176486000Y-90856000D02*
X176486000Y-89606000D01*
X176486000Y-89606000D02*
X175236000Y-89606000D01*
X174304000Y-107890000D02*
X174304000Y-109220000D01*
X172974000Y-107890000D02*
X174304000Y-107890000D01*
X174304000Y-130810000D02*
X174304000Y-133350000D01*
X171704000Y-110490000D02*
X174304000Y-110490000D01*
X171704000Y-107890000D02*
X171704000Y-110490000D01*
X174304000Y-110490000D02*
X138624000Y-110490000D01*
X171704000Y-107890000D02*
X138624000Y-107890000D01*
X138624000Y-107890000D02*
X138624000Y-110490000D01*
X133604000Y-130810000D02*
X133604000Y-133350000D01*
X174244000Y-130810000D02*
X133604000Y-130810000D01*
X174244000Y-133350000D02*
X133604000Y-133350000D01*
D11*
X125893000Y-89657000D02*
X125893000Y-130957000D01*
X125893000Y-130957000D02*
X105393000Y-130957000D01*
X105393000Y-130957000D02*
X105393000Y-89657000D01*
X105393000Y-89657000D02*
X125893000Y-89657000D01*
D12*
X128243000Y-94307000D02*
G75*
G03*
X128243000Y-94307000I-100000J0D01*
G01*
D13*
G36*
X159346900Y-115267740D02*
G01*
X159346900Y-115648741D01*
X159092900Y-115648741D01*
X159092900Y-115267740D01*
X159346900Y-115267740D01*
G37*
X159346900Y-115267740D02*
X159346900Y-115648741D01*
X159092900Y-115648741D01*
X159092900Y-115267740D01*
X159346900Y-115267740D01*
D14*
X154279600Y-114782600D02*
X154279600Y-114985800D01*
X157632400Y-114782600D02*
X154279600Y-114782600D01*
X157632400Y-118135400D02*
X157632400Y-117932200D01*
X154279600Y-118135400D02*
X157632400Y-118135400D01*
X154279600Y-117932200D02*
X154279600Y-118135400D01*
X157632400Y-114985800D02*
X157632400Y-114782600D01*
D10*
X177998000Y-112182000D02*
X177998000Y-109322000D01*
X176078000Y-112182000D02*
X177998000Y-112182000D01*
X176078000Y-109322000D02*
X176078000Y-112182000D01*
X134402000Y-89932000D02*
X138302000Y-89932000D01*
X134402000Y-91932000D02*
X138302000Y-91932000D01*
X134402000Y-89932000D02*
X134402000Y-91932000D01*
D15*
X154184000Y-97814000D02*
X154384000Y-97814000D01*
X154384000Y-97814000D02*
X154384000Y-100814000D01*
X154384000Y-100814000D02*
X154184000Y-100814000D01*
X148584000Y-97814000D02*
X148384000Y-97814000D01*
X148384000Y-97814000D02*
X148384000Y-100814000D01*
X148384000Y-100814000D02*
X148584000Y-100814000D01*
X148884000Y-101314000D02*
X148884000Y-101314000D01*
X148884000Y-101414000D02*
X148884000Y-101414000D01*
X148884000Y-101414000D02*
G75*
G02*
X148884000Y-101314000I0J50000D01*
G01*
X148884000Y-101314000D02*
G75*
G02*
X148884000Y-101414000I0J-50000D01*
G01*
D10*
X159242000Y-98614000D02*
X159242000Y-100014000D01*
X158542000Y-100714000D02*
X157942000Y-100714000D01*
X157242000Y-100014000D02*
X157242000Y-98614000D01*
X157942000Y-97914000D02*
X158542000Y-97914000D01*
X159242000Y-100014000D02*
G75*
G02*
X158542000Y-100714000I-700000J0D01*
G01*
X157942000Y-100714000D02*
G75*
G02*
X157242000Y-100014000I0J700000D01*
G01*
X157242000Y-98614000D02*
G75*
G02*
X157942000Y-97914000I700000J0D01*
G01*
X158542000Y-97914000D02*
G75*
G02*
X159242000Y-98614000I0J-700000D01*
G01*
X138492000Y-100220000D02*
X139892000Y-100220000D01*
X139892000Y-97900000D02*
X137992000Y-97900000D01*
X164648000Y-90172000D02*
X164648000Y-91632000D01*
X161488000Y-90172000D02*
X161488000Y-92332000D01*
X161488000Y-90172000D02*
X162418000Y-90172000D01*
X164648000Y-90172000D02*
X163718000Y-90172000D01*
X164648000Y-98300000D02*
X163718000Y-98300000D01*
X161488000Y-98300000D02*
X162418000Y-98300000D01*
X161488000Y-98300000D02*
X161488000Y-100460000D01*
X164648000Y-98300000D02*
X164648000Y-99760000D01*
X146402000Y-93090000D02*
X141002000Y-93090000D01*
X146402000Y-89790000D02*
X141002000Y-89790000D01*
X146402000Y-93090000D02*
X146402000Y-89790000D01*
X166626000Y-120255420D02*
X166626000Y-120536580D01*
X165606000Y-120255420D02*
X165606000Y-120536580D01*
X150874000Y-124319420D02*
X150874000Y-124600580D01*
X151894000Y-124319420D02*
X151894000Y-124600580D01*
X165606000Y-116472580D02*
X165606000Y-116191420D01*
X166626000Y-116472580D02*
X166626000Y-116191420D01*
X166626000Y-124600580D02*
X166626000Y-124319420D01*
X165606000Y-124600580D02*
X165606000Y-124319420D01*
X147460580Y-103630000D02*
X147179420Y-103630000D01*
X147460580Y-104650000D02*
X147179420Y-104650000D01*
X136546000Y-99364748D02*
X136546000Y-100787252D01*
X134726000Y-99364748D02*
X134726000Y-100787252D01*
X144025252Y-98325000D02*
X143502748Y-98325000D01*
X144025252Y-99795000D02*
X143502748Y-99795000D01*
X139840580Y-101090000D02*
X139559420Y-101090000D01*
X139840580Y-102110000D02*
X139559420Y-102110000D01*
X158101420Y-96522000D02*
X158382580Y-96522000D01*
X158101420Y-95502000D02*
X158382580Y-95502000D01*
X145286000Y-95644580D02*
X145286000Y-95363420D01*
X146306000Y-95644580D02*
X146306000Y-95363420D01*
X158382580Y-93470000D02*
X158101420Y-93470000D01*
X158382580Y-94490000D02*
X158101420Y-94490000D01*
X168042000Y-92278252D02*
X168042000Y-90855748D01*
X166222000Y-92278252D02*
X166222000Y-90855748D01*
X164069500Y-103394742D02*
X164069500Y-103869258D01*
X165114500Y-103394742D02*
X165114500Y-103869258D01*
X167654500Y-103869258D02*
X167654500Y-103394742D01*
X166609500Y-103869258D02*
X166609500Y-103394742D01*
X158989500Y-103394742D02*
X158989500Y-103869258D01*
X160034500Y-103394742D02*
X160034500Y-103869258D01*
X161529500Y-103869258D02*
X161529500Y-103394742D01*
X162574500Y-103869258D02*
X162574500Y-103394742D01*
X135113500Y-108728742D02*
X135113500Y-109203258D01*
X136158500Y-108728742D02*
X136158500Y-109203258D01*
X163053500Y-120633258D02*
X163053500Y-120158742D01*
X164098500Y-120633258D02*
X164098500Y-120158742D01*
X151906500Y-116094742D02*
X151906500Y-116569258D01*
X150861500Y-116094742D02*
X150861500Y-116569258D01*
X151906500Y-120633258D02*
X151906500Y-120158742D01*
X150861500Y-120633258D02*
X150861500Y-120158742D01*
X161558500Y-116094742D02*
X161558500Y-116569258D01*
X160513500Y-116094742D02*
X160513500Y-116569258D01*
X161558500Y-124222742D02*
X161558500Y-124697258D01*
X160513500Y-124222742D02*
X160513500Y-124697258D01*
X164098500Y-116569258D02*
X164098500Y-116094742D01*
X163053500Y-116569258D02*
X163053500Y-116094742D01*
X164098500Y-124222742D02*
X164098500Y-124697258D01*
X163053500Y-124222742D02*
X163053500Y-124697258D01*
X176515500Y-105680742D02*
X176515500Y-106155258D01*
X177560500Y-105680742D02*
X177560500Y-106155258D01*
X140193500Y-95266742D02*
X140193500Y-95741258D01*
X141238500Y-95266742D02*
X141238500Y-95741258D01*
X138698500Y-95266742D02*
X138698500Y-95741258D01*
X137653500Y-95266742D02*
X137653500Y-95741258D01*
X135113500Y-95266742D02*
X135113500Y-95741258D01*
X136158500Y-95266742D02*
X136158500Y-95741258D01*
X143778500Y-95266742D02*
X143778500Y-95741258D01*
X142733500Y-95266742D02*
X142733500Y-95741258D01*
X143747258Y-104662500D02*
X143272742Y-104662500D01*
X143747258Y-103617500D02*
X143272742Y-103617500D01*
X156449500Y-103869258D02*
X156449500Y-103394742D01*
X157494500Y-103869258D02*
X157494500Y-103394742D01*
X143747258Y-101077500D02*
X143272742Y-101077500D01*
X143747258Y-102122500D02*
X143272742Y-102122500D01*
X151367258Y-104662500D02*
X150892742Y-104662500D01*
X151367258Y-103617500D02*
X150892742Y-103617500D01*
X162830742Y-93457500D02*
X163305258Y-93457500D01*
X162830742Y-94502500D02*
X163305258Y-94502500D01*
X162830742Y-96534500D02*
X163305258Y-96534500D01*
X162830742Y-95489500D02*
X163305258Y-95489500D01*
X166222000Y-97586748D02*
X166222000Y-99009252D01*
X168042000Y-97586748D02*
X168042000Y-99009252D01*
X168762000Y-118059252D02*
X168762000Y-116636748D01*
X170582000Y-118059252D02*
X170582000Y-116636748D01*
X168762000Y-122732748D02*
X168762000Y-124155252D01*
X170582000Y-122732748D02*
X170582000Y-124155252D01*
X153630000Y-93956000D02*
X153630000Y-94806000D01*
X153630000Y-94806000D02*
X148630000Y-94806000D01*
X148630000Y-94806000D02*
X148630000Y-93956000D01*
X148630000Y-90956000D02*
X148630000Y-90106000D01*
X148630000Y-90106000D02*
X153630000Y-90106000D01*
X153630000Y-90106000D02*
X153630000Y-90956000D01*
X153456000Y-121436000D02*
X153456000Y-120586000D01*
X153456000Y-120586000D02*
X158456000Y-120586000D01*
X158456000Y-120586000D02*
X158456000Y-121436000D01*
X158456000Y-124436000D02*
X158456000Y-125286000D01*
X158456000Y-125286000D02*
X153456000Y-125286000D01*
X153456000Y-125286000D02*
X153456000Y-124436000D01*
D15*
X171320666Y-93939333D02*
X171820666Y-93939333D01*
X171920666Y-93972666D01*
X171987333Y-94039333D01*
X172020666Y-94139333D01*
X172020666Y-94206000D01*
X171320666Y-93672666D02*
X171320666Y-93239333D01*
X171587333Y-93472666D01*
X171587333Y-93372666D01*
X171620666Y-93306000D01*
X171654000Y-93272666D01*
X171720666Y-93239333D01*
X171887333Y-93239333D01*
X171954000Y-93272666D01*
X171987333Y-93306000D01*
X172020666Y-93372666D01*
X172020666Y-93572666D01*
X171987333Y-93639333D01*
X171954000Y-93672666D01*
X137284666Y-109453333D02*
X137784666Y-109453333D01*
X137884666Y-109486666D01*
X137951333Y-109553333D01*
X137984666Y-109653333D01*
X137984666Y-109720000D01*
X137351333Y-109153333D02*
X137318000Y-109120000D01*
X137284666Y-109053333D01*
X137284666Y-108886666D01*
X137318000Y-108820000D01*
X137351333Y-108786666D01*
X137418000Y-108753333D01*
X137484666Y-108753333D01*
X137584666Y-108786666D01*
X137984666Y-109186666D01*
X137984666Y-108753333D01*
X172590666Y-107562333D02*
X172590666Y-107129000D01*
X172857333Y-107362333D01*
X172857333Y-107262333D01*
X172890666Y-107195666D01*
X172924000Y-107162333D01*
X172990666Y-107129000D01*
X173157333Y-107129000D01*
X173224000Y-107162333D01*
X173257333Y-107195666D01*
X173290666Y-107262333D01*
X173290666Y-107462333D01*
X173257333Y-107529000D01*
X173224000Y-107562333D01*
X172590666Y-106929000D02*
X173290666Y-106695666D01*
X172590666Y-106462333D01*
X172590666Y-106295666D02*
X172590666Y-105862333D01*
X172857333Y-106095666D01*
X172857333Y-105995666D01*
X172890666Y-105929000D01*
X172924000Y-105895666D01*
X172990666Y-105862333D01*
X173157333Y-105862333D01*
X173224000Y-105895666D01*
X173257333Y-105929000D01*
X173290666Y-105995666D01*
X173290666Y-106195666D01*
X173257333Y-106262333D01*
X173224000Y-106295666D01*
X170384000Y-107691000D02*
X170384000Y-107457666D01*
X170750666Y-107357666D02*
X170750666Y-107691000D01*
X170050666Y-107691000D01*
X170050666Y-107357666D01*
X170750666Y-107057666D02*
X170050666Y-107057666D01*
X170750666Y-106657666D01*
X170050666Y-106657666D01*
X168177333Y-107562333D02*
X168210666Y-107462333D01*
X168210666Y-107295666D01*
X168177333Y-107229000D01*
X168144000Y-107195666D01*
X168077333Y-107162333D01*
X168010666Y-107162333D01*
X167944000Y-107195666D01*
X167910666Y-107229000D01*
X167877333Y-107295666D01*
X167844000Y-107429000D01*
X167810666Y-107495666D01*
X167777333Y-107529000D01*
X167710666Y-107562333D01*
X167644000Y-107562333D01*
X167577333Y-107529000D01*
X167544000Y-107495666D01*
X167510666Y-107429000D01*
X167510666Y-107262333D01*
X167544000Y-107162333D01*
X167510666Y-106962333D02*
X168210666Y-106729000D01*
X167510666Y-106495666D01*
X168210666Y-106262333D02*
X167510666Y-106262333D01*
X167510666Y-105995666D01*
X167544000Y-105929000D01*
X167577333Y-105895666D01*
X167644000Y-105862333D01*
X167744000Y-105862333D01*
X167810666Y-105895666D01*
X167844000Y-105929000D01*
X167877333Y-105995666D01*
X167877333Y-106262333D01*
X165637333Y-107595666D02*
X165670666Y-107495666D01*
X165670666Y-107329000D01*
X165637333Y-107262333D01*
X165604000Y-107229000D01*
X165537333Y-107195666D01*
X165470666Y-107195666D01*
X165404000Y-107229000D01*
X165370666Y-107262333D01*
X165337333Y-107329000D01*
X165304000Y-107462333D01*
X165270666Y-107529000D01*
X165237333Y-107562333D01*
X165170666Y-107595666D01*
X165104000Y-107595666D01*
X165037333Y-107562333D01*
X165004000Y-107529000D01*
X164970666Y-107462333D01*
X164970666Y-107295666D01*
X165004000Y-107195666D01*
X164970666Y-106995666D02*
X165670666Y-106762333D01*
X164970666Y-106529000D01*
X165670666Y-106295666D02*
X164970666Y-106295666D01*
X165670666Y-105895666D01*
X164970666Y-105895666D01*
X163130666Y-107708333D02*
X162430666Y-107708333D01*
X162430666Y-107241666D02*
X162430666Y-107108333D01*
X162464000Y-107041666D01*
X162530666Y-106975000D01*
X162664000Y-106941666D01*
X162897333Y-106941666D01*
X163030666Y-106975000D01*
X163097333Y-107041666D01*
X163130666Y-107108333D01*
X163130666Y-107241666D01*
X163097333Y-107308333D01*
X163030666Y-107375000D01*
X162897333Y-107408333D01*
X162664000Y-107408333D01*
X162530666Y-107375000D01*
X162464000Y-107308333D01*
X162430666Y-107241666D01*
X162430666Y-106708333D02*
X162430666Y-106275000D01*
X162697333Y-106508333D01*
X162697333Y-106408333D01*
X162730666Y-106341666D01*
X162764000Y-106308333D01*
X162830666Y-106275000D01*
X162997333Y-106275000D01*
X163064000Y-106308333D01*
X163097333Y-106341666D01*
X163130666Y-106408333D01*
X163130666Y-106608333D01*
X163097333Y-106675000D01*
X163064000Y-106708333D01*
X162664000Y-105675000D02*
X163130666Y-105675000D01*
X162397333Y-105841666D02*
X162897333Y-106008333D01*
X162897333Y-105575000D01*
X160590666Y-107708333D02*
X159890666Y-107708333D01*
X159890666Y-107241666D02*
X159890666Y-107108333D01*
X159924000Y-107041666D01*
X159990666Y-106975000D01*
X160124000Y-106941666D01*
X160357333Y-106941666D01*
X160490666Y-106975000D01*
X160557333Y-107041666D01*
X160590666Y-107108333D01*
X160590666Y-107241666D01*
X160557333Y-107308333D01*
X160490666Y-107375000D01*
X160357333Y-107408333D01*
X160124000Y-107408333D01*
X159990666Y-107375000D01*
X159924000Y-107308333D01*
X159890666Y-107241666D01*
X159890666Y-106708333D02*
X159890666Y-106275000D01*
X160157333Y-106508333D01*
X160157333Y-106408333D01*
X160190666Y-106341666D01*
X160224000Y-106308333D01*
X160290666Y-106275000D01*
X160457333Y-106275000D01*
X160524000Y-106308333D01*
X160557333Y-106341666D01*
X160590666Y-106408333D01*
X160590666Y-106608333D01*
X160557333Y-106675000D01*
X160524000Y-106708333D01*
X159890666Y-105641666D02*
X159890666Y-105975000D01*
X160224000Y-106008333D01*
X160190666Y-105975000D01*
X160157333Y-105908333D01*
X160157333Y-105741666D01*
X160190666Y-105675000D01*
X160224000Y-105641666D01*
X160290666Y-105608333D01*
X160457333Y-105608333D01*
X160524000Y-105641666D01*
X160557333Y-105675000D01*
X160590666Y-105741666D01*
X160590666Y-105908333D01*
X160557333Y-105975000D01*
X160524000Y-106008333D01*
X158050666Y-107708333D02*
X157350666Y-107708333D01*
X157350666Y-107241666D02*
X157350666Y-107108333D01*
X157384000Y-107041666D01*
X157450666Y-106975000D01*
X157584000Y-106941666D01*
X157817333Y-106941666D01*
X157950666Y-106975000D01*
X158017333Y-107041666D01*
X158050666Y-107108333D01*
X158050666Y-107241666D01*
X158017333Y-107308333D01*
X157950666Y-107375000D01*
X157817333Y-107408333D01*
X157584000Y-107408333D01*
X157450666Y-107375000D01*
X157384000Y-107308333D01*
X157350666Y-107241666D01*
X157350666Y-106708333D02*
X157350666Y-106275000D01*
X157617333Y-106508333D01*
X157617333Y-106408333D01*
X157650666Y-106341666D01*
X157684000Y-106308333D01*
X157750666Y-106275000D01*
X157917333Y-106275000D01*
X157984000Y-106308333D01*
X158017333Y-106341666D01*
X158050666Y-106408333D01*
X158050666Y-106608333D01*
X158017333Y-106675000D01*
X157984000Y-106708333D01*
X157417333Y-106008333D02*
X157384000Y-105975000D01*
X157350666Y-105908333D01*
X157350666Y-105741666D01*
X157384000Y-105675000D01*
X157417333Y-105641666D01*
X157484000Y-105608333D01*
X157550666Y-105608333D01*
X157650666Y-105641666D01*
X158050666Y-106041666D01*
X158050666Y-105608333D01*
X155510666Y-107708333D02*
X154810666Y-107708333D01*
X154810666Y-107241666D02*
X154810666Y-107108333D01*
X154844000Y-107041666D01*
X154910666Y-106975000D01*
X155044000Y-106941666D01*
X155277333Y-106941666D01*
X155410666Y-106975000D01*
X155477333Y-107041666D01*
X155510666Y-107108333D01*
X155510666Y-107241666D01*
X155477333Y-107308333D01*
X155410666Y-107375000D01*
X155277333Y-107408333D01*
X155044000Y-107408333D01*
X154910666Y-107375000D01*
X154844000Y-107308333D01*
X154810666Y-107241666D01*
X154810666Y-106708333D02*
X154810666Y-106275000D01*
X155077333Y-106508333D01*
X155077333Y-106408333D01*
X155110666Y-106341666D01*
X155144000Y-106308333D01*
X155210666Y-106275000D01*
X155377333Y-106275000D01*
X155444000Y-106308333D01*
X155477333Y-106341666D01*
X155510666Y-106408333D01*
X155510666Y-106608333D01*
X155477333Y-106675000D01*
X155444000Y-106708333D01*
X154810666Y-106041666D02*
X154810666Y-105608333D01*
X155077333Y-105841666D01*
X155077333Y-105741666D01*
X155110666Y-105675000D01*
X155144000Y-105641666D01*
X155210666Y-105608333D01*
X155377333Y-105608333D01*
X155444000Y-105641666D01*
X155477333Y-105675000D01*
X155510666Y-105741666D01*
X155510666Y-105941666D01*
X155477333Y-106008333D01*
X155444000Y-106041666D01*
X152970666Y-107708333D02*
X152270666Y-107708333D01*
X152270666Y-107241666D02*
X152270666Y-107108333D01*
X152304000Y-107041666D01*
X152370666Y-106975000D01*
X152504000Y-106941666D01*
X152737333Y-106941666D01*
X152870666Y-106975000D01*
X152937333Y-107041666D01*
X152970666Y-107108333D01*
X152970666Y-107241666D01*
X152937333Y-107308333D01*
X152870666Y-107375000D01*
X152737333Y-107408333D01*
X152504000Y-107408333D01*
X152370666Y-107375000D01*
X152304000Y-107308333D01*
X152270666Y-107241666D01*
X152337333Y-106675000D02*
X152304000Y-106641666D01*
X152270666Y-106575000D01*
X152270666Y-106408333D01*
X152304000Y-106341666D01*
X152337333Y-106308333D01*
X152404000Y-106275000D01*
X152470666Y-106275000D01*
X152570666Y-106308333D01*
X152970666Y-106708333D01*
X152970666Y-106275000D01*
X152270666Y-105641666D02*
X152270666Y-105975000D01*
X152604000Y-106008333D01*
X152570666Y-105975000D01*
X152537333Y-105908333D01*
X152537333Y-105741666D01*
X152570666Y-105675000D01*
X152604000Y-105641666D01*
X152670666Y-105608333D01*
X152837333Y-105608333D01*
X152904000Y-105641666D01*
X152937333Y-105675000D01*
X152970666Y-105741666D01*
X152970666Y-105908333D01*
X152937333Y-105975000D01*
X152904000Y-106008333D01*
X150430666Y-107708333D02*
X149730666Y-107708333D01*
X149730666Y-107241666D02*
X149730666Y-107108333D01*
X149764000Y-107041666D01*
X149830666Y-106975000D01*
X149964000Y-106941666D01*
X150197333Y-106941666D01*
X150330666Y-106975000D01*
X150397333Y-107041666D01*
X150430666Y-107108333D01*
X150430666Y-107241666D01*
X150397333Y-107308333D01*
X150330666Y-107375000D01*
X150197333Y-107408333D01*
X149964000Y-107408333D01*
X149830666Y-107375000D01*
X149764000Y-107308333D01*
X149730666Y-107241666D01*
X149797333Y-106675000D02*
X149764000Y-106641666D01*
X149730666Y-106575000D01*
X149730666Y-106408333D01*
X149764000Y-106341666D01*
X149797333Y-106308333D01*
X149864000Y-106275000D01*
X149930666Y-106275000D01*
X150030666Y-106308333D01*
X150430666Y-106708333D01*
X150430666Y-106275000D01*
X149730666Y-105675000D02*
X149730666Y-105808333D01*
X149764000Y-105875000D01*
X149797333Y-105908333D01*
X149897333Y-105975000D01*
X150030666Y-106008333D01*
X150297333Y-106008333D01*
X150364000Y-105975000D01*
X150397333Y-105941666D01*
X150430666Y-105875000D01*
X150430666Y-105741666D01*
X150397333Y-105675000D01*
X150364000Y-105641666D01*
X150297333Y-105608333D01*
X150130666Y-105608333D01*
X150064000Y-105641666D01*
X150030666Y-105675000D01*
X149997333Y-105741666D01*
X149997333Y-105875000D01*
X150030666Y-105941666D01*
X150064000Y-105975000D01*
X150130666Y-106008333D01*
X147890666Y-107708333D02*
X147190666Y-107708333D01*
X147190666Y-107241666D02*
X147190666Y-107108333D01*
X147224000Y-107041666D01*
X147290666Y-106975000D01*
X147424000Y-106941666D01*
X147657333Y-106941666D01*
X147790666Y-106975000D01*
X147857333Y-107041666D01*
X147890666Y-107108333D01*
X147890666Y-107241666D01*
X147857333Y-107308333D01*
X147790666Y-107375000D01*
X147657333Y-107408333D01*
X147424000Y-107408333D01*
X147290666Y-107375000D01*
X147224000Y-107308333D01*
X147190666Y-107241666D01*
X147257333Y-106675000D02*
X147224000Y-106641666D01*
X147190666Y-106575000D01*
X147190666Y-106408333D01*
X147224000Y-106341666D01*
X147257333Y-106308333D01*
X147324000Y-106275000D01*
X147390666Y-106275000D01*
X147490666Y-106308333D01*
X147890666Y-106708333D01*
X147890666Y-106275000D01*
X147190666Y-106041666D02*
X147190666Y-105575000D01*
X147890666Y-105875000D01*
X145350666Y-107708333D02*
X144650666Y-107708333D01*
X144650666Y-107241666D02*
X144650666Y-107108333D01*
X144684000Y-107041666D01*
X144750666Y-106975000D01*
X144884000Y-106941666D01*
X145117333Y-106941666D01*
X145250666Y-106975000D01*
X145317333Y-107041666D01*
X145350666Y-107108333D01*
X145350666Y-107241666D01*
X145317333Y-107308333D01*
X145250666Y-107375000D01*
X145117333Y-107408333D01*
X144884000Y-107408333D01*
X144750666Y-107375000D01*
X144684000Y-107308333D01*
X144650666Y-107241666D01*
X145350666Y-106275000D02*
X145350666Y-106675000D01*
X145350666Y-106475000D02*
X144650666Y-106475000D01*
X144750666Y-106541666D01*
X144817333Y-106608333D01*
X144850666Y-106675000D01*
X144884000Y-105675000D02*
X145350666Y-105675000D01*
X144617333Y-105841666D02*
X145117333Y-106008333D01*
X145117333Y-105575000D01*
X142810666Y-107708333D02*
X142110666Y-107708333D01*
X142110666Y-107241666D02*
X142110666Y-107108333D01*
X142144000Y-107041666D01*
X142210666Y-106975000D01*
X142344000Y-106941666D01*
X142577333Y-106941666D01*
X142710666Y-106975000D01*
X142777333Y-107041666D01*
X142810666Y-107108333D01*
X142810666Y-107241666D01*
X142777333Y-107308333D01*
X142710666Y-107375000D01*
X142577333Y-107408333D01*
X142344000Y-107408333D01*
X142210666Y-107375000D01*
X142144000Y-107308333D01*
X142110666Y-107241666D01*
X142810666Y-106275000D02*
X142810666Y-106675000D01*
X142810666Y-106475000D02*
X142110666Y-106475000D01*
X142210666Y-106541666D01*
X142277333Y-106608333D01*
X142310666Y-106675000D01*
X142177333Y-106008333D02*
X142144000Y-105975000D01*
X142110666Y-105908333D01*
X142110666Y-105741666D01*
X142144000Y-105675000D01*
X142177333Y-105641666D01*
X142244000Y-105608333D01*
X142310666Y-105608333D01*
X142410666Y-105641666D01*
X142810666Y-106041666D01*
X142810666Y-105608333D01*
X140270666Y-107708333D02*
X139570666Y-107708333D01*
X139570666Y-107241666D02*
X139570666Y-107108333D01*
X139604000Y-107041666D01*
X139670666Y-106975000D01*
X139804000Y-106941666D01*
X140037333Y-106941666D01*
X140170666Y-106975000D01*
X140237333Y-107041666D01*
X140270666Y-107108333D01*
X140270666Y-107241666D01*
X140237333Y-107308333D01*
X140170666Y-107375000D01*
X140037333Y-107408333D01*
X139804000Y-107408333D01*
X139670666Y-107375000D01*
X139604000Y-107308333D01*
X139570666Y-107241666D01*
X140270666Y-106275000D02*
X140270666Y-106675000D01*
X140270666Y-106475000D02*
X139570666Y-106475000D01*
X139670666Y-106541666D01*
X139737333Y-106608333D01*
X139770666Y-106675000D01*
X139570666Y-106041666D02*
X139570666Y-105608333D01*
X139837333Y-105841666D01*
X139837333Y-105741666D01*
X139870666Y-105675000D01*
X139904000Y-105641666D01*
X139970666Y-105608333D01*
X140137333Y-105608333D01*
X140204000Y-105641666D01*
X140237333Y-105675000D01*
X140270666Y-105741666D01*
X140270666Y-105941666D01*
X140237333Y-106008333D01*
X140204000Y-106041666D01*
X172624000Y-130211666D02*
X172590666Y-130278333D01*
X172590666Y-130378333D01*
X172624000Y-130478333D01*
X172690666Y-130545000D01*
X172757333Y-130578333D01*
X172890666Y-130611666D01*
X172990666Y-130611666D01*
X173124000Y-130578333D01*
X173190666Y-130545000D01*
X173257333Y-130478333D01*
X173290666Y-130378333D01*
X173290666Y-130311666D01*
X173257333Y-130211666D01*
X173224000Y-130178333D01*
X172990666Y-130178333D01*
X172990666Y-130311666D01*
X173290666Y-129878333D02*
X172590666Y-129878333D01*
X173290666Y-129478333D01*
X172590666Y-129478333D01*
X173290666Y-129145000D02*
X172590666Y-129145000D01*
X172590666Y-128978333D01*
X172624000Y-128878333D01*
X172690666Y-128811666D01*
X172757333Y-128778333D01*
X172890666Y-128745000D01*
X172990666Y-128745000D01*
X173124000Y-128778333D01*
X173190666Y-128811666D01*
X173257333Y-128878333D01*
X173290666Y-128978333D01*
X173290666Y-129145000D01*
X170750666Y-130578333D02*
X170050666Y-130578333D01*
X170050666Y-130111666D02*
X170050666Y-129978333D01*
X170084000Y-129911666D01*
X170150666Y-129845000D01*
X170284000Y-129811666D01*
X170517333Y-129811666D01*
X170650666Y-129845000D01*
X170717333Y-129911666D01*
X170750666Y-129978333D01*
X170750666Y-130111666D01*
X170717333Y-130178333D01*
X170650666Y-130245000D01*
X170517333Y-130278333D01*
X170284000Y-130278333D01*
X170150666Y-130245000D01*
X170084000Y-130178333D01*
X170050666Y-130111666D01*
X170117333Y-129545000D02*
X170084000Y-129511666D01*
X170050666Y-129445000D01*
X170050666Y-129278333D01*
X170084000Y-129211666D01*
X170117333Y-129178333D01*
X170184000Y-129145000D01*
X170250666Y-129145000D01*
X170350666Y-129178333D01*
X170750666Y-129578333D01*
X170750666Y-129145000D01*
X170050666Y-128911666D02*
X170050666Y-128478333D01*
X170317333Y-128711666D01*
X170317333Y-128611666D01*
X170350666Y-128545000D01*
X170384000Y-128511666D01*
X170450666Y-128478333D01*
X170617333Y-128478333D01*
X170684000Y-128511666D01*
X170717333Y-128545000D01*
X170750666Y-128611666D01*
X170750666Y-128811666D01*
X170717333Y-128878333D01*
X170684000Y-128911666D01*
X168210666Y-130578333D02*
X167510666Y-130578333D01*
X167510666Y-130111666D02*
X167510666Y-129978333D01*
X167544000Y-129911666D01*
X167610666Y-129845000D01*
X167744000Y-129811666D01*
X167977333Y-129811666D01*
X168110666Y-129845000D01*
X168177333Y-129911666D01*
X168210666Y-129978333D01*
X168210666Y-130111666D01*
X168177333Y-130178333D01*
X168110666Y-130245000D01*
X167977333Y-130278333D01*
X167744000Y-130278333D01*
X167610666Y-130245000D01*
X167544000Y-130178333D01*
X167510666Y-130111666D01*
X167577333Y-129545000D02*
X167544000Y-129511666D01*
X167510666Y-129445000D01*
X167510666Y-129278333D01*
X167544000Y-129211666D01*
X167577333Y-129178333D01*
X167644000Y-129145000D01*
X167710666Y-129145000D01*
X167810666Y-129178333D01*
X168210666Y-129578333D01*
X168210666Y-129145000D01*
X167577333Y-128878333D02*
X167544000Y-128845000D01*
X167510666Y-128778333D01*
X167510666Y-128611666D01*
X167544000Y-128545000D01*
X167577333Y-128511666D01*
X167644000Y-128478333D01*
X167710666Y-128478333D01*
X167810666Y-128511666D01*
X168210666Y-128911666D01*
X168210666Y-128478333D01*
X164970666Y-130678333D02*
X164970666Y-130278333D01*
X165670666Y-130478333D02*
X164970666Y-130478333D01*
X165670666Y-130111666D02*
X165204000Y-129745000D01*
X165204000Y-130111666D02*
X165670666Y-129745000D01*
X165670666Y-129478333D02*
X164970666Y-129478333D01*
X164970666Y-129311666D01*
X165004000Y-129211666D01*
X165070666Y-129145000D01*
X165137333Y-129111666D01*
X165270666Y-129078333D01*
X165370666Y-129078333D01*
X165504000Y-129111666D01*
X165570666Y-129145000D01*
X165637333Y-129211666D01*
X165670666Y-129311666D01*
X165670666Y-129478333D01*
X163130666Y-130178333D02*
X162797333Y-130411666D01*
X163130666Y-130578333D02*
X162430666Y-130578333D01*
X162430666Y-130311666D01*
X162464000Y-130245000D01*
X162497333Y-130211666D01*
X162564000Y-130178333D01*
X162664000Y-130178333D01*
X162730666Y-130211666D01*
X162764000Y-130245000D01*
X162797333Y-130311666D01*
X162797333Y-130578333D01*
X163130666Y-129945000D02*
X162664000Y-129578333D01*
X162664000Y-129945000D02*
X163130666Y-129578333D01*
X163130666Y-129311666D02*
X162430666Y-129311666D01*
X162430666Y-129145000D01*
X162464000Y-129045000D01*
X162530666Y-128978333D01*
X162597333Y-128945000D01*
X162730666Y-128911666D01*
X162830666Y-128911666D01*
X162964000Y-128945000D01*
X163030666Y-128978333D01*
X163097333Y-129045000D01*
X163130666Y-129145000D01*
X163130666Y-129311666D01*
X160590666Y-130578333D02*
X159890666Y-130578333D01*
X159890666Y-130111666D02*
X159890666Y-129978333D01*
X159924000Y-129911666D01*
X159990666Y-129845000D01*
X160124000Y-129811666D01*
X160357333Y-129811666D01*
X160490666Y-129845000D01*
X160557333Y-129911666D01*
X160590666Y-129978333D01*
X160590666Y-130111666D01*
X160557333Y-130178333D01*
X160490666Y-130245000D01*
X160357333Y-130278333D01*
X160124000Y-130278333D01*
X159990666Y-130245000D01*
X159924000Y-130178333D01*
X159890666Y-130111666D01*
X159957333Y-129545000D02*
X159924000Y-129511666D01*
X159890666Y-129445000D01*
X159890666Y-129278333D01*
X159924000Y-129211666D01*
X159957333Y-129178333D01*
X160024000Y-129145000D01*
X160090666Y-129145000D01*
X160190666Y-129178333D01*
X160590666Y-129578333D01*
X160590666Y-129145000D01*
X160590666Y-128478333D02*
X160590666Y-128878333D01*
X160590666Y-128678333D02*
X159890666Y-128678333D01*
X159990666Y-128745000D01*
X160057333Y-128811666D01*
X160090666Y-128878333D01*
X158050666Y-130578333D02*
X157350666Y-130578333D01*
X157350666Y-130111666D02*
X157350666Y-129978333D01*
X157384000Y-129911666D01*
X157450666Y-129845000D01*
X157584000Y-129811666D01*
X157817333Y-129811666D01*
X157950666Y-129845000D01*
X158017333Y-129911666D01*
X158050666Y-129978333D01*
X158050666Y-130111666D01*
X158017333Y-130178333D01*
X157950666Y-130245000D01*
X157817333Y-130278333D01*
X157584000Y-130278333D01*
X157450666Y-130245000D01*
X157384000Y-130178333D01*
X157350666Y-130111666D01*
X158050666Y-129145000D02*
X158050666Y-129545000D01*
X158050666Y-129345000D02*
X157350666Y-129345000D01*
X157450666Y-129411666D01*
X157517333Y-129478333D01*
X157550666Y-129545000D01*
X158050666Y-128811666D02*
X158050666Y-128678333D01*
X158017333Y-128611666D01*
X157984000Y-128578333D01*
X157884000Y-128511666D01*
X157750666Y-128478333D01*
X157484000Y-128478333D01*
X157417333Y-128511666D01*
X157384000Y-128545000D01*
X157350666Y-128611666D01*
X157350666Y-128745000D01*
X157384000Y-128811666D01*
X157417333Y-128845000D01*
X157484000Y-128878333D01*
X157650666Y-128878333D01*
X157717333Y-128845000D01*
X157750666Y-128811666D01*
X157784000Y-128745000D01*
X157784000Y-128611666D01*
X157750666Y-128545000D01*
X157717333Y-128511666D01*
X157650666Y-128478333D01*
X155510666Y-130578333D02*
X154810666Y-130578333D01*
X154810666Y-130111666D02*
X154810666Y-129978333D01*
X154844000Y-129911666D01*
X154910666Y-129845000D01*
X155044000Y-129811666D01*
X155277333Y-129811666D01*
X155410666Y-129845000D01*
X155477333Y-129911666D01*
X155510666Y-129978333D01*
X155510666Y-130111666D01*
X155477333Y-130178333D01*
X155410666Y-130245000D01*
X155277333Y-130278333D01*
X155044000Y-130278333D01*
X154910666Y-130245000D01*
X154844000Y-130178333D01*
X154810666Y-130111666D01*
X155510666Y-129145000D02*
X155510666Y-129545000D01*
X155510666Y-129345000D02*
X154810666Y-129345000D01*
X154910666Y-129411666D01*
X154977333Y-129478333D01*
X155010666Y-129545000D01*
X155110666Y-128745000D02*
X155077333Y-128811666D01*
X155044000Y-128845000D01*
X154977333Y-128878333D01*
X154944000Y-128878333D01*
X154877333Y-128845000D01*
X154844000Y-128811666D01*
X154810666Y-128745000D01*
X154810666Y-128611666D01*
X154844000Y-128545000D01*
X154877333Y-128511666D01*
X154944000Y-128478333D01*
X154977333Y-128478333D01*
X155044000Y-128511666D01*
X155077333Y-128545000D01*
X155110666Y-128611666D01*
X155110666Y-128745000D01*
X155144000Y-128811666D01*
X155177333Y-128845000D01*
X155244000Y-128878333D01*
X155377333Y-128878333D01*
X155444000Y-128845000D01*
X155477333Y-128811666D01*
X155510666Y-128745000D01*
X155510666Y-128611666D01*
X155477333Y-128545000D01*
X155444000Y-128511666D01*
X155377333Y-128478333D01*
X155244000Y-128478333D01*
X155177333Y-128511666D01*
X155144000Y-128545000D01*
X155110666Y-128611666D01*
X152970666Y-130578333D02*
X152270666Y-130578333D01*
X152270666Y-130111666D02*
X152270666Y-129978333D01*
X152304000Y-129911666D01*
X152370666Y-129845000D01*
X152504000Y-129811666D01*
X152737333Y-129811666D01*
X152870666Y-129845000D01*
X152937333Y-129911666D01*
X152970666Y-129978333D01*
X152970666Y-130111666D01*
X152937333Y-130178333D01*
X152870666Y-130245000D01*
X152737333Y-130278333D01*
X152504000Y-130278333D01*
X152370666Y-130245000D01*
X152304000Y-130178333D01*
X152270666Y-130111666D01*
X152270666Y-129178333D02*
X152270666Y-129511666D01*
X152604000Y-129545000D01*
X152570666Y-129511666D01*
X152537333Y-129445000D01*
X152537333Y-129278333D01*
X152570666Y-129211666D01*
X152604000Y-129178333D01*
X152670666Y-129145000D01*
X152837333Y-129145000D01*
X152904000Y-129178333D01*
X152937333Y-129211666D01*
X152970666Y-129278333D01*
X152970666Y-129445000D01*
X152937333Y-129511666D01*
X152904000Y-129545000D01*
X150430666Y-130578333D02*
X149730666Y-130578333D01*
X149730666Y-130111666D02*
X149730666Y-129978333D01*
X149764000Y-129911666D01*
X149830666Y-129845000D01*
X149964000Y-129811666D01*
X150197333Y-129811666D01*
X150330666Y-129845000D01*
X150397333Y-129911666D01*
X150430666Y-129978333D01*
X150430666Y-130111666D01*
X150397333Y-130178333D01*
X150330666Y-130245000D01*
X150197333Y-130278333D01*
X149964000Y-130278333D01*
X149830666Y-130245000D01*
X149764000Y-130178333D01*
X149730666Y-130111666D01*
X149964000Y-129211666D02*
X150430666Y-129211666D01*
X149697333Y-129378333D02*
X150197333Y-129545000D01*
X150197333Y-129111666D01*
X147890666Y-130578333D02*
X147190666Y-130578333D01*
X147190666Y-130111666D02*
X147190666Y-129978333D01*
X147224000Y-129911666D01*
X147290666Y-129845000D01*
X147424000Y-129811666D01*
X147657333Y-129811666D01*
X147790666Y-129845000D01*
X147857333Y-129911666D01*
X147890666Y-129978333D01*
X147890666Y-130111666D01*
X147857333Y-130178333D01*
X147790666Y-130245000D01*
X147657333Y-130278333D01*
X147424000Y-130278333D01*
X147290666Y-130245000D01*
X147224000Y-130178333D01*
X147190666Y-130111666D01*
X147190666Y-129378333D02*
X147190666Y-129311666D01*
X147224000Y-129245000D01*
X147257333Y-129211666D01*
X147324000Y-129178333D01*
X147457333Y-129145000D01*
X147624000Y-129145000D01*
X147757333Y-129178333D01*
X147824000Y-129211666D01*
X147857333Y-129245000D01*
X147890666Y-129311666D01*
X147890666Y-129378333D01*
X147857333Y-129445000D01*
X147824000Y-129478333D01*
X147757333Y-129511666D01*
X147624000Y-129545000D01*
X147457333Y-129545000D01*
X147324000Y-129511666D01*
X147257333Y-129478333D01*
X147224000Y-129445000D01*
X147190666Y-129378333D01*
X145350666Y-130578333D02*
X144650666Y-130578333D01*
X144650666Y-130111666D02*
X144650666Y-129978333D01*
X144684000Y-129911666D01*
X144750666Y-129845000D01*
X144884000Y-129811666D01*
X145117333Y-129811666D01*
X145250666Y-129845000D01*
X145317333Y-129911666D01*
X145350666Y-129978333D01*
X145350666Y-130111666D01*
X145317333Y-130178333D01*
X145250666Y-130245000D01*
X145117333Y-130278333D01*
X144884000Y-130278333D01*
X144750666Y-130245000D01*
X144684000Y-130178333D01*
X144650666Y-130111666D01*
X144717333Y-129545000D02*
X144684000Y-129511666D01*
X144650666Y-129445000D01*
X144650666Y-129278333D01*
X144684000Y-129211666D01*
X144717333Y-129178333D01*
X144784000Y-129145000D01*
X144850666Y-129145000D01*
X144950666Y-129178333D01*
X145350666Y-129578333D01*
X145350666Y-129145000D01*
X142810666Y-130578333D02*
X142110666Y-130578333D01*
X142110666Y-130111666D02*
X142110666Y-129978333D01*
X142144000Y-129911666D01*
X142210666Y-129845000D01*
X142344000Y-129811666D01*
X142577333Y-129811666D01*
X142710666Y-129845000D01*
X142777333Y-129911666D01*
X142810666Y-129978333D01*
X142810666Y-130111666D01*
X142777333Y-130178333D01*
X142710666Y-130245000D01*
X142577333Y-130278333D01*
X142344000Y-130278333D01*
X142210666Y-130245000D01*
X142144000Y-130178333D01*
X142110666Y-130111666D01*
X142810666Y-129145000D02*
X142810666Y-129545000D01*
X142810666Y-129345000D02*
X142110666Y-129345000D01*
X142210666Y-129411666D01*
X142277333Y-129478333D01*
X142310666Y-129545000D01*
X142110666Y-128511666D02*
X142110666Y-128845000D01*
X142444000Y-128878333D01*
X142410666Y-128845000D01*
X142377333Y-128778333D01*
X142377333Y-128611666D01*
X142410666Y-128545000D01*
X142444000Y-128511666D01*
X142510666Y-128478333D01*
X142677333Y-128478333D01*
X142744000Y-128511666D01*
X142777333Y-128545000D01*
X142810666Y-128611666D01*
X142810666Y-128778333D01*
X142777333Y-128845000D01*
X142744000Y-128878333D01*
X137664000Y-130178333D02*
X137697333Y-130211666D01*
X137730666Y-130311666D01*
X137730666Y-130378333D01*
X137697333Y-130478333D01*
X137630666Y-130545000D01*
X137564000Y-130578333D01*
X137430666Y-130611666D01*
X137330666Y-130611666D01*
X137197333Y-130578333D01*
X137130666Y-130545000D01*
X137064000Y-130478333D01*
X137030666Y-130378333D01*
X137030666Y-130311666D01*
X137064000Y-130211666D01*
X137097333Y-130178333D01*
X137530666Y-129911666D02*
X137530666Y-129578333D01*
X137730666Y-129978333D02*
X137030666Y-129745000D01*
X137730666Y-129511666D01*
X137730666Y-129278333D02*
X137030666Y-129278333D01*
X137730666Y-128878333D01*
X137030666Y-128878333D01*
X137730666Y-128211666D02*
X137730666Y-128545000D01*
X137030666Y-128545000D01*
X135124000Y-130178333D02*
X135157333Y-130211666D01*
X135190666Y-130311666D01*
X135190666Y-130378333D01*
X135157333Y-130478333D01*
X135090666Y-130545000D01*
X135024000Y-130578333D01*
X134890666Y-130611666D01*
X134790666Y-130611666D01*
X134657333Y-130578333D01*
X134590666Y-130545000D01*
X134524000Y-130478333D01*
X134490666Y-130378333D01*
X134490666Y-130311666D01*
X134524000Y-130211666D01*
X134557333Y-130178333D01*
X134990666Y-129911666D02*
X134990666Y-129578333D01*
X135190666Y-129978333D02*
X134490666Y-129745000D01*
X135190666Y-129511666D01*
X135190666Y-129278333D02*
X134490666Y-129278333D01*
X135190666Y-128878333D01*
X134490666Y-128878333D01*
X135190666Y-128545000D02*
X134490666Y-128545000D01*
X134824000Y-128545000D02*
X134824000Y-128145000D01*
X135190666Y-128145000D02*
X134490666Y-128145000D01*
X128036666Y-92580666D02*
X128036666Y-93080666D01*
X128003333Y-93180666D01*
X127936666Y-93247333D01*
X127836666Y-93280666D01*
X127770000Y-93280666D01*
X128736666Y-93280666D02*
X128336666Y-93280666D01*
X128536666Y-93280666D02*
X128536666Y-92580666D01*
X128470000Y-92680666D01*
X128403333Y-92747333D01*
X128336666Y-92780666D01*
X155422666Y-116075666D02*
X155422666Y-116642333D01*
X155456000Y-116709000D01*
X155489333Y-116742333D01*
X155556000Y-116775666D01*
X155689333Y-116775666D01*
X155756000Y-116742333D01*
X155789333Y-116709000D01*
X155822666Y-116642333D01*
X155822666Y-116075666D01*
X156522666Y-116775666D02*
X156122666Y-116775666D01*
X156322666Y-116775666D02*
X156322666Y-116075666D01*
X156256000Y-116175666D01*
X156189333Y-116242333D01*
X156122666Y-116275666D01*
D16*
X152933400Y-114768380D02*
X152933400Y-115006476D01*
X152695304Y-114911238D02*
X152933400Y-115006476D01*
X153171495Y-114911238D01*
X152790542Y-115196952D02*
X152933400Y-115006476D01*
X153076257Y-115196952D01*
D15*
X177354666Y-113546666D02*
X176654666Y-113546666D01*
X176654666Y-113380000D01*
X176688000Y-113280000D01*
X176754666Y-113213333D01*
X176821333Y-113180000D01*
X176954666Y-113146666D01*
X177054666Y-113146666D01*
X177188000Y-113180000D01*
X177254666Y-113213333D01*
X177321333Y-113280000D01*
X177354666Y-113380000D01*
X177354666Y-113546666D01*
X177354666Y-112480000D02*
X177354666Y-112880000D01*
X177354666Y-112680000D02*
X176654666Y-112680000D01*
X176754666Y-112746666D01*
X176821333Y-112813333D01*
X176854666Y-112880000D01*
X136135333Y-89248666D02*
X136135333Y-88548666D01*
X136302000Y-88548666D01*
X136402000Y-88582000D01*
X136468666Y-88648666D01*
X136502000Y-88715333D01*
X136535333Y-88848666D01*
X136535333Y-88948666D01*
X136502000Y-89082000D01*
X136468666Y-89148666D01*
X136402000Y-89215333D01*
X136302000Y-89248666D01*
X136135333Y-89248666D01*
X136802000Y-88615333D02*
X136835333Y-88582000D01*
X136902000Y-88548666D01*
X137068666Y-88548666D01*
X137135333Y-88582000D01*
X137168666Y-88615333D01*
X137202000Y-88682000D01*
X137202000Y-88748666D01*
X137168666Y-88848666D01*
X136768666Y-89248666D01*
X137202000Y-89248666D01*
X150700666Y-97344666D02*
X150700666Y-96644666D01*
X151434000Y-97278000D02*
X151400666Y-97311333D01*
X151300666Y-97344666D01*
X151234000Y-97344666D01*
X151134000Y-97311333D01*
X151067333Y-97244666D01*
X151034000Y-97178000D01*
X151000666Y-97044666D01*
X151000666Y-96944666D01*
X151034000Y-96811333D01*
X151067333Y-96744666D01*
X151134000Y-96678000D01*
X151234000Y-96644666D01*
X151300666Y-96644666D01*
X151400666Y-96678000D01*
X151434000Y-96711333D01*
X152100666Y-97344666D02*
X151700666Y-97344666D01*
X151900666Y-97344666D02*
X151900666Y-96644666D01*
X151834000Y-96744666D01*
X151767333Y-96811333D01*
X151700666Y-96844666D01*
X157658666Y-96898666D02*
X157658666Y-97398666D01*
X157625333Y-97498666D01*
X157558666Y-97565333D01*
X157458666Y-97598666D01*
X157392000Y-97598666D01*
X157992000Y-97598666D02*
X157992000Y-96898666D01*
X158258666Y-96898666D01*
X158325333Y-96932000D01*
X158358666Y-96965333D01*
X158392000Y-97032000D01*
X158392000Y-97132000D01*
X158358666Y-97198666D01*
X158325333Y-97232000D01*
X158258666Y-97265333D01*
X157992000Y-97265333D01*
X159058666Y-97598666D02*
X158658666Y-97598666D01*
X158858666Y-97598666D02*
X158858666Y-96898666D01*
X158792000Y-96998666D01*
X158725333Y-97065333D01*
X158658666Y-97098666D01*
X139575333Y-99126666D02*
X139542000Y-99193333D01*
X139475333Y-99260000D01*
X139375333Y-99360000D01*
X139342000Y-99426666D01*
X139342000Y-99493333D01*
X139508666Y-99460000D02*
X139475333Y-99526666D01*
X139408666Y-99593333D01*
X139275333Y-99626666D01*
X139042000Y-99626666D01*
X138908666Y-99593333D01*
X138842000Y-99526666D01*
X138808666Y-99460000D01*
X138808666Y-99326666D01*
X138842000Y-99260000D01*
X138908666Y-99193333D01*
X139042000Y-99160000D01*
X139275333Y-99160000D01*
X139408666Y-99193333D01*
X139475333Y-99260000D01*
X139508666Y-99326666D01*
X139508666Y-99460000D01*
X139508666Y-98493333D02*
X139508666Y-98893333D01*
X139508666Y-98693333D02*
X138808666Y-98693333D01*
X138908666Y-98760000D01*
X138975333Y-98826666D01*
X139008666Y-98893333D01*
X161731333Y-90045333D02*
X161664666Y-90012000D01*
X161598000Y-89945333D01*
X161498000Y-89845333D01*
X161431333Y-89812000D01*
X161364666Y-89812000D01*
X161398000Y-89978666D02*
X161331333Y-89945333D01*
X161264666Y-89878666D01*
X161231333Y-89745333D01*
X161231333Y-89512000D01*
X161264666Y-89378666D01*
X161331333Y-89312000D01*
X161398000Y-89278666D01*
X161531333Y-89278666D01*
X161598000Y-89312000D01*
X161664666Y-89378666D01*
X161698000Y-89512000D01*
X161698000Y-89745333D01*
X161664666Y-89878666D01*
X161598000Y-89945333D01*
X161531333Y-89978666D01*
X161398000Y-89978666D01*
X161964666Y-89345333D02*
X161998000Y-89312000D01*
X162064666Y-89278666D01*
X162231333Y-89278666D01*
X162298000Y-89312000D01*
X162331333Y-89345333D01*
X162364666Y-89412000D01*
X162364666Y-89478666D01*
X162331333Y-89578666D01*
X161931333Y-89978666D01*
X162364666Y-89978666D01*
X161731333Y-98173333D02*
X161664666Y-98140000D01*
X161598000Y-98073333D01*
X161498000Y-97973333D01*
X161431333Y-97940000D01*
X161364666Y-97940000D01*
X161398000Y-98106666D02*
X161331333Y-98073333D01*
X161264666Y-98006666D01*
X161231333Y-97873333D01*
X161231333Y-97640000D01*
X161264666Y-97506666D01*
X161331333Y-97440000D01*
X161398000Y-97406666D01*
X161531333Y-97406666D01*
X161598000Y-97440000D01*
X161664666Y-97506666D01*
X161698000Y-97640000D01*
X161698000Y-97873333D01*
X161664666Y-98006666D01*
X161598000Y-98073333D01*
X161531333Y-98106666D01*
X161398000Y-98106666D01*
X161931333Y-97406666D02*
X162364666Y-97406666D01*
X162131333Y-97673333D01*
X162231333Y-97673333D01*
X162298000Y-97706666D01*
X162331333Y-97740000D01*
X162364666Y-97806666D01*
X162364666Y-97973333D01*
X162331333Y-98040000D01*
X162298000Y-98073333D01*
X162231333Y-98106666D01*
X162031333Y-98106666D01*
X161964666Y-98073333D01*
X161931333Y-98040000D01*
X142485333Y-89470666D02*
X142485333Y-88770666D01*
X142652000Y-88770666D01*
X142752000Y-88804000D01*
X142818666Y-88870666D01*
X142852000Y-88937333D01*
X142885333Y-89070666D01*
X142885333Y-89170666D01*
X142852000Y-89304000D01*
X142818666Y-89370666D01*
X142752000Y-89437333D01*
X142652000Y-89470666D01*
X142485333Y-89470666D01*
X143118666Y-88770666D02*
X143552000Y-88770666D01*
X143318666Y-89037333D01*
X143418666Y-89037333D01*
X143485333Y-89070666D01*
X143518666Y-89104000D01*
X143552000Y-89170666D01*
X143552000Y-89337333D01*
X143518666Y-89404000D01*
X143485333Y-89437333D01*
X143418666Y-89470666D01*
X143218666Y-89470666D01*
X143152000Y-89437333D01*
X143118666Y-89404000D01*
X165999333Y-118995000D02*
X165966000Y-119028333D01*
X165866000Y-119061666D01*
X165799333Y-119061666D01*
X165699333Y-119028333D01*
X165632666Y-118961666D01*
X165599333Y-118895000D01*
X165566000Y-118761666D01*
X165566000Y-118661666D01*
X165599333Y-118528333D01*
X165632666Y-118461666D01*
X165699333Y-118395000D01*
X165799333Y-118361666D01*
X165866000Y-118361666D01*
X165966000Y-118395000D01*
X165999333Y-118428333D01*
X166666000Y-119061666D02*
X166266000Y-119061666D01*
X166466000Y-119061666D02*
X166466000Y-118361666D01*
X166399333Y-118461666D01*
X166332666Y-118528333D01*
X166266000Y-118561666D01*
X151267333Y-122932000D02*
X151234000Y-122965333D01*
X151134000Y-122998666D01*
X151067333Y-122998666D01*
X150967333Y-122965333D01*
X150900666Y-122898666D01*
X150867333Y-122832000D01*
X150834000Y-122698666D01*
X150834000Y-122598666D01*
X150867333Y-122465333D01*
X150900666Y-122398666D01*
X150967333Y-122332000D01*
X151067333Y-122298666D01*
X151134000Y-122298666D01*
X151234000Y-122332000D01*
X151267333Y-122365333D01*
X151534000Y-122365333D02*
X151567333Y-122332000D01*
X151634000Y-122298666D01*
X151800666Y-122298666D01*
X151867333Y-122332000D01*
X151900666Y-122365333D01*
X151934000Y-122432000D01*
X151934000Y-122498666D01*
X151900666Y-122598666D01*
X151500666Y-122998666D01*
X151934000Y-122998666D01*
X165999333Y-114677000D02*
X165966000Y-114710333D01*
X165866000Y-114743666D01*
X165799333Y-114743666D01*
X165699333Y-114710333D01*
X165632666Y-114643666D01*
X165599333Y-114577000D01*
X165566000Y-114443666D01*
X165566000Y-114343666D01*
X165599333Y-114210333D01*
X165632666Y-114143666D01*
X165699333Y-114077000D01*
X165799333Y-114043666D01*
X165866000Y-114043666D01*
X165966000Y-114077000D01*
X165999333Y-114110333D01*
X166232666Y-114043666D02*
X166666000Y-114043666D01*
X166432666Y-114310333D01*
X166532666Y-114310333D01*
X166599333Y-114343666D01*
X166632666Y-114377000D01*
X166666000Y-114443666D01*
X166666000Y-114610333D01*
X166632666Y-114677000D01*
X166599333Y-114710333D01*
X166532666Y-114743666D01*
X166332666Y-114743666D01*
X166266000Y-114710333D01*
X166232666Y-114677000D01*
X165999333Y-122932000D02*
X165966000Y-122965333D01*
X165866000Y-122998666D01*
X165799333Y-122998666D01*
X165699333Y-122965333D01*
X165632666Y-122898666D01*
X165599333Y-122832000D01*
X165566000Y-122698666D01*
X165566000Y-122598666D01*
X165599333Y-122465333D01*
X165632666Y-122398666D01*
X165699333Y-122332000D01*
X165799333Y-122298666D01*
X165866000Y-122298666D01*
X165966000Y-122332000D01*
X165999333Y-122365333D01*
X166599333Y-122532000D02*
X166599333Y-122998666D01*
X166432666Y-122265333D02*
X166266000Y-122765333D01*
X166699333Y-122765333D01*
X147203333Y-103374000D02*
X147170000Y-103407333D01*
X147070000Y-103440666D01*
X147003333Y-103440666D01*
X146903333Y-103407333D01*
X146836666Y-103340666D01*
X146803333Y-103274000D01*
X146770000Y-103140666D01*
X146770000Y-103040666D01*
X146803333Y-102907333D01*
X146836666Y-102840666D01*
X146903333Y-102774000D01*
X147003333Y-102740666D01*
X147070000Y-102740666D01*
X147170000Y-102774000D01*
X147203333Y-102807333D01*
X147836666Y-102740666D02*
X147503333Y-102740666D01*
X147470000Y-103074000D01*
X147503333Y-103040666D01*
X147570000Y-103007333D01*
X147736666Y-103007333D01*
X147803333Y-103040666D01*
X147836666Y-103074000D01*
X147870000Y-103140666D01*
X147870000Y-103307333D01*
X147836666Y-103374000D01*
X147803333Y-103407333D01*
X147736666Y-103440666D01*
X147570000Y-103440666D01*
X147503333Y-103407333D01*
X147470000Y-103374000D01*
X135519333Y-97659000D02*
X135486000Y-97692333D01*
X135386000Y-97725666D01*
X135319333Y-97725666D01*
X135219333Y-97692333D01*
X135152666Y-97625666D01*
X135119333Y-97559000D01*
X135086000Y-97425666D01*
X135086000Y-97325666D01*
X135119333Y-97192333D01*
X135152666Y-97125666D01*
X135219333Y-97059000D01*
X135319333Y-97025666D01*
X135386000Y-97025666D01*
X135486000Y-97059000D01*
X135519333Y-97092333D01*
X136119333Y-97025666D02*
X135986000Y-97025666D01*
X135919333Y-97059000D01*
X135886000Y-97092333D01*
X135819333Y-97192333D01*
X135786000Y-97325666D01*
X135786000Y-97592333D01*
X135819333Y-97659000D01*
X135852666Y-97692333D01*
X135919333Y-97725666D01*
X136052666Y-97725666D01*
X136119333Y-97692333D01*
X136152666Y-97659000D01*
X136186000Y-97592333D01*
X136186000Y-97425666D01*
X136152666Y-97359000D01*
X136119333Y-97325666D01*
X136052666Y-97292333D01*
X135919333Y-97292333D01*
X135852666Y-97325666D01*
X135819333Y-97359000D01*
X135786000Y-97425666D01*
X143647333Y-98040000D02*
X143614000Y-98073333D01*
X143514000Y-98106666D01*
X143447333Y-98106666D01*
X143347333Y-98073333D01*
X143280666Y-98006666D01*
X143247333Y-97940000D01*
X143214000Y-97806666D01*
X143214000Y-97706666D01*
X143247333Y-97573333D01*
X143280666Y-97506666D01*
X143347333Y-97440000D01*
X143447333Y-97406666D01*
X143514000Y-97406666D01*
X143614000Y-97440000D01*
X143647333Y-97473333D01*
X143880666Y-97406666D02*
X144347333Y-97406666D01*
X144047333Y-98106666D01*
X139583333Y-100834000D02*
X139550000Y-100867333D01*
X139450000Y-100900666D01*
X139383333Y-100900666D01*
X139283333Y-100867333D01*
X139216666Y-100800666D01*
X139183333Y-100734000D01*
X139150000Y-100600666D01*
X139150000Y-100500666D01*
X139183333Y-100367333D01*
X139216666Y-100300666D01*
X139283333Y-100234000D01*
X139383333Y-100200666D01*
X139450000Y-100200666D01*
X139550000Y-100234000D01*
X139583333Y-100267333D01*
X139983333Y-100500666D02*
X139916666Y-100467333D01*
X139883333Y-100434000D01*
X139850000Y-100367333D01*
X139850000Y-100334000D01*
X139883333Y-100267333D01*
X139916666Y-100234000D01*
X139983333Y-100200666D01*
X140116666Y-100200666D01*
X140183333Y-100234000D01*
X140216666Y-100267333D01*
X140250000Y-100334000D01*
X140250000Y-100367333D01*
X140216666Y-100434000D01*
X140183333Y-100467333D01*
X140116666Y-100500666D01*
X139983333Y-100500666D01*
X139916666Y-100534000D01*
X139883333Y-100567333D01*
X139850000Y-100634000D01*
X139850000Y-100767333D01*
X139883333Y-100834000D01*
X139916666Y-100867333D01*
X139983333Y-100900666D01*
X140116666Y-100900666D01*
X140183333Y-100867333D01*
X140216666Y-100834000D01*
X140250000Y-100767333D01*
X140250000Y-100634000D01*
X140216666Y-100567333D01*
X140183333Y-100534000D01*
X140116666Y-100500666D01*
X158125333Y-95246000D02*
X158092000Y-95279333D01*
X157992000Y-95312666D01*
X157925333Y-95312666D01*
X157825333Y-95279333D01*
X157758666Y-95212666D01*
X157725333Y-95146000D01*
X157692000Y-95012666D01*
X157692000Y-94912666D01*
X157725333Y-94779333D01*
X157758666Y-94712666D01*
X157825333Y-94646000D01*
X157925333Y-94612666D01*
X157992000Y-94612666D01*
X158092000Y-94646000D01*
X158125333Y-94679333D01*
X158458666Y-95312666D02*
X158592000Y-95312666D01*
X158658666Y-95279333D01*
X158692000Y-95246000D01*
X158758666Y-95146000D01*
X158792000Y-95012666D01*
X158792000Y-94746000D01*
X158758666Y-94679333D01*
X158725333Y-94646000D01*
X158658666Y-94612666D01*
X158525333Y-94612666D01*
X158458666Y-94646000D01*
X158425333Y-94679333D01*
X158392000Y-94746000D01*
X158392000Y-94912666D01*
X158425333Y-94979333D01*
X158458666Y-95012666D01*
X158525333Y-95046000D01*
X158658666Y-95046000D01*
X158725333Y-95012666D01*
X158758666Y-94979333D01*
X158792000Y-94912666D01*
X145346000Y-93976000D02*
X145312666Y-94009333D01*
X145212666Y-94042666D01*
X145146000Y-94042666D01*
X145046000Y-94009333D01*
X144979333Y-93942666D01*
X144946000Y-93876000D01*
X144912666Y-93742666D01*
X144912666Y-93642666D01*
X144946000Y-93509333D01*
X144979333Y-93442666D01*
X145046000Y-93376000D01*
X145146000Y-93342666D01*
X145212666Y-93342666D01*
X145312666Y-93376000D01*
X145346000Y-93409333D01*
X146012666Y-94042666D02*
X145612666Y-94042666D01*
X145812666Y-94042666D02*
X145812666Y-93342666D01*
X145746000Y-93442666D01*
X145679333Y-93509333D01*
X145612666Y-93542666D01*
X146446000Y-93342666D02*
X146512666Y-93342666D01*
X146579333Y-93376000D01*
X146612666Y-93409333D01*
X146646000Y-93476000D01*
X146679333Y-93609333D01*
X146679333Y-93776000D01*
X146646000Y-93909333D01*
X146612666Y-93976000D01*
X146579333Y-94009333D01*
X146512666Y-94042666D01*
X146446000Y-94042666D01*
X146379333Y-94009333D01*
X146346000Y-93976000D01*
X146312666Y-93909333D01*
X146279333Y-93776000D01*
X146279333Y-93609333D01*
X146312666Y-93476000D01*
X146346000Y-93409333D01*
X146379333Y-93376000D01*
X146446000Y-93342666D01*
X157792000Y-93214000D02*
X157758666Y-93247333D01*
X157658666Y-93280666D01*
X157592000Y-93280666D01*
X157492000Y-93247333D01*
X157425333Y-93180666D01*
X157392000Y-93114000D01*
X157358666Y-92980666D01*
X157358666Y-92880666D01*
X157392000Y-92747333D01*
X157425333Y-92680666D01*
X157492000Y-92614000D01*
X157592000Y-92580666D01*
X157658666Y-92580666D01*
X157758666Y-92614000D01*
X157792000Y-92647333D01*
X158458666Y-93280666D02*
X158058666Y-93280666D01*
X158258666Y-93280666D02*
X158258666Y-92580666D01*
X158192000Y-92680666D01*
X158125333Y-92747333D01*
X158058666Y-92780666D01*
X158725333Y-92647333D02*
X158758666Y-92614000D01*
X158825333Y-92580666D01*
X158992000Y-92580666D01*
X159058666Y-92614000D01*
X159092000Y-92647333D01*
X159125333Y-92714000D01*
X159125333Y-92780666D01*
X159092000Y-92880666D01*
X158692000Y-93280666D01*
X159125333Y-93280666D01*
X166682000Y-89277000D02*
X166648666Y-89310333D01*
X166548666Y-89343666D01*
X166482000Y-89343666D01*
X166382000Y-89310333D01*
X166315333Y-89243666D01*
X166282000Y-89177000D01*
X166248666Y-89043666D01*
X166248666Y-88943666D01*
X166282000Y-88810333D01*
X166315333Y-88743666D01*
X166382000Y-88677000D01*
X166482000Y-88643666D01*
X166548666Y-88643666D01*
X166648666Y-88677000D01*
X166682000Y-88710333D01*
X167348666Y-89343666D02*
X166948666Y-89343666D01*
X167148666Y-89343666D02*
X167148666Y-88643666D01*
X167082000Y-88743666D01*
X167015333Y-88810333D01*
X166948666Y-88843666D01*
X167582000Y-88643666D02*
X168015333Y-88643666D01*
X167782000Y-88910333D01*
X167882000Y-88910333D01*
X167948666Y-88943666D01*
X167982000Y-88977000D01*
X168015333Y-89043666D01*
X168015333Y-89210333D01*
X167982000Y-89277000D01*
X167948666Y-89310333D01*
X167882000Y-89343666D01*
X167682000Y-89343666D01*
X167615333Y-89310333D01*
X167582000Y-89277000D01*
X164475333Y-102170666D02*
X164242000Y-101837333D01*
X164075333Y-102170666D02*
X164075333Y-101470666D01*
X164342000Y-101470666D01*
X164408666Y-101504000D01*
X164442000Y-101537333D01*
X164475333Y-101604000D01*
X164475333Y-101704000D01*
X164442000Y-101770666D01*
X164408666Y-101804000D01*
X164342000Y-101837333D01*
X164075333Y-101837333D01*
X165142000Y-102170666D02*
X164742000Y-102170666D01*
X164942000Y-102170666D02*
X164942000Y-101470666D01*
X164875333Y-101570666D01*
X164808666Y-101637333D01*
X164742000Y-101670666D01*
X167015333Y-102170666D02*
X166782000Y-101837333D01*
X166615333Y-102170666D02*
X166615333Y-101470666D01*
X166882000Y-101470666D01*
X166948666Y-101504000D01*
X166982000Y-101537333D01*
X167015333Y-101604000D01*
X167015333Y-101704000D01*
X166982000Y-101770666D01*
X166948666Y-101804000D01*
X166882000Y-101837333D01*
X166615333Y-101837333D01*
X167282000Y-101537333D02*
X167315333Y-101504000D01*
X167382000Y-101470666D01*
X167548666Y-101470666D01*
X167615333Y-101504000D01*
X167648666Y-101537333D01*
X167682000Y-101604000D01*
X167682000Y-101670666D01*
X167648666Y-101770666D01*
X167248666Y-102170666D01*
X167682000Y-102170666D01*
X159395333Y-102170666D02*
X159162000Y-101837333D01*
X158995333Y-102170666D02*
X158995333Y-101470666D01*
X159262000Y-101470666D01*
X159328666Y-101504000D01*
X159362000Y-101537333D01*
X159395333Y-101604000D01*
X159395333Y-101704000D01*
X159362000Y-101770666D01*
X159328666Y-101804000D01*
X159262000Y-101837333D01*
X158995333Y-101837333D01*
X159995333Y-101704000D02*
X159995333Y-102170666D01*
X159828666Y-101437333D02*
X159662000Y-101937333D01*
X160095333Y-101937333D01*
X161935333Y-102170666D02*
X161702000Y-101837333D01*
X161535333Y-102170666D02*
X161535333Y-101470666D01*
X161802000Y-101470666D01*
X161868666Y-101504000D01*
X161902000Y-101537333D01*
X161935333Y-101604000D01*
X161935333Y-101704000D01*
X161902000Y-101770666D01*
X161868666Y-101804000D01*
X161802000Y-101837333D01*
X161535333Y-101837333D01*
X162568666Y-101470666D02*
X162235333Y-101470666D01*
X162202000Y-101804000D01*
X162235333Y-101770666D01*
X162302000Y-101737333D01*
X162468666Y-101737333D01*
X162535333Y-101770666D01*
X162568666Y-101804000D01*
X162602000Y-101870666D01*
X162602000Y-102037333D01*
X162568666Y-102104000D01*
X162535333Y-102137333D01*
X162468666Y-102170666D01*
X162302000Y-102170666D01*
X162235333Y-102137333D01*
X162202000Y-102104000D01*
X134936666Y-109416000D02*
X134603333Y-109649333D01*
X134936666Y-109816000D02*
X134236666Y-109816000D01*
X134236666Y-109549333D01*
X134270000Y-109482666D01*
X134303333Y-109449333D01*
X134370000Y-109416000D01*
X134470000Y-109416000D01*
X134536666Y-109449333D01*
X134570000Y-109482666D01*
X134603333Y-109549333D01*
X134603333Y-109816000D01*
X134303333Y-109149333D02*
X134270000Y-109116000D01*
X134236666Y-109049333D01*
X134236666Y-108882666D01*
X134270000Y-108816000D01*
X134303333Y-108782666D01*
X134370000Y-108749333D01*
X134436666Y-108749333D01*
X134536666Y-108782666D01*
X134936666Y-109182666D01*
X134936666Y-108749333D01*
X134936666Y-108082666D02*
X134936666Y-108482666D01*
X134936666Y-108282666D02*
X134236666Y-108282666D01*
X134336666Y-108349333D01*
X134403333Y-108416000D01*
X134436666Y-108482666D01*
X163459333Y-119061666D02*
X163226000Y-118728333D01*
X163059333Y-119061666D02*
X163059333Y-118361666D01*
X163326000Y-118361666D01*
X163392666Y-118395000D01*
X163426000Y-118428333D01*
X163459333Y-118495000D01*
X163459333Y-118595000D01*
X163426000Y-118661666D01*
X163392666Y-118695000D01*
X163326000Y-118728333D01*
X163059333Y-118728333D01*
X164059333Y-118361666D02*
X163926000Y-118361666D01*
X163859333Y-118395000D01*
X163826000Y-118428333D01*
X163759333Y-118528333D01*
X163726000Y-118661666D01*
X163726000Y-118928333D01*
X163759333Y-118995000D01*
X163792666Y-119028333D01*
X163859333Y-119061666D01*
X163992666Y-119061666D01*
X164059333Y-119028333D01*
X164092666Y-118995000D01*
X164126000Y-118928333D01*
X164126000Y-118761666D01*
X164092666Y-118695000D01*
X164059333Y-118661666D01*
X163992666Y-118628333D01*
X163859333Y-118628333D01*
X163792666Y-118661666D01*
X163759333Y-118695000D01*
X163726000Y-118761666D01*
X151267333Y-114870666D02*
X151034000Y-114537333D01*
X150867333Y-114870666D02*
X150867333Y-114170666D01*
X151134000Y-114170666D01*
X151200666Y-114204000D01*
X151234000Y-114237333D01*
X151267333Y-114304000D01*
X151267333Y-114404000D01*
X151234000Y-114470666D01*
X151200666Y-114504000D01*
X151134000Y-114537333D01*
X150867333Y-114537333D01*
X151500666Y-114170666D02*
X151967333Y-114170666D01*
X151667333Y-114870666D01*
X151267333Y-118807666D02*
X151034000Y-118474333D01*
X150867333Y-118807666D02*
X150867333Y-118107666D01*
X151134000Y-118107666D01*
X151200666Y-118141000D01*
X151234000Y-118174333D01*
X151267333Y-118241000D01*
X151267333Y-118341000D01*
X151234000Y-118407666D01*
X151200666Y-118441000D01*
X151134000Y-118474333D01*
X150867333Y-118474333D01*
X151667333Y-118407666D02*
X151600666Y-118374333D01*
X151567333Y-118341000D01*
X151534000Y-118274333D01*
X151534000Y-118241000D01*
X151567333Y-118174333D01*
X151600666Y-118141000D01*
X151667333Y-118107666D01*
X151800666Y-118107666D01*
X151867333Y-118141000D01*
X151900666Y-118174333D01*
X151934000Y-118241000D01*
X151934000Y-118274333D01*
X151900666Y-118341000D01*
X151867333Y-118374333D01*
X151800666Y-118407666D01*
X151667333Y-118407666D01*
X151600666Y-118441000D01*
X151567333Y-118474333D01*
X151534000Y-118541000D01*
X151534000Y-118674333D01*
X151567333Y-118741000D01*
X151600666Y-118774333D01*
X151667333Y-118807666D01*
X151800666Y-118807666D01*
X151867333Y-118774333D01*
X151900666Y-118741000D01*
X151934000Y-118674333D01*
X151934000Y-118541000D01*
X151900666Y-118474333D01*
X151867333Y-118441000D01*
X151800666Y-118407666D01*
X160919333Y-114743666D02*
X160686000Y-114410333D01*
X160519333Y-114743666D02*
X160519333Y-114043666D01*
X160786000Y-114043666D01*
X160852666Y-114077000D01*
X160886000Y-114110333D01*
X160919333Y-114177000D01*
X160919333Y-114277000D01*
X160886000Y-114343666D01*
X160852666Y-114377000D01*
X160786000Y-114410333D01*
X160519333Y-114410333D01*
X161252666Y-114743666D02*
X161386000Y-114743666D01*
X161452666Y-114710333D01*
X161486000Y-114677000D01*
X161552666Y-114577000D01*
X161586000Y-114443666D01*
X161586000Y-114177000D01*
X161552666Y-114110333D01*
X161519333Y-114077000D01*
X161452666Y-114043666D01*
X161319333Y-114043666D01*
X161252666Y-114077000D01*
X161219333Y-114110333D01*
X161186000Y-114177000D01*
X161186000Y-114343666D01*
X161219333Y-114410333D01*
X161252666Y-114443666D01*
X161319333Y-114477000D01*
X161452666Y-114477000D01*
X161519333Y-114443666D01*
X161552666Y-114410333D01*
X161586000Y-114343666D01*
X160586000Y-122998666D02*
X160352666Y-122665333D01*
X160186000Y-122998666D02*
X160186000Y-122298666D01*
X160452666Y-122298666D01*
X160519333Y-122332000D01*
X160552666Y-122365333D01*
X160586000Y-122432000D01*
X160586000Y-122532000D01*
X160552666Y-122598666D01*
X160519333Y-122632000D01*
X160452666Y-122665333D01*
X160186000Y-122665333D01*
X161252666Y-122998666D02*
X160852666Y-122998666D01*
X161052666Y-122998666D02*
X161052666Y-122298666D01*
X160986000Y-122398666D01*
X160919333Y-122465333D01*
X160852666Y-122498666D01*
X161686000Y-122298666D02*
X161752666Y-122298666D01*
X161819333Y-122332000D01*
X161852666Y-122365333D01*
X161886000Y-122432000D01*
X161919333Y-122565333D01*
X161919333Y-122732000D01*
X161886000Y-122865333D01*
X161852666Y-122932000D01*
X161819333Y-122965333D01*
X161752666Y-122998666D01*
X161686000Y-122998666D01*
X161619333Y-122965333D01*
X161586000Y-122932000D01*
X161552666Y-122865333D01*
X161519333Y-122732000D01*
X161519333Y-122565333D01*
X161552666Y-122432000D01*
X161586000Y-122365333D01*
X161619333Y-122332000D01*
X161686000Y-122298666D01*
X163126000Y-114743666D02*
X162892666Y-114410333D01*
X162726000Y-114743666D02*
X162726000Y-114043666D01*
X162992666Y-114043666D01*
X163059333Y-114077000D01*
X163092666Y-114110333D01*
X163126000Y-114177000D01*
X163126000Y-114277000D01*
X163092666Y-114343666D01*
X163059333Y-114377000D01*
X162992666Y-114410333D01*
X162726000Y-114410333D01*
X163792666Y-114743666D02*
X163392666Y-114743666D01*
X163592666Y-114743666D02*
X163592666Y-114043666D01*
X163526000Y-114143666D01*
X163459333Y-114210333D01*
X163392666Y-114243666D01*
X164459333Y-114743666D02*
X164059333Y-114743666D01*
X164259333Y-114743666D02*
X164259333Y-114043666D01*
X164192666Y-114143666D01*
X164126000Y-114210333D01*
X164059333Y-114243666D01*
X163126000Y-122998666D02*
X162892666Y-122665333D01*
X162726000Y-122998666D02*
X162726000Y-122298666D01*
X162992666Y-122298666D01*
X163059333Y-122332000D01*
X163092666Y-122365333D01*
X163126000Y-122432000D01*
X163126000Y-122532000D01*
X163092666Y-122598666D01*
X163059333Y-122632000D01*
X162992666Y-122665333D01*
X162726000Y-122665333D01*
X163792666Y-122998666D02*
X163392666Y-122998666D01*
X163592666Y-122998666D02*
X163592666Y-122298666D01*
X163526000Y-122398666D01*
X163459333Y-122465333D01*
X163392666Y-122498666D01*
X164059333Y-122365333D02*
X164092666Y-122332000D01*
X164159333Y-122298666D01*
X164326000Y-122298666D01*
X164392666Y-122332000D01*
X164426000Y-122365333D01*
X164459333Y-122432000D01*
X164459333Y-122498666D01*
X164426000Y-122598666D01*
X164026000Y-122998666D01*
X164459333Y-122998666D01*
X176338666Y-106034666D02*
X176005333Y-106268000D01*
X176338666Y-106434666D02*
X175638666Y-106434666D01*
X175638666Y-106168000D01*
X175672000Y-106101333D01*
X175705333Y-106068000D01*
X175772000Y-106034666D01*
X175872000Y-106034666D01*
X175938666Y-106068000D01*
X175972000Y-106101333D01*
X176005333Y-106168000D01*
X176005333Y-106434666D01*
X175638666Y-105801333D02*
X175638666Y-105368000D01*
X175905333Y-105601333D01*
X175905333Y-105501333D01*
X175938666Y-105434666D01*
X175972000Y-105401333D01*
X176038666Y-105368000D01*
X176205333Y-105368000D01*
X176272000Y-105401333D01*
X176305333Y-105434666D01*
X176338666Y-105501333D01*
X176338666Y-105701333D01*
X176305333Y-105768000D01*
X176272000Y-105801333D01*
X140266000Y-94042666D02*
X140032666Y-93709333D01*
X139866000Y-94042666D02*
X139866000Y-93342666D01*
X140132666Y-93342666D01*
X140199333Y-93376000D01*
X140232666Y-93409333D01*
X140266000Y-93476000D01*
X140266000Y-93576000D01*
X140232666Y-93642666D01*
X140199333Y-93676000D01*
X140132666Y-93709333D01*
X139866000Y-93709333D01*
X140932666Y-94042666D02*
X140532666Y-94042666D01*
X140732666Y-94042666D02*
X140732666Y-93342666D01*
X140666000Y-93442666D01*
X140599333Y-93509333D01*
X140532666Y-93542666D01*
X141166000Y-93342666D02*
X141599333Y-93342666D01*
X141366000Y-93609333D01*
X141466000Y-93609333D01*
X141532666Y-93642666D01*
X141566000Y-93676000D01*
X141599333Y-93742666D01*
X141599333Y-93909333D01*
X141566000Y-93976000D01*
X141532666Y-94009333D01*
X141466000Y-94042666D01*
X141266000Y-94042666D01*
X141199333Y-94009333D01*
X141166000Y-93976000D01*
X137726000Y-94042666D02*
X137492666Y-93709333D01*
X137326000Y-94042666D02*
X137326000Y-93342666D01*
X137592666Y-93342666D01*
X137659333Y-93376000D01*
X137692666Y-93409333D01*
X137726000Y-93476000D01*
X137726000Y-93576000D01*
X137692666Y-93642666D01*
X137659333Y-93676000D01*
X137592666Y-93709333D01*
X137326000Y-93709333D01*
X138392666Y-94042666D02*
X137992666Y-94042666D01*
X138192666Y-94042666D02*
X138192666Y-93342666D01*
X138126000Y-93442666D01*
X138059333Y-93509333D01*
X137992666Y-93542666D01*
X138992666Y-93576000D02*
X138992666Y-94042666D01*
X138826000Y-93309333D02*
X138659333Y-93809333D01*
X139092666Y-93809333D01*
X135186000Y-94042666D02*
X134952666Y-93709333D01*
X134786000Y-94042666D02*
X134786000Y-93342666D01*
X135052666Y-93342666D01*
X135119333Y-93376000D01*
X135152666Y-93409333D01*
X135186000Y-93476000D01*
X135186000Y-93576000D01*
X135152666Y-93642666D01*
X135119333Y-93676000D01*
X135052666Y-93709333D01*
X134786000Y-93709333D01*
X135852666Y-94042666D02*
X135452666Y-94042666D01*
X135652666Y-94042666D02*
X135652666Y-93342666D01*
X135586000Y-93442666D01*
X135519333Y-93509333D01*
X135452666Y-93542666D01*
X136486000Y-93342666D02*
X136152666Y-93342666D01*
X136119333Y-93676000D01*
X136152666Y-93642666D01*
X136219333Y-93609333D01*
X136386000Y-93609333D01*
X136452666Y-93642666D01*
X136486000Y-93676000D01*
X136519333Y-93742666D01*
X136519333Y-93909333D01*
X136486000Y-93976000D01*
X136452666Y-94009333D01*
X136386000Y-94042666D01*
X136219333Y-94042666D01*
X136152666Y-94009333D01*
X136119333Y-93976000D01*
X142806000Y-94042666D02*
X142572666Y-93709333D01*
X142406000Y-94042666D02*
X142406000Y-93342666D01*
X142672666Y-93342666D01*
X142739333Y-93376000D01*
X142772666Y-93409333D01*
X142806000Y-93476000D01*
X142806000Y-93576000D01*
X142772666Y-93642666D01*
X142739333Y-93676000D01*
X142672666Y-93709333D01*
X142406000Y-93709333D01*
X143472666Y-94042666D02*
X143072666Y-94042666D01*
X143272666Y-94042666D02*
X143272666Y-93342666D01*
X143206000Y-93442666D01*
X143139333Y-93509333D01*
X143072666Y-93542666D01*
X144072666Y-93342666D02*
X143939333Y-93342666D01*
X143872666Y-93376000D01*
X143839333Y-93409333D01*
X143772666Y-93509333D01*
X143739333Y-93642666D01*
X143739333Y-93909333D01*
X143772666Y-93976000D01*
X143806000Y-94009333D01*
X143872666Y-94042666D01*
X144006000Y-94042666D01*
X144072666Y-94009333D01*
X144106000Y-93976000D01*
X144139333Y-93909333D01*
X144139333Y-93742666D01*
X144106000Y-93676000D01*
X144072666Y-93642666D01*
X144006000Y-93609333D01*
X143872666Y-93609333D01*
X143806000Y-93642666D01*
X143772666Y-93676000D01*
X143739333Y-93742666D01*
X143060000Y-103440666D02*
X142826666Y-103107333D01*
X142660000Y-103440666D02*
X142660000Y-102740666D01*
X142926666Y-102740666D01*
X142993333Y-102774000D01*
X143026666Y-102807333D01*
X143060000Y-102874000D01*
X143060000Y-102974000D01*
X143026666Y-103040666D01*
X142993333Y-103074000D01*
X142926666Y-103107333D01*
X142660000Y-103107333D01*
X143726666Y-103440666D02*
X143326666Y-103440666D01*
X143526666Y-103440666D02*
X143526666Y-102740666D01*
X143460000Y-102840666D01*
X143393333Y-102907333D01*
X143326666Y-102940666D01*
X143960000Y-102740666D02*
X144426666Y-102740666D01*
X144126666Y-103440666D01*
X156522000Y-102170666D02*
X156288666Y-101837333D01*
X156122000Y-102170666D02*
X156122000Y-101470666D01*
X156388666Y-101470666D01*
X156455333Y-101504000D01*
X156488666Y-101537333D01*
X156522000Y-101604000D01*
X156522000Y-101704000D01*
X156488666Y-101770666D01*
X156455333Y-101804000D01*
X156388666Y-101837333D01*
X156122000Y-101837333D01*
X157188666Y-102170666D02*
X156788666Y-102170666D01*
X156988666Y-102170666D02*
X156988666Y-101470666D01*
X156922000Y-101570666D01*
X156855333Y-101637333D01*
X156788666Y-101670666D01*
X157588666Y-101770666D02*
X157522000Y-101737333D01*
X157488666Y-101704000D01*
X157455333Y-101637333D01*
X157455333Y-101604000D01*
X157488666Y-101537333D01*
X157522000Y-101504000D01*
X157588666Y-101470666D01*
X157722000Y-101470666D01*
X157788666Y-101504000D01*
X157822000Y-101537333D01*
X157855333Y-101604000D01*
X157855333Y-101637333D01*
X157822000Y-101704000D01*
X157788666Y-101737333D01*
X157722000Y-101770666D01*
X157588666Y-101770666D01*
X157522000Y-101804000D01*
X157488666Y-101837333D01*
X157455333Y-101904000D01*
X157455333Y-102037333D01*
X157488666Y-102104000D01*
X157522000Y-102137333D01*
X157588666Y-102170666D01*
X157722000Y-102170666D01*
X157788666Y-102137333D01*
X157822000Y-102104000D01*
X157855333Y-102037333D01*
X157855333Y-101904000D01*
X157822000Y-101837333D01*
X157788666Y-101804000D01*
X157722000Y-101770666D01*
X143060000Y-100900666D02*
X142826666Y-100567333D01*
X142660000Y-100900666D02*
X142660000Y-100200666D01*
X142926666Y-100200666D01*
X142993333Y-100234000D01*
X143026666Y-100267333D01*
X143060000Y-100334000D01*
X143060000Y-100434000D01*
X143026666Y-100500666D01*
X142993333Y-100534000D01*
X142926666Y-100567333D01*
X142660000Y-100567333D01*
X143726666Y-100900666D02*
X143326666Y-100900666D01*
X143526666Y-100900666D02*
X143526666Y-100200666D01*
X143460000Y-100300666D01*
X143393333Y-100367333D01*
X143326666Y-100400666D01*
X144060000Y-100900666D02*
X144193333Y-100900666D01*
X144260000Y-100867333D01*
X144293333Y-100834000D01*
X144360000Y-100734000D01*
X144393333Y-100600666D01*
X144393333Y-100334000D01*
X144360000Y-100267333D01*
X144326666Y-100234000D01*
X144260000Y-100200666D01*
X144126666Y-100200666D01*
X144060000Y-100234000D01*
X144026666Y-100267333D01*
X143993333Y-100334000D01*
X143993333Y-100500666D01*
X144026666Y-100567333D01*
X144060000Y-100600666D01*
X144126666Y-100634000D01*
X144260000Y-100634000D01*
X144326666Y-100600666D01*
X144360000Y-100567333D01*
X144393333Y-100500666D01*
X150680000Y-103440666D02*
X150446666Y-103107333D01*
X150280000Y-103440666D02*
X150280000Y-102740666D01*
X150546666Y-102740666D01*
X150613333Y-102774000D01*
X150646666Y-102807333D01*
X150680000Y-102874000D01*
X150680000Y-102974000D01*
X150646666Y-103040666D01*
X150613333Y-103074000D01*
X150546666Y-103107333D01*
X150280000Y-103107333D01*
X150946666Y-102807333D02*
X150980000Y-102774000D01*
X151046666Y-102740666D01*
X151213333Y-102740666D01*
X151280000Y-102774000D01*
X151313333Y-102807333D01*
X151346666Y-102874000D01*
X151346666Y-102940666D01*
X151313333Y-103040666D01*
X150913333Y-103440666D01*
X151346666Y-103440666D01*
X151780000Y-102740666D02*
X151846666Y-102740666D01*
X151913333Y-102774000D01*
X151946666Y-102807333D01*
X151980000Y-102874000D01*
X152013333Y-103007333D01*
X152013333Y-103174000D01*
X151980000Y-103307333D01*
X151946666Y-103374000D01*
X151913333Y-103407333D01*
X151846666Y-103440666D01*
X151780000Y-103440666D01*
X151713333Y-103407333D01*
X151680000Y-103374000D01*
X151646666Y-103307333D01*
X151613333Y-103174000D01*
X151613333Y-103007333D01*
X151646666Y-102874000D01*
X151680000Y-102807333D01*
X151713333Y-102774000D01*
X151780000Y-102740666D01*
X162618000Y-93280666D02*
X162384666Y-92947333D01*
X162218000Y-93280666D02*
X162218000Y-92580666D01*
X162484666Y-92580666D01*
X162551333Y-92614000D01*
X162584666Y-92647333D01*
X162618000Y-92714000D01*
X162618000Y-92814000D01*
X162584666Y-92880666D01*
X162551333Y-92914000D01*
X162484666Y-92947333D01*
X162218000Y-92947333D01*
X162884666Y-92647333D02*
X162918000Y-92614000D01*
X162984666Y-92580666D01*
X163151333Y-92580666D01*
X163218000Y-92614000D01*
X163251333Y-92647333D01*
X163284666Y-92714000D01*
X163284666Y-92780666D01*
X163251333Y-92880666D01*
X162851333Y-93280666D01*
X163284666Y-93280666D01*
X163551333Y-92647333D02*
X163584666Y-92614000D01*
X163651333Y-92580666D01*
X163818000Y-92580666D01*
X163884666Y-92614000D01*
X163918000Y-92647333D01*
X163951333Y-92714000D01*
X163951333Y-92780666D01*
X163918000Y-92880666D01*
X163518000Y-93280666D01*
X163951333Y-93280666D01*
X162618000Y-95312666D02*
X162384666Y-94979333D01*
X162218000Y-95312666D02*
X162218000Y-94612666D01*
X162484666Y-94612666D01*
X162551333Y-94646000D01*
X162584666Y-94679333D01*
X162618000Y-94746000D01*
X162618000Y-94846000D01*
X162584666Y-94912666D01*
X162551333Y-94946000D01*
X162484666Y-94979333D01*
X162218000Y-94979333D01*
X162884666Y-94679333D02*
X162918000Y-94646000D01*
X162984666Y-94612666D01*
X163151333Y-94612666D01*
X163218000Y-94646000D01*
X163251333Y-94679333D01*
X163284666Y-94746000D01*
X163284666Y-94812666D01*
X163251333Y-94912666D01*
X162851333Y-95312666D01*
X163284666Y-95312666D01*
X163518000Y-94612666D02*
X163951333Y-94612666D01*
X163718000Y-94879333D01*
X163818000Y-94879333D01*
X163884666Y-94912666D01*
X163918000Y-94946000D01*
X163951333Y-95012666D01*
X163951333Y-95179333D01*
X163918000Y-95246000D01*
X163884666Y-95279333D01*
X163818000Y-95312666D01*
X163618000Y-95312666D01*
X163551333Y-95279333D01*
X163518000Y-95246000D01*
X166682000Y-95754000D02*
X166648666Y-95787333D01*
X166548666Y-95820666D01*
X166482000Y-95820666D01*
X166382000Y-95787333D01*
X166315333Y-95720666D01*
X166282000Y-95654000D01*
X166248666Y-95520666D01*
X166248666Y-95420666D01*
X166282000Y-95287333D01*
X166315333Y-95220666D01*
X166382000Y-95154000D01*
X166482000Y-95120666D01*
X166548666Y-95120666D01*
X166648666Y-95154000D01*
X166682000Y-95187333D01*
X167348666Y-95820666D02*
X166948666Y-95820666D01*
X167148666Y-95820666D02*
X167148666Y-95120666D01*
X167082000Y-95220666D01*
X167015333Y-95287333D01*
X166948666Y-95320666D01*
X168015333Y-95820666D02*
X167615333Y-95820666D01*
X167815333Y-95820666D02*
X167815333Y-95120666D01*
X167748666Y-95220666D01*
X167682000Y-95287333D01*
X167615333Y-95320666D01*
X169124999Y-114814001D02*
X169091665Y-114847334D01*
X168991665Y-114880667D01*
X168924999Y-114880667D01*
X168824999Y-114847334D01*
X168758332Y-114780667D01*
X168724999Y-114714001D01*
X168691665Y-114580667D01*
X168691665Y-114480667D01*
X168724999Y-114347334D01*
X168758332Y-114280667D01*
X168824999Y-114214001D01*
X168924999Y-114180667D01*
X168991665Y-114180667D01*
X169091665Y-114214001D01*
X169124999Y-114247334D01*
X169791665Y-114880667D02*
X169391665Y-114880667D01*
X169591665Y-114880667D02*
X169591665Y-114180667D01*
X169524999Y-114280667D01*
X169458332Y-114347334D01*
X169391665Y-114380667D01*
X170391665Y-114414001D02*
X170391665Y-114880667D01*
X170224999Y-114147334D02*
X170058332Y-114647334D01*
X170491665Y-114647334D01*
X169222000Y-121027000D02*
X169188666Y-121060333D01*
X169088666Y-121093666D01*
X169022000Y-121093666D01*
X168922000Y-121060333D01*
X168855333Y-120993666D01*
X168822000Y-120927000D01*
X168788666Y-120793666D01*
X168788666Y-120693666D01*
X168822000Y-120560333D01*
X168855333Y-120493666D01*
X168922000Y-120427000D01*
X169022000Y-120393666D01*
X169088666Y-120393666D01*
X169188666Y-120427000D01*
X169222000Y-120460333D01*
X169888666Y-121093666D02*
X169488666Y-121093666D01*
X169688666Y-121093666D02*
X169688666Y-120393666D01*
X169622000Y-120493666D01*
X169555333Y-120560333D01*
X169488666Y-120593666D01*
X170522000Y-120393666D02*
X170188666Y-120393666D01*
X170155333Y-120727000D01*
X170188666Y-120693666D01*
X170255333Y-120660333D01*
X170422000Y-120660333D01*
X170488666Y-120693666D01*
X170522000Y-120727000D01*
X170555333Y-120793666D01*
X170555333Y-120960333D01*
X170522000Y-121027000D01*
X170488666Y-121060333D01*
X170422000Y-121093666D01*
X170255333Y-121093666D01*
X170188666Y-121060333D01*
X170155333Y-121027000D01*
X151013333Y-89724666D02*
X150680000Y-89724666D01*
X150680000Y-89024666D01*
X151213333Y-89091333D02*
X151246666Y-89058000D01*
X151313333Y-89024666D01*
X151480000Y-89024666D01*
X151546666Y-89058000D01*
X151580000Y-89091333D01*
X151613333Y-89158000D01*
X151613333Y-89224666D01*
X151580000Y-89324666D01*
X151180000Y-89724666D01*
X151613333Y-89724666D01*
X155839333Y-120077666D02*
X155506000Y-120077666D01*
X155506000Y-119377666D01*
X156439333Y-120077666D02*
X156039333Y-120077666D01*
X156239333Y-120077666D02*
X156239333Y-119377666D01*
X156172666Y-119477666D01*
X156106000Y-119544333D01*
X156039333Y-119577666D01*
%LPC*%
G36*
G01*
X172986000Y-91606000D02*
X174486000Y-91606000D01*
G75*
G02*
X174736000Y-91856000I0J-250000D01*
G01*
X174736000Y-93056000D01*
G75*
G02*
X174486000Y-93306000I-250000J0D01*
G01*
X172986000Y-93306000D01*
G75*
G02*
X172736000Y-93056000I0J250000D01*
G01*
X172736000Y-91856000D01*
G75*
G02*
X172986000Y-91606000I250000J0D01*
G01*
G37*
D17*
X173736000Y-94956000D03*
D18*
X172974000Y-109220000D03*
D19*
X170434000Y-109220000D03*
X167894000Y-109220000D03*
X165354000Y-109220000D03*
X162814000Y-109220000D03*
X160274000Y-109220000D03*
X157734000Y-109220000D03*
X155194000Y-109220000D03*
X152654000Y-109220000D03*
X150114000Y-109220000D03*
X147574000Y-109220000D03*
X145034000Y-109220000D03*
X142494000Y-109220000D03*
X139954000Y-109220000D03*
X134874000Y-132080000D03*
X137414000Y-132080000D03*
X139954000Y-132080000D03*
X142494000Y-132080000D03*
X145034000Y-132080000D03*
X147574000Y-132080000D03*
X150114000Y-132080000D03*
X152654000Y-132080000D03*
X155194000Y-132080000D03*
X157734000Y-132080000D03*
X160274000Y-132080000D03*
X162814000Y-132080000D03*
X165354000Y-132080000D03*
X167894000Y-132080000D03*
X170434000Y-132080000D03*
X172974000Y-132080000D03*
D20*
X128143000Y-96307000D03*
D21*
X128143000Y-100307000D03*
X128143000Y-104307000D03*
X128143000Y-108307000D03*
X128143000Y-112307000D03*
X128143000Y-116307000D03*
X128143000Y-120307000D03*
X128143000Y-124307000D03*
X131143000Y-96307000D03*
X131143000Y-100307000D03*
X131143000Y-104307000D03*
X131143000Y-108307000D03*
X131143000Y-112307000D03*
X131143000Y-116307000D03*
X131143000Y-120307000D03*
X131143000Y-124307000D03*
D22*
X158140400Y-115458240D03*
X158140400Y-115958619D03*
X158140400Y-116459000D03*
X158140400Y-116959381D03*
X158140400Y-117459760D03*
X153771600Y-117459760D03*
X153771600Y-116959381D03*
X153771600Y-116459000D03*
X153771600Y-115958619D03*
X153771600Y-115458240D03*
G36*
G01*
X177488001Y-111922000D02*
X176587999Y-111922000D01*
G75*
G02*
X176338000Y-111672001I0J249999D01*
G01*
X176338000Y-111021999D01*
G75*
G02*
X176587999Y-110772000I249999J0D01*
G01*
X177488001Y-110772000D01*
G75*
G02*
X177738000Y-111021999I0J-249999D01*
G01*
X177738000Y-111672001D01*
G75*
G02*
X177488001Y-111922000I-249999J0D01*
G01*
G37*
G36*
G01*
X177488001Y-109872000D02*
X176587999Y-109872000D01*
G75*
G02*
X176338000Y-109622001I0J249999D01*
G01*
X176338000Y-108971999D01*
G75*
G02*
X176587999Y-108722000I249999J0D01*
G01*
X177488001Y-108722000D01*
G75*
G02*
X177738000Y-108971999I0J-249999D01*
G01*
X177738000Y-109622001D01*
G75*
G02*
X177488001Y-109872000I-249999J0D01*
G01*
G37*
D23*
X135002000Y-90932000D03*
X138302000Y-90932000D03*
D24*
X148884000Y-100764000D03*
X149384000Y-100764000D03*
X149884000Y-100764000D03*
X150384000Y-100764000D03*
X150884000Y-100764000D03*
X151384000Y-100764000D03*
X151884000Y-100764000D03*
X152384000Y-100764000D03*
X152884000Y-100764000D03*
X153384000Y-100764000D03*
X153884000Y-100764000D03*
X153884000Y-97864000D03*
X153384000Y-97864000D03*
X152884000Y-97864000D03*
X152384000Y-97864000D03*
X151884000Y-97864000D03*
X151384000Y-97864000D03*
X150884000Y-97864000D03*
X150384000Y-97864000D03*
X149884000Y-97864000D03*
X149384000Y-97864000D03*
X148884000Y-97864000D03*
D25*
X149834000Y-99314000D03*
D26*
X151384000Y-99314000D03*
D25*
X152934000Y-99314000D03*
D15*
G36*
X157492000Y-99164000D02*
G01*
X157492000Y-98664000D01*
X157492602Y-98664000D01*
X157492602Y-98639466D01*
X157497412Y-98590635D01*
X157506984Y-98542510D01*
X157521228Y-98495555D01*
X157540005Y-98450222D01*
X157563136Y-98406949D01*
X157590396Y-98366150D01*
X157621524Y-98328221D01*
X157656221Y-98293524D01*
X157694150Y-98262396D01*
X157734949Y-98235136D01*
X157778222Y-98212005D01*
X157823555Y-98193228D01*
X157870510Y-98178984D01*
X157918635Y-98169412D01*
X157967466Y-98164602D01*
X157992000Y-98164602D01*
X157992000Y-98164000D01*
X158492000Y-98164000D01*
X158492000Y-98164602D01*
X158516534Y-98164602D01*
X158565365Y-98169412D01*
X158613490Y-98178984D01*
X158660445Y-98193228D01*
X158705778Y-98212005D01*
X158749051Y-98235136D01*
X158789850Y-98262396D01*
X158827779Y-98293524D01*
X158862476Y-98328221D01*
X158893604Y-98366150D01*
X158920864Y-98406949D01*
X158943995Y-98450222D01*
X158962772Y-98495555D01*
X158977016Y-98542510D01*
X158986588Y-98590635D01*
X158991398Y-98639466D01*
X158991398Y-98664000D01*
X158992000Y-98664000D01*
X158992000Y-99164000D01*
X157492000Y-99164000D01*
G37*
G36*
X158991398Y-99964000D02*
G01*
X158991398Y-99988534D01*
X158986588Y-100037365D01*
X158977016Y-100085490D01*
X158962772Y-100132445D01*
X158943995Y-100177778D01*
X158920864Y-100221051D01*
X158893604Y-100261850D01*
X158862476Y-100299779D01*
X158827779Y-100334476D01*
X158789850Y-100365604D01*
X158749051Y-100392864D01*
X158705778Y-100415995D01*
X158660445Y-100434772D01*
X158613490Y-100449016D01*
X158565365Y-100458588D01*
X158516534Y-100463398D01*
X158492000Y-100463398D01*
X158492000Y-100464000D01*
X157992000Y-100464000D01*
X157992000Y-100463398D01*
X157967466Y-100463398D01*
X157918635Y-100458588D01*
X157870510Y-100449016D01*
X157823555Y-100434772D01*
X157778222Y-100415995D01*
X157734949Y-100392864D01*
X157694150Y-100365604D01*
X157656221Y-100334476D01*
X157621524Y-100299779D01*
X157590396Y-100261850D01*
X157563136Y-100221051D01*
X157540005Y-100177778D01*
X157521228Y-100132445D01*
X157506984Y-100085490D01*
X157497412Y-100037365D01*
X157492602Y-99988534D01*
X157492602Y-99964000D01*
X157492000Y-99964000D01*
X157492000Y-99464000D01*
X158992000Y-99464000D01*
X158992000Y-99964000D01*
X158991398Y-99964000D01*
G37*
D27*
X138242000Y-98410000D03*
X138242000Y-99710000D03*
X140142000Y-99060000D03*
X138242000Y-99060000D03*
X140142000Y-99710000D03*
X140142000Y-98410000D03*
D28*
X162118000Y-91932000D03*
X164018000Y-91932000D03*
X163068000Y-89932000D03*
X163068000Y-98060000D03*
X164018000Y-100060000D03*
X162118000Y-100060000D03*
D29*
X145002000Y-91440000D03*
X141002000Y-91440000D03*
G36*
G01*
X165866000Y-120721000D02*
X166366000Y-120721000D01*
G75*
G02*
X166591000Y-120946000I0J-225000D01*
G01*
X166591000Y-121396000D01*
G75*
G02*
X166366000Y-121621000I-225000J0D01*
G01*
X165866000Y-121621000D01*
G75*
G02*
X165641000Y-121396000I0J225000D01*
G01*
X165641000Y-120946000D01*
G75*
G02*
X165866000Y-120721000I225000J0D01*
G01*
G37*
G36*
G01*
X165866000Y-119171000D02*
X166366000Y-119171000D01*
G75*
G02*
X166591000Y-119396000I0J-225000D01*
G01*
X166591000Y-119846000D01*
G75*
G02*
X166366000Y-120071000I-225000J0D01*
G01*
X165866000Y-120071000D01*
G75*
G02*
X165641000Y-119846000I0J225000D01*
G01*
X165641000Y-119396000D01*
G75*
G02*
X165866000Y-119171000I225000J0D01*
G01*
G37*
G36*
G01*
X151134000Y-123235000D02*
X151634000Y-123235000D01*
G75*
G02*
X151859000Y-123460000I0J-225000D01*
G01*
X151859000Y-123910000D01*
G75*
G02*
X151634000Y-124135000I-225000J0D01*
G01*
X151134000Y-124135000D01*
G75*
G02*
X150909000Y-123910000I0J225000D01*
G01*
X150909000Y-123460000D01*
G75*
G02*
X151134000Y-123235000I225000J0D01*
G01*
G37*
G36*
G01*
X151134000Y-124785000D02*
X151634000Y-124785000D01*
G75*
G02*
X151859000Y-125010000I0J-225000D01*
G01*
X151859000Y-125460000D01*
G75*
G02*
X151634000Y-125685000I-225000J0D01*
G01*
X151134000Y-125685000D01*
G75*
G02*
X150909000Y-125460000I0J225000D01*
G01*
X150909000Y-125010000D01*
G75*
G02*
X151134000Y-124785000I225000J0D01*
G01*
G37*
G36*
G01*
X166366000Y-116007000D02*
X165866000Y-116007000D01*
G75*
G02*
X165641000Y-115782000I0J225000D01*
G01*
X165641000Y-115332000D01*
G75*
G02*
X165866000Y-115107000I225000J0D01*
G01*
X166366000Y-115107000D01*
G75*
G02*
X166591000Y-115332000I0J-225000D01*
G01*
X166591000Y-115782000D01*
G75*
G02*
X166366000Y-116007000I-225000J0D01*
G01*
G37*
G36*
G01*
X166366000Y-117557000D02*
X165866000Y-117557000D01*
G75*
G02*
X165641000Y-117332000I0J225000D01*
G01*
X165641000Y-116882000D01*
G75*
G02*
X165866000Y-116657000I225000J0D01*
G01*
X166366000Y-116657000D01*
G75*
G02*
X166591000Y-116882000I0J-225000D01*
G01*
X166591000Y-117332000D01*
G75*
G02*
X166366000Y-117557000I-225000J0D01*
G01*
G37*
G36*
G01*
X166366000Y-125685000D02*
X165866000Y-125685000D01*
G75*
G02*
X165641000Y-125460000I0J225000D01*
G01*
X165641000Y-125010000D01*
G75*
G02*
X165866000Y-124785000I225000J0D01*
G01*
X166366000Y-124785000D01*
G75*
G02*
X166591000Y-125010000I0J-225000D01*
G01*
X166591000Y-125460000D01*
G75*
G02*
X166366000Y-125685000I-225000J0D01*
G01*
G37*
G36*
G01*
X166366000Y-124135000D02*
X165866000Y-124135000D01*
G75*
G02*
X165641000Y-123910000I0J225000D01*
G01*
X165641000Y-123460000D01*
G75*
G02*
X165866000Y-123235000I225000J0D01*
G01*
X166366000Y-123235000D01*
G75*
G02*
X166591000Y-123460000I0J-225000D01*
G01*
X166591000Y-123910000D01*
G75*
G02*
X166366000Y-124135000I-225000J0D01*
G01*
G37*
G36*
G01*
X148545000Y-103890000D02*
X148545000Y-104390000D01*
G75*
G02*
X148320000Y-104615000I-225000J0D01*
G01*
X147870000Y-104615000D01*
G75*
G02*
X147645000Y-104390000I0J225000D01*
G01*
X147645000Y-103890000D01*
G75*
G02*
X147870000Y-103665000I225000J0D01*
G01*
X148320000Y-103665000D01*
G75*
G02*
X148545000Y-103890000I0J-225000D01*
G01*
G37*
G36*
G01*
X146995000Y-103890000D02*
X146995000Y-104390000D01*
G75*
G02*
X146770000Y-104615000I-225000J0D01*
G01*
X146320000Y-104615000D01*
G75*
G02*
X146095000Y-104390000I0J225000D01*
G01*
X146095000Y-103890000D01*
G75*
G02*
X146320000Y-103665000I225000J0D01*
G01*
X146770000Y-103665000D01*
G75*
G02*
X146995000Y-103890000I0J-225000D01*
G01*
G37*
G36*
G01*
X134985999Y-100976000D02*
X136286001Y-100976000D01*
G75*
G02*
X136536000Y-101225999I0J-249999D01*
G01*
X136536000Y-101876001D01*
G75*
G02*
X136286001Y-102126000I-249999J0D01*
G01*
X134985999Y-102126000D01*
G75*
G02*
X134736000Y-101876001I0J249999D01*
G01*
X134736000Y-101225999D01*
G75*
G02*
X134985999Y-100976000I249999J0D01*
G01*
G37*
G36*
G01*
X134985999Y-98026000D02*
X136286001Y-98026000D01*
G75*
G02*
X136536000Y-98275999I0J-249999D01*
G01*
X136536000Y-98926001D01*
G75*
G02*
X136286001Y-99176000I-249999J0D01*
G01*
X134985999Y-99176000D01*
G75*
G02*
X134736000Y-98926001I0J249999D01*
G01*
X134736000Y-98275999D01*
G75*
G02*
X134985999Y-98026000I249999J0D01*
G01*
G37*
G36*
G01*
X145214000Y-98585000D02*
X145214000Y-99535000D01*
G75*
G02*
X144964000Y-99785000I-250000J0D01*
G01*
X144464000Y-99785000D01*
G75*
G02*
X144214000Y-99535000I0J250000D01*
G01*
X144214000Y-98585000D01*
G75*
G02*
X144464000Y-98335000I250000J0D01*
G01*
X144964000Y-98335000D01*
G75*
G02*
X145214000Y-98585000I0J-250000D01*
G01*
G37*
G36*
G01*
X143314000Y-98585000D02*
X143314000Y-99535000D01*
G75*
G02*
X143064000Y-99785000I-250000J0D01*
G01*
X142564000Y-99785000D01*
G75*
G02*
X142314000Y-99535000I0J250000D01*
G01*
X142314000Y-98585000D01*
G75*
G02*
X142564000Y-98335000I250000J0D01*
G01*
X143064000Y-98335000D01*
G75*
G02*
X143314000Y-98585000I0J-250000D01*
G01*
G37*
G36*
G01*
X140925000Y-101350000D02*
X140925000Y-101850000D01*
G75*
G02*
X140700000Y-102075000I-225000J0D01*
G01*
X140250000Y-102075000D01*
G75*
G02*
X140025000Y-101850000I0J225000D01*
G01*
X140025000Y-101350000D01*
G75*
G02*
X140250000Y-101125000I225000J0D01*
G01*
X140700000Y-101125000D01*
G75*
G02*
X140925000Y-101350000I0J-225000D01*
G01*
G37*
G36*
G01*
X139375000Y-101350000D02*
X139375000Y-101850000D01*
G75*
G02*
X139150000Y-102075000I-225000J0D01*
G01*
X138700000Y-102075000D01*
G75*
G02*
X138475000Y-101850000I0J225000D01*
G01*
X138475000Y-101350000D01*
G75*
G02*
X138700000Y-101125000I225000J0D01*
G01*
X139150000Y-101125000D01*
G75*
G02*
X139375000Y-101350000I0J-225000D01*
G01*
G37*
G36*
G01*
X157017000Y-96262000D02*
X157017000Y-95762000D01*
G75*
G02*
X157242000Y-95537000I225000J0D01*
G01*
X157692000Y-95537000D01*
G75*
G02*
X157917000Y-95762000I0J-225000D01*
G01*
X157917000Y-96262000D01*
G75*
G02*
X157692000Y-96487000I-225000J0D01*
G01*
X157242000Y-96487000D01*
G75*
G02*
X157017000Y-96262000I0J225000D01*
G01*
G37*
G36*
G01*
X158567000Y-96262000D02*
X158567000Y-95762000D01*
G75*
G02*
X158792000Y-95537000I225000J0D01*
G01*
X159242000Y-95537000D01*
G75*
G02*
X159467000Y-95762000I0J-225000D01*
G01*
X159467000Y-96262000D01*
G75*
G02*
X159242000Y-96487000I-225000J0D01*
G01*
X158792000Y-96487000D01*
G75*
G02*
X158567000Y-96262000I0J225000D01*
G01*
G37*
G36*
G01*
X146046000Y-95179000D02*
X145546000Y-95179000D01*
G75*
G02*
X145321000Y-94954000I0J225000D01*
G01*
X145321000Y-94504000D01*
G75*
G02*
X145546000Y-94279000I225000J0D01*
G01*
X146046000Y-94279000D01*
G75*
G02*
X146271000Y-94504000I0J-225000D01*
G01*
X146271000Y-94954000D01*
G75*
G02*
X146046000Y-95179000I-225000J0D01*
G01*
G37*
G36*
G01*
X146046000Y-96729000D02*
X145546000Y-96729000D01*
G75*
G02*
X145321000Y-96504000I0J225000D01*
G01*
X145321000Y-96054000D01*
G75*
G02*
X145546000Y-95829000I225000J0D01*
G01*
X146046000Y-95829000D01*
G75*
G02*
X146271000Y-96054000I0J-225000D01*
G01*
X146271000Y-96504000D01*
G75*
G02*
X146046000Y-96729000I-225000J0D01*
G01*
G37*
G36*
G01*
X159467000Y-93730000D02*
X159467000Y-94230000D01*
G75*
G02*
X159242000Y-94455000I-225000J0D01*
G01*
X158792000Y-94455000D01*
G75*
G02*
X158567000Y-94230000I0J225000D01*
G01*
X158567000Y-93730000D01*
G75*
G02*
X158792000Y-93505000I225000J0D01*
G01*
X159242000Y-93505000D01*
G75*
G02*
X159467000Y-93730000I0J-225000D01*
G01*
G37*
G36*
G01*
X157917000Y-93730000D02*
X157917000Y-94230000D01*
G75*
G02*
X157692000Y-94455000I-225000J0D01*
G01*
X157242000Y-94455000D01*
G75*
G02*
X157017000Y-94230000I0J225000D01*
G01*
X157017000Y-93730000D01*
G75*
G02*
X157242000Y-93505000I225000J0D01*
G01*
X157692000Y-93505000D01*
G75*
G02*
X157917000Y-93730000I0J-225000D01*
G01*
G37*
G36*
G01*
X167782001Y-93617000D02*
X166481999Y-93617000D01*
G75*
G02*
X166232000Y-93367001I0J249999D01*
G01*
X166232000Y-92716999D01*
G75*
G02*
X166481999Y-92467000I249999J0D01*
G01*
X167782001Y-92467000D01*
G75*
G02*
X168032000Y-92716999I0J-249999D01*
G01*
X168032000Y-93367001D01*
G75*
G02*
X167782001Y-93617000I-249999J0D01*
G01*
G37*
G36*
G01*
X167782001Y-90667000D02*
X166481999Y-90667000D01*
G75*
G02*
X166232000Y-90417001I0J249999D01*
G01*
X166232000Y-89766999D01*
G75*
G02*
X166481999Y-89517000I249999J0D01*
G01*
X167782001Y-89517000D01*
G75*
G02*
X168032000Y-89766999I0J-249999D01*
G01*
X168032000Y-90417001D01*
G75*
G02*
X167782001Y-90667000I-249999J0D01*
G01*
G37*
G36*
G01*
X164317000Y-102407000D02*
X164867000Y-102407000D01*
G75*
G02*
X165067000Y-102607000I0J-200000D01*
G01*
X165067000Y-103007000D01*
G75*
G02*
X164867000Y-103207000I-200000J0D01*
G01*
X164317000Y-103207000D01*
G75*
G02*
X164117000Y-103007000I0J200000D01*
G01*
X164117000Y-102607000D01*
G75*
G02*
X164317000Y-102407000I200000J0D01*
G01*
G37*
G36*
G01*
X164317000Y-104057000D02*
X164867000Y-104057000D01*
G75*
G02*
X165067000Y-104257000I0J-200000D01*
G01*
X165067000Y-104657000D01*
G75*
G02*
X164867000Y-104857000I-200000J0D01*
G01*
X164317000Y-104857000D01*
G75*
G02*
X164117000Y-104657000I0J200000D01*
G01*
X164117000Y-104257000D01*
G75*
G02*
X164317000Y-104057000I200000J0D01*
G01*
G37*
G36*
G01*
X167407000Y-104857000D02*
X166857000Y-104857000D01*
G75*
G02*
X166657000Y-104657000I0J200000D01*
G01*
X166657000Y-104257000D01*
G75*
G02*
X166857000Y-104057000I200000J0D01*
G01*
X167407000Y-104057000D01*
G75*
G02*
X167607000Y-104257000I0J-200000D01*
G01*
X167607000Y-104657000D01*
G75*
G02*
X167407000Y-104857000I-200000J0D01*
G01*
G37*
G36*
G01*
X167407000Y-103207000D02*
X166857000Y-103207000D01*
G75*
G02*
X166657000Y-103007000I0J200000D01*
G01*
X166657000Y-102607000D01*
G75*
G02*
X166857000Y-102407000I200000J0D01*
G01*
X167407000Y-102407000D01*
G75*
G02*
X167607000Y-102607000I0J-200000D01*
G01*
X167607000Y-103007000D01*
G75*
G02*
X167407000Y-103207000I-200000J0D01*
G01*
G37*
G36*
G01*
X159237000Y-102407000D02*
X159787000Y-102407000D01*
G75*
G02*
X159987000Y-102607000I0J-200000D01*
G01*
X159987000Y-103007000D01*
G75*
G02*
X159787000Y-103207000I-200000J0D01*
G01*
X159237000Y-103207000D01*
G75*
G02*
X159037000Y-103007000I0J200000D01*
G01*
X159037000Y-102607000D01*
G75*
G02*
X159237000Y-102407000I200000J0D01*
G01*
G37*
G36*
G01*
X159237000Y-104057000D02*
X159787000Y-104057000D01*
G75*
G02*
X159987000Y-104257000I0J-200000D01*
G01*
X159987000Y-104657000D01*
G75*
G02*
X159787000Y-104857000I-200000J0D01*
G01*
X159237000Y-104857000D01*
G75*
G02*
X159037000Y-104657000I0J200000D01*
G01*
X159037000Y-104257000D01*
G75*
G02*
X159237000Y-104057000I200000J0D01*
G01*
G37*
G36*
G01*
X162327000Y-103207000D02*
X161777000Y-103207000D01*
G75*
G02*
X161577000Y-103007000I0J200000D01*
G01*
X161577000Y-102607000D01*
G75*
G02*
X161777000Y-102407000I200000J0D01*
G01*
X162327000Y-102407000D01*
G75*
G02*
X162527000Y-102607000I0J-200000D01*
G01*
X162527000Y-103007000D01*
G75*
G02*
X162327000Y-103207000I-200000J0D01*
G01*
G37*
G36*
G01*
X162327000Y-104857000D02*
X161777000Y-104857000D01*
G75*
G02*
X161577000Y-104657000I0J200000D01*
G01*
X161577000Y-104257000D01*
G75*
G02*
X161777000Y-104057000I200000J0D01*
G01*
X162327000Y-104057000D01*
G75*
G02*
X162527000Y-104257000I0J-200000D01*
G01*
X162527000Y-104657000D01*
G75*
G02*
X162327000Y-104857000I-200000J0D01*
G01*
G37*
G36*
G01*
X135361000Y-107741000D02*
X135911000Y-107741000D01*
G75*
G02*
X136111000Y-107941000I0J-200000D01*
G01*
X136111000Y-108341000D01*
G75*
G02*
X135911000Y-108541000I-200000J0D01*
G01*
X135361000Y-108541000D01*
G75*
G02*
X135161000Y-108341000I0J200000D01*
G01*
X135161000Y-107941000D01*
G75*
G02*
X135361000Y-107741000I200000J0D01*
G01*
G37*
G36*
G01*
X135361000Y-109391000D02*
X135911000Y-109391000D01*
G75*
G02*
X136111000Y-109591000I0J-200000D01*
G01*
X136111000Y-109991000D01*
G75*
G02*
X135911000Y-110191000I-200000J0D01*
G01*
X135361000Y-110191000D01*
G75*
G02*
X135161000Y-109991000I0J200000D01*
G01*
X135161000Y-109591000D01*
G75*
G02*
X135361000Y-109391000I200000J0D01*
G01*
G37*
G36*
G01*
X163851000Y-119971000D02*
X163301000Y-119971000D01*
G75*
G02*
X163101000Y-119771000I0J200000D01*
G01*
X163101000Y-119371000D01*
G75*
G02*
X163301000Y-119171000I200000J0D01*
G01*
X163851000Y-119171000D01*
G75*
G02*
X164051000Y-119371000I0J-200000D01*
G01*
X164051000Y-119771000D01*
G75*
G02*
X163851000Y-119971000I-200000J0D01*
G01*
G37*
G36*
G01*
X163851000Y-121621000D02*
X163301000Y-121621000D01*
G75*
G02*
X163101000Y-121421000I0J200000D01*
G01*
X163101000Y-121021000D01*
G75*
G02*
X163301000Y-120821000I200000J0D01*
G01*
X163851000Y-120821000D01*
G75*
G02*
X164051000Y-121021000I0J-200000D01*
G01*
X164051000Y-121421000D01*
G75*
G02*
X163851000Y-121621000I-200000J0D01*
G01*
G37*
G36*
G01*
X151109000Y-116757000D02*
X151659000Y-116757000D01*
G75*
G02*
X151859000Y-116957000I0J-200000D01*
G01*
X151859000Y-117357000D01*
G75*
G02*
X151659000Y-117557000I-200000J0D01*
G01*
X151109000Y-117557000D01*
G75*
G02*
X150909000Y-117357000I0J200000D01*
G01*
X150909000Y-116957000D01*
G75*
G02*
X151109000Y-116757000I200000J0D01*
G01*
G37*
G36*
G01*
X151109000Y-115107000D02*
X151659000Y-115107000D01*
G75*
G02*
X151859000Y-115307000I0J-200000D01*
G01*
X151859000Y-115707000D01*
G75*
G02*
X151659000Y-115907000I-200000J0D01*
G01*
X151109000Y-115907000D01*
G75*
G02*
X150909000Y-115707000I0J200000D01*
G01*
X150909000Y-115307000D01*
G75*
G02*
X151109000Y-115107000I200000J0D01*
G01*
G37*
G36*
G01*
X151659000Y-121621000D02*
X151109000Y-121621000D01*
G75*
G02*
X150909000Y-121421000I0J200000D01*
G01*
X150909000Y-121021000D01*
G75*
G02*
X151109000Y-120821000I200000J0D01*
G01*
X151659000Y-120821000D01*
G75*
G02*
X151859000Y-121021000I0J-200000D01*
G01*
X151859000Y-121421000D01*
G75*
G02*
X151659000Y-121621000I-200000J0D01*
G01*
G37*
G36*
G01*
X151659000Y-119971000D02*
X151109000Y-119971000D01*
G75*
G02*
X150909000Y-119771000I0J200000D01*
G01*
X150909000Y-119371000D01*
G75*
G02*
X151109000Y-119171000I200000J0D01*
G01*
X151659000Y-119171000D01*
G75*
G02*
X151859000Y-119371000I0J-200000D01*
G01*
X151859000Y-119771000D01*
G75*
G02*
X151659000Y-119971000I-200000J0D01*
G01*
G37*
G36*
G01*
X160761000Y-116757000D02*
X161311000Y-116757000D01*
G75*
G02*
X161511000Y-116957000I0J-200000D01*
G01*
X161511000Y-117357000D01*
G75*
G02*
X161311000Y-117557000I-200000J0D01*
G01*
X160761000Y-117557000D01*
G75*
G02*
X160561000Y-117357000I0J200000D01*
G01*
X160561000Y-116957000D01*
G75*
G02*
X160761000Y-116757000I200000J0D01*
G01*
G37*
G36*
G01*
X160761000Y-115107000D02*
X161311000Y-115107000D01*
G75*
G02*
X161511000Y-115307000I0J-200000D01*
G01*
X161511000Y-115707000D01*
G75*
G02*
X161311000Y-115907000I-200000J0D01*
G01*
X160761000Y-115907000D01*
G75*
G02*
X160561000Y-115707000I0J200000D01*
G01*
X160561000Y-115307000D01*
G75*
G02*
X160761000Y-115107000I200000J0D01*
G01*
G37*
G36*
G01*
X160761000Y-124885000D02*
X161311000Y-124885000D01*
G75*
G02*
X161511000Y-125085000I0J-200000D01*
G01*
X161511000Y-125485000D01*
G75*
G02*
X161311000Y-125685000I-200000J0D01*
G01*
X160761000Y-125685000D01*
G75*
G02*
X160561000Y-125485000I0J200000D01*
G01*
X160561000Y-125085000D01*
G75*
G02*
X160761000Y-124885000I200000J0D01*
G01*
G37*
G36*
G01*
X160761000Y-123235000D02*
X161311000Y-123235000D01*
G75*
G02*
X161511000Y-123435000I0J-200000D01*
G01*
X161511000Y-123835000D01*
G75*
G02*
X161311000Y-124035000I-200000J0D01*
G01*
X160761000Y-124035000D01*
G75*
G02*
X160561000Y-123835000I0J200000D01*
G01*
X160561000Y-123435000D01*
G75*
G02*
X160761000Y-123235000I200000J0D01*
G01*
G37*
G36*
G01*
X163851000Y-117557000D02*
X163301000Y-117557000D01*
G75*
G02*
X163101000Y-117357000I0J200000D01*
G01*
X163101000Y-116957000D01*
G75*
G02*
X163301000Y-116757000I200000J0D01*
G01*
X163851000Y-116757000D01*
G75*
G02*
X164051000Y-116957000I0J-200000D01*
G01*
X164051000Y-117357000D01*
G75*
G02*
X163851000Y-117557000I-200000J0D01*
G01*
G37*
G36*
G01*
X163851000Y-115907000D02*
X163301000Y-115907000D01*
G75*
G02*
X163101000Y-115707000I0J200000D01*
G01*
X163101000Y-115307000D01*
G75*
G02*
X163301000Y-115107000I200000J0D01*
G01*
X163851000Y-115107000D01*
G75*
G02*
X164051000Y-115307000I0J-200000D01*
G01*
X164051000Y-115707000D01*
G75*
G02*
X163851000Y-115907000I-200000J0D01*
G01*
G37*
G36*
G01*
X163301000Y-124885000D02*
X163851000Y-124885000D01*
G75*
G02*
X164051000Y-125085000I0J-200000D01*
G01*
X164051000Y-125485000D01*
G75*
G02*
X163851000Y-125685000I-200000J0D01*
G01*
X163301000Y-125685000D01*
G75*
G02*
X163101000Y-125485000I0J200000D01*
G01*
X163101000Y-125085000D01*
G75*
G02*
X163301000Y-124885000I200000J0D01*
G01*
G37*
G36*
G01*
X163301000Y-123235000D02*
X163851000Y-123235000D01*
G75*
G02*
X164051000Y-123435000I0J-200000D01*
G01*
X164051000Y-123835000D01*
G75*
G02*
X163851000Y-124035000I-200000J0D01*
G01*
X163301000Y-124035000D01*
G75*
G02*
X163101000Y-123835000I0J200000D01*
G01*
X163101000Y-123435000D01*
G75*
G02*
X163301000Y-123235000I200000J0D01*
G01*
G37*
G36*
G01*
X176763000Y-104693000D02*
X177313000Y-104693000D01*
G75*
G02*
X177513000Y-104893000I0J-200000D01*
G01*
X177513000Y-105293000D01*
G75*
G02*
X177313000Y-105493000I-200000J0D01*
G01*
X176763000Y-105493000D01*
G75*
G02*
X176563000Y-105293000I0J200000D01*
G01*
X176563000Y-104893000D01*
G75*
G02*
X176763000Y-104693000I200000J0D01*
G01*
G37*
G36*
G01*
X176763000Y-106343000D02*
X177313000Y-106343000D01*
G75*
G02*
X177513000Y-106543000I0J-200000D01*
G01*
X177513000Y-106943000D01*
G75*
G02*
X177313000Y-107143000I-200000J0D01*
G01*
X176763000Y-107143000D01*
G75*
G02*
X176563000Y-106943000I0J200000D01*
G01*
X176563000Y-106543000D01*
G75*
G02*
X176763000Y-106343000I200000J0D01*
G01*
G37*
G36*
G01*
X140441000Y-94279000D02*
X140991000Y-94279000D01*
G75*
G02*
X141191000Y-94479000I0J-200000D01*
G01*
X141191000Y-94879000D01*
G75*
G02*
X140991000Y-95079000I-200000J0D01*
G01*
X140441000Y-95079000D01*
G75*
G02*
X140241000Y-94879000I0J200000D01*
G01*
X140241000Y-94479000D01*
G75*
G02*
X140441000Y-94279000I200000J0D01*
G01*
G37*
G36*
G01*
X140441000Y-95929000D02*
X140991000Y-95929000D01*
G75*
G02*
X141191000Y-96129000I0J-200000D01*
G01*
X141191000Y-96529000D01*
G75*
G02*
X140991000Y-96729000I-200000J0D01*
G01*
X140441000Y-96729000D01*
G75*
G02*
X140241000Y-96529000I0J200000D01*
G01*
X140241000Y-96129000D01*
G75*
G02*
X140441000Y-95929000I200000J0D01*
G01*
G37*
G36*
G01*
X137901000Y-95929000D02*
X138451000Y-95929000D01*
G75*
G02*
X138651000Y-96129000I0J-200000D01*
G01*
X138651000Y-96529000D01*
G75*
G02*
X138451000Y-96729000I-200000J0D01*
G01*
X137901000Y-96729000D01*
G75*
G02*
X137701000Y-96529000I0J200000D01*
G01*
X137701000Y-96129000D01*
G75*
G02*
X137901000Y-95929000I200000J0D01*
G01*
G37*
G36*
G01*
X137901000Y-94279000D02*
X138451000Y-94279000D01*
G75*
G02*
X138651000Y-94479000I0J-200000D01*
G01*
X138651000Y-94879000D01*
G75*
G02*
X138451000Y-95079000I-200000J0D01*
G01*
X137901000Y-95079000D01*
G75*
G02*
X137701000Y-94879000I0J200000D01*
G01*
X137701000Y-94479000D01*
G75*
G02*
X137901000Y-94279000I200000J0D01*
G01*
G37*
G36*
G01*
X135361000Y-94279000D02*
X135911000Y-94279000D01*
G75*
G02*
X136111000Y-94479000I0J-200000D01*
G01*
X136111000Y-94879000D01*
G75*
G02*
X135911000Y-95079000I-200000J0D01*
G01*
X135361000Y-95079000D01*
G75*
G02*
X135161000Y-94879000I0J200000D01*
G01*
X135161000Y-94479000D01*
G75*
G02*
X135361000Y-94279000I200000J0D01*
G01*
G37*
G36*
G01*
X135361000Y-95929000D02*
X135911000Y-95929000D01*
G75*
G02*
X136111000Y-96129000I0J-200000D01*
G01*
X136111000Y-96529000D01*
G75*
G02*
X135911000Y-96729000I-200000J0D01*
G01*
X135361000Y-96729000D01*
G75*
G02*
X135161000Y-96529000I0J200000D01*
G01*
X135161000Y-96129000D01*
G75*
G02*
X135361000Y-95929000I200000J0D01*
G01*
G37*
G36*
G01*
X142981000Y-95929000D02*
X143531000Y-95929000D01*
G75*
G02*
X143731000Y-96129000I0J-200000D01*
G01*
X143731000Y-96529000D01*
G75*
G02*
X143531000Y-96729000I-200000J0D01*
G01*
X142981000Y-96729000D01*
G75*
G02*
X142781000Y-96529000I0J200000D01*
G01*
X142781000Y-96129000D01*
G75*
G02*
X142981000Y-95929000I200000J0D01*
G01*
G37*
G36*
G01*
X142981000Y-94279000D02*
X143531000Y-94279000D01*
G75*
G02*
X143731000Y-94479000I0J-200000D01*
G01*
X143731000Y-94879000D01*
G75*
G02*
X143531000Y-95079000I-200000J0D01*
G01*
X142981000Y-95079000D01*
G75*
G02*
X142781000Y-94879000I0J200000D01*
G01*
X142781000Y-94479000D01*
G75*
G02*
X142981000Y-94279000I200000J0D01*
G01*
G37*
G36*
G01*
X143085000Y-103865000D02*
X143085000Y-104415000D01*
G75*
G02*
X142885000Y-104615000I-200000J0D01*
G01*
X142485000Y-104615000D01*
G75*
G02*
X142285000Y-104415000I0J200000D01*
G01*
X142285000Y-103865000D01*
G75*
G02*
X142485000Y-103665000I200000J0D01*
G01*
X142885000Y-103665000D01*
G75*
G02*
X143085000Y-103865000I0J-200000D01*
G01*
G37*
G36*
G01*
X144735000Y-103865000D02*
X144735000Y-104415000D01*
G75*
G02*
X144535000Y-104615000I-200000J0D01*
G01*
X144135000Y-104615000D01*
G75*
G02*
X143935000Y-104415000I0J200000D01*
G01*
X143935000Y-103865000D01*
G75*
G02*
X144135000Y-103665000I200000J0D01*
G01*
X144535000Y-103665000D01*
G75*
G02*
X144735000Y-103865000I0J-200000D01*
G01*
G37*
G36*
G01*
X157247000Y-103207000D02*
X156697000Y-103207000D01*
G75*
G02*
X156497000Y-103007000I0J200000D01*
G01*
X156497000Y-102607000D01*
G75*
G02*
X156697000Y-102407000I200000J0D01*
G01*
X157247000Y-102407000D01*
G75*
G02*
X157447000Y-102607000I0J-200000D01*
G01*
X157447000Y-103007000D01*
G75*
G02*
X157247000Y-103207000I-200000J0D01*
G01*
G37*
G36*
G01*
X157247000Y-104857000D02*
X156697000Y-104857000D01*
G75*
G02*
X156497000Y-104657000I0J200000D01*
G01*
X156497000Y-104257000D01*
G75*
G02*
X156697000Y-104057000I200000J0D01*
G01*
X157247000Y-104057000D01*
G75*
G02*
X157447000Y-104257000I0J-200000D01*
G01*
X157447000Y-104657000D01*
G75*
G02*
X157247000Y-104857000I-200000J0D01*
G01*
G37*
G36*
G01*
X144735000Y-101325000D02*
X144735000Y-101875000D01*
G75*
G02*
X144535000Y-102075000I-200000J0D01*
G01*
X144135000Y-102075000D01*
G75*
G02*
X143935000Y-101875000I0J200000D01*
G01*
X143935000Y-101325000D01*
G75*
G02*
X144135000Y-101125000I200000J0D01*
G01*
X144535000Y-101125000D01*
G75*
G02*
X144735000Y-101325000I0J-200000D01*
G01*
G37*
G36*
G01*
X143085000Y-101325000D02*
X143085000Y-101875000D01*
G75*
G02*
X142885000Y-102075000I-200000J0D01*
G01*
X142485000Y-102075000D01*
G75*
G02*
X142285000Y-101875000I0J200000D01*
G01*
X142285000Y-101325000D01*
G75*
G02*
X142485000Y-101125000I200000J0D01*
G01*
X142885000Y-101125000D01*
G75*
G02*
X143085000Y-101325000I0J-200000D01*
G01*
G37*
G36*
G01*
X150705000Y-103865000D02*
X150705000Y-104415000D01*
G75*
G02*
X150505000Y-104615000I-200000J0D01*
G01*
X150105000Y-104615000D01*
G75*
G02*
X149905000Y-104415000I0J200000D01*
G01*
X149905000Y-103865000D01*
G75*
G02*
X150105000Y-103665000I200000J0D01*
G01*
X150505000Y-103665000D01*
G75*
G02*
X150705000Y-103865000I0J-200000D01*
G01*
G37*
G36*
G01*
X152355000Y-103865000D02*
X152355000Y-104415000D01*
G75*
G02*
X152155000Y-104615000I-200000J0D01*
G01*
X151755000Y-104615000D01*
G75*
G02*
X151555000Y-104415000I0J200000D01*
G01*
X151555000Y-103865000D01*
G75*
G02*
X151755000Y-103665000I200000J0D01*
G01*
X152155000Y-103665000D01*
G75*
G02*
X152355000Y-103865000I0J-200000D01*
G01*
G37*
G36*
G01*
X163493000Y-94255000D02*
X163493000Y-93705000D01*
G75*
G02*
X163693000Y-93505000I200000J0D01*
G01*
X164093000Y-93505000D01*
G75*
G02*
X164293000Y-93705000I0J-200000D01*
G01*
X164293000Y-94255000D01*
G75*
G02*
X164093000Y-94455000I-200000J0D01*
G01*
X163693000Y-94455000D01*
G75*
G02*
X163493000Y-94255000I0J200000D01*
G01*
G37*
G36*
G01*
X161843000Y-94255000D02*
X161843000Y-93705000D01*
G75*
G02*
X162043000Y-93505000I200000J0D01*
G01*
X162443000Y-93505000D01*
G75*
G02*
X162643000Y-93705000I0J-200000D01*
G01*
X162643000Y-94255000D01*
G75*
G02*
X162443000Y-94455000I-200000J0D01*
G01*
X162043000Y-94455000D01*
G75*
G02*
X161843000Y-94255000I0J200000D01*
G01*
G37*
G36*
G01*
X161843000Y-96287000D02*
X161843000Y-95737000D01*
G75*
G02*
X162043000Y-95537000I200000J0D01*
G01*
X162443000Y-95537000D01*
G75*
G02*
X162643000Y-95737000I0J-200000D01*
G01*
X162643000Y-96287000D01*
G75*
G02*
X162443000Y-96487000I-200000J0D01*
G01*
X162043000Y-96487000D01*
G75*
G02*
X161843000Y-96287000I0J200000D01*
G01*
G37*
G36*
G01*
X163493000Y-96287000D02*
X163493000Y-95737000D01*
G75*
G02*
X163693000Y-95537000I200000J0D01*
G01*
X164093000Y-95537000D01*
G75*
G02*
X164293000Y-95737000I0J-200000D01*
G01*
X164293000Y-96287000D01*
G75*
G02*
X164093000Y-96487000I-200000J0D01*
G01*
X163693000Y-96487000D01*
G75*
G02*
X163493000Y-96287000I0J200000D01*
G01*
G37*
G36*
G01*
X166481999Y-96248000D02*
X167782001Y-96248000D01*
G75*
G02*
X168032000Y-96497999I0J-249999D01*
G01*
X168032000Y-97148001D01*
G75*
G02*
X167782001Y-97398000I-249999J0D01*
G01*
X166481999Y-97398000D01*
G75*
G02*
X166232000Y-97148001I0J249999D01*
G01*
X166232000Y-96497999D01*
G75*
G02*
X166481999Y-96248000I249999J0D01*
G01*
G37*
G36*
G01*
X166481999Y-99198000D02*
X167782001Y-99198000D01*
G75*
G02*
X168032000Y-99447999I0J-249999D01*
G01*
X168032000Y-100098001D01*
G75*
G02*
X167782001Y-100348000I-249999J0D01*
G01*
X166481999Y-100348000D01*
G75*
G02*
X166232000Y-100098001I0J249999D01*
G01*
X166232000Y-99447999D01*
G75*
G02*
X166481999Y-99198000I249999J0D01*
G01*
G37*
G36*
G01*
X170322001Y-119398000D02*
X169021999Y-119398000D01*
G75*
G02*
X168772000Y-119148001I0J249999D01*
G01*
X168772000Y-118497999D01*
G75*
G02*
X169021999Y-118248000I249999J0D01*
G01*
X170322001Y-118248000D01*
G75*
G02*
X170572000Y-118497999I0J-249999D01*
G01*
X170572000Y-119148001D01*
G75*
G02*
X170322001Y-119398000I-249999J0D01*
G01*
G37*
G36*
G01*
X170322001Y-116448000D02*
X169021999Y-116448000D01*
G75*
G02*
X168772000Y-116198001I0J249999D01*
G01*
X168772000Y-115547999D01*
G75*
G02*
X169021999Y-115298000I249999J0D01*
G01*
X170322001Y-115298000D01*
G75*
G02*
X170572000Y-115547999I0J-249999D01*
G01*
X170572000Y-116198001D01*
G75*
G02*
X170322001Y-116448000I-249999J0D01*
G01*
G37*
G36*
G01*
X169021999Y-124344000D02*
X170322001Y-124344000D01*
G75*
G02*
X170572000Y-124593999I0J-249999D01*
G01*
X170572000Y-125244001D01*
G75*
G02*
X170322001Y-125494000I-249999J0D01*
G01*
X169021999Y-125494000D01*
G75*
G02*
X168772000Y-125244001I0J249999D01*
G01*
X168772000Y-124593999D01*
G75*
G02*
X169021999Y-124344000I249999J0D01*
G01*
G37*
G36*
G01*
X169021999Y-121394000D02*
X170322001Y-121394000D01*
G75*
G02*
X170572000Y-121643999I0J-249999D01*
G01*
X170572000Y-122294001D01*
G75*
G02*
X170322001Y-122544000I-249999J0D01*
G01*
X169021999Y-122544000D01*
G75*
G02*
X168772000Y-122294001I0J249999D01*
G01*
X168772000Y-121643999D01*
G75*
G02*
X169021999Y-121394000I249999J0D01*
G01*
G37*
D30*
X148985000Y-92456000D03*
X153275000Y-92456000D03*
X158101000Y-122936000D03*
X153811000Y-122936000D03*
M02*
