M48
; DRILL file {KiCad (5.1.10)-1} date 09/10/21 11:39:55
; FORMAT={-:-/ absolute / metric / decimal}
; #@! TF.CreationDate,2021-09-10T11:39:55+02:00
; #@! TF.GenerationSoftware,Kicad,Pcbnew,(5.1.10)-1
; #@! TF.FileFunction,Plated,1,2,PTH
FMAT,2
METRIC
T1C0.400
T2C1.000
T3C1.500
%
G90
G05
T1
X138.737Y-112.879
X139.802Y-119.371
X147.574Y-111.504
X151.2Y-118.465
X153.231Y-119.373
X155.355Y-125.991
X161.647Y-119.194
X162.56Y-114.241
X163.472Y-123.77
X163.576Y-96.048
X166.624Y-104.243
X169.48Y-113.411
X171.187Y-100.167
X172.212Y-100.167
X173.818Y-105.225
X174.498Y-111.506
X175.514Y-106.426
T2
X134.874Y-132.08
X137.414Y-132.08
X137.766Y-90.282
X137.766Y-92.822
X137.766Y-101.582
X137.766Y-104.122
X139.954Y-109.22
X139.954Y-132.08
X142.494Y-109.22
X142.494Y-132.08
X145.034Y-109.22
X145.034Y-132.08
X147.574Y-109.22
X147.574Y-132.08
X150.114Y-109.22
X150.114Y-132.08
X152.654Y-109.22
X152.654Y-132.08
X155.194Y-109.22
X155.194Y-132.08
X156.366Y-90.282
X156.366Y-92.822
X156.366Y-101.582
X156.366Y-104.122
X157.734Y-109.22
X157.734Y-132.08
X160.274Y-109.22
X160.274Y-132.08
X162.814Y-109.22
X162.814Y-132.08
X165.354Y-109.22
X165.354Y-132.08
X167.894Y-109.22
X167.894Y-132.08
X170.434Y-109.22
X170.434Y-132.08
X172.974Y-109.22
X172.974Y-132.08
X173.736Y-92.456
X173.736Y-94.956
T3
X128.143Y-96.307
X128.143Y-100.307
X128.143Y-104.307
X128.143Y-108.307
X128.143Y-112.307
X128.143Y-116.307
X128.143Y-120.307
X128.143Y-124.307
X131.143Y-96.307
X131.143Y-100.307
X131.143Y-104.307
X131.143Y-108.307
X131.143Y-112.307
X131.143Y-116.307
X131.143Y-120.307
X131.143Y-124.307
T0
M30
