M48
; DRILL file {KiCad (5.1.10)-1} date 11/09/21 17:41:20
; FORMAT={-:-/ absolute / metric / decimal}
; #@! TF.CreationDate,2021-11-09T17:41:20+01:00
; #@! TF.GenerationSoftware,Kicad,Pcbnew,(5.1.10)-1
; #@! TF.FileFunction,Plated,1,2,PTH
FMAT,2
METRIC
T1C0.400
T2C1.000
T3C1.500
%
G90
G05
T1
X135.636Y-111.125
X136.652Y-97.155
X137.414Y-104.14
X140.208Y-89.154
X140.208Y-90.17
X140.208Y-91.186
X140.208Y-92.202
X141.605Y-100.584
X141.732Y-94.869
X141.732Y-95.885
X141.732Y-96.901
X146.05Y-99.06
X146.05Y-100.203
X146.05Y-101.346
X146.558Y-105.283
X147.066Y-99.06
X147.066Y-100.203
X147.066Y-101.346
X148.082Y-99.06
X148.082Y-100.203
X148.082Y-101.346
X152.273Y-102.235
X153.924Y-97.155
X155.067Y-92.71
X155.067Y-93.726
X155.067Y-94.742
X156.083Y-92.71
X156.083Y-93.726
X156.21Y-113.538
X157.734Y-120.777
X157.734Y-121.793
X157.734Y-122.809
X158.115Y-102.616
X160.401Y-98.044
X161.29Y-113.538
X163.195Y-102.87
X163.703Y-95.123
X164.084Y-120.523
X164.973Y-89.789
X165.989Y-102.87
X166.37Y-113.665
X168.402Y-93.091
X168.783Y-121.031
X168.783Y-121.92
X168.783Y-122.809
X174.371Y-111.506
T2
X134.874Y-132.08
X137.414Y-132.08
X139.954Y-109.22
X139.954Y-132.08
X142.494Y-109.22
X142.494Y-132.08
X145.034Y-109.22
X145.034Y-132.08
X147.574Y-109.22
X147.574Y-132.08
X150.114Y-109.22
X150.114Y-132.08
X152.654Y-109.22
X152.654Y-132.08
X155.194Y-109.22
X155.194Y-132.08
X157.734Y-109.22
X157.734Y-132.08
X160.274Y-109.22
X160.274Y-132.08
X162.814Y-109.22
X162.814Y-132.08
X165.354Y-109.22
X165.354Y-132.08
X167.894Y-109.22
X167.894Y-132.08
X170.434Y-109.22
X170.434Y-132.08
X172.974Y-109.22
X172.974Y-132.08
X173.736Y-94.488
X173.736Y-96.988
T3
X128.143Y-96.307
X128.143Y-100.307
X128.143Y-104.307
X128.143Y-108.307
X128.143Y-112.307
X128.143Y-116.307
X128.143Y-120.307
X128.143Y-124.307
X131.143Y-96.307
X131.143Y-100.307
X131.143Y-104.307
X131.143Y-108.307
X131.143Y-112.307
X131.143Y-116.307
X131.143Y-120.307
X131.143Y-124.307
T0
M30
