G04 #@! TF.GenerationSoftware,KiCad,Pcbnew,(5.1.10)-1*
G04 #@! TF.CreationDate,2021-11-09T17:41:14+01:00*
G04 #@! TF.ProjectId,pcb-esp32-power,7063622d-6573-4703-9332-2d706f776572,rev?*
G04 #@! TF.SameCoordinates,Original*
G04 #@! TF.FileFunction,Soldermask,Top*
G04 #@! TF.FilePolarity,Negative*
%FSLAX46Y46*%
G04 Gerber Fmt 4.6, Leading zero omitted, Abs format (unit mm)*
G04 Created by KiCad (PCBNEW (5.1.10)-1) date 2021-11-09 17:41:14*
%MOMM*%
%LPD*%
G01*
G04 APERTURE LIST*
%ADD10O,2.000000X1.700000*%
%ADD11R,1.700000X1.700000*%
%ADD12O,1.700000X1.700000*%
%ADD13R,2.500000X2.500000*%
%ADD14C,2.500000*%
%ADD15R,1.397000X0.279400*%
%ADD16R,0.900000X1.200000*%
%ADD17R,0.250000X0.700000*%
%ADD18R,2.225000X1.650000*%
%ADD19R,0.865000X0.889000*%
%ADD20C,0.100000*%
%ADD21R,0.650000X0.400000*%
%ADD22R,0.900000X0.800000*%
%ADD23R,2.500000X1.800000*%
%ADD24R,1.200000X2.300000*%
%ADD25R,2.300000X1.200000*%
G04 APERTURE END LIST*
G36*
G01*
X172986000Y-93638000D02*
X174486000Y-93638000D01*
G75*
G02*
X174736000Y-93888000I0J-250000D01*
G01*
X174736000Y-95088000D01*
G75*
G02*
X174486000Y-95338000I-250000J0D01*
G01*
X172986000Y-95338000D01*
G75*
G02*
X172736000Y-95088000I0J250000D01*
G01*
X172736000Y-93888000D01*
G75*
G02*
X172986000Y-93638000I250000J0D01*
G01*
G37*
D10*
X173736000Y-96988000D03*
D11*
X172974000Y-109220000D03*
D12*
X170434000Y-109220000D03*
X167894000Y-109220000D03*
X165354000Y-109220000D03*
X162814000Y-109220000D03*
X160274000Y-109220000D03*
X157734000Y-109220000D03*
X155194000Y-109220000D03*
X152654000Y-109220000D03*
X150114000Y-109220000D03*
X147574000Y-109220000D03*
X145034000Y-109220000D03*
X142494000Y-109220000D03*
X139954000Y-109220000D03*
X134874000Y-132080000D03*
X137414000Y-132080000D03*
X139954000Y-132080000D03*
X142494000Y-132080000D03*
X145034000Y-132080000D03*
X147574000Y-132080000D03*
X150114000Y-132080000D03*
X152654000Y-132080000D03*
X155194000Y-132080000D03*
X157734000Y-132080000D03*
X160274000Y-132080000D03*
X162814000Y-132080000D03*
X165354000Y-132080000D03*
X167894000Y-132080000D03*
X170434000Y-132080000D03*
X172974000Y-132080000D03*
D13*
X128143000Y-96307000D03*
D14*
X128143000Y-100307000D03*
X128143000Y-104307000D03*
X128143000Y-108307000D03*
X128143000Y-112307000D03*
X128143000Y-116307000D03*
X128143000Y-120307000D03*
X128143000Y-124307000D03*
X131143000Y-96307000D03*
X131143000Y-100307000D03*
X131143000Y-104307000D03*
X131143000Y-108307000D03*
X131143000Y-112307000D03*
X131143000Y-116307000D03*
X131143000Y-120307000D03*
X131143000Y-124307000D03*
D15*
X162325050Y-117998240D03*
X162325050Y-118498619D03*
X162325050Y-118999000D03*
X162325050Y-119499381D03*
X162325050Y-119999760D03*
X157956250Y-119999760D03*
X157956250Y-119499381D03*
X157956250Y-118999000D03*
X157956250Y-118498619D03*
X157956250Y-117998240D03*
G36*
G01*
X177488001Y-111922000D02*
X176587999Y-111922000D01*
G75*
G02*
X176338000Y-111672001I0J249999D01*
G01*
X176338000Y-111021999D01*
G75*
G02*
X176587999Y-110772000I249999J0D01*
G01*
X177488001Y-110772000D01*
G75*
G02*
X177738000Y-111021999I0J-249999D01*
G01*
X177738000Y-111672001D01*
G75*
G02*
X177488001Y-111922000I-249999J0D01*
G01*
G37*
G36*
G01*
X177488001Y-109872000D02*
X176587999Y-109872000D01*
G75*
G02*
X176338000Y-109622001I0J249999D01*
G01*
X176338000Y-108971999D01*
G75*
G02*
X176587999Y-108722000I249999J0D01*
G01*
X177488001Y-108722000D01*
G75*
G02*
X177738000Y-108971999I0J-249999D01*
G01*
X177738000Y-109622001D01*
G75*
G02*
X177488001Y-109872000I-249999J0D01*
G01*
G37*
D16*
X138429000Y-91694000D03*
X135129000Y-91694000D03*
D17*
X148884000Y-101018000D03*
X149384000Y-101018000D03*
X149884000Y-101018000D03*
X150384000Y-101018000D03*
X150884000Y-101018000D03*
X151384000Y-101018000D03*
X151884000Y-101018000D03*
X152384000Y-101018000D03*
X152884000Y-101018000D03*
X153384000Y-101018000D03*
X153884000Y-101018000D03*
X153884000Y-98118000D03*
X153384000Y-98118000D03*
X152884000Y-98118000D03*
X152384000Y-98118000D03*
X151884000Y-98118000D03*
X151384000Y-98118000D03*
X150884000Y-98118000D03*
X150384000Y-98118000D03*
X149884000Y-98118000D03*
X149384000Y-98118000D03*
X148884000Y-98118000D03*
D18*
X149834000Y-99568000D03*
D19*
X151384000Y-99568000D03*
D18*
X152934000Y-99568000D03*
D20*
G36*
X157492000Y-98529000D02*
G01*
X157492000Y-98029000D01*
X157492602Y-98029000D01*
X157492602Y-98004466D01*
X157497412Y-97955635D01*
X157506984Y-97907510D01*
X157521228Y-97860555D01*
X157540005Y-97815222D01*
X157563136Y-97771949D01*
X157590396Y-97731150D01*
X157621524Y-97693221D01*
X157656221Y-97658524D01*
X157694150Y-97627396D01*
X157734949Y-97600136D01*
X157778222Y-97577005D01*
X157823555Y-97558228D01*
X157870510Y-97543984D01*
X157918635Y-97534412D01*
X157967466Y-97529602D01*
X157992000Y-97529602D01*
X157992000Y-97529000D01*
X158492000Y-97529000D01*
X158492000Y-97529602D01*
X158516534Y-97529602D01*
X158565365Y-97534412D01*
X158613490Y-97543984D01*
X158660445Y-97558228D01*
X158705778Y-97577005D01*
X158749051Y-97600136D01*
X158789850Y-97627396D01*
X158827779Y-97658524D01*
X158862476Y-97693221D01*
X158893604Y-97731150D01*
X158920864Y-97771949D01*
X158943995Y-97815222D01*
X158962772Y-97860555D01*
X158977016Y-97907510D01*
X158986588Y-97955635D01*
X158991398Y-98004466D01*
X158991398Y-98029000D01*
X158992000Y-98029000D01*
X158992000Y-98529000D01*
X157492000Y-98529000D01*
G37*
G36*
X158991398Y-99329000D02*
G01*
X158991398Y-99353534D01*
X158986588Y-99402365D01*
X158977016Y-99450490D01*
X158962772Y-99497445D01*
X158943995Y-99542778D01*
X158920864Y-99586051D01*
X158893604Y-99626850D01*
X158862476Y-99664779D01*
X158827779Y-99699476D01*
X158789850Y-99730604D01*
X158749051Y-99757864D01*
X158705778Y-99780995D01*
X158660445Y-99799772D01*
X158613490Y-99814016D01*
X158565365Y-99823588D01*
X158516534Y-99828398D01*
X158492000Y-99828398D01*
X158492000Y-99829000D01*
X157992000Y-99829000D01*
X157992000Y-99828398D01*
X157967466Y-99828398D01*
X157918635Y-99823588D01*
X157870510Y-99814016D01*
X157823555Y-99799772D01*
X157778222Y-99780995D01*
X157734949Y-99757864D01*
X157694150Y-99730604D01*
X157656221Y-99699476D01*
X157621524Y-99664779D01*
X157590396Y-99626850D01*
X157563136Y-99586051D01*
X157540005Y-99542778D01*
X157521228Y-99497445D01*
X157506984Y-99450490D01*
X157497412Y-99402365D01*
X157492602Y-99353534D01*
X157492602Y-99329000D01*
X157492000Y-99329000D01*
X157492000Y-98829000D01*
X158992000Y-98829000D01*
X158992000Y-99329000D01*
X158991398Y-99329000D01*
G37*
D21*
X137988000Y-98156000D03*
X137988000Y-99456000D03*
X139888000Y-98806000D03*
X137988000Y-98806000D03*
X139888000Y-99456000D03*
X139888000Y-98156000D03*
D22*
X160258000Y-92009000D03*
X160258000Y-90109000D03*
X158258000Y-91059000D03*
X162068000Y-99187000D03*
X164068000Y-98237000D03*
X164068000Y-100137000D03*
D23*
X146145000Y-90805000D03*
X142145000Y-90805000D03*
G36*
G01*
X167890000Y-114102000D02*
X167390000Y-114102000D01*
G75*
G02*
X167165000Y-113877000I0J225000D01*
G01*
X167165000Y-113427000D01*
G75*
G02*
X167390000Y-113202000I225000J0D01*
G01*
X167890000Y-113202000D01*
G75*
G02*
X168115000Y-113427000I0J-225000D01*
G01*
X168115000Y-113877000D01*
G75*
G02*
X167890000Y-114102000I-225000J0D01*
G01*
G37*
G36*
G01*
X167890000Y-115652000D02*
X167390000Y-115652000D01*
G75*
G02*
X167165000Y-115427000I0J225000D01*
G01*
X167165000Y-114977000D01*
G75*
G02*
X167390000Y-114752000I225000J0D01*
G01*
X167890000Y-114752000D01*
G75*
G02*
X168115000Y-114977000I0J-225000D01*
G01*
X168115000Y-115427000D01*
G75*
G02*
X167890000Y-115652000I-225000J0D01*
G01*
G37*
G36*
G01*
X152650000Y-115652000D02*
X152150000Y-115652000D01*
G75*
G02*
X151925000Y-115427000I0J225000D01*
G01*
X151925000Y-114977000D01*
G75*
G02*
X152150000Y-114752000I225000J0D01*
G01*
X152650000Y-114752000D01*
G75*
G02*
X152875000Y-114977000I0J-225000D01*
G01*
X152875000Y-115427000D01*
G75*
G02*
X152650000Y-115652000I-225000J0D01*
G01*
G37*
G36*
G01*
X152650000Y-114102000D02*
X152150000Y-114102000D01*
G75*
G02*
X151925000Y-113877000I0J225000D01*
G01*
X151925000Y-113427000D01*
G75*
G02*
X152150000Y-113202000I225000J0D01*
G01*
X152650000Y-113202000D01*
G75*
G02*
X152875000Y-113427000I0J-225000D01*
G01*
X152875000Y-113877000D01*
G75*
G02*
X152650000Y-114102000I-225000J0D01*
G01*
G37*
G36*
G01*
X165350000Y-114102000D02*
X164850000Y-114102000D01*
G75*
G02*
X164625000Y-113877000I0J225000D01*
G01*
X164625000Y-113427000D01*
G75*
G02*
X164850000Y-113202000I225000J0D01*
G01*
X165350000Y-113202000D01*
G75*
G02*
X165575000Y-113427000I0J-225000D01*
G01*
X165575000Y-113877000D01*
G75*
G02*
X165350000Y-114102000I-225000J0D01*
G01*
G37*
G36*
G01*
X165350000Y-115652000D02*
X164850000Y-115652000D01*
G75*
G02*
X164625000Y-115427000I0J225000D01*
G01*
X164625000Y-114977000D01*
G75*
G02*
X164850000Y-114752000I225000J0D01*
G01*
X165350000Y-114752000D01*
G75*
G02*
X165575000Y-114977000I0J-225000D01*
G01*
X165575000Y-115427000D01*
G75*
G02*
X165350000Y-115652000I-225000J0D01*
G01*
G37*
G36*
G01*
X170430000Y-115652000D02*
X169930000Y-115652000D01*
G75*
G02*
X169705000Y-115427000I0J225000D01*
G01*
X169705000Y-114977000D01*
G75*
G02*
X169930000Y-114752000I225000J0D01*
G01*
X170430000Y-114752000D01*
G75*
G02*
X170655000Y-114977000I0J-225000D01*
G01*
X170655000Y-115427000D01*
G75*
G02*
X170430000Y-115652000I-225000J0D01*
G01*
G37*
G36*
G01*
X170430000Y-114102000D02*
X169930000Y-114102000D01*
G75*
G02*
X169705000Y-113877000I0J225000D01*
G01*
X169705000Y-113427000D01*
G75*
G02*
X169930000Y-113202000I225000J0D01*
G01*
X170430000Y-113202000D01*
G75*
G02*
X170655000Y-113427000I0J-225000D01*
G01*
X170655000Y-113877000D01*
G75*
G02*
X170430000Y-114102000I-225000J0D01*
G01*
G37*
G36*
G01*
X148545000Y-103890000D02*
X148545000Y-104390000D01*
G75*
G02*
X148320000Y-104615000I-225000J0D01*
G01*
X147870000Y-104615000D01*
G75*
G02*
X147645000Y-104390000I0J225000D01*
G01*
X147645000Y-103890000D01*
G75*
G02*
X147870000Y-103665000I225000J0D01*
G01*
X148320000Y-103665000D01*
G75*
G02*
X148545000Y-103890000I0J-225000D01*
G01*
G37*
G36*
G01*
X146995000Y-103890000D02*
X146995000Y-104390000D01*
G75*
G02*
X146770000Y-104615000I-225000J0D01*
G01*
X146320000Y-104615000D01*
G75*
G02*
X146095000Y-104390000I0J225000D01*
G01*
X146095000Y-103890000D01*
G75*
G02*
X146320000Y-103665000I225000J0D01*
G01*
X146770000Y-103665000D01*
G75*
G02*
X146995000Y-103890000I0J-225000D01*
G01*
G37*
G36*
G01*
X143753000Y-94980999D02*
X143753000Y-96281001D01*
G75*
G02*
X143503001Y-96531000I-249999J0D01*
G01*
X142852999Y-96531000D01*
G75*
G02*
X142603000Y-96281001I0J249999D01*
G01*
X142603000Y-94980999D01*
G75*
G02*
X142852999Y-94731000I249999J0D01*
G01*
X143503001Y-94731000D01*
G75*
G02*
X143753000Y-94980999I0J-249999D01*
G01*
G37*
G36*
G01*
X146703000Y-94980999D02*
X146703000Y-96281001D01*
G75*
G02*
X146453001Y-96531000I-249999J0D01*
G01*
X145802999Y-96531000D01*
G75*
G02*
X145553000Y-96281001I0J249999D01*
G01*
X145553000Y-94980999D01*
G75*
G02*
X145802999Y-94731000I249999J0D01*
G01*
X146453001Y-94731000D01*
G75*
G02*
X146703000Y-94980999I0J-249999D01*
G01*
G37*
G36*
G01*
X144706000Y-98585000D02*
X144706000Y-99535000D01*
G75*
G02*
X144456000Y-99785000I-250000J0D01*
G01*
X143956000Y-99785000D01*
G75*
G02*
X143706000Y-99535000I0J250000D01*
G01*
X143706000Y-98585000D01*
G75*
G02*
X143956000Y-98335000I250000J0D01*
G01*
X144456000Y-98335000D01*
G75*
G02*
X144706000Y-98585000I0J-250000D01*
G01*
G37*
G36*
G01*
X142806000Y-98585000D02*
X142806000Y-99535000D01*
G75*
G02*
X142556000Y-99785000I-250000J0D01*
G01*
X142056000Y-99785000D01*
G75*
G02*
X141806000Y-99535000I0J250000D01*
G01*
X141806000Y-98585000D01*
G75*
G02*
X142056000Y-98335000I250000J0D01*
G01*
X142556000Y-98335000D01*
G75*
G02*
X142806000Y-98585000I0J-250000D01*
G01*
G37*
G36*
G01*
X140671000Y-103890000D02*
X140671000Y-104390000D01*
G75*
G02*
X140446000Y-104615000I-225000J0D01*
G01*
X139996000Y-104615000D01*
G75*
G02*
X139771000Y-104390000I0J225000D01*
G01*
X139771000Y-103890000D01*
G75*
G02*
X139996000Y-103665000I225000J0D01*
G01*
X140446000Y-103665000D01*
G75*
G02*
X140671000Y-103890000I0J-225000D01*
G01*
G37*
G36*
G01*
X139121000Y-103890000D02*
X139121000Y-104390000D01*
G75*
G02*
X138896000Y-104615000I-225000J0D01*
G01*
X138446000Y-104615000D01*
G75*
G02*
X138221000Y-104390000I0J225000D01*
G01*
X138221000Y-103890000D01*
G75*
G02*
X138446000Y-103665000I225000J0D01*
G01*
X138896000Y-103665000D01*
G75*
G02*
X139121000Y-103890000I0J-225000D01*
G01*
G37*
G36*
G01*
X158705000Y-94873000D02*
X158705000Y-95373000D01*
G75*
G02*
X158480000Y-95598000I-225000J0D01*
G01*
X158030000Y-95598000D01*
G75*
G02*
X157805000Y-95373000I0J225000D01*
G01*
X157805000Y-94873000D01*
G75*
G02*
X158030000Y-94648000I225000J0D01*
G01*
X158480000Y-94648000D01*
G75*
G02*
X158705000Y-94873000I0J-225000D01*
G01*
G37*
G36*
G01*
X157155000Y-94873000D02*
X157155000Y-95373000D01*
G75*
G02*
X156930000Y-95598000I-225000J0D01*
G01*
X156480000Y-95598000D01*
G75*
G02*
X156255000Y-95373000I0J225000D01*
G01*
X156255000Y-94873000D01*
G75*
G02*
X156480000Y-94648000I225000J0D01*
G01*
X156930000Y-94648000D01*
G75*
G02*
X157155000Y-94873000I0J-225000D01*
G01*
G37*
G36*
G01*
X149677000Y-95373000D02*
X149677000Y-94873000D01*
G75*
G02*
X149902000Y-94648000I225000J0D01*
G01*
X150352000Y-94648000D01*
G75*
G02*
X150577000Y-94873000I0J-225000D01*
G01*
X150577000Y-95373000D01*
G75*
G02*
X150352000Y-95598000I-225000J0D01*
G01*
X149902000Y-95598000D01*
G75*
G02*
X149677000Y-95373000I0J225000D01*
G01*
G37*
G36*
G01*
X148127000Y-95373000D02*
X148127000Y-94873000D01*
G75*
G02*
X148352000Y-94648000I225000J0D01*
G01*
X148802000Y-94648000D01*
G75*
G02*
X149027000Y-94873000I0J-225000D01*
G01*
X149027000Y-95373000D01*
G75*
G02*
X148802000Y-95598000I-225000J0D01*
G01*
X148352000Y-95598000D01*
G75*
G02*
X148127000Y-95373000I0J225000D01*
G01*
G37*
G36*
G01*
X151683000Y-95373000D02*
X151683000Y-94873000D01*
G75*
G02*
X151908000Y-94648000I225000J0D01*
G01*
X152358000Y-94648000D01*
G75*
G02*
X152583000Y-94873000I0J-225000D01*
G01*
X152583000Y-95373000D01*
G75*
G02*
X152358000Y-95598000I-225000J0D01*
G01*
X151908000Y-95598000D01*
G75*
G02*
X151683000Y-95373000I0J225000D01*
G01*
G37*
G36*
G01*
X153233000Y-95373000D02*
X153233000Y-94873000D01*
G75*
G02*
X153458000Y-94648000I225000J0D01*
G01*
X153908000Y-94648000D01*
G75*
G02*
X154133000Y-94873000I0J-225000D01*
G01*
X154133000Y-95373000D01*
G75*
G02*
X153908000Y-95598000I-225000J0D01*
G01*
X153458000Y-95598000D01*
G75*
G02*
X153233000Y-95373000I0J225000D01*
G01*
G37*
G36*
G01*
X163845001Y-93236000D02*
X162544999Y-93236000D01*
G75*
G02*
X162295000Y-92986001I0J249999D01*
G01*
X162295000Y-92335999D01*
G75*
G02*
X162544999Y-92086000I249999J0D01*
G01*
X163845001Y-92086000D01*
G75*
G02*
X164095000Y-92335999I0J-249999D01*
G01*
X164095000Y-92986001D01*
G75*
G02*
X163845001Y-93236000I-249999J0D01*
G01*
G37*
G36*
G01*
X163845001Y-90286000D02*
X162544999Y-90286000D01*
G75*
G02*
X162295000Y-90036001I0J249999D01*
G01*
X162295000Y-89385999D01*
G75*
G02*
X162544999Y-89136000I249999J0D01*
G01*
X163845001Y-89136000D01*
G75*
G02*
X164095000Y-89385999I0J-249999D01*
G01*
X164095000Y-90036001D01*
G75*
G02*
X163845001Y-90286000I-249999J0D01*
G01*
G37*
G36*
G01*
X164317000Y-102407000D02*
X164867000Y-102407000D01*
G75*
G02*
X165067000Y-102607000I0J-200000D01*
G01*
X165067000Y-103007000D01*
G75*
G02*
X164867000Y-103207000I-200000J0D01*
G01*
X164317000Y-103207000D01*
G75*
G02*
X164117000Y-103007000I0J200000D01*
G01*
X164117000Y-102607000D01*
G75*
G02*
X164317000Y-102407000I200000J0D01*
G01*
G37*
G36*
G01*
X164317000Y-104057000D02*
X164867000Y-104057000D01*
G75*
G02*
X165067000Y-104257000I0J-200000D01*
G01*
X165067000Y-104657000D01*
G75*
G02*
X164867000Y-104857000I-200000J0D01*
G01*
X164317000Y-104857000D01*
G75*
G02*
X164117000Y-104657000I0J200000D01*
G01*
X164117000Y-104257000D01*
G75*
G02*
X164317000Y-104057000I200000J0D01*
G01*
G37*
G36*
G01*
X167407000Y-104857000D02*
X166857000Y-104857000D01*
G75*
G02*
X166657000Y-104657000I0J200000D01*
G01*
X166657000Y-104257000D01*
G75*
G02*
X166857000Y-104057000I200000J0D01*
G01*
X167407000Y-104057000D01*
G75*
G02*
X167607000Y-104257000I0J-200000D01*
G01*
X167607000Y-104657000D01*
G75*
G02*
X167407000Y-104857000I-200000J0D01*
G01*
G37*
G36*
G01*
X167407000Y-103207000D02*
X166857000Y-103207000D01*
G75*
G02*
X166657000Y-103007000I0J200000D01*
G01*
X166657000Y-102607000D01*
G75*
G02*
X166857000Y-102407000I200000J0D01*
G01*
X167407000Y-102407000D01*
G75*
G02*
X167607000Y-102607000I0J-200000D01*
G01*
X167607000Y-103007000D01*
G75*
G02*
X167407000Y-103207000I-200000J0D01*
G01*
G37*
G36*
G01*
X159237000Y-102407000D02*
X159787000Y-102407000D01*
G75*
G02*
X159987000Y-102607000I0J-200000D01*
G01*
X159987000Y-103007000D01*
G75*
G02*
X159787000Y-103207000I-200000J0D01*
G01*
X159237000Y-103207000D01*
G75*
G02*
X159037000Y-103007000I0J200000D01*
G01*
X159037000Y-102607000D01*
G75*
G02*
X159237000Y-102407000I200000J0D01*
G01*
G37*
G36*
G01*
X159237000Y-104057000D02*
X159787000Y-104057000D01*
G75*
G02*
X159987000Y-104257000I0J-200000D01*
G01*
X159987000Y-104657000D01*
G75*
G02*
X159787000Y-104857000I-200000J0D01*
G01*
X159237000Y-104857000D01*
G75*
G02*
X159037000Y-104657000I0J200000D01*
G01*
X159037000Y-104257000D01*
G75*
G02*
X159237000Y-104057000I200000J0D01*
G01*
G37*
G36*
G01*
X162327000Y-103207000D02*
X161777000Y-103207000D01*
G75*
G02*
X161577000Y-103007000I0J200000D01*
G01*
X161577000Y-102607000D01*
G75*
G02*
X161777000Y-102407000I200000J0D01*
G01*
X162327000Y-102407000D01*
G75*
G02*
X162527000Y-102607000I0J-200000D01*
G01*
X162527000Y-103007000D01*
G75*
G02*
X162327000Y-103207000I-200000J0D01*
G01*
G37*
G36*
G01*
X162327000Y-104857000D02*
X161777000Y-104857000D01*
G75*
G02*
X161577000Y-104657000I0J200000D01*
G01*
X161577000Y-104257000D01*
G75*
G02*
X161777000Y-104057000I200000J0D01*
G01*
X162327000Y-104057000D01*
G75*
G02*
X162527000Y-104257000I0J-200000D01*
G01*
X162527000Y-104657000D01*
G75*
G02*
X162327000Y-104857000I-200000J0D01*
G01*
G37*
G36*
G01*
X135361000Y-107741000D02*
X135911000Y-107741000D01*
G75*
G02*
X136111000Y-107941000I0J-200000D01*
G01*
X136111000Y-108341000D01*
G75*
G02*
X135911000Y-108541000I-200000J0D01*
G01*
X135361000Y-108541000D01*
G75*
G02*
X135161000Y-108341000I0J200000D01*
G01*
X135161000Y-107941000D01*
G75*
G02*
X135361000Y-107741000I200000J0D01*
G01*
G37*
G36*
G01*
X135361000Y-109391000D02*
X135911000Y-109391000D01*
G75*
G02*
X136111000Y-109591000I0J-200000D01*
G01*
X136111000Y-109991000D01*
G75*
G02*
X135911000Y-110191000I-200000J0D01*
G01*
X135361000Y-110191000D01*
G75*
G02*
X135161000Y-109991000I0J200000D01*
G01*
X135161000Y-109591000D01*
G75*
G02*
X135361000Y-109391000I200000J0D01*
G01*
G37*
G36*
G01*
X165375000Y-118066000D02*
X164825000Y-118066000D01*
G75*
G02*
X164625000Y-117866000I0J200000D01*
G01*
X164625000Y-117466000D01*
G75*
G02*
X164825000Y-117266000I200000J0D01*
G01*
X165375000Y-117266000D01*
G75*
G02*
X165575000Y-117466000I0J-200000D01*
G01*
X165575000Y-117866000D01*
G75*
G02*
X165375000Y-118066000I-200000J0D01*
G01*
G37*
G36*
G01*
X165375000Y-119716000D02*
X164825000Y-119716000D01*
G75*
G02*
X164625000Y-119516000I0J200000D01*
G01*
X164625000Y-119116000D01*
G75*
G02*
X164825000Y-118916000I200000J0D01*
G01*
X165375000Y-118916000D01*
G75*
G02*
X165575000Y-119116000I0J-200000D01*
G01*
X165575000Y-119516000D01*
G75*
G02*
X165375000Y-119716000I-200000J0D01*
G01*
G37*
G36*
G01*
X157755000Y-114002000D02*
X157205000Y-114002000D01*
G75*
G02*
X157005000Y-113802000I0J200000D01*
G01*
X157005000Y-113402000D01*
G75*
G02*
X157205000Y-113202000I200000J0D01*
G01*
X157755000Y-113202000D01*
G75*
G02*
X157955000Y-113402000I0J-200000D01*
G01*
X157955000Y-113802000D01*
G75*
G02*
X157755000Y-114002000I-200000J0D01*
G01*
G37*
G36*
G01*
X157755000Y-115652000D02*
X157205000Y-115652000D01*
G75*
G02*
X157005000Y-115452000I0J200000D01*
G01*
X157005000Y-115052000D01*
G75*
G02*
X157205000Y-114852000I200000J0D01*
G01*
X157755000Y-114852000D01*
G75*
G02*
X157955000Y-115052000I0J-200000D01*
G01*
X157955000Y-115452000D01*
G75*
G02*
X157755000Y-115652000I-200000J0D01*
G01*
G37*
G36*
G01*
X155215000Y-115652000D02*
X154665000Y-115652000D01*
G75*
G02*
X154465000Y-115452000I0J200000D01*
G01*
X154465000Y-115052000D01*
G75*
G02*
X154665000Y-114852000I200000J0D01*
G01*
X155215000Y-114852000D01*
G75*
G02*
X155415000Y-115052000I0J-200000D01*
G01*
X155415000Y-115452000D01*
G75*
G02*
X155215000Y-115652000I-200000J0D01*
G01*
G37*
G36*
G01*
X155215000Y-114002000D02*
X154665000Y-114002000D01*
G75*
G02*
X154465000Y-113802000I0J200000D01*
G01*
X154465000Y-113402000D01*
G75*
G02*
X154665000Y-113202000I200000J0D01*
G01*
X155215000Y-113202000D01*
G75*
G02*
X155415000Y-113402000I0J-200000D01*
G01*
X155415000Y-113802000D01*
G75*
G02*
X155215000Y-114002000I-200000J0D01*
G01*
G37*
G36*
G01*
X159745000Y-114852000D02*
X160295000Y-114852000D01*
G75*
G02*
X160495000Y-115052000I0J-200000D01*
G01*
X160495000Y-115452000D01*
G75*
G02*
X160295000Y-115652000I-200000J0D01*
G01*
X159745000Y-115652000D01*
G75*
G02*
X159545000Y-115452000I0J200000D01*
G01*
X159545000Y-115052000D01*
G75*
G02*
X159745000Y-114852000I200000J0D01*
G01*
G37*
G36*
G01*
X159745000Y-113202000D02*
X160295000Y-113202000D01*
G75*
G02*
X160495000Y-113402000I0J-200000D01*
G01*
X160495000Y-113802000D01*
G75*
G02*
X160295000Y-114002000I-200000J0D01*
G01*
X159745000Y-114002000D01*
G75*
G02*
X159545000Y-113802000I0J200000D01*
G01*
X159545000Y-113402000D01*
G75*
G02*
X159745000Y-113202000I200000J0D01*
G01*
G37*
G36*
G01*
X167915000Y-118066000D02*
X167365000Y-118066000D01*
G75*
G02*
X167165000Y-117866000I0J200000D01*
G01*
X167165000Y-117466000D01*
G75*
G02*
X167365000Y-117266000I200000J0D01*
G01*
X167915000Y-117266000D01*
G75*
G02*
X168115000Y-117466000I0J-200000D01*
G01*
X168115000Y-117866000D01*
G75*
G02*
X167915000Y-118066000I-200000J0D01*
G01*
G37*
G36*
G01*
X167915000Y-119716000D02*
X167365000Y-119716000D01*
G75*
G02*
X167165000Y-119516000I0J200000D01*
G01*
X167165000Y-119116000D01*
G75*
G02*
X167365000Y-118916000I200000J0D01*
G01*
X167915000Y-118916000D01*
G75*
G02*
X168115000Y-119116000I0J-200000D01*
G01*
X168115000Y-119516000D01*
G75*
G02*
X167915000Y-119716000I-200000J0D01*
G01*
G37*
G36*
G01*
X162835000Y-115652000D02*
X162285000Y-115652000D01*
G75*
G02*
X162085000Y-115452000I0J200000D01*
G01*
X162085000Y-115052000D01*
G75*
G02*
X162285000Y-114852000I200000J0D01*
G01*
X162835000Y-114852000D01*
G75*
G02*
X163035000Y-115052000I0J-200000D01*
G01*
X163035000Y-115452000D01*
G75*
G02*
X162835000Y-115652000I-200000J0D01*
G01*
G37*
G36*
G01*
X162835000Y-114002000D02*
X162285000Y-114002000D01*
G75*
G02*
X162085000Y-113802000I0J200000D01*
G01*
X162085000Y-113402000D01*
G75*
G02*
X162285000Y-113202000I200000J0D01*
G01*
X162835000Y-113202000D01*
G75*
G02*
X163035000Y-113402000I0J-200000D01*
G01*
X163035000Y-113802000D01*
G75*
G02*
X162835000Y-114002000I-200000J0D01*
G01*
G37*
G36*
G01*
X170455000Y-118066000D02*
X169905000Y-118066000D01*
G75*
G02*
X169705000Y-117866000I0J200000D01*
G01*
X169705000Y-117466000D01*
G75*
G02*
X169905000Y-117266000I200000J0D01*
G01*
X170455000Y-117266000D01*
G75*
G02*
X170655000Y-117466000I0J-200000D01*
G01*
X170655000Y-117866000D01*
G75*
G02*
X170455000Y-118066000I-200000J0D01*
G01*
G37*
G36*
G01*
X170455000Y-119716000D02*
X169905000Y-119716000D01*
G75*
G02*
X169705000Y-119516000I0J200000D01*
G01*
X169705000Y-119116000D01*
G75*
G02*
X169905000Y-118916000I200000J0D01*
G01*
X170455000Y-118916000D01*
G75*
G02*
X170655000Y-119116000I0J-200000D01*
G01*
X170655000Y-119516000D01*
G75*
G02*
X170455000Y-119716000I-200000J0D01*
G01*
G37*
G36*
G01*
X176763000Y-104693000D02*
X177313000Y-104693000D01*
G75*
G02*
X177513000Y-104893000I0J-200000D01*
G01*
X177513000Y-105293000D01*
G75*
G02*
X177313000Y-105493000I-200000J0D01*
G01*
X176763000Y-105493000D01*
G75*
G02*
X176563000Y-105293000I0J200000D01*
G01*
X176563000Y-104893000D01*
G75*
G02*
X176763000Y-104693000I200000J0D01*
G01*
G37*
G36*
G01*
X176763000Y-106343000D02*
X177313000Y-106343000D01*
G75*
G02*
X177513000Y-106543000I0J-200000D01*
G01*
X177513000Y-106943000D01*
G75*
G02*
X177313000Y-107143000I-200000J0D01*
G01*
X176763000Y-107143000D01*
G75*
G02*
X176563000Y-106943000I0J200000D01*
G01*
X176563000Y-106543000D01*
G75*
G02*
X176763000Y-106343000I200000J0D01*
G01*
G37*
G36*
G01*
X134853000Y-94025000D02*
X135403000Y-94025000D01*
G75*
G02*
X135603000Y-94225000I0J-200000D01*
G01*
X135603000Y-94625000D01*
G75*
G02*
X135403000Y-94825000I-200000J0D01*
G01*
X134853000Y-94825000D01*
G75*
G02*
X134653000Y-94625000I0J200000D01*
G01*
X134653000Y-94225000D01*
G75*
G02*
X134853000Y-94025000I200000J0D01*
G01*
G37*
G36*
G01*
X134853000Y-95675000D02*
X135403000Y-95675000D01*
G75*
G02*
X135603000Y-95875000I0J-200000D01*
G01*
X135603000Y-96275000D01*
G75*
G02*
X135403000Y-96475000I-200000J0D01*
G01*
X134853000Y-96475000D01*
G75*
G02*
X134653000Y-96275000I0J200000D01*
G01*
X134653000Y-95875000D01*
G75*
G02*
X134853000Y-95675000I200000J0D01*
G01*
G37*
G36*
G01*
X137393000Y-95675000D02*
X137943000Y-95675000D01*
G75*
G02*
X138143000Y-95875000I0J-200000D01*
G01*
X138143000Y-96275000D01*
G75*
G02*
X137943000Y-96475000I-200000J0D01*
G01*
X137393000Y-96475000D01*
G75*
G02*
X137193000Y-96275000I0J200000D01*
G01*
X137193000Y-95875000D01*
G75*
G02*
X137393000Y-95675000I200000J0D01*
G01*
G37*
G36*
G01*
X137393000Y-94025000D02*
X137943000Y-94025000D01*
G75*
G02*
X138143000Y-94225000I0J-200000D01*
G01*
X138143000Y-94625000D01*
G75*
G02*
X137943000Y-94825000I-200000J0D01*
G01*
X137393000Y-94825000D01*
G75*
G02*
X137193000Y-94625000I0J200000D01*
G01*
X137193000Y-94225000D01*
G75*
G02*
X137393000Y-94025000I200000J0D01*
G01*
G37*
G36*
G01*
X134853000Y-97581000D02*
X135403000Y-97581000D01*
G75*
G02*
X135603000Y-97781000I0J-200000D01*
G01*
X135603000Y-98181000D01*
G75*
G02*
X135403000Y-98381000I-200000J0D01*
G01*
X134853000Y-98381000D01*
G75*
G02*
X134653000Y-98181000I0J200000D01*
G01*
X134653000Y-97781000D01*
G75*
G02*
X134853000Y-97581000I200000J0D01*
G01*
G37*
G36*
G01*
X134853000Y-99231000D02*
X135403000Y-99231000D01*
G75*
G02*
X135603000Y-99431000I0J-200000D01*
G01*
X135603000Y-99831000D01*
G75*
G02*
X135403000Y-100031000I-200000J0D01*
G01*
X134853000Y-100031000D01*
G75*
G02*
X134653000Y-99831000I0J200000D01*
G01*
X134653000Y-99431000D01*
G75*
G02*
X134853000Y-99231000I200000J0D01*
G01*
G37*
G36*
G01*
X139933000Y-95675000D02*
X140483000Y-95675000D01*
G75*
G02*
X140683000Y-95875000I0J-200000D01*
G01*
X140683000Y-96275000D01*
G75*
G02*
X140483000Y-96475000I-200000J0D01*
G01*
X139933000Y-96475000D01*
G75*
G02*
X139733000Y-96275000I0J200000D01*
G01*
X139733000Y-95875000D01*
G75*
G02*
X139933000Y-95675000I200000J0D01*
G01*
G37*
G36*
G01*
X139933000Y-94025000D02*
X140483000Y-94025000D01*
G75*
G02*
X140683000Y-94225000I0J-200000D01*
G01*
X140683000Y-94625000D01*
G75*
G02*
X140483000Y-94825000I-200000J0D01*
G01*
X139933000Y-94825000D01*
G75*
G02*
X139733000Y-94625000I0J200000D01*
G01*
X139733000Y-94225000D01*
G75*
G02*
X139933000Y-94025000I200000J0D01*
G01*
G37*
G36*
G01*
X143085000Y-103865000D02*
X143085000Y-104415000D01*
G75*
G02*
X142885000Y-104615000I-200000J0D01*
G01*
X142485000Y-104615000D01*
G75*
G02*
X142285000Y-104415000I0J200000D01*
G01*
X142285000Y-103865000D01*
G75*
G02*
X142485000Y-103665000I200000J0D01*
G01*
X142885000Y-103665000D01*
G75*
G02*
X143085000Y-103865000I0J-200000D01*
G01*
G37*
G36*
G01*
X144735000Y-103865000D02*
X144735000Y-104415000D01*
G75*
G02*
X144535000Y-104615000I-200000J0D01*
G01*
X144135000Y-104615000D01*
G75*
G02*
X143935000Y-104415000I0J200000D01*
G01*
X143935000Y-103865000D01*
G75*
G02*
X144135000Y-103665000I200000J0D01*
G01*
X144535000Y-103665000D01*
G75*
G02*
X144735000Y-103865000I0J-200000D01*
G01*
G37*
G36*
G01*
X157247000Y-103207000D02*
X156697000Y-103207000D01*
G75*
G02*
X156497000Y-103007000I0J200000D01*
G01*
X156497000Y-102607000D01*
G75*
G02*
X156697000Y-102407000I200000J0D01*
G01*
X157247000Y-102407000D01*
G75*
G02*
X157447000Y-102607000I0J-200000D01*
G01*
X157447000Y-103007000D01*
G75*
G02*
X157247000Y-103207000I-200000J0D01*
G01*
G37*
G36*
G01*
X157247000Y-104857000D02*
X156697000Y-104857000D01*
G75*
G02*
X156497000Y-104657000I0J200000D01*
G01*
X156497000Y-104257000D01*
G75*
G02*
X156697000Y-104057000I200000J0D01*
G01*
X157247000Y-104057000D01*
G75*
G02*
X157447000Y-104257000I0J-200000D01*
G01*
X157447000Y-104657000D01*
G75*
G02*
X157247000Y-104857000I-200000J0D01*
G01*
G37*
G36*
G01*
X144735000Y-101325000D02*
X144735000Y-101875000D01*
G75*
G02*
X144535000Y-102075000I-200000J0D01*
G01*
X144135000Y-102075000D01*
G75*
G02*
X143935000Y-101875000I0J200000D01*
G01*
X143935000Y-101325000D01*
G75*
G02*
X144135000Y-101125000I200000J0D01*
G01*
X144535000Y-101125000D01*
G75*
G02*
X144735000Y-101325000I0J-200000D01*
G01*
G37*
G36*
G01*
X143085000Y-101325000D02*
X143085000Y-101875000D01*
G75*
G02*
X142885000Y-102075000I-200000J0D01*
G01*
X142485000Y-102075000D01*
G75*
G02*
X142285000Y-101875000I0J200000D01*
G01*
X142285000Y-101325000D01*
G75*
G02*
X142485000Y-101125000I200000J0D01*
G01*
X142885000Y-101125000D01*
G75*
G02*
X143085000Y-101325000I0J-200000D01*
G01*
G37*
G36*
G01*
X150705000Y-103865000D02*
X150705000Y-104415000D01*
G75*
G02*
X150505000Y-104615000I-200000J0D01*
G01*
X150105000Y-104615000D01*
G75*
G02*
X149905000Y-104415000I0J200000D01*
G01*
X149905000Y-103865000D01*
G75*
G02*
X150105000Y-103665000I200000J0D01*
G01*
X150505000Y-103665000D01*
G75*
G02*
X150705000Y-103865000I0J-200000D01*
G01*
G37*
G36*
G01*
X152355000Y-103865000D02*
X152355000Y-104415000D01*
G75*
G02*
X152155000Y-104615000I-200000J0D01*
G01*
X151755000Y-104615000D01*
G75*
G02*
X151555000Y-104415000I0J200000D01*
G01*
X151555000Y-103865000D01*
G75*
G02*
X151755000Y-103665000I200000J0D01*
G01*
X152155000Y-103665000D01*
G75*
G02*
X152355000Y-103865000I0J-200000D01*
G01*
G37*
G36*
G01*
X161715000Y-95398000D02*
X161715000Y-94848000D01*
G75*
G02*
X161915000Y-94648000I200000J0D01*
G01*
X162315000Y-94648000D01*
G75*
G02*
X162515000Y-94848000I0J-200000D01*
G01*
X162515000Y-95398000D01*
G75*
G02*
X162315000Y-95598000I-200000J0D01*
G01*
X161915000Y-95598000D01*
G75*
G02*
X161715000Y-95398000I0J200000D01*
G01*
G37*
G36*
G01*
X160065000Y-95398000D02*
X160065000Y-94848000D01*
G75*
G02*
X160265000Y-94648000I200000J0D01*
G01*
X160665000Y-94648000D01*
G75*
G02*
X160865000Y-94848000I0J-200000D01*
G01*
X160865000Y-95398000D01*
G75*
G02*
X160665000Y-95598000I-200000J0D01*
G01*
X160265000Y-95598000D01*
G75*
G02*
X160065000Y-95398000I0J200000D01*
G01*
G37*
G36*
G01*
X167407000Y-100539000D02*
X166857000Y-100539000D01*
G75*
G02*
X166657000Y-100339000I0J200000D01*
G01*
X166657000Y-99939000D01*
G75*
G02*
X166857000Y-99739000I200000J0D01*
G01*
X167407000Y-99739000D01*
G75*
G02*
X167607000Y-99939000I0J-200000D01*
G01*
X167607000Y-100339000D01*
G75*
G02*
X167407000Y-100539000I-200000J0D01*
G01*
G37*
G36*
G01*
X167407000Y-98889000D02*
X166857000Y-98889000D01*
G75*
G02*
X166657000Y-98689000I0J200000D01*
G01*
X166657000Y-98289000D01*
G75*
G02*
X166857000Y-98089000I200000J0D01*
G01*
X167407000Y-98089000D01*
G75*
G02*
X167607000Y-98289000I0J-200000D01*
G01*
X167607000Y-98689000D01*
G75*
G02*
X167407000Y-98889000I-200000J0D01*
G01*
G37*
G36*
G01*
X167401001Y-96538000D02*
X166100999Y-96538000D01*
G75*
G02*
X165851000Y-96288001I0J249999D01*
G01*
X165851000Y-95637999D01*
G75*
G02*
X166100999Y-95388000I249999J0D01*
G01*
X167401001Y-95388000D01*
G75*
G02*
X167651000Y-95637999I0J-249999D01*
G01*
X167651000Y-96288001D01*
G75*
G02*
X167401001Y-96538000I-249999J0D01*
G01*
G37*
G36*
G01*
X167401001Y-93588000D02*
X166100999Y-93588000D01*
G75*
G02*
X165851000Y-93338001I0J249999D01*
G01*
X165851000Y-92687999D01*
G75*
G02*
X166100999Y-92438000I249999J0D01*
G01*
X167401001Y-92438000D01*
G75*
G02*
X167651000Y-92687999I0J-249999D01*
G01*
X167651000Y-93338001D01*
G75*
G02*
X167401001Y-93588000I-249999J0D01*
G01*
G37*
G36*
G01*
X163875500Y-122824001D02*
X163875500Y-121523999D01*
G75*
G02*
X164125499Y-121274000I249999J0D01*
G01*
X164775501Y-121274000D01*
G75*
G02*
X165025500Y-121523999I0J-249999D01*
G01*
X165025500Y-122824001D01*
G75*
G02*
X164775501Y-123074000I-249999J0D01*
G01*
X164125499Y-123074000D01*
G75*
G02*
X163875500Y-122824001I0J249999D01*
G01*
G37*
G36*
G01*
X166825500Y-122824001D02*
X166825500Y-121523999D01*
G75*
G02*
X167075499Y-121274000I249999J0D01*
G01*
X167725501Y-121274000D01*
G75*
G02*
X167975500Y-121523999I0J-249999D01*
G01*
X167975500Y-122824001D01*
G75*
G02*
X167725501Y-123074000I-249999J0D01*
G01*
X167075499Y-123074000D01*
G75*
G02*
X166825500Y-122824001I0J249999D01*
G01*
G37*
G36*
G01*
X159501000Y-121523999D02*
X159501000Y-122824001D01*
G75*
G02*
X159251001Y-123074000I-249999J0D01*
G01*
X158600999Y-123074000D01*
G75*
G02*
X158351000Y-122824001I0J249999D01*
G01*
X158351000Y-121523999D01*
G75*
G02*
X158600999Y-121274000I249999J0D01*
G01*
X159251001Y-121274000D01*
G75*
G02*
X159501000Y-121523999I0J-249999D01*
G01*
G37*
G36*
G01*
X162451000Y-121523999D02*
X162451000Y-122824001D01*
G75*
G02*
X162201001Y-123074000I-249999J0D01*
G01*
X161550999Y-123074000D01*
G75*
G02*
X161301000Y-122824001I0J249999D01*
G01*
X161301000Y-121523999D01*
G75*
G02*
X161550999Y-121274000I249999J0D01*
G01*
X162201001Y-121274000D01*
G75*
G02*
X162451000Y-121523999I0J-249999D01*
G01*
G37*
D24*
X148985000Y-91440000D03*
X153275000Y-91440000D03*
D25*
X153162000Y-122160000D03*
X153162000Y-117870000D03*
M02*
