G04 #@! TF.GenerationSoftware,KiCad,Pcbnew,(5.1.10)-1*
G04 #@! TF.CreationDate,2021-11-05T15:58:08+01:00*
G04 #@! TF.ProjectId,pcb-esp32-power,7063622d-6573-4703-9332-2d706f776572,rev?*
G04 #@! TF.SameCoordinates,Original*
G04 #@! TF.FileFunction,Copper,L1,Top*
G04 #@! TF.FilePolarity,Positive*
%FSLAX46Y46*%
G04 Gerber Fmt 4.6, Leading zero omitted, Abs format (unit mm)*
G04 Created by KiCad (PCBNEW (5.1.10)-1) date 2021-11-05 15:58:08*
%MOMM*%
%LPD*%
G01*
G04 APERTURE LIST*
G04 #@! TA.AperFunction,ComponentPad*
%ADD10O,2.000000X1.700000*%
G04 #@! TD*
G04 #@! TA.AperFunction,ComponentPad*
%ADD11R,1.700000X1.700000*%
G04 #@! TD*
G04 #@! TA.AperFunction,ComponentPad*
%ADD12O,1.700000X1.700000*%
G04 #@! TD*
G04 #@! TA.AperFunction,ComponentPad*
%ADD13R,2.500000X2.500000*%
G04 #@! TD*
G04 #@! TA.AperFunction,ComponentPad*
%ADD14C,2.500000*%
G04 #@! TD*
G04 #@! TA.AperFunction,SMDPad,CuDef*
%ADD15R,1.397000X0.279400*%
G04 #@! TD*
G04 #@! TA.AperFunction,SMDPad,CuDef*
%ADD16R,0.900000X1.200000*%
G04 #@! TD*
G04 #@! TA.AperFunction,SMDPad,CuDef*
%ADD17R,0.250000X0.700000*%
G04 #@! TD*
G04 #@! TA.AperFunction,SMDPad,CuDef*
%ADD18R,2.225000X1.650000*%
G04 #@! TD*
G04 #@! TA.AperFunction,SMDPad,CuDef*
%ADD19R,0.865000X0.889000*%
G04 #@! TD*
G04 #@! TA.AperFunction,SMDPad,CuDef*
%ADD20C,0.100000*%
G04 #@! TD*
G04 #@! TA.AperFunction,SMDPad,CuDef*
%ADD21R,0.650000X0.400000*%
G04 #@! TD*
G04 #@! TA.AperFunction,SMDPad,CuDef*
%ADD22R,0.800000X0.900000*%
G04 #@! TD*
G04 #@! TA.AperFunction,SMDPad,CuDef*
%ADD23R,2.500000X1.800000*%
G04 #@! TD*
G04 #@! TA.AperFunction,SMDPad,CuDef*
%ADD24R,1.200000X2.300000*%
G04 #@! TD*
G04 #@! TA.AperFunction,ViaPad*
%ADD25C,0.800000*%
G04 #@! TD*
G04 #@! TA.AperFunction,Conductor*
%ADD26C,0.300000*%
G04 #@! TD*
G04 #@! TA.AperFunction,Conductor*
%ADD27C,0.250000*%
G04 #@! TD*
G04 APERTURE END LIST*
G04 #@! TA.AperFunction,ComponentPad*
G36*
G01*
X172986000Y-91606000D02*
X174486000Y-91606000D01*
G75*
G02*
X174736000Y-91856000I0J-250000D01*
G01*
X174736000Y-93056000D01*
G75*
G02*
X174486000Y-93306000I-250000J0D01*
G01*
X172986000Y-93306000D01*
G75*
G02*
X172736000Y-93056000I0J250000D01*
G01*
X172736000Y-91856000D01*
G75*
G02*
X172986000Y-91606000I250000J0D01*
G01*
G37*
G04 #@! TD.AperFunction*
D10*
X173736000Y-94956000D03*
D11*
X172974000Y-109220000D03*
D12*
X170434000Y-109220000D03*
X167894000Y-109220000D03*
X165354000Y-109220000D03*
X162814000Y-109220000D03*
X160274000Y-109220000D03*
X157734000Y-109220000D03*
X155194000Y-109220000D03*
X152654000Y-109220000D03*
X150114000Y-109220000D03*
X147574000Y-109220000D03*
X145034000Y-109220000D03*
X142494000Y-109220000D03*
X139954000Y-109220000D03*
X134874000Y-132080000D03*
X137414000Y-132080000D03*
X139954000Y-132080000D03*
X142494000Y-132080000D03*
X145034000Y-132080000D03*
X147574000Y-132080000D03*
X150114000Y-132080000D03*
X152654000Y-132080000D03*
X155194000Y-132080000D03*
X157734000Y-132080000D03*
X160274000Y-132080000D03*
X162814000Y-132080000D03*
X165354000Y-132080000D03*
X167894000Y-132080000D03*
X170434000Y-132080000D03*
X172974000Y-132080000D03*
D13*
X128143000Y-96307000D03*
D14*
X128143000Y-100307000D03*
X128143000Y-104307000D03*
X128143000Y-108307000D03*
X128143000Y-112307000D03*
X128143000Y-116307000D03*
X128143000Y-120307000D03*
X128143000Y-124307000D03*
X131143000Y-96307000D03*
X131143000Y-100307000D03*
X131143000Y-104307000D03*
X131143000Y-108307000D03*
X131143000Y-112307000D03*
X131143000Y-116307000D03*
X131143000Y-120307000D03*
X131143000Y-124307000D03*
D15*
X158140400Y-115458240D03*
X158140400Y-115958619D03*
X158140400Y-116459000D03*
X158140400Y-116959381D03*
X158140400Y-117459760D03*
X153771600Y-117459760D03*
X153771600Y-116959381D03*
X153771600Y-116459000D03*
X153771600Y-115958619D03*
X153771600Y-115458240D03*
G04 #@! TA.AperFunction,SMDPad,CuDef*
G36*
G01*
X177488001Y-111922000D02*
X176587999Y-111922000D01*
G75*
G02*
X176338000Y-111672001I0J249999D01*
G01*
X176338000Y-111021999D01*
G75*
G02*
X176587999Y-110772000I249999J0D01*
G01*
X177488001Y-110772000D01*
G75*
G02*
X177738000Y-111021999I0J-249999D01*
G01*
X177738000Y-111672001D01*
G75*
G02*
X177488001Y-111922000I-249999J0D01*
G01*
G37*
G04 #@! TD.AperFunction*
G04 #@! TA.AperFunction,SMDPad,CuDef*
G36*
G01*
X177488001Y-109872000D02*
X176587999Y-109872000D01*
G75*
G02*
X176338000Y-109622001I0J249999D01*
G01*
X176338000Y-108971999D01*
G75*
G02*
X176587999Y-108722000I249999J0D01*
G01*
X177488001Y-108722000D01*
G75*
G02*
X177738000Y-108971999I0J-249999D01*
G01*
X177738000Y-109622001D01*
G75*
G02*
X177488001Y-109872000I-249999J0D01*
G01*
G37*
G04 #@! TD.AperFunction*
D16*
X135002000Y-90932000D03*
X138302000Y-90932000D03*
D17*
X148884000Y-100764000D03*
X149384000Y-100764000D03*
X149884000Y-100764000D03*
X150384000Y-100764000D03*
X150884000Y-100764000D03*
X151384000Y-100764000D03*
X151884000Y-100764000D03*
X152384000Y-100764000D03*
X152884000Y-100764000D03*
X153384000Y-100764000D03*
X153884000Y-100764000D03*
X153884000Y-97864000D03*
X153384000Y-97864000D03*
X152884000Y-97864000D03*
X152384000Y-97864000D03*
X151884000Y-97864000D03*
X151384000Y-97864000D03*
X150884000Y-97864000D03*
X150384000Y-97864000D03*
X149884000Y-97864000D03*
X149384000Y-97864000D03*
X148884000Y-97864000D03*
D18*
X149834000Y-99314000D03*
D19*
X151384000Y-99314000D03*
D18*
X152934000Y-99314000D03*
G04 #@! TA.AperFunction,SMDPad,CuDef*
D20*
G36*
X157492000Y-99164000D02*
G01*
X157492000Y-98664000D01*
X157492602Y-98664000D01*
X157492602Y-98639466D01*
X157497412Y-98590635D01*
X157506984Y-98542510D01*
X157521228Y-98495555D01*
X157540005Y-98450222D01*
X157563136Y-98406949D01*
X157590396Y-98366150D01*
X157621524Y-98328221D01*
X157656221Y-98293524D01*
X157694150Y-98262396D01*
X157734949Y-98235136D01*
X157778222Y-98212005D01*
X157823555Y-98193228D01*
X157870510Y-98178984D01*
X157918635Y-98169412D01*
X157967466Y-98164602D01*
X157992000Y-98164602D01*
X157992000Y-98164000D01*
X158492000Y-98164000D01*
X158492000Y-98164602D01*
X158516534Y-98164602D01*
X158565365Y-98169412D01*
X158613490Y-98178984D01*
X158660445Y-98193228D01*
X158705778Y-98212005D01*
X158749051Y-98235136D01*
X158789850Y-98262396D01*
X158827779Y-98293524D01*
X158862476Y-98328221D01*
X158893604Y-98366150D01*
X158920864Y-98406949D01*
X158943995Y-98450222D01*
X158962772Y-98495555D01*
X158977016Y-98542510D01*
X158986588Y-98590635D01*
X158991398Y-98639466D01*
X158991398Y-98664000D01*
X158992000Y-98664000D01*
X158992000Y-99164000D01*
X157492000Y-99164000D01*
G37*
G04 #@! TD.AperFunction*
G04 #@! TA.AperFunction,SMDPad,CuDef*
G36*
X158991398Y-99964000D02*
G01*
X158991398Y-99988534D01*
X158986588Y-100037365D01*
X158977016Y-100085490D01*
X158962772Y-100132445D01*
X158943995Y-100177778D01*
X158920864Y-100221051D01*
X158893604Y-100261850D01*
X158862476Y-100299779D01*
X158827779Y-100334476D01*
X158789850Y-100365604D01*
X158749051Y-100392864D01*
X158705778Y-100415995D01*
X158660445Y-100434772D01*
X158613490Y-100449016D01*
X158565365Y-100458588D01*
X158516534Y-100463398D01*
X158492000Y-100463398D01*
X158492000Y-100464000D01*
X157992000Y-100464000D01*
X157992000Y-100463398D01*
X157967466Y-100463398D01*
X157918635Y-100458588D01*
X157870510Y-100449016D01*
X157823555Y-100434772D01*
X157778222Y-100415995D01*
X157734949Y-100392864D01*
X157694150Y-100365604D01*
X157656221Y-100334476D01*
X157621524Y-100299779D01*
X157590396Y-100261850D01*
X157563136Y-100221051D01*
X157540005Y-100177778D01*
X157521228Y-100132445D01*
X157506984Y-100085490D01*
X157497412Y-100037365D01*
X157492602Y-99988534D01*
X157492602Y-99964000D01*
X157492000Y-99964000D01*
X157492000Y-99464000D01*
X158992000Y-99464000D01*
X158992000Y-99964000D01*
X158991398Y-99964000D01*
G37*
G04 #@! TD.AperFunction*
D21*
X138242000Y-98410000D03*
X138242000Y-99710000D03*
X140142000Y-99060000D03*
X138242000Y-99060000D03*
X140142000Y-99710000D03*
X140142000Y-98410000D03*
D22*
X162118000Y-91932000D03*
X164018000Y-91932000D03*
X163068000Y-89932000D03*
X163068000Y-98060000D03*
X164018000Y-100060000D03*
X162118000Y-100060000D03*
D23*
X145002000Y-91440000D03*
X141002000Y-91440000D03*
G04 #@! TA.AperFunction,SMDPad,CuDef*
G36*
G01*
X165866000Y-120721000D02*
X166366000Y-120721000D01*
G75*
G02*
X166591000Y-120946000I0J-225000D01*
G01*
X166591000Y-121396000D01*
G75*
G02*
X166366000Y-121621000I-225000J0D01*
G01*
X165866000Y-121621000D01*
G75*
G02*
X165641000Y-121396000I0J225000D01*
G01*
X165641000Y-120946000D01*
G75*
G02*
X165866000Y-120721000I225000J0D01*
G01*
G37*
G04 #@! TD.AperFunction*
G04 #@! TA.AperFunction,SMDPad,CuDef*
G36*
G01*
X165866000Y-119171000D02*
X166366000Y-119171000D01*
G75*
G02*
X166591000Y-119396000I0J-225000D01*
G01*
X166591000Y-119846000D01*
G75*
G02*
X166366000Y-120071000I-225000J0D01*
G01*
X165866000Y-120071000D01*
G75*
G02*
X165641000Y-119846000I0J225000D01*
G01*
X165641000Y-119396000D01*
G75*
G02*
X165866000Y-119171000I225000J0D01*
G01*
G37*
G04 #@! TD.AperFunction*
G04 #@! TA.AperFunction,SMDPad,CuDef*
G36*
G01*
X151134000Y-123235000D02*
X151634000Y-123235000D01*
G75*
G02*
X151859000Y-123460000I0J-225000D01*
G01*
X151859000Y-123910000D01*
G75*
G02*
X151634000Y-124135000I-225000J0D01*
G01*
X151134000Y-124135000D01*
G75*
G02*
X150909000Y-123910000I0J225000D01*
G01*
X150909000Y-123460000D01*
G75*
G02*
X151134000Y-123235000I225000J0D01*
G01*
G37*
G04 #@! TD.AperFunction*
G04 #@! TA.AperFunction,SMDPad,CuDef*
G36*
G01*
X151134000Y-124785000D02*
X151634000Y-124785000D01*
G75*
G02*
X151859000Y-125010000I0J-225000D01*
G01*
X151859000Y-125460000D01*
G75*
G02*
X151634000Y-125685000I-225000J0D01*
G01*
X151134000Y-125685000D01*
G75*
G02*
X150909000Y-125460000I0J225000D01*
G01*
X150909000Y-125010000D01*
G75*
G02*
X151134000Y-124785000I225000J0D01*
G01*
G37*
G04 #@! TD.AperFunction*
G04 #@! TA.AperFunction,SMDPad,CuDef*
G36*
G01*
X166366000Y-116007000D02*
X165866000Y-116007000D01*
G75*
G02*
X165641000Y-115782000I0J225000D01*
G01*
X165641000Y-115332000D01*
G75*
G02*
X165866000Y-115107000I225000J0D01*
G01*
X166366000Y-115107000D01*
G75*
G02*
X166591000Y-115332000I0J-225000D01*
G01*
X166591000Y-115782000D01*
G75*
G02*
X166366000Y-116007000I-225000J0D01*
G01*
G37*
G04 #@! TD.AperFunction*
G04 #@! TA.AperFunction,SMDPad,CuDef*
G36*
G01*
X166366000Y-117557000D02*
X165866000Y-117557000D01*
G75*
G02*
X165641000Y-117332000I0J225000D01*
G01*
X165641000Y-116882000D01*
G75*
G02*
X165866000Y-116657000I225000J0D01*
G01*
X166366000Y-116657000D01*
G75*
G02*
X166591000Y-116882000I0J-225000D01*
G01*
X166591000Y-117332000D01*
G75*
G02*
X166366000Y-117557000I-225000J0D01*
G01*
G37*
G04 #@! TD.AperFunction*
G04 #@! TA.AperFunction,SMDPad,CuDef*
G36*
G01*
X166366000Y-125685000D02*
X165866000Y-125685000D01*
G75*
G02*
X165641000Y-125460000I0J225000D01*
G01*
X165641000Y-125010000D01*
G75*
G02*
X165866000Y-124785000I225000J0D01*
G01*
X166366000Y-124785000D01*
G75*
G02*
X166591000Y-125010000I0J-225000D01*
G01*
X166591000Y-125460000D01*
G75*
G02*
X166366000Y-125685000I-225000J0D01*
G01*
G37*
G04 #@! TD.AperFunction*
G04 #@! TA.AperFunction,SMDPad,CuDef*
G36*
G01*
X166366000Y-124135000D02*
X165866000Y-124135000D01*
G75*
G02*
X165641000Y-123910000I0J225000D01*
G01*
X165641000Y-123460000D01*
G75*
G02*
X165866000Y-123235000I225000J0D01*
G01*
X166366000Y-123235000D01*
G75*
G02*
X166591000Y-123460000I0J-225000D01*
G01*
X166591000Y-123910000D01*
G75*
G02*
X166366000Y-124135000I-225000J0D01*
G01*
G37*
G04 #@! TD.AperFunction*
G04 #@! TA.AperFunction,SMDPad,CuDef*
G36*
G01*
X148545000Y-103890000D02*
X148545000Y-104390000D01*
G75*
G02*
X148320000Y-104615000I-225000J0D01*
G01*
X147870000Y-104615000D01*
G75*
G02*
X147645000Y-104390000I0J225000D01*
G01*
X147645000Y-103890000D01*
G75*
G02*
X147870000Y-103665000I225000J0D01*
G01*
X148320000Y-103665000D01*
G75*
G02*
X148545000Y-103890000I0J-225000D01*
G01*
G37*
G04 #@! TD.AperFunction*
G04 #@! TA.AperFunction,SMDPad,CuDef*
G36*
G01*
X146995000Y-103890000D02*
X146995000Y-104390000D01*
G75*
G02*
X146770000Y-104615000I-225000J0D01*
G01*
X146320000Y-104615000D01*
G75*
G02*
X146095000Y-104390000I0J225000D01*
G01*
X146095000Y-103890000D01*
G75*
G02*
X146320000Y-103665000I225000J0D01*
G01*
X146770000Y-103665000D01*
G75*
G02*
X146995000Y-103890000I0J-225000D01*
G01*
G37*
G04 #@! TD.AperFunction*
G04 #@! TA.AperFunction,SMDPad,CuDef*
G36*
G01*
X134985999Y-100976000D02*
X136286001Y-100976000D01*
G75*
G02*
X136536000Y-101225999I0J-249999D01*
G01*
X136536000Y-101876001D01*
G75*
G02*
X136286001Y-102126000I-249999J0D01*
G01*
X134985999Y-102126000D01*
G75*
G02*
X134736000Y-101876001I0J249999D01*
G01*
X134736000Y-101225999D01*
G75*
G02*
X134985999Y-100976000I249999J0D01*
G01*
G37*
G04 #@! TD.AperFunction*
G04 #@! TA.AperFunction,SMDPad,CuDef*
G36*
G01*
X134985999Y-98026000D02*
X136286001Y-98026000D01*
G75*
G02*
X136536000Y-98275999I0J-249999D01*
G01*
X136536000Y-98926001D01*
G75*
G02*
X136286001Y-99176000I-249999J0D01*
G01*
X134985999Y-99176000D01*
G75*
G02*
X134736000Y-98926001I0J249999D01*
G01*
X134736000Y-98275999D01*
G75*
G02*
X134985999Y-98026000I249999J0D01*
G01*
G37*
G04 #@! TD.AperFunction*
G04 #@! TA.AperFunction,SMDPad,CuDef*
G36*
G01*
X145214000Y-98585000D02*
X145214000Y-99535000D01*
G75*
G02*
X144964000Y-99785000I-250000J0D01*
G01*
X144464000Y-99785000D01*
G75*
G02*
X144214000Y-99535000I0J250000D01*
G01*
X144214000Y-98585000D01*
G75*
G02*
X144464000Y-98335000I250000J0D01*
G01*
X144964000Y-98335000D01*
G75*
G02*
X145214000Y-98585000I0J-250000D01*
G01*
G37*
G04 #@! TD.AperFunction*
G04 #@! TA.AperFunction,SMDPad,CuDef*
G36*
G01*
X143314000Y-98585000D02*
X143314000Y-99535000D01*
G75*
G02*
X143064000Y-99785000I-250000J0D01*
G01*
X142564000Y-99785000D01*
G75*
G02*
X142314000Y-99535000I0J250000D01*
G01*
X142314000Y-98585000D01*
G75*
G02*
X142564000Y-98335000I250000J0D01*
G01*
X143064000Y-98335000D01*
G75*
G02*
X143314000Y-98585000I0J-250000D01*
G01*
G37*
G04 #@! TD.AperFunction*
G04 #@! TA.AperFunction,SMDPad,CuDef*
G36*
G01*
X140925000Y-101350000D02*
X140925000Y-101850000D01*
G75*
G02*
X140700000Y-102075000I-225000J0D01*
G01*
X140250000Y-102075000D01*
G75*
G02*
X140025000Y-101850000I0J225000D01*
G01*
X140025000Y-101350000D01*
G75*
G02*
X140250000Y-101125000I225000J0D01*
G01*
X140700000Y-101125000D01*
G75*
G02*
X140925000Y-101350000I0J-225000D01*
G01*
G37*
G04 #@! TD.AperFunction*
G04 #@! TA.AperFunction,SMDPad,CuDef*
G36*
G01*
X139375000Y-101350000D02*
X139375000Y-101850000D01*
G75*
G02*
X139150000Y-102075000I-225000J0D01*
G01*
X138700000Y-102075000D01*
G75*
G02*
X138475000Y-101850000I0J225000D01*
G01*
X138475000Y-101350000D01*
G75*
G02*
X138700000Y-101125000I225000J0D01*
G01*
X139150000Y-101125000D01*
G75*
G02*
X139375000Y-101350000I0J-225000D01*
G01*
G37*
G04 #@! TD.AperFunction*
G04 #@! TA.AperFunction,SMDPad,CuDef*
G36*
G01*
X157017000Y-96262000D02*
X157017000Y-95762000D01*
G75*
G02*
X157242000Y-95537000I225000J0D01*
G01*
X157692000Y-95537000D01*
G75*
G02*
X157917000Y-95762000I0J-225000D01*
G01*
X157917000Y-96262000D01*
G75*
G02*
X157692000Y-96487000I-225000J0D01*
G01*
X157242000Y-96487000D01*
G75*
G02*
X157017000Y-96262000I0J225000D01*
G01*
G37*
G04 #@! TD.AperFunction*
G04 #@! TA.AperFunction,SMDPad,CuDef*
G36*
G01*
X158567000Y-96262000D02*
X158567000Y-95762000D01*
G75*
G02*
X158792000Y-95537000I225000J0D01*
G01*
X159242000Y-95537000D01*
G75*
G02*
X159467000Y-95762000I0J-225000D01*
G01*
X159467000Y-96262000D01*
G75*
G02*
X159242000Y-96487000I-225000J0D01*
G01*
X158792000Y-96487000D01*
G75*
G02*
X158567000Y-96262000I0J225000D01*
G01*
G37*
G04 #@! TD.AperFunction*
G04 #@! TA.AperFunction,SMDPad,CuDef*
G36*
G01*
X146046000Y-95179000D02*
X145546000Y-95179000D01*
G75*
G02*
X145321000Y-94954000I0J225000D01*
G01*
X145321000Y-94504000D01*
G75*
G02*
X145546000Y-94279000I225000J0D01*
G01*
X146046000Y-94279000D01*
G75*
G02*
X146271000Y-94504000I0J-225000D01*
G01*
X146271000Y-94954000D01*
G75*
G02*
X146046000Y-95179000I-225000J0D01*
G01*
G37*
G04 #@! TD.AperFunction*
G04 #@! TA.AperFunction,SMDPad,CuDef*
G36*
G01*
X146046000Y-96729000D02*
X145546000Y-96729000D01*
G75*
G02*
X145321000Y-96504000I0J225000D01*
G01*
X145321000Y-96054000D01*
G75*
G02*
X145546000Y-95829000I225000J0D01*
G01*
X146046000Y-95829000D01*
G75*
G02*
X146271000Y-96054000I0J-225000D01*
G01*
X146271000Y-96504000D01*
G75*
G02*
X146046000Y-96729000I-225000J0D01*
G01*
G37*
G04 #@! TD.AperFunction*
G04 #@! TA.AperFunction,SMDPad,CuDef*
G36*
G01*
X159467000Y-93730000D02*
X159467000Y-94230000D01*
G75*
G02*
X159242000Y-94455000I-225000J0D01*
G01*
X158792000Y-94455000D01*
G75*
G02*
X158567000Y-94230000I0J225000D01*
G01*
X158567000Y-93730000D01*
G75*
G02*
X158792000Y-93505000I225000J0D01*
G01*
X159242000Y-93505000D01*
G75*
G02*
X159467000Y-93730000I0J-225000D01*
G01*
G37*
G04 #@! TD.AperFunction*
G04 #@! TA.AperFunction,SMDPad,CuDef*
G36*
G01*
X157917000Y-93730000D02*
X157917000Y-94230000D01*
G75*
G02*
X157692000Y-94455000I-225000J0D01*
G01*
X157242000Y-94455000D01*
G75*
G02*
X157017000Y-94230000I0J225000D01*
G01*
X157017000Y-93730000D01*
G75*
G02*
X157242000Y-93505000I225000J0D01*
G01*
X157692000Y-93505000D01*
G75*
G02*
X157917000Y-93730000I0J-225000D01*
G01*
G37*
G04 #@! TD.AperFunction*
G04 #@! TA.AperFunction,SMDPad,CuDef*
G36*
G01*
X167782001Y-93617000D02*
X166481999Y-93617000D01*
G75*
G02*
X166232000Y-93367001I0J249999D01*
G01*
X166232000Y-92716999D01*
G75*
G02*
X166481999Y-92467000I249999J0D01*
G01*
X167782001Y-92467000D01*
G75*
G02*
X168032000Y-92716999I0J-249999D01*
G01*
X168032000Y-93367001D01*
G75*
G02*
X167782001Y-93617000I-249999J0D01*
G01*
G37*
G04 #@! TD.AperFunction*
G04 #@! TA.AperFunction,SMDPad,CuDef*
G36*
G01*
X167782001Y-90667000D02*
X166481999Y-90667000D01*
G75*
G02*
X166232000Y-90417001I0J249999D01*
G01*
X166232000Y-89766999D01*
G75*
G02*
X166481999Y-89517000I249999J0D01*
G01*
X167782001Y-89517000D01*
G75*
G02*
X168032000Y-89766999I0J-249999D01*
G01*
X168032000Y-90417001D01*
G75*
G02*
X167782001Y-90667000I-249999J0D01*
G01*
G37*
G04 #@! TD.AperFunction*
G04 #@! TA.AperFunction,SMDPad,CuDef*
G36*
G01*
X164317000Y-102407000D02*
X164867000Y-102407000D01*
G75*
G02*
X165067000Y-102607000I0J-200000D01*
G01*
X165067000Y-103007000D01*
G75*
G02*
X164867000Y-103207000I-200000J0D01*
G01*
X164317000Y-103207000D01*
G75*
G02*
X164117000Y-103007000I0J200000D01*
G01*
X164117000Y-102607000D01*
G75*
G02*
X164317000Y-102407000I200000J0D01*
G01*
G37*
G04 #@! TD.AperFunction*
G04 #@! TA.AperFunction,SMDPad,CuDef*
G36*
G01*
X164317000Y-104057000D02*
X164867000Y-104057000D01*
G75*
G02*
X165067000Y-104257000I0J-200000D01*
G01*
X165067000Y-104657000D01*
G75*
G02*
X164867000Y-104857000I-200000J0D01*
G01*
X164317000Y-104857000D01*
G75*
G02*
X164117000Y-104657000I0J200000D01*
G01*
X164117000Y-104257000D01*
G75*
G02*
X164317000Y-104057000I200000J0D01*
G01*
G37*
G04 #@! TD.AperFunction*
G04 #@! TA.AperFunction,SMDPad,CuDef*
G36*
G01*
X167407000Y-104857000D02*
X166857000Y-104857000D01*
G75*
G02*
X166657000Y-104657000I0J200000D01*
G01*
X166657000Y-104257000D01*
G75*
G02*
X166857000Y-104057000I200000J0D01*
G01*
X167407000Y-104057000D01*
G75*
G02*
X167607000Y-104257000I0J-200000D01*
G01*
X167607000Y-104657000D01*
G75*
G02*
X167407000Y-104857000I-200000J0D01*
G01*
G37*
G04 #@! TD.AperFunction*
G04 #@! TA.AperFunction,SMDPad,CuDef*
G36*
G01*
X167407000Y-103207000D02*
X166857000Y-103207000D01*
G75*
G02*
X166657000Y-103007000I0J200000D01*
G01*
X166657000Y-102607000D01*
G75*
G02*
X166857000Y-102407000I200000J0D01*
G01*
X167407000Y-102407000D01*
G75*
G02*
X167607000Y-102607000I0J-200000D01*
G01*
X167607000Y-103007000D01*
G75*
G02*
X167407000Y-103207000I-200000J0D01*
G01*
G37*
G04 #@! TD.AperFunction*
G04 #@! TA.AperFunction,SMDPad,CuDef*
G36*
G01*
X159237000Y-102407000D02*
X159787000Y-102407000D01*
G75*
G02*
X159987000Y-102607000I0J-200000D01*
G01*
X159987000Y-103007000D01*
G75*
G02*
X159787000Y-103207000I-200000J0D01*
G01*
X159237000Y-103207000D01*
G75*
G02*
X159037000Y-103007000I0J200000D01*
G01*
X159037000Y-102607000D01*
G75*
G02*
X159237000Y-102407000I200000J0D01*
G01*
G37*
G04 #@! TD.AperFunction*
G04 #@! TA.AperFunction,SMDPad,CuDef*
G36*
G01*
X159237000Y-104057000D02*
X159787000Y-104057000D01*
G75*
G02*
X159987000Y-104257000I0J-200000D01*
G01*
X159987000Y-104657000D01*
G75*
G02*
X159787000Y-104857000I-200000J0D01*
G01*
X159237000Y-104857000D01*
G75*
G02*
X159037000Y-104657000I0J200000D01*
G01*
X159037000Y-104257000D01*
G75*
G02*
X159237000Y-104057000I200000J0D01*
G01*
G37*
G04 #@! TD.AperFunction*
G04 #@! TA.AperFunction,SMDPad,CuDef*
G36*
G01*
X162327000Y-103207000D02*
X161777000Y-103207000D01*
G75*
G02*
X161577000Y-103007000I0J200000D01*
G01*
X161577000Y-102607000D01*
G75*
G02*
X161777000Y-102407000I200000J0D01*
G01*
X162327000Y-102407000D01*
G75*
G02*
X162527000Y-102607000I0J-200000D01*
G01*
X162527000Y-103007000D01*
G75*
G02*
X162327000Y-103207000I-200000J0D01*
G01*
G37*
G04 #@! TD.AperFunction*
G04 #@! TA.AperFunction,SMDPad,CuDef*
G36*
G01*
X162327000Y-104857000D02*
X161777000Y-104857000D01*
G75*
G02*
X161577000Y-104657000I0J200000D01*
G01*
X161577000Y-104257000D01*
G75*
G02*
X161777000Y-104057000I200000J0D01*
G01*
X162327000Y-104057000D01*
G75*
G02*
X162527000Y-104257000I0J-200000D01*
G01*
X162527000Y-104657000D01*
G75*
G02*
X162327000Y-104857000I-200000J0D01*
G01*
G37*
G04 #@! TD.AperFunction*
G04 #@! TA.AperFunction,SMDPad,CuDef*
G36*
G01*
X135361000Y-107741000D02*
X135911000Y-107741000D01*
G75*
G02*
X136111000Y-107941000I0J-200000D01*
G01*
X136111000Y-108341000D01*
G75*
G02*
X135911000Y-108541000I-200000J0D01*
G01*
X135361000Y-108541000D01*
G75*
G02*
X135161000Y-108341000I0J200000D01*
G01*
X135161000Y-107941000D01*
G75*
G02*
X135361000Y-107741000I200000J0D01*
G01*
G37*
G04 #@! TD.AperFunction*
G04 #@! TA.AperFunction,SMDPad,CuDef*
G36*
G01*
X135361000Y-109391000D02*
X135911000Y-109391000D01*
G75*
G02*
X136111000Y-109591000I0J-200000D01*
G01*
X136111000Y-109991000D01*
G75*
G02*
X135911000Y-110191000I-200000J0D01*
G01*
X135361000Y-110191000D01*
G75*
G02*
X135161000Y-109991000I0J200000D01*
G01*
X135161000Y-109591000D01*
G75*
G02*
X135361000Y-109391000I200000J0D01*
G01*
G37*
G04 #@! TD.AperFunction*
G04 #@! TA.AperFunction,SMDPad,CuDef*
G36*
G01*
X163851000Y-119971000D02*
X163301000Y-119971000D01*
G75*
G02*
X163101000Y-119771000I0J200000D01*
G01*
X163101000Y-119371000D01*
G75*
G02*
X163301000Y-119171000I200000J0D01*
G01*
X163851000Y-119171000D01*
G75*
G02*
X164051000Y-119371000I0J-200000D01*
G01*
X164051000Y-119771000D01*
G75*
G02*
X163851000Y-119971000I-200000J0D01*
G01*
G37*
G04 #@! TD.AperFunction*
G04 #@! TA.AperFunction,SMDPad,CuDef*
G36*
G01*
X163851000Y-121621000D02*
X163301000Y-121621000D01*
G75*
G02*
X163101000Y-121421000I0J200000D01*
G01*
X163101000Y-121021000D01*
G75*
G02*
X163301000Y-120821000I200000J0D01*
G01*
X163851000Y-120821000D01*
G75*
G02*
X164051000Y-121021000I0J-200000D01*
G01*
X164051000Y-121421000D01*
G75*
G02*
X163851000Y-121621000I-200000J0D01*
G01*
G37*
G04 #@! TD.AperFunction*
G04 #@! TA.AperFunction,SMDPad,CuDef*
G36*
G01*
X151109000Y-116757000D02*
X151659000Y-116757000D01*
G75*
G02*
X151859000Y-116957000I0J-200000D01*
G01*
X151859000Y-117357000D01*
G75*
G02*
X151659000Y-117557000I-200000J0D01*
G01*
X151109000Y-117557000D01*
G75*
G02*
X150909000Y-117357000I0J200000D01*
G01*
X150909000Y-116957000D01*
G75*
G02*
X151109000Y-116757000I200000J0D01*
G01*
G37*
G04 #@! TD.AperFunction*
G04 #@! TA.AperFunction,SMDPad,CuDef*
G36*
G01*
X151109000Y-115107000D02*
X151659000Y-115107000D01*
G75*
G02*
X151859000Y-115307000I0J-200000D01*
G01*
X151859000Y-115707000D01*
G75*
G02*
X151659000Y-115907000I-200000J0D01*
G01*
X151109000Y-115907000D01*
G75*
G02*
X150909000Y-115707000I0J200000D01*
G01*
X150909000Y-115307000D01*
G75*
G02*
X151109000Y-115107000I200000J0D01*
G01*
G37*
G04 #@! TD.AperFunction*
G04 #@! TA.AperFunction,SMDPad,CuDef*
G36*
G01*
X151659000Y-121621000D02*
X151109000Y-121621000D01*
G75*
G02*
X150909000Y-121421000I0J200000D01*
G01*
X150909000Y-121021000D01*
G75*
G02*
X151109000Y-120821000I200000J0D01*
G01*
X151659000Y-120821000D01*
G75*
G02*
X151859000Y-121021000I0J-200000D01*
G01*
X151859000Y-121421000D01*
G75*
G02*
X151659000Y-121621000I-200000J0D01*
G01*
G37*
G04 #@! TD.AperFunction*
G04 #@! TA.AperFunction,SMDPad,CuDef*
G36*
G01*
X151659000Y-119971000D02*
X151109000Y-119971000D01*
G75*
G02*
X150909000Y-119771000I0J200000D01*
G01*
X150909000Y-119371000D01*
G75*
G02*
X151109000Y-119171000I200000J0D01*
G01*
X151659000Y-119171000D01*
G75*
G02*
X151859000Y-119371000I0J-200000D01*
G01*
X151859000Y-119771000D01*
G75*
G02*
X151659000Y-119971000I-200000J0D01*
G01*
G37*
G04 #@! TD.AperFunction*
G04 #@! TA.AperFunction,SMDPad,CuDef*
G36*
G01*
X160761000Y-116757000D02*
X161311000Y-116757000D01*
G75*
G02*
X161511000Y-116957000I0J-200000D01*
G01*
X161511000Y-117357000D01*
G75*
G02*
X161311000Y-117557000I-200000J0D01*
G01*
X160761000Y-117557000D01*
G75*
G02*
X160561000Y-117357000I0J200000D01*
G01*
X160561000Y-116957000D01*
G75*
G02*
X160761000Y-116757000I200000J0D01*
G01*
G37*
G04 #@! TD.AperFunction*
G04 #@! TA.AperFunction,SMDPad,CuDef*
G36*
G01*
X160761000Y-115107000D02*
X161311000Y-115107000D01*
G75*
G02*
X161511000Y-115307000I0J-200000D01*
G01*
X161511000Y-115707000D01*
G75*
G02*
X161311000Y-115907000I-200000J0D01*
G01*
X160761000Y-115907000D01*
G75*
G02*
X160561000Y-115707000I0J200000D01*
G01*
X160561000Y-115307000D01*
G75*
G02*
X160761000Y-115107000I200000J0D01*
G01*
G37*
G04 #@! TD.AperFunction*
G04 #@! TA.AperFunction,SMDPad,CuDef*
G36*
G01*
X160761000Y-124885000D02*
X161311000Y-124885000D01*
G75*
G02*
X161511000Y-125085000I0J-200000D01*
G01*
X161511000Y-125485000D01*
G75*
G02*
X161311000Y-125685000I-200000J0D01*
G01*
X160761000Y-125685000D01*
G75*
G02*
X160561000Y-125485000I0J200000D01*
G01*
X160561000Y-125085000D01*
G75*
G02*
X160761000Y-124885000I200000J0D01*
G01*
G37*
G04 #@! TD.AperFunction*
G04 #@! TA.AperFunction,SMDPad,CuDef*
G36*
G01*
X160761000Y-123235000D02*
X161311000Y-123235000D01*
G75*
G02*
X161511000Y-123435000I0J-200000D01*
G01*
X161511000Y-123835000D01*
G75*
G02*
X161311000Y-124035000I-200000J0D01*
G01*
X160761000Y-124035000D01*
G75*
G02*
X160561000Y-123835000I0J200000D01*
G01*
X160561000Y-123435000D01*
G75*
G02*
X160761000Y-123235000I200000J0D01*
G01*
G37*
G04 #@! TD.AperFunction*
G04 #@! TA.AperFunction,SMDPad,CuDef*
G36*
G01*
X163851000Y-117557000D02*
X163301000Y-117557000D01*
G75*
G02*
X163101000Y-117357000I0J200000D01*
G01*
X163101000Y-116957000D01*
G75*
G02*
X163301000Y-116757000I200000J0D01*
G01*
X163851000Y-116757000D01*
G75*
G02*
X164051000Y-116957000I0J-200000D01*
G01*
X164051000Y-117357000D01*
G75*
G02*
X163851000Y-117557000I-200000J0D01*
G01*
G37*
G04 #@! TD.AperFunction*
G04 #@! TA.AperFunction,SMDPad,CuDef*
G36*
G01*
X163851000Y-115907000D02*
X163301000Y-115907000D01*
G75*
G02*
X163101000Y-115707000I0J200000D01*
G01*
X163101000Y-115307000D01*
G75*
G02*
X163301000Y-115107000I200000J0D01*
G01*
X163851000Y-115107000D01*
G75*
G02*
X164051000Y-115307000I0J-200000D01*
G01*
X164051000Y-115707000D01*
G75*
G02*
X163851000Y-115907000I-200000J0D01*
G01*
G37*
G04 #@! TD.AperFunction*
G04 #@! TA.AperFunction,SMDPad,CuDef*
G36*
G01*
X163301000Y-124885000D02*
X163851000Y-124885000D01*
G75*
G02*
X164051000Y-125085000I0J-200000D01*
G01*
X164051000Y-125485000D01*
G75*
G02*
X163851000Y-125685000I-200000J0D01*
G01*
X163301000Y-125685000D01*
G75*
G02*
X163101000Y-125485000I0J200000D01*
G01*
X163101000Y-125085000D01*
G75*
G02*
X163301000Y-124885000I200000J0D01*
G01*
G37*
G04 #@! TD.AperFunction*
G04 #@! TA.AperFunction,SMDPad,CuDef*
G36*
G01*
X163301000Y-123235000D02*
X163851000Y-123235000D01*
G75*
G02*
X164051000Y-123435000I0J-200000D01*
G01*
X164051000Y-123835000D01*
G75*
G02*
X163851000Y-124035000I-200000J0D01*
G01*
X163301000Y-124035000D01*
G75*
G02*
X163101000Y-123835000I0J200000D01*
G01*
X163101000Y-123435000D01*
G75*
G02*
X163301000Y-123235000I200000J0D01*
G01*
G37*
G04 #@! TD.AperFunction*
G04 #@! TA.AperFunction,SMDPad,CuDef*
G36*
G01*
X176763000Y-104693000D02*
X177313000Y-104693000D01*
G75*
G02*
X177513000Y-104893000I0J-200000D01*
G01*
X177513000Y-105293000D01*
G75*
G02*
X177313000Y-105493000I-200000J0D01*
G01*
X176763000Y-105493000D01*
G75*
G02*
X176563000Y-105293000I0J200000D01*
G01*
X176563000Y-104893000D01*
G75*
G02*
X176763000Y-104693000I200000J0D01*
G01*
G37*
G04 #@! TD.AperFunction*
G04 #@! TA.AperFunction,SMDPad,CuDef*
G36*
G01*
X176763000Y-106343000D02*
X177313000Y-106343000D01*
G75*
G02*
X177513000Y-106543000I0J-200000D01*
G01*
X177513000Y-106943000D01*
G75*
G02*
X177313000Y-107143000I-200000J0D01*
G01*
X176763000Y-107143000D01*
G75*
G02*
X176563000Y-106943000I0J200000D01*
G01*
X176563000Y-106543000D01*
G75*
G02*
X176763000Y-106343000I200000J0D01*
G01*
G37*
G04 #@! TD.AperFunction*
G04 #@! TA.AperFunction,SMDPad,CuDef*
G36*
G01*
X140441000Y-94279000D02*
X140991000Y-94279000D01*
G75*
G02*
X141191000Y-94479000I0J-200000D01*
G01*
X141191000Y-94879000D01*
G75*
G02*
X140991000Y-95079000I-200000J0D01*
G01*
X140441000Y-95079000D01*
G75*
G02*
X140241000Y-94879000I0J200000D01*
G01*
X140241000Y-94479000D01*
G75*
G02*
X140441000Y-94279000I200000J0D01*
G01*
G37*
G04 #@! TD.AperFunction*
G04 #@! TA.AperFunction,SMDPad,CuDef*
G36*
G01*
X140441000Y-95929000D02*
X140991000Y-95929000D01*
G75*
G02*
X141191000Y-96129000I0J-200000D01*
G01*
X141191000Y-96529000D01*
G75*
G02*
X140991000Y-96729000I-200000J0D01*
G01*
X140441000Y-96729000D01*
G75*
G02*
X140241000Y-96529000I0J200000D01*
G01*
X140241000Y-96129000D01*
G75*
G02*
X140441000Y-95929000I200000J0D01*
G01*
G37*
G04 #@! TD.AperFunction*
G04 #@! TA.AperFunction,SMDPad,CuDef*
G36*
G01*
X137901000Y-95929000D02*
X138451000Y-95929000D01*
G75*
G02*
X138651000Y-96129000I0J-200000D01*
G01*
X138651000Y-96529000D01*
G75*
G02*
X138451000Y-96729000I-200000J0D01*
G01*
X137901000Y-96729000D01*
G75*
G02*
X137701000Y-96529000I0J200000D01*
G01*
X137701000Y-96129000D01*
G75*
G02*
X137901000Y-95929000I200000J0D01*
G01*
G37*
G04 #@! TD.AperFunction*
G04 #@! TA.AperFunction,SMDPad,CuDef*
G36*
G01*
X137901000Y-94279000D02*
X138451000Y-94279000D01*
G75*
G02*
X138651000Y-94479000I0J-200000D01*
G01*
X138651000Y-94879000D01*
G75*
G02*
X138451000Y-95079000I-200000J0D01*
G01*
X137901000Y-95079000D01*
G75*
G02*
X137701000Y-94879000I0J200000D01*
G01*
X137701000Y-94479000D01*
G75*
G02*
X137901000Y-94279000I200000J0D01*
G01*
G37*
G04 #@! TD.AperFunction*
G04 #@! TA.AperFunction,SMDPad,CuDef*
G36*
G01*
X135361000Y-94279000D02*
X135911000Y-94279000D01*
G75*
G02*
X136111000Y-94479000I0J-200000D01*
G01*
X136111000Y-94879000D01*
G75*
G02*
X135911000Y-95079000I-200000J0D01*
G01*
X135361000Y-95079000D01*
G75*
G02*
X135161000Y-94879000I0J200000D01*
G01*
X135161000Y-94479000D01*
G75*
G02*
X135361000Y-94279000I200000J0D01*
G01*
G37*
G04 #@! TD.AperFunction*
G04 #@! TA.AperFunction,SMDPad,CuDef*
G36*
G01*
X135361000Y-95929000D02*
X135911000Y-95929000D01*
G75*
G02*
X136111000Y-96129000I0J-200000D01*
G01*
X136111000Y-96529000D01*
G75*
G02*
X135911000Y-96729000I-200000J0D01*
G01*
X135361000Y-96729000D01*
G75*
G02*
X135161000Y-96529000I0J200000D01*
G01*
X135161000Y-96129000D01*
G75*
G02*
X135361000Y-95929000I200000J0D01*
G01*
G37*
G04 #@! TD.AperFunction*
G04 #@! TA.AperFunction,SMDPad,CuDef*
G36*
G01*
X142981000Y-95929000D02*
X143531000Y-95929000D01*
G75*
G02*
X143731000Y-96129000I0J-200000D01*
G01*
X143731000Y-96529000D01*
G75*
G02*
X143531000Y-96729000I-200000J0D01*
G01*
X142981000Y-96729000D01*
G75*
G02*
X142781000Y-96529000I0J200000D01*
G01*
X142781000Y-96129000D01*
G75*
G02*
X142981000Y-95929000I200000J0D01*
G01*
G37*
G04 #@! TD.AperFunction*
G04 #@! TA.AperFunction,SMDPad,CuDef*
G36*
G01*
X142981000Y-94279000D02*
X143531000Y-94279000D01*
G75*
G02*
X143731000Y-94479000I0J-200000D01*
G01*
X143731000Y-94879000D01*
G75*
G02*
X143531000Y-95079000I-200000J0D01*
G01*
X142981000Y-95079000D01*
G75*
G02*
X142781000Y-94879000I0J200000D01*
G01*
X142781000Y-94479000D01*
G75*
G02*
X142981000Y-94279000I200000J0D01*
G01*
G37*
G04 #@! TD.AperFunction*
G04 #@! TA.AperFunction,SMDPad,CuDef*
G36*
G01*
X143085000Y-103865000D02*
X143085000Y-104415000D01*
G75*
G02*
X142885000Y-104615000I-200000J0D01*
G01*
X142485000Y-104615000D01*
G75*
G02*
X142285000Y-104415000I0J200000D01*
G01*
X142285000Y-103865000D01*
G75*
G02*
X142485000Y-103665000I200000J0D01*
G01*
X142885000Y-103665000D01*
G75*
G02*
X143085000Y-103865000I0J-200000D01*
G01*
G37*
G04 #@! TD.AperFunction*
G04 #@! TA.AperFunction,SMDPad,CuDef*
G36*
G01*
X144735000Y-103865000D02*
X144735000Y-104415000D01*
G75*
G02*
X144535000Y-104615000I-200000J0D01*
G01*
X144135000Y-104615000D01*
G75*
G02*
X143935000Y-104415000I0J200000D01*
G01*
X143935000Y-103865000D01*
G75*
G02*
X144135000Y-103665000I200000J0D01*
G01*
X144535000Y-103665000D01*
G75*
G02*
X144735000Y-103865000I0J-200000D01*
G01*
G37*
G04 #@! TD.AperFunction*
G04 #@! TA.AperFunction,SMDPad,CuDef*
G36*
G01*
X157247000Y-103207000D02*
X156697000Y-103207000D01*
G75*
G02*
X156497000Y-103007000I0J200000D01*
G01*
X156497000Y-102607000D01*
G75*
G02*
X156697000Y-102407000I200000J0D01*
G01*
X157247000Y-102407000D01*
G75*
G02*
X157447000Y-102607000I0J-200000D01*
G01*
X157447000Y-103007000D01*
G75*
G02*
X157247000Y-103207000I-200000J0D01*
G01*
G37*
G04 #@! TD.AperFunction*
G04 #@! TA.AperFunction,SMDPad,CuDef*
G36*
G01*
X157247000Y-104857000D02*
X156697000Y-104857000D01*
G75*
G02*
X156497000Y-104657000I0J200000D01*
G01*
X156497000Y-104257000D01*
G75*
G02*
X156697000Y-104057000I200000J0D01*
G01*
X157247000Y-104057000D01*
G75*
G02*
X157447000Y-104257000I0J-200000D01*
G01*
X157447000Y-104657000D01*
G75*
G02*
X157247000Y-104857000I-200000J0D01*
G01*
G37*
G04 #@! TD.AperFunction*
G04 #@! TA.AperFunction,SMDPad,CuDef*
G36*
G01*
X144735000Y-101325000D02*
X144735000Y-101875000D01*
G75*
G02*
X144535000Y-102075000I-200000J0D01*
G01*
X144135000Y-102075000D01*
G75*
G02*
X143935000Y-101875000I0J200000D01*
G01*
X143935000Y-101325000D01*
G75*
G02*
X144135000Y-101125000I200000J0D01*
G01*
X144535000Y-101125000D01*
G75*
G02*
X144735000Y-101325000I0J-200000D01*
G01*
G37*
G04 #@! TD.AperFunction*
G04 #@! TA.AperFunction,SMDPad,CuDef*
G36*
G01*
X143085000Y-101325000D02*
X143085000Y-101875000D01*
G75*
G02*
X142885000Y-102075000I-200000J0D01*
G01*
X142485000Y-102075000D01*
G75*
G02*
X142285000Y-101875000I0J200000D01*
G01*
X142285000Y-101325000D01*
G75*
G02*
X142485000Y-101125000I200000J0D01*
G01*
X142885000Y-101125000D01*
G75*
G02*
X143085000Y-101325000I0J-200000D01*
G01*
G37*
G04 #@! TD.AperFunction*
G04 #@! TA.AperFunction,SMDPad,CuDef*
G36*
G01*
X150705000Y-103865000D02*
X150705000Y-104415000D01*
G75*
G02*
X150505000Y-104615000I-200000J0D01*
G01*
X150105000Y-104615000D01*
G75*
G02*
X149905000Y-104415000I0J200000D01*
G01*
X149905000Y-103865000D01*
G75*
G02*
X150105000Y-103665000I200000J0D01*
G01*
X150505000Y-103665000D01*
G75*
G02*
X150705000Y-103865000I0J-200000D01*
G01*
G37*
G04 #@! TD.AperFunction*
G04 #@! TA.AperFunction,SMDPad,CuDef*
G36*
G01*
X152355000Y-103865000D02*
X152355000Y-104415000D01*
G75*
G02*
X152155000Y-104615000I-200000J0D01*
G01*
X151755000Y-104615000D01*
G75*
G02*
X151555000Y-104415000I0J200000D01*
G01*
X151555000Y-103865000D01*
G75*
G02*
X151755000Y-103665000I200000J0D01*
G01*
X152155000Y-103665000D01*
G75*
G02*
X152355000Y-103865000I0J-200000D01*
G01*
G37*
G04 #@! TD.AperFunction*
G04 #@! TA.AperFunction,SMDPad,CuDef*
G36*
G01*
X163493000Y-94255000D02*
X163493000Y-93705000D01*
G75*
G02*
X163693000Y-93505000I200000J0D01*
G01*
X164093000Y-93505000D01*
G75*
G02*
X164293000Y-93705000I0J-200000D01*
G01*
X164293000Y-94255000D01*
G75*
G02*
X164093000Y-94455000I-200000J0D01*
G01*
X163693000Y-94455000D01*
G75*
G02*
X163493000Y-94255000I0J200000D01*
G01*
G37*
G04 #@! TD.AperFunction*
G04 #@! TA.AperFunction,SMDPad,CuDef*
G36*
G01*
X161843000Y-94255000D02*
X161843000Y-93705000D01*
G75*
G02*
X162043000Y-93505000I200000J0D01*
G01*
X162443000Y-93505000D01*
G75*
G02*
X162643000Y-93705000I0J-200000D01*
G01*
X162643000Y-94255000D01*
G75*
G02*
X162443000Y-94455000I-200000J0D01*
G01*
X162043000Y-94455000D01*
G75*
G02*
X161843000Y-94255000I0J200000D01*
G01*
G37*
G04 #@! TD.AperFunction*
G04 #@! TA.AperFunction,SMDPad,CuDef*
G36*
G01*
X161843000Y-96287000D02*
X161843000Y-95737000D01*
G75*
G02*
X162043000Y-95537000I200000J0D01*
G01*
X162443000Y-95537000D01*
G75*
G02*
X162643000Y-95737000I0J-200000D01*
G01*
X162643000Y-96287000D01*
G75*
G02*
X162443000Y-96487000I-200000J0D01*
G01*
X162043000Y-96487000D01*
G75*
G02*
X161843000Y-96287000I0J200000D01*
G01*
G37*
G04 #@! TD.AperFunction*
G04 #@! TA.AperFunction,SMDPad,CuDef*
G36*
G01*
X163493000Y-96287000D02*
X163493000Y-95737000D01*
G75*
G02*
X163693000Y-95537000I200000J0D01*
G01*
X164093000Y-95537000D01*
G75*
G02*
X164293000Y-95737000I0J-200000D01*
G01*
X164293000Y-96287000D01*
G75*
G02*
X164093000Y-96487000I-200000J0D01*
G01*
X163693000Y-96487000D01*
G75*
G02*
X163493000Y-96287000I0J200000D01*
G01*
G37*
G04 #@! TD.AperFunction*
G04 #@! TA.AperFunction,SMDPad,CuDef*
G36*
G01*
X166481999Y-96248000D02*
X167782001Y-96248000D01*
G75*
G02*
X168032000Y-96497999I0J-249999D01*
G01*
X168032000Y-97148001D01*
G75*
G02*
X167782001Y-97398000I-249999J0D01*
G01*
X166481999Y-97398000D01*
G75*
G02*
X166232000Y-97148001I0J249999D01*
G01*
X166232000Y-96497999D01*
G75*
G02*
X166481999Y-96248000I249999J0D01*
G01*
G37*
G04 #@! TD.AperFunction*
G04 #@! TA.AperFunction,SMDPad,CuDef*
G36*
G01*
X166481999Y-99198000D02*
X167782001Y-99198000D01*
G75*
G02*
X168032000Y-99447999I0J-249999D01*
G01*
X168032000Y-100098001D01*
G75*
G02*
X167782001Y-100348000I-249999J0D01*
G01*
X166481999Y-100348000D01*
G75*
G02*
X166232000Y-100098001I0J249999D01*
G01*
X166232000Y-99447999D01*
G75*
G02*
X166481999Y-99198000I249999J0D01*
G01*
G37*
G04 #@! TD.AperFunction*
G04 #@! TA.AperFunction,SMDPad,CuDef*
G36*
G01*
X170322001Y-119398000D02*
X169021999Y-119398000D01*
G75*
G02*
X168772000Y-119148001I0J249999D01*
G01*
X168772000Y-118497999D01*
G75*
G02*
X169021999Y-118248000I249999J0D01*
G01*
X170322001Y-118248000D01*
G75*
G02*
X170572000Y-118497999I0J-249999D01*
G01*
X170572000Y-119148001D01*
G75*
G02*
X170322001Y-119398000I-249999J0D01*
G01*
G37*
G04 #@! TD.AperFunction*
G04 #@! TA.AperFunction,SMDPad,CuDef*
G36*
G01*
X170322001Y-116448000D02*
X169021999Y-116448000D01*
G75*
G02*
X168772000Y-116198001I0J249999D01*
G01*
X168772000Y-115547999D01*
G75*
G02*
X169021999Y-115298000I249999J0D01*
G01*
X170322001Y-115298000D01*
G75*
G02*
X170572000Y-115547999I0J-249999D01*
G01*
X170572000Y-116198001D01*
G75*
G02*
X170322001Y-116448000I-249999J0D01*
G01*
G37*
G04 #@! TD.AperFunction*
G04 #@! TA.AperFunction,SMDPad,CuDef*
G36*
G01*
X169021999Y-124344000D02*
X170322001Y-124344000D01*
G75*
G02*
X170572000Y-124593999I0J-249999D01*
G01*
X170572000Y-125244001D01*
G75*
G02*
X170322001Y-125494000I-249999J0D01*
G01*
X169021999Y-125494000D01*
G75*
G02*
X168772000Y-125244001I0J249999D01*
G01*
X168772000Y-124593999D01*
G75*
G02*
X169021999Y-124344000I249999J0D01*
G01*
G37*
G04 #@! TD.AperFunction*
G04 #@! TA.AperFunction,SMDPad,CuDef*
G36*
G01*
X169021999Y-121394000D02*
X170322001Y-121394000D01*
G75*
G02*
X170572000Y-121643999I0J-249999D01*
G01*
X170572000Y-122294001D01*
G75*
G02*
X170322001Y-122544000I-249999J0D01*
G01*
X169021999Y-122544000D01*
G75*
G02*
X168772000Y-122294001I0J249999D01*
G01*
X168772000Y-121643999D01*
G75*
G02*
X169021999Y-121394000I249999J0D01*
G01*
G37*
G04 #@! TD.AperFunction*
D24*
X148985000Y-92456000D03*
X153275000Y-92456000D03*
X158101000Y-122936000D03*
X153811000Y-122936000D03*
D25*
X165016300Y-121171000D03*
X162052000Y-101799500D03*
X162494100Y-115455800D03*
X148148300Y-100564200D03*
X137503300Y-101551000D03*
X174575500Y-111506000D03*
X167132000Y-91275000D03*
X156210000Y-94488000D03*
X153771600Y-118206200D03*
X146545000Y-103027500D03*
X139637700Y-96219600D03*
X140649100Y-92967900D03*
X150281500Y-124952900D03*
X165600500Y-99684100D03*
X165990200Y-102763200D03*
X134551100Y-109908000D03*
X152206400Y-118748600D03*
X142685000Y-100498500D03*
X155853900Y-102807000D03*
X169672000Y-117062900D03*
X169672000Y-123738800D03*
X137668000Y-97663000D03*
X164338000Y-97790000D03*
X154432000Y-96901000D03*
X168148000Y-118872000D03*
X152138200Y-101745000D03*
X161162000Y-97480500D03*
D26*
X163068000Y-98060000D02*
X163068000Y-98860300D01*
X163118100Y-103392100D02*
X163118100Y-98910400D01*
X163118100Y-98910400D02*
X163068000Y-98860300D01*
X163118100Y-103392100D02*
X162931500Y-103578700D01*
X162931500Y-103578700D02*
X160283700Y-103578700D01*
X160283700Y-103578700D02*
X159512000Y-102807000D01*
X173736000Y-92456000D02*
X170914600Y-95277400D01*
X170914600Y-95277400D02*
X170914600Y-100344200D01*
X170914600Y-100344200D02*
X167680100Y-103578700D01*
X167680100Y-103578700D02*
X163304700Y-103578700D01*
X163304700Y-103578700D02*
X163118100Y-103392100D01*
X162243000Y-96012000D02*
X162243000Y-97985300D01*
X162243000Y-97985300D02*
X162317700Y-98060000D01*
X163068000Y-98060000D02*
X162317700Y-98060000D01*
X157442000Y-100764000D02*
X158242000Y-99964000D01*
X153884000Y-100764000D02*
X157442000Y-100764000D01*
X157797008Y-99964000D02*
X158242000Y-99964000D01*
X155697008Y-97864000D02*
X157797008Y-99964000D01*
X153884000Y-97864000D02*
X155697008Y-97864000D01*
X162243000Y-98537936D02*
X162243000Y-97985300D01*
X160816936Y-99964000D02*
X162243000Y-98537936D01*
X158242000Y-99964000D02*
X160816936Y-99964000D01*
X166116000Y-121171000D02*
X165016300Y-121171000D01*
X167132000Y-102807000D02*
X167088200Y-102763200D01*
X167088200Y-102763200D02*
X165990200Y-102763200D01*
X162052000Y-102807000D02*
X162052000Y-101799500D01*
X163524800Y-115455800D02*
X163576000Y-115507000D01*
X148148300Y-100564200D02*
X148884000Y-100564200D01*
X148884000Y-100564200D02*
X148884000Y-100063700D01*
X148884000Y-100764000D02*
X148884000Y-100564200D01*
X137503300Y-101551000D02*
X137552300Y-101600000D01*
X137552300Y-101600000D02*
X138925000Y-101600000D01*
X137503300Y-101551000D02*
X135636000Y-101551000D01*
X149834000Y-99314000D02*
X150601200Y-99314000D01*
X148884000Y-100063700D02*
X149084300Y-100063700D01*
X149084300Y-100063700D02*
X149834000Y-99314000D01*
X151384000Y-99314000D02*
X150601200Y-99314000D01*
X167132000Y-90092000D02*
X167132000Y-91275000D01*
X153771600Y-118206200D02*
X153771600Y-117459800D01*
X152206400Y-118748600D02*
X151384000Y-117926200D01*
X151384000Y-117926200D02*
X151384000Y-117157000D01*
X152206400Y-118748600D02*
X151384000Y-119571000D01*
X146545000Y-103027500D02*
X146545000Y-104140000D01*
X139637700Y-96219600D02*
X140606600Y-96219600D01*
X140606600Y-96219600D02*
X140716000Y-96329000D01*
X152384000Y-99314000D02*
X152934000Y-99314000D01*
X151384000Y-99314000D02*
X152384000Y-99314000D01*
X152384000Y-97864000D02*
X152384000Y-99314000D01*
X137668000Y-97663000D02*
X138242000Y-98237000D01*
X138242000Y-98237000D02*
X138242000Y-98410000D01*
X142685000Y-99864800D02*
X140972100Y-99864800D01*
X140972100Y-99864800D02*
X140817300Y-99710000D01*
X142814000Y-99060000D02*
X142814000Y-99735800D01*
X142814000Y-99735800D02*
X142685000Y-99864800D01*
X142685000Y-100498500D02*
X142685000Y-99864800D01*
X140142000Y-99710000D02*
X140817300Y-99710000D01*
X140649100Y-92967900D02*
X140926700Y-92690300D01*
X140926700Y-92690300D02*
X141002000Y-92690300D01*
X141002000Y-91440000D02*
X141002000Y-92690300D01*
X150281500Y-124952900D02*
X151101900Y-124952900D01*
X151101900Y-124952900D02*
X151384000Y-125235000D01*
X142685000Y-101600000D02*
X142685000Y-100498500D01*
X165600500Y-99684100D02*
X167043100Y-99684100D01*
X167043100Y-99684100D02*
X167132000Y-99773000D01*
X134551100Y-109908000D02*
X135519000Y-109908000D01*
X135519000Y-109908000D02*
X135636000Y-109791000D01*
X155853900Y-102807000D02*
X156972000Y-102807000D01*
X169672000Y-117062900D02*
X169672000Y-115873000D01*
X169672000Y-123738800D02*
X169672000Y-124919000D01*
X162494100Y-115455800D02*
X163524800Y-115455800D01*
X174734500Y-111347000D02*
X174575500Y-111506000D01*
X177038000Y-111347000D02*
X174734500Y-111347000D01*
X156959000Y-94488000D02*
X157467000Y-93980000D01*
X156210000Y-94488000D02*
X156959000Y-94488000D01*
X157467000Y-94462000D02*
X159017000Y-96012000D01*
X157467000Y-93980000D02*
X157467000Y-94462000D01*
X135636000Y-98601000D02*
X134793400Y-97758400D01*
X134793400Y-97758400D02*
X134793400Y-95521600D01*
X134793400Y-95521600D02*
X135636000Y-94679000D01*
X135657700Y-90932000D02*
X135802300Y-90932000D01*
X135002000Y-90932000D02*
X135657700Y-90932000D01*
X135636000Y-94679000D02*
X135657700Y-94657300D01*
X135657700Y-94657300D02*
X135657700Y-90932000D01*
X143256000Y-94679000D02*
X143256000Y-91033400D01*
X143256000Y-91033400D02*
X142194600Y-89972000D01*
X142194600Y-89972000D02*
X136762300Y-89972000D01*
X136762300Y-89972000D02*
X135802300Y-90932000D01*
X149384000Y-97864000D02*
X149384000Y-97361000D01*
X149384000Y-97361000D02*
X149186700Y-97163700D01*
X149186700Y-97163700D02*
X145344100Y-97163700D01*
X145344100Y-97163700D02*
X143256000Y-95075600D01*
X143256000Y-95075600D02*
X143256000Y-94679000D01*
X131143000Y-124307000D02*
X133666400Y-121783600D01*
X133666400Y-121783600D02*
X133666400Y-100570600D01*
X133666400Y-100570600D02*
X135636000Y-98601000D01*
X168148000Y-118872000D02*
X168148000Y-120431600D01*
X168148000Y-120431600D02*
X166603300Y-121976300D01*
X166603300Y-121976300D02*
X164331300Y-121976300D01*
X164331300Y-121976300D02*
X163576000Y-121221000D01*
X169672000Y-118823000D02*
X168197000Y-118823000D01*
X168197000Y-118823000D02*
X168148000Y-118872000D01*
X163576000Y-121221000D02*
X163154500Y-121221000D01*
X163154500Y-121221000D02*
X159189200Y-117255700D01*
X159189200Y-117255700D02*
X159189200Y-117175000D01*
X159189200Y-117175000D02*
X158973700Y-116959500D01*
X158973700Y-116959500D02*
X158140400Y-116959500D01*
X158140400Y-116959500D02*
X158140400Y-116959400D01*
X167132000Y-93042000D02*
X164327700Y-93042000D01*
X164327700Y-93042000D02*
X164018000Y-92732300D01*
X163893000Y-93980000D02*
X163893000Y-92857300D01*
X163893000Y-92857300D02*
X164018000Y-92732300D01*
X164338000Y-97790000D02*
X163119600Y-96571600D01*
X163119600Y-96571600D02*
X163119600Y-94753400D01*
X163119600Y-94753400D02*
X163893000Y-93980000D01*
X164018000Y-91932000D02*
X164018000Y-92732300D01*
X164338000Y-97790000D02*
X164338000Y-98939700D01*
X164338000Y-98939700D02*
X164018000Y-99259700D01*
X153384000Y-97864000D02*
X153384000Y-97163700D01*
X154432000Y-96901000D02*
X153646700Y-96901000D01*
X153646700Y-96901000D02*
X153384000Y-97163700D01*
X164018000Y-100060000D02*
X164018000Y-99259700D01*
X169672000Y-121969000D02*
X169137800Y-122503200D01*
X169137800Y-122503200D02*
X164707800Y-122503200D01*
X164707800Y-122503200D02*
X163576000Y-123635000D01*
X172974000Y-110420300D02*
X172974000Y-118667000D01*
X172974000Y-118667000D02*
X169672000Y-121969000D01*
X163576000Y-123635000D02*
X161036000Y-123635000D01*
X161036000Y-123635000D02*
X161036000Y-120355400D01*
X161036000Y-120355400D02*
X158140400Y-117459800D01*
X172974000Y-109220000D02*
X172974000Y-110420300D01*
X163068000Y-89932000D02*
X163818300Y-89932000D01*
X163818300Y-89932000D02*
X166001800Y-92115500D01*
X166001800Y-92115500D02*
X168067600Y-92115500D01*
X168067600Y-92115500D02*
X168386700Y-92434600D01*
X168386700Y-92434600D02*
X168386700Y-100359900D01*
X168386700Y-100359900D02*
X166803200Y-101943400D01*
X166803200Y-101943400D02*
X165455600Y-101943400D01*
X165455600Y-101943400D02*
X164592000Y-102807000D01*
X150908990Y-94822010D02*
X153275000Y-92456000D01*
X150908990Y-97503010D02*
X150908990Y-94822010D01*
X150884000Y-97528000D02*
X150908990Y-97503010D01*
X150884000Y-97864000D02*
X150884000Y-97528000D01*
X157493000Y-92456000D02*
X159017000Y-93980000D01*
X153275000Y-92456000D02*
X157493000Y-92456000D01*
X162590000Y-89932000D02*
X163068000Y-89932000D01*
X159017000Y-93505000D02*
X162590000Y-89932000D01*
X159017000Y-93980000D02*
X159017000Y-93505000D01*
D27*
X164592000Y-104457000D02*
X164592000Y-106266700D01*
X164592000Y-106266700D02*
X162814000Y-108044700D01*
X162814000Y-109220000D02*
X162814000Y-108044700D01*
X167132000Y-104457000D02*
X164592000Y-104457000D01*
X160274000Y-104457000D02*
X159512000Y-104457000D01*
X162052000Y-104457000D02*
X160274000Y-104457000D01*
X160274000Y-104457000D02*
X160274000Y-108044700D01*
X160274000Y-109220000D02*
X160274000Y-108044700D01*
X163576000Y-119571000D02*
X166066000Y-119571000D01*
X166066000Y-119571000D02*
X166116000Y-119621000D01*
X159164200Y-116459000D02*
X159664500Y-116959300D01*
X159664500Y-116959300D02*
X159664500Y-117058700D01*
X159664500Y-117058700D02*
X162176800Y-119571000D01*
X162176800Y-119571000D02*
X163576000Y-119571000D01*
X158140400Y-116459000D02*
X159164200Y-116459000D01*
X163576000Y-125285000D02*
X166066000Y-125285000D01*
X166066000Y-125285000D02*
X166116000Y-125235000D01*
X144335000Y-104140000D02*
X145146700Y-104951700D01*
X145146700Y-104951700D02*
X147283300Y-104951700D01*
X147283300Y-104951700D02*
X148095000Y-104140000D01*
X150384000Y-100764000D02*
X150384000Y-101851000D01*
X150384000Y-101851000D02*
X148095000Y-104140000D01*
X137526700Y-93952800D02*
X137357500Y-94122000D01*
X137357500Y-94122000D02*
X137357500Y-95510500D01*
X137357500Y-95510500D02*
X138176000Y-96329000D01*
X140716000Y-94679000D02*
X139989800Y-93952800D01*
X139989800Y-93952800D02*
X137526700Y-93952800D01*
X137526700Y-93952800D02*
X137526700Y-90932000D01*
X138302000Y-90932000D02*
X137526700Y-90932000D01*
X155194000Y-109220000D02*
X156369300Y-109220000D01*
X177038000Y-105093000D02*
X172898500Y-105093000D01*
X172898500Y-105093000D02*
X169164000Y-108827500D01*
X169164000Y-108827500D02*
X169164000Y-109709500D01*
X169164000Y-109709500D02*
X168467300Y-110406200D01*
X168467300Y-110406200D02*
X157190200Y-110406200D01*
X157190200Y-110406200D02*
X156369300Y-109585300D01*
X156369300Y-109585300D02*
X156369300Y-109220000D01*
X143256000Y-97845700D02*
X143499700Y-97845700D01*
X143499700Y-97845700D02*
X144714000Y-99060000D01*
X140792300Y-98410000D02*
X141356600Y-97845700D01*
X141356600Y-97845700D02*
X143256000Y-97845700D01*
X143256000Y-96329000D02*
X143256000Y-97845700D01*
X144714000Y-99060000D02*
X147688000Y-99060000D01*
X147688000Y-99060000D02*
X148884000Y-97864000D01*
X140142000Y-98410000D02*
X140792300Y-98410000D01*
X157180391Y-95725391D02*
X157467000Y-96012000D01*
X152922609Y-95725391D02*
X157180391Y-95725391D01*
X151384000Y-97264000D02*
X152922609Y-95725391D01*
X151384000Y-97864000D02*
X151384000Y-97264000D01*
X148985000Y-92456000D02*
X148059700Y-92456000D01*
X145002000Y-92296500D02*
X145002000Y-92665300D01*
X145002000Y-91440000D02*
X145002000Y-92296500D01*
X148059700Y-92456000D02*
X147900200Y-92296500D01*
X147900200Y-92296500D02*
X145002000Y-92296500D01*
X145796000Y-96279000D02*
X144943400Y-95426400D01*
X144943400Y-95426400D02*
X144943400Y-92723900D01*
X144943400Y-92723900D02*
X145002000Y-92665300D01*
X149884000Y-97188700D02*
X148974300Y-96279000D01*
X148974300Y-96279000D02*
X145796000Y-96279000D01*
X149884000Y-97864000D02*
X149884000Y-97188700D01*
X163893000Y-96012000D02*
X166321000Y-96012000D01*
X166321000Y-96012000D02*
X167132000Y-96823000D01*
X151384000Y-121221000D02*
X150547500Y-120384500D01*
X150547500Y-120384500D02*
X150547500Y-116752300D01*
X150547500Y-116752300D02*
X150967700Y-116332100D01*
X150967700Y-116332100D02*
X152079600Y-116332100D01*
X152079600Y-116332100D02*
X152453100Y-115958600D01*
X152453100Y-115958600D02*
X153771600Y-115958600D01*
X151384000Y-121221000D02*
X151384000Y-123685000D01*
X161036000Y-115507000D02*
X161763000Y-116234000D01*
X161763000Y-116234000D02*
X165439000Y-116234000D01*
X165439000Y-116234000D02*
X166116000Y-115557000D01*
X163626000Y-117107000D02*
X163576000Y-117157000D01*
X157116600Y-115958600D02*
X157116600Y-115139600D01*
X157116600Y-115139600D02*
X157578500Y-114677700D01*
X161223700Y-125097300D02*
X159781600Y-123655200D01*
X159781600Y-123655200D02*
X159781600Y-121108600D01*
X159781600Y-121108600D02*
X157116600Y-118443600D01*
X157116600Y-118443600D02*
X157116600Y-115958600D01*
X161223700Y-125097300D02*
X161862300Y-124458700D01*
X161862300Y-124458700D02*
X165342300Y-124458700D01*
X165342300Y-124458700D02*
X166116000Y-123685000D01*
X161036000Y-125285000D02*
X161223700Y-125097300D01*
X158140400Y-115958600D02*
X157116600Y-115958600D01*
X166116000Y-117107000D02*
X163626000Y-117107000D01*
X166924000Y-116299000D02*
X166116000Y-117107000D01*
X166924000Y-115104000D02*
X166924000Y-116299000D01*
X166497700Y-114677700D02*
X166924000Y-115104000D01*
X157578500Y-114677700D02*
X166497700Y-114677700D01*
X142685000Y-104140000D02*
X140475000Y-101930000D01*
X140475000Y-101930000D02*
X140475000Y-101600000D01*
X145796000Y-94729000D02*
X148069500Y-94729000D01*
X148069500Y-94729000D02*
X150384000Y-97043500D01*
X150384000Y-97043500D02*
X150384000Y-97864000D01*
X177038000Y-106743000D02*
X177038000Y-109297000D01*
X149884000Y-100764000D02*
X149884000Y-101439300D01*
X144335000Y-101600000D02*
X149723300Y-101600000D01*
X149723300Y-101600000D02*
X149884000Y-101439300D01*
X150305000Y-104140000D02*
X148892100Y-105552900D01*
X148892100Y-105552900D02*
X138224100Y-105552900D01*
X138224100Y-105552900D02*
X135636000Y-108141000D01*
X150884000Y-100764000D02*
X150884000Y-103561000D01*
X150884000Y-103561000D02*
X150305000Y-104140000D01*
X151955000Y-104140000D02*
X151384000Y-103569000D01*
X151384000Y-103569000D02*
X151384000Y-100764000D01*
X151884000Y-100764000D02*
X151884000Y-101490800D01*
X151884000Y-101490800D02*
X152138200Y-101745000D01*
X162243000Y-93980000D02*
X161162000Y-95061000D01*
X161162000Y-95061000D02*
X161162000Y-97480500D01*
X162243000Y-93980000D02*
X162118000Y-93855000D01*
X162118000Y-93855000D02*
X162118000Y-91932000D01*
X152884000Y-100764000D02*
X152884000Y-101439300D01*
X156972000Y-104457000D02*
X155901700Y-104457000D01*
X155901700Y-104457000D02*
X152884000Y-101439300D01*
X162118000Y-100060000D02*
X161392700Y-100060000D01*
X161392700Y-100060000D02*
X160013200Y-101439500D01*
X160013200Y-101439500D02*
X153521100Y-101439500D01*
X153521100Y-101439500D02*
X153384000Y-101302400D01*
X153384000Y-101302400D02*
X153384000Y-100764000D01*
X152884000Y-96798000D02*
X152884000Y-97864000D01*
X153506001Y-96175999D02*
X152884000Y-96798000D01*
X155753999Y-96175999D02*
X153506001Y-96175999D01*
X158242000Y-98664000D02*
X155753999Y-96175999D01*
X154795400Y-116959400D02*
X158101000Y-120265000D01*
X158101000Y-120265000D02*
X158101000Y-122936000D01*
X153771600Y-116959400D02*
X154795400Y-116959400D01*
X153811000Y-122936000D02*
X153811000Y-121460700D01*
X152747800Y-116459000D02*
X152747800Y-117903100D01*
X152747800Y-117903100D02*
X152957000Y-118112300D01*
X152957000Y-118112300D02*
X152957000Y-120606700D01*
X152957000Y-120606700D02*
X153811000Y-121460700D01*
X153771600Y-116459000D02*
X152747800Y-116459000D01*
X137879000Y-99060000D02*
X137591700Y-99347300D01*
X137591700Y-99347300D02*
X137591700Y-99710000D01*
X137916900Y-99060000D02*
X137879000Y-99060000D01*
X135636000Y-96329000D02*
X136862400Y-97555400D01*
X136862400Y-97555400D02*
X136862400Y-98043400D01*
X136862400Y-98043400D02*
X137879000Y-99060000D01*
X138242000Y-99710000D02*
X137591700Y-99710000D01*
X138242000Y-99060000D02*
X137916900Y-99060000D01*
X138176000Y-94679000D02*
X139337100Y-94679000D01*
X139337100Y-94679000D02*
X140162100Y-95504000D01*
X140162100Y-95504000D02*
X141129200Y-95504000D01*
X141129200Y-95504000D02*
X141517300Y-95892100D01*
X141517300Y-95892100D02*
X141517300Y-96773200D01*
X141517300Y-96773200D02*
X140867200Y-97423300D01*
X140867200Y-97423300D02*
X140134900Y-97423300D01*
X140134900Y-97423300D02*
X139491700Y-98066500D01*
X139491700Y-98066500D02*
X139491700Y-99060000D01*
X140142000Y-99060000D02*
X139491700Y-99060000D01*
X151384000Y-115507000D02*
X151432800Y-115458200D01*
X151432800Y-115458200D02*
X153771600Y-115458200D01*
X161036000Y-117157000D02*
X159337200Y-115458200D01*
X159337200Y-115458200D02*
X158140400Y-115458200D01*
M02*
