G04 #@! TF.GenerationSoftware,KiCad,Pcbnew,(5.1.10)-1*
G04 #@! TF.CreationDate,2021-08-06T13:57:32+02:00*
G04 #@! TF.ProjectId,pcb-esp32-power,7063622d-6573-4703-9332-2d706f776572,rev?*
G04 #@! TF.SameCoordinates,Original*
G04 #@! TF.FileFunction,Paste,Top*
G04 #@! TF.FilePolarity,Positive*
%FSLAX46Y46*%
G04 Gerber Fmt 4.6, Leading zero omitted, Abs format (unit mm)*
G04 Created by KiCad (PCBNEW (5.1.10)-1) date 2021-08-06 13:57:32*
%MOMM*%
%LPD*%
G01*
G04 APERTURE LIST*
%ADD10R,2.500000X4.200000*%
%ADD11R,0.600000X1.200000*%
%ADD12R,1.525000X0.700000*%
%ADD13R,2.410000X4.570000*%
%ADD14R,2.150000X5.500000*%
G04 APERTURE END LIST*
D10*
X135626000Y-91572000D03*
X135626000Y-102832000D03*
X158506000Y-91572000D03*
X158506000Y-102832000D03*
D11*
X163002000Y-112238000D03*
X162052000Y-112238000D03*
X161102000Y-112238000D03*
X161102000Y-114838000D03*
X163002000Y-114838000D03*
D12*
X148254000Y-121031000D03*
X148254000Y-119761000D03*
X148254000Y-118491000D03*
X148254000Y-117221000D03*
X148254000Y-115951000D03*
X148254000Y-114681000D03*
X148254000Y-113411000D03*
X148254000Y-112141000D03*
X142830000Y-112141000D03*
X142830000Y-113411000D03*
X142830000Y-114681000D03*
X142830000Y-115951000D03*
X142830000Y-117221000D03*
X142830000Y-118491000D03*
X142830000Y-119761000D03*
X142830000Y-121031000D03*
D13*
X145542000Y-116586000D03*
D14*
X147721000Y-125984000D03*
X143871000Y-125984000D03*
X171089000Y-123952000D03*
X167239000Y-123952000D03*
G36*
G01*
X156393000Y-122444500D02*
X156393000Y-122919500D01*
G75*
G02*
X156155500Y-123157000I-237500J0D01*
G01*
X155555500Y-123157000D01*
G75*
G02*
X155318000Y-122919500I0J237500D01*
G01*
X155318000Y-122444500D01*
G75*
G02*
X155555500Y-122207000I237500J0D01*
G01*
X156155500Y-122207000D01*
G75*
G02*
X156393000Y-122444500I0J-237500D01*
G01*
G37*
G36*
G01*
X158118000Y-122444500D02*
X158118000Y-122919500D01*
G75*
G02*
X157880500Y-123157000I-237500J0D01*
G01*
X157280500Y-123157000D01*
G75*
G02*
X157043000Y-122919500I0J237500D01*
G01*
X157043000Y-122444500D01*
G75*
G02*
X157280500Y-122207000I237500J0D01*
G01*
X157880500Y-122207000D01*
G75*
G02*
X158118000Y-122444500I0J-237500D01*
G01*
G37*
G36*
G01*
X169909500Y-106302000D02*
X169434500Y-106302000D01*
G75*
G02*
X169197000Y-106064500I0J237500D01*
G01*
X169197000Y-105464500D01*
G75*
G02*
X169434500Y-105227000I237500J0D01*
G01*
X169909500Y-105227000D01*
G75*
G02*
X170147000Y-105464500I0J-237500D01*
G01*
X170147000Y-106064500D01*
G75*
G02*
X169909500Y-106302000I-237500J0D01*
G01*
G37*
G36*
G01*
X169909500Y-104577000D02*
X169434500Y-104577000D01*
G75*
G02*
X169197000Y-104339500I0J237500D01*
G01*
X169197000Y-103739500D01*
G75*
G02*
X169434500Y-103502000I237500J0D01*
G01*
X169909500Y-103502000D01*
G75*
G02*
X170147000Y-103739500I0J-237500D01*
G01*
X170147000Y-104339500D01*
G75*
G02*
X169909500Y-104577000I-237500J0D01*
G01*
G37*
G36*
G01*
X156393000Y-120158500D02*
X156393000Y-120633500D01*
G75*
G02*
X156155500Y-120871000I-237500J0D01*
G01*
X155555500Y-120871000D01*
G75*
G02*
X155318000Y-120633500I0J237500D01*
G01*
X155318000Y-120158500D01*
G75*
G02*
X155555500Y-119921000I237500J0D01*
G01*
X156155500Y-119921000D01*
G75*
G02*
X156393000Y-120158500I0J-237500D01*
G01*
G37*
G36*
G01*
X158118000Y-120158500D02*
X158118000Y-120633500D01*
G75*
G02*
X157880500Y-120871000I-237500J0D01*
G01*
X157280500Y-120871000D01*
G75*
G02*
X157043000Y-120633500I0J237500D01*
G01*
X157043000Y-120158500D01*
G75*
G02*
X157280500Y-119921000I237500J0D01*
G01*
X157880500Y-119921000D01*
G75*
G02*
X158118000Y-120158500I0J-237500D01*
G01*
G37*
G36*
G01*
X138300000Y-119363500D02*
X138300000Y-118888500D01*
G75*
G02*
X138537500Y-118651000I237500J0D01*
G01*
X139137500Y-118651000D01*
G75*
G02*
X139375000Y-118888500I0J-237500D01*
G01*
X139375000Y-119363500D01*
G75*
G02*
X139137500Y-119601000I-237500J0D01*
G01*
X138537500Y-119601000D01*
G75*
G02*
X138300000Y-119363500I0J237500D01*
G01*
G37*
G36*
G01*
X140025000Y-119363500D02*
X140025000Y-118888500D01*
G75*
G02*
X140262500Y-118651000I237500J0D01*
G01*
X140862500Y-118651000D01*
G75*
G02*
X141100000Y-118888500I0J-237500D01*
G01*
X141100000Y-119363500D01*
G75*
G02*
X140862500Y-119601000I-237500J0D01*
G01*
X140262500Y-119601000D01*
G75*
G02*
X140025000Y-119363500I0J237500D01*
G01*
G37*
G36*
G01*
X162797500Y-91316000D02*
X162322500Y-91316000D01*
G75*
G02*
X162085000Y-91078500I0J237500D01*
G01*
X162085000Y-90478500D01*
G75*
G02*
X162322500Y-90241000I237500J0D01*
G01*
X162797500Y-90241000D01*
G75*
G02*
X163035000Y-90478500I0J-237500D01*
G01*
X163035000Y-91078500D01*
G75*
G02*
X162797500Y-91316000I-237500J0D01*
G01*
G37*
G36*
G01*
X162797500Y-89591000D02*
X162322500Y-89591000D01*
G75*
G02*
X162085000Y-89353500I0J237500D01*
G01*
X162085000Y-88753500D01*
G75*
G02*
X162322500Y-88516000I237500J0D01*
G01*
X162797500Y-88516000D01*
G75*
G02*
X163035000Y-88753500I0J-237500D01*
G01*
X163035000Y-89353500D01*
G75*
G02*
X162797500Y-89591000I-237500J0D01*
G01*
G37*
G36*
G01*
X161981000Y-123714500D02*
X161981000Y-124189500D01*
G75*
G02*
X161743500Y-124427000I-237500J0D01*
G01*
X161143500Y-124427000D01*
G75*
G02*
X160906000Y-124189500I0J237500D01*
G01*
X160906000Y-123714500D01*
G75*
G02*
X161143500Y-123477000I237500J0D01*
G01*
X161743500Y-123477000D01*
G75*
G02*
X161981000Y-123714500I0J-237500D01*
G01*
G37*
G36*
G01*
X163706000Y-123714500D02*
X163706000Y-124189500D01*
G75*
G02*
X163468500Y-124427000I-237500J0D01*
G01*
X162868500Y-124427000D01*
G75*
G02*
X162631000Y-124189500I0J237500D01*
G01*
X162631000Y-123714500D01*
G75*
G02*
X162868500Y-123477000I237500J0D01*
G01*
X163468500Y-123477000D01*
G75*
G02*
X163706000Y-123714500I0J-237500D01*
G01*
G37*
G36*
G01*
X138300000Y-117077500D02*
X138300000Y-116602500D01*
G75*
G02*
X138537500Y-116365000I237500J0D01*
G01*
X139137500Y-116365000D01*
G75*
G02*
X139375000Y-116602500I0J-237500D01*
G01*
X139375000Y-117077500D01*
G75*
G02*
X139137500Y-117315000I-237500J0D01*
G01*
X138537500Y-117315000D01*
G75*
G02*
X138300000Y-117077500I0J237500D01*
G01*
G37*
G36*
G01*
X140025000Y-117077500D02*
X140025000Y-116602500D01*
G75*
G02*
X140262500Y-116365000I237500J0D01*
G01*
X140862500Y-116365000D01*
G75*
G02*
X141100000Y-116602500I0J-237500D01*
G01*
X141100000Y-117077500D01*
G75*
G02*
X140862500Y-117315000I-237500J0D01*
G01*
X140262500Y-117315000D01*
G75*
G02*
X140025000Y-117077500I0J237500D01*
G01*
G37*
G36*
G01*
X157643001Y-118737000D02*
X155792999Y-118737000D01*
G75*
G02*
X155543000Y-118487001I0J249999D01*
G01*
X155543000Y-116736999D01*
G75*
G02*
X155792999Y-116487000I249999J0D01*
G01*
X157643001Y-116487000D01*
G75*
G02*
X157893000Y-116736999I0J-249999D01*
G01*
X157893000Y-118487001D01*
G75*
G02*
X157643001Y-118737000I-249999J0D01*
G01*
G37*
G36*
G01*
X157643001Y-113637000D02*
X155792999Y-113637000D01*
G75*
G02*
X155543000Y-113387001I0J249999D01*
G01*
X155543000Y-111636999D01*
G75*
G02*
X155792999Y-111387000I249999J0D01*
G01*
X157643001Y-111387000D01*
G75*
G02*
X157893000Y-111636999I0J-249999D01*
G01*
X157893000Y-113387001D01*
G75*
G02*
X157643001Y-113637000I-249999J0D01*
G01*
G37*
G36*
G01*
X165951000Y-100421000D02*
X165951000Y-102271000D01*
G75*
G02*
X165701000Y-102521000I-250000J0D01*
G01*
X164701000Y-102521000D01*
G75*
G02*
X164451000Y-102271000I0J250000D01*
G01*
X164451000Y-100421000D01*
G75*
G02*
X164701000Y-100171000I250000J0D01*
G01*
X165701000Y-100171000D01*
G75*
G02*
X165951000Y-100421000I0J-250000D01*
G01*
G37*
G36*
G01*
X162701000Y-100421000D02*
X162701000Y-102271000D01*
G75*
G02*
X162451000Y-102521000I-250000J0D01*
G01*
X161451000Y-102521000D01*
G75*
G02*
X161201000Y-102271000I0J250000D01*
G01*
X161201000Y-100421000D01*
G75*
G02*
X161451000Y-100171000I250000J0D01*
G01*
X162451000Y-100171000D01*
G75*
G02*
X162701000Y-100421000I0J-250000D01*
G01*
G37*
G36*
G01*
X153071001Y-113637000D02*
X151220999Y-113637000D01*
G75*
G02*
X150971000Y-113387001I0J249999D01*
G01*
X150971000Y-111636999D01*
G75*
G02*
X151220999Y-111387000I249999J0D01*
G01*
X153071001Y-111387000D01*
G75*
G02*
X153321000Y-111636999I0J-249999D01*
G01*
X153321000Y-113387001D01*
G75*
G02*
X153071001Y-113637000I-249999J0D01*
G01*
G37*
G36*
G01*
X153071001Y-118737000D02*
X151220999Y-118737000D01*
G75*
G02*
X150971000Y-118487001I0J249999D01*
G01*
X150971000Y-116736999D01*
G75*
G02*
X151220999Y-116487000I249999J0D01*
G01*
X153071001Y-116487000D01*
G75*
G02*
X153321000Y-116736999I0J-249999D01*
G01*
X153321000Y-118487001D01*
G75*
G02*
X153071001Y-118737000I-249999J0D01*
G01*
G37*
G36*
G01*
X150967000Y-123049000D02*
X152817000Y-123049000D01*
G75*
G02*
X153067000Y-123299000I0J-250000D01*
G01*
X153067000Y-124299000D01*
G75*
G02*
X152817000Y-124549000I-250000J0D01*
G01*
X150967000Y-124549000D01*
G75*
G02*
X150717000Y-124299000I0J250000D01*
G01*
X150717000Y-123299000D01*
G75*
G02*
X150967000Y-123049000I250000J0D01*
G01*
G37*
G36*
G01*
X150967000Y-119799000D02*
X152817000Y-119799000D01*
G75*
G02*
X153067000Y-120049000I0J-250000D01*
G01*
X153067000Y-121049000D01*
G75*
G02*
X152817000Y-121299000I-250000J0D01*
G01*
X150967000Y-121299000D01*
G75*
G02*
X150717000Y-121049000I0J250000D01*
G01*
X150717000Y-120049000D01*
G75*
G02*
X150967000Y-119799000I250000J0D01*
G01*
G37*
G36*
G01*
X165951000Y-103977000D02*
X165951000Y-105827000D01*
G75*
G02*
X165701000Y-106077000I-250000J0D01*
G01*
X164701000Y-106077000D01*
G75*
G02*
X164451000Y-105827000I0J250000D01*
G01*
X164451000Y-103977000D01*
G75*
G02*
X164701000Y-103727000I250000J0D01*
G01*
X165701000Y-103727000D01*
G75*
G02*
X165951000Y-103977000I0J-250000D01*
G01*
G37*
G36*
G01*
X162701000Y-103977000D02*
X162701000Y-105827000D01*
G75*
G02*
X162451000Y-106077000I-250000J0D01*
G01*
X161451000Y-106077000D01*
G75*
G02*
X161201000Y-105827000I0J250000D01*
G01*
X161201000Y-103977000D01*
G75*
G02*
X161451000Y-103727000I250000J0D01*
G01*
X162451000Y-103727000D01*
G75*
G02*
X162701000Y-103977000I0J-250000D01*
G01*
G37*
G36*
G01*
X162715000Y-93309000D02*
X162715000Y-95159000D01*
G75*
G02*
X162465000Y-95409000I-250000J0D01*
G01*
X161465000Y-95409000D01*
G75*
G02*
X161215000Y-95159000I0J250000D01*
G01*
X161215000Y-93309000D01*
G75*
G02*
X161465000Y-93059000I250000J0D01*
G01*
X162465000Y-93059000D01*
G75*
G02*
X162715000Y-93309000I0J-250000D01*
G01*
G37*
G36*
G01*
X165965000Y-93309000D02*
X165965000Y-95159000D01*
G75*
G02*
X165715000Y-95409000I-250000J0D01*
G01*
X164715000Y-95409000D01*
G75*
G02*
X164465000Y-95159000I0J250000D01*
G01*
X164465000Y-93309000D01*
G75*
G02*
X164715000Y-93059000I250000J0D01*
G01*
X165715000Y-93059000D01*
G75*
G02*
X165965000Y-93309000I0J-250000D01*
G01*
G37*
G36*
G01*
X165951000Y-96865000D02*
X165951000Y-98715000D01*
G75*
G02*
X165701000Y-98965000I-250000J0D01*
G01*
X164701000Y-98965000D01*
G75*
G02*
X164451000Y-98715000I0J250000D01*
G01*
X164451000Y-96865000D01*
G75*
G02*
X164701000Y-96615000I250000J0D01*
G01*
X165701000Y-96615000D01*
G75*
G02*
X165951000Y-96865000I0J-250000D01*
G01*
G37*
G36*
G01*
X162701000Y-96865000D02*
X162701000Y-98715000D01*
G75*
G02*
X162451000Y-98965000I-250000J0D01*
G01*
X161451000Y-98965000D01*
G75*
G02*
X161201000Y-98715000I0J250000D01*
G01*
X161201000Y-96865000D01*
G75*
G02*
X161451000Y-96615000I250000J0D01*
G01*
X162451000Y-96615000D01*
G75*
G02*
X162701000Y-96865000I0J-250000D01*
G01*
G37*
G36*
G01*
X167803001Y-113637000D02*
X165952999Y-113637000D01*
G75*
G02*
X165703000Y-113387001I0J249999D01*
G01*
X165703000Y-111636999D01*
G75*
G02*
X165952999Y-111387000I249999J0D01*
G01*
X167803001Y-111387000D01*
G75*
G02*
X168053000Y-111636999I0J-249999D01*
G01*
X168053000Y-113387001D01*
G75*
G02*
X167803001Y-113637000I-249999J0D01*
G01*
G37*
G36*
G01*
X167803001Y-118737000D02*
X165952999Y-118737000D01*
G75*
G02*
X165703000Y-118487001I0J249999D01*
G01*
X165703000Y-116736999D01*
G75*
G02*
X165952999Y-116487000I249999J0D01*
G01*
X167803001Y-116487000D01*
G75*
G02*
X168053000Y-116736999I0J-249999D01*
G01*
X168053000Y-118487001D01*
G75*
G02*
X167803001Y-118737000I-249999J0D01*
G01*
G37*
G36*
G01*
X172375001Y-118737000D02*
X170524999Y-118737000D01*
G75*
G02*
X170275000Y-118487001I0J249999D01*
G01*
X170275000Y-116736999D01*
G75*
G02*
X170524999Y-116487000I249999J0D01*
G01*
X172375001Y-116487000D01*
G75*
G02*
X172625000Y-116736999I0J-249999D01*
G01*
X172625000Y-118487001D01*
G75*
G02*
X172375001Y-118737000I-249999J0D01*
G01*
G37*
G36*
G01*
X172375001Y-113637000D02*
X170524999Y-113637000D01*
G75*
G02*
X170275000Y-113387001I0J249999D01*
G01*
X170275000Y-111636999D01*
G75*
G02*
X170524999Y-111387000I249999J0D01*
G01*
X172375001Y-111387000D01*
G75*
G02*
X172625000Y-111636999I0J-249999D01*
G01*
X172625000Y-113387001D01*
G75*
G02*
X172375001Y-113637000I-249999J0D01*
G01*
G37*
G36*
G01*
X167656500Y-98930000D02*
X168131500Y-98930000D01*
G75*
G02*
X168369000Y-99167500I0J-237500D01*
G01*
X168369000Y-99667500D01*
G75*
G02*
X168131500Y-99905000I-237500J0D01*
G01*
X167656500Y-99905000D01*
G75*
G02*
X167419000Y-99667500I0J237500D01*
G01*
X167419000Y-99167500D01*
G75*
G02*
X167656500Y-98930000I237500J0D01*
G01*
G37*
G36*
G01*
X167656500Y-100755000D02*
X168131500Y-100755000D01*
G75*
G02*
X168369000Y-100992500I0J-237500D01*
G01*
X168369000Y-101492500D01*
G75*
G02*
X168131500Y-101730000I-237500J0D01*
G01*
X167656500Y-101730000D01*
G75*
G02*
X167419000Y-101492500I0J237500D01*
G01*
X167419000Y-100992500D01*
G75*
G02*
X167656500Y-100755000I237500J0D01*
G01*
G37*
G36*
G01*
X168131500Y-106302000D02*
X167656500Y-106302000D01*
G75*
G02*
X167419000Y-106064500I0J237500D01*
G01*
X167419000Y-105564500D01*
G75*
G02*
X167656500Y-105327000I237500J0D01*
G01*
X168131500Y-105327000D01*
G75*
G02*
X168369000Y-105564500I0J-237500D01*
G01*
X168369000Y-106064500D01*
G75*
G02*
X168131500Y-106302000I-237500J0D01*
G01*
G37*
G36*
G01*
X168131500Y-104477000D02*
X167656500Y-104477000D01*
G75*
G02*
X167419000Y-104239500I0J237500D01*
G01*
X167419000Y-103739500D01*
G75*
G02*
X167656500Y-103502000I237500J0D01*
G01*
X168131500Y-103502000D01*
G75*
G02*
X168369000Y-103739500I0J-237500D01*
G01*
X168369000Y-104239500D01*
G75*
G02*
X168131500Y-104477000I-237500J0D01*
G01*
G37*
G36*
G01*
X140125000Y-114791500D02*
X140125000Y-114316500D01*
G75*
G02*
X140362500Y-114079000I237500J0D01*
G01*
X140862500Y-114079000D01*
G75*
G02*
X141100000Y-114316500I0J-237500D01*
G01*
X141100000Y-114791500D01*
G75*
G02*
X140862500Y-115029000I-237500J0D01*
G01*
X140362500Y-115029000D01*
G75*
G02*
X140125000Y-114791500I0J237500D01*
G01*
G37*
G36*
G01*
X138300000Y-114791500D02*
X138300000Y-114316500D01*
G75*
G02*
X138537500Y-114079000I237500J0D01*
G01*
X139037500Y-114079000D01*
G75*
G02*
X139275000Y-114316500I0J-237500D01*
G01*
X139275000Y-114791500D01*
G75*
G02*
X139037500Y-115029000I-237500J0D01*
G01*
X138537500Y-115029000D01*
G75*
G02*
X138300000Y-114791500I0J237500D01*
G01*
G37*
G36*
G01*
X140125000Y-112505500D02*
X140125000Y-112030500D01*
G75*
G02*
X140362500Y-111793000I237500J0D01*
G01*
X140862500Y-111793000D01*
G75*
G02*
X141100000Y-112030500I0J-237500D01*
G01*
X141100000Y-112505500D01*
G75*
G02*
X140862500Y-112743000I-237500J0D01*
G01*
X140362500Y-112743000D01*
G75*
G02*
X140125000Y-112505500I0J237500D01*
G01*
G37*
G36*
G01*
X138300000Y-112505500D02*
X138300000Y-112030500D01*
G75*
G02*
X138537500Y-111793000I237500J0D01*
G01*
X139037500Y-111793000D01*
G75*
G02*
X139275000Y-112030500I0J-237500D01*
G01*
X139275000Y-112505500D01*
G75*
G02*
X139037500Y-112743000I-237500J0D01*
G01*
X138537500Y-112743000D01*
G75*
G02*
X138300000Y-112505500I0J237500D01*
G01*
G37*
G36*
G01*
X165471000Y-91862000D02*
X164221000Y-91862000D01*
G75*
G02*
X163971000Y-91612000I0J250000D01*
G01*
X163971000Y-90812000D01*
G75*
G02*
X164221000Y-90562000I250000J0D01*
G01*
X165471000Y-90562000D01*
G75*
G02*
X165721000Y-90812000I0J-250000D01*
G01*
X165721000Y-91612000D01*
G75*
G02*
X165471000Y-91862000I-250000J0D01*
G01*
G37*
G36*
G01*
X165471000Y-88762000D02*
X164221000Y-88762000D01*
G75*
G02*
X163971000Y-88512000I0J250000D01*
G01*
X163971000Y-87712000D01*
G75*
G02*
X164221000Y-87462000I250000J0D01*
G01*
X165471000Y-87462000D01*
G75*
G02*
X165721000Y-87712000I0J-250000D01*
G01*
X165721000Y-88512000D01*
G75*
G02*
X165471000Y-88762000I-250000J0D01*
G01*
G37*
G36*
G01*
X171687500Y-99905000D02*
X171212500Y-99905000D01*
G75*
G02*
X170975000Y-99667500I0J237500D01*
G01*
X170975000Y-99167500D01*
G75*
G02*
X171212500Y-98930000I237500J0D01*
G01*
X171687500Y-98930000D01*
G75*
G02*
X171925000Y-99167500I0J-237500D01*
G01*
X171925000Y-99667500D01*
G75*
G02*
X171687500Y-99905000I-237500J0D01*
G01*
G37*
G36*
G01*
X171687500Y-101730000D02*
X171212500Y-101730000D01*
G75*
G02*
X170975000Y-101492500I0J237500D01*
G01*
X170975000Y-100992500D01*
G75*
G02*
X171212500Y-100755000I237500J0D01*
G01*
X171687500Y-100755000D01*
G75*
G02*
X171925000Y-100992500I0J-237500D01*
G01*
X171925000Y-101492500D01*
G75*
G02*
X171687500Y-101730000I-237500J0D01*
G01*
G37*
G36*
G01*
X169909500Y-101730000D02*
X169434500Y-101730000D01*
G75*
G02*
X169197000Y-101492500I0J237500D01*
G01*
X169197000Y-100992500D01*
G75*
G02*
X169434500Y-100755000I237500J0D01*
G01*
X169909500Y-100755000D01*
G75*
G02*
X170147000Y-100992500I0J-237500D01*
G01*
X170147000Y-101492500D01*
G75*
G02*
X169909500Y-101730000I-237500J0D01*
G01*
G37*
G36*
G01*
X169909500Y-99905000D02*
X169434500Y-99905000D01*
G75*
G02*
X169197000Y-99667500I0J237500D01*
G01*
X169197000Y-99167500D01*
G75*
G02*
X169434500Y-98930000I237500J0D01*
G01*
X169909500Y-98930000D01*
G75*
G02*
X170147000Y-99167500I0J-237500D01*
G01*
X170147000Y-99667500D01*
G75*
G02*
X169909500Y-99905000I-237500J0D01*
G01*
G37*
G36*
G01*
X160906000Y-119617500D02*
X160906000Y-119142500D01*
G75*
G02*
X161143500Y-118905000I237500J0D01*
G01*
X161643500Y-118905000D01*
G75*
G02*
X161881000Y-119142500I0J-237500D01*
G01*
X161881000Y-119617500D01*
G75*
G02*
X161643500Y-119855000I-237500J0D01*
G01*
X161143500Y-119855000D01*
G75*
G02*
X160906000Y-119617500I0J237500D01*
G01*
G37*
G36*
G01*
X162731000Y-119617500D02*
X162731000Y-119142500D01*
G75*
G02*
X162968500Y-118905000I237500J0D01*
G01*
X163468500Y-118905000D01*
G75*
G02*
X163706000Y-119142500I0J-237500D01*
G01*
X163706000Y-119617500D01*
G75*
G02*
X163468500Y-119855000I-237500J0D01*
G01*
X162968500Y-119855000D01*
G75*
G02*
X162731000Y-119617500I0J237500D01*
G01*
G37*
G36*
G01*
X161881000Y-116856500D02*
X161881000Y-117331500D01*
G75*
G02*
X161643500Y-117569000I-237500J0D01*
G01*
X161143500Y-117569000D01*
G75*
G02*
X160906000Y-117331500I0J237500D01*
G01*
X160906000Y-116856500D01*
G75*
G02*
X161143500Y-116619000I237500J0D01*
G01*
X161643500Y-116619000D01*
G75*
G02*
X161881000Y-116856500I0J-237500D01*
G01*
G37*
G36*
G01*
X163706000Y-116856500D02*
X163706000Y-117331500D01*
G75*
G02*
X163468500Y-117569000I-237500J0D01*
G01*
X162968500Y-117569000D01*
G75*
G02*
X162731000Y-117331500I0J237500D01*
G01*
X162731000Y-116856500D01*
G75*
G02*
X162968500Y-116619000I237500J0D01*
G01*
X163468500Y-116619000D01*
G75*
G02*
X163706000Y-116856500I0J-237500D01*
G01*
G37*
G36*
G01*
X161881000Y-126000500D02*
X161881000Y-126475500D01*
G75*
G02*
X161643500Y-126713000I-237500J0D01*
G01*
X161143500Y-126713000D01*
G75*
G02*
X160906000Y-126475500I0J237500D01*
G01*
X160906000Y-126000500D01*
G75*
G02*
X161143500Y-125763000I237500J0D01*
G01*
X161643500Y-125763000D01*
G75*
G02*
X161881000Y-126000500I0J-237500D01*
G01*
G37*
G36*
G01*
X163706000Y-126000500D02*
X163706000Y-126475500D01*
G75*
G02*
X163468500Y-126713000I-237500J0D01*
G01*
X162968500Y-126713000D01*
G75*
G02*
X162731000Y-126475500I0J237500D01*
G01*
X162731000Y-126000500D01*
G75*
G02*
X162968500Y-125763000I237500J0D01*
G01*
X163468500Y-125763000D01*
G75*
G02*
X163706000Y-126000500I0J-237500D01*
G01*
G37*
G36*
G01*
X160906000Y-121903500D02*
X160906000Y-121428500D01*
G75*
G02*
X161143500Y-121191000I237500J0D01*
G01*
X161643500Y-121191000D01*
G75*
G02*
X161881000Y-121428500I0J-237500D01*
G01*
X161881000Y-121903500D01*
G75*
G02*
X161643500Y-122141000I-237500J0D01*
G01*
X161143500Y-122141000D01*
G75*
G02*
X160906000Y-121903500I0J237500D01*
G01*
G37*
G36*
G01*
X162731000Y-121903500D02*
X162731000Y-121428500D01*
G75*
G02*
X162968500Y-121191000I237500J0D01*
G01*
X163468500Y-121191000D01*
G75*
G02*
X163706000Y-121428500I0J-237500D01*
G01*
X163706000Y-121903500D01*
G75*
G02*
X163468500Y-122141000I-237500J0D01*
G01*
X162968500Y-122141000D01*
G75*
G02*
X162731000Y-121903500I0J237500D01*
G01*
G37*
M02*
