M48
; DRILL file {KiCad (5.1.10)-1} date 08/06/21 13:57:37
; FORMAT={-:-/ absolute / metric / decimal}
; #@! TF.CreationDate,2021-08-06T13:57:37+02:00
; #@! TF.GenerationSoftware,Kicad,Pcbnew,(5.1.10)-1
; #@! TF.FileFunction,Plated,1,2,PTH
FMAT,2
METRIC
T1C0.400
T2C1.000
T3C1.500
%
G90
G05
T1
X135.025Y-105.637
X135.626Y-88.832
X144.78Y-114.808
X144.78Y-115.993
X144.78Y-117.179
X144.78Y-118.364
X145.965Y-121.771
X146.304Y-114.808
X146.304Y-115.993
X146.304Y-117.179
X146.304Y-118.364
X150.355Y-112.29
X154.712Y-122.681
X157.561Y-107.356
X158.524Y-112.391
X158.637Y-88.442
X160.58Y-101.29
X161.442Y-89.568
X161.951Y-96.012
X162.052Y-113.51
X162.228Y-116.224
X163.219Y-120.588
X168.713Y-112.29
X169.672Y-98.325
T2
X134.874Y-132.08
X137.414Y-132.08
X137.766Y-90.282
X137.766Y-92.822
X137.766Y-101.582
X137.766Y-104.122
X139.954Y-109.22
X139.954Y-132.08
X142.494Y-109.22
X142.494Y-132.08
X145.034Y-109.22
X145.034Y-132.08
X147.574Y-109.22
X147.574Y-132.08
X150.114Y-109.22
X150.114Y-132.08
X152.654Y-109.22
X152.654Y-132.08
X155.194Y-109.22
X155.194Y-132.08
X156.366Y-90.282
X156.366Y-92.822
X156.366Y-101.582
X156.366Y-104.122
X157.734Y-109.22
X157.734Y-132.08
X160.274Y-109.22
X160.274Y-132.08
X162.814Y-109.22
X162.814Y-132.08
X165.354Y-109.22
X165.354Y-132.08
X167.894Y-109.22
X167.894Y-132.08
X170.434Y-109.22
X170.434Y-132.08
X170.942Y-92.456
X170.942Y-94.956
X172.974Y-109.22
X172.974Y-132.08
T3
X128.143Y-96.307
X128.143Y-100.307
X128.143Y-104.307
X128.143Y-108.307
X128.143Y-112.307
X128.143Y-116.307
X128.143Y-120.307
X128.143Y-124.307
X131.143Y-96.307
X131.143Y-100.307
X131.143Y-104.307
X131.143Y-108.307
X131.143Y-112.307
X131.143Y-116.307
X131.143Y-120.307
X131.143Y-124.307
T0
M30
