%TF.GenerationSoftware,KiCad,Pcbnew,(5.1.10)-1*%
%TF.CreationDate,2021-07-24T11:50:19+02:00*%
%TF.ProjectId,pcb-esp32-power,7063622d-6573-4703-9332-2d706f776572,rev?*%
%TF.SameCoordinates,Original*%
%TF.FileFunction,Soldermask,Top*%
%TF.FilePolarity,Negative*%
%FSLAX46Y46*%
G04 Gerber Fmt 4.6, Leading zero omitted, Abs format (unit mm)*
G04 Created by KiCad (PCBNEW (5.1.10)-1) date 2021-07-24 11:50:19*
%MOMM*%
%LPD*%
G01*
G04 APERTURE LIST*
%ADD10C,1.700000*%
%ADD11O,1.700000X1.700000*%
%ADD12R,1.700000X1.700000*%
%ADD13R,2.500000X4.200000*%
%ADD14R,0.600000X1.200000*%
%ADD15O,2.000000X1.700000*%
%ADD16R,1.525000X0.700000*%
%ADD17R,2.410000X4.570000*%
%ADD18R,2.150000X5.500000*%
%ADD19R,2.500000X2.500000*%
%ADD20C,2.500000*%
G04 APERTURE END LIST*
D10*
%TO.C,U1*%
X137766000Y-90282000D03*
D11*
X137766000Y-92822000D03*
D10*
X156366000Y-90282000D03*
D12*
X137766000Y-101582000D03*
X156366000Y-101582000D03*
D11*
X156366000Y-92822000D03*
D12*
X137766000Y-104122000D03*
X156366000Y-104122000D03*
D13*
X135626000Y-91572000D03*
X135626000Y-102832000D03*
X158506000Y-91572000D03*
X158506000Y-102832000D03*
%TD*%
%TO.C,C6*%
G36*
G01*
X163531000Y-123702000D02*
X163531000Y-124202000D01*
G75*
G02*
X163306000Y-124427000I-225000J0D01*
G01*
X162856000Y-124427000D01*
G75*
G02*
X162631000Y-124202000I0J225000D01*
G01*
X162631000Y-123702000D01*
G75*
G02*
X162856000Y-123477000I225000J0D01*
G01*
X163306000Y-123477000D01*
G75*
G02*
X163531000Y-123702000I0J-225000D01*
G01*
G37*
G36*
G01*
X161981000Y-123702000D02*
X161981000Y-124202000D01*
G75*
G02*
X161756000Y-124427000I-225000J0D01*
G01*
X161306000Y-124427000D01*
G75*
G02*
X161081000Y-124202000I0J225000D01*
G01*
X161081000Y-123702000D01*
G75*
G02*
X161306000Y-123477000I225000J0D01*
G01*
X161756000Y-123477000D01*
G75*
G02*
X161981000Y-123702000I0J-225000D01*
G01*
G37*
%TD*%
%TO.C,CP8*%
G36*
G01*
X167803000Y-118562000D02*
X165953000Y-118562000D01*
G75*
G02*
X165703000Y-118312000I0J250000D01*
G01*
X165703000Y-116737000D01*
G75*
G02*
X165953000Y-116487000I250000J0D01*
G01*
X167803000Y-116487000D01*
G75*
G02*
X168053000Y-116737000I0J-250000D01*
G01*
X168053000Y-118312000D01*
G75*
G02*
X167803000Y-118562000I-250000J0D01*
G01*
G37*
G36*
G01*
X167803000Y-113637000D02*
X165953000Y-113637000D01*
G75*
G02*
X165703000Y-113387000I0J250000D01*
G01*
X165703000Y-111812000D01*
G75*
G02*
X165953000Y-111562000I250000J0D01*
G01*
X167803000Y-111562000D01*
G75*
G02*
X168053000Y-111812000I0J-250000D01*
G01*
X168053000Y-113387000D01*
G75*
G02*
X167803000Y-113637000I-250000J0D01*
G01*
G37*
%TD*%
%TO.C,CP9*%
G36*
G01*
X172375000Y-113637000D02*
X170525000Y-113637000D01*
G75*
G02*
X170275000Y-113387000I0J250000D01*
G01*
X170275000Y-111812000D01*
G75*
G02*
X170525000Y-111562000I250000J0D01*
G01*
X172375000Y-111562000D01*
G75*
G02*
X172625000Y-111812000I0J-250000D01*
G01*
X172625000Y-113387000D01*
G75*
G02*
X172375000Y-113637000I-250000J0D01*
G01*
G37*
G36*
G01*
X172375000Y-118562000D02*
X170525000Y-118562000D01*
G75*
G02*
X170275000Y-118312000I0J250000D01*
G01*
X170275000Y-116737000D01*
G75*
G02*
X170525000Y-116487000I250000J0D01*
G01*
X172375000Y-116487000D01*
G75*
G02*
X172625000Y-116737000I0J-250000D01*
G01*
X172625000Y-118312000D01*
G75*
G02*
X172375000Y-118562000I-250000J0D01*
G01*
G37*
%TD*%
D14*
%TO.C,IC2*%
X163002000Y-112238000D03*
X162052000Y-112238000D03*
X161102000Y-112238000D03*
X161102000Y-114838000D03*
X163002000Y-114838000D03*
%TD*%
%TO.C,R11*%
G36*
G01*
X161081000Y-119655000D02*
X161081000Y-119105000D01*
G75*
G02*
X161281000Y-118905000I200000J0D01*
G01*
X161681000Y-118905000D01*
G75*
G02*
X161881000Y-119105000I0J-200000D01*
G01*
X161881000Y-119655000D01*
G75*
G02*
X161681000Y-119855000I-200000J0D01*
G01*
X161281000Y-119855000D01*
G75*
G02*
X161081000Y-119655000I0J200000D01*
G01*
G37*
G36*
G01*
X162731000Y-119655000D02*
X162731000Y-119105000D01*
G75*
G02*
X162931000Y-118905000I200000J0D01*
G01*
X163331000Y-118905000D01*
G75*
G02*
X163531000Y-119105000I0J-200000D01*
G01*
X163531000Y-119655000D01*
G75*
G02*
X163331000Y-119855000I-200000J0D01*
G01*
X162931000Y-119855000D01*
G75*
G02*
X162731000Y-119655000I0J200000D01*
G01*
G37*
%TD*%
%TO.C,R12*%
G36*
G01*
X161881000Y-116819000D02*
X161881000Y-117369000D01*
G75*
G02*
X161681000Y-117569000I-200000J0D01*
G01*
X161281000Y-117569000D01*
G75*
G02*
X161081000Y-117369000I0J200000D01*
G01*
X161081000Y-116819000D01*
G75*
G02*
X161281000Y-116619000I200000J0D01*
G01*
X161681000Y-116619000D01*
G75*
G02*
X161881000Y-116819000I0J-200000D01*
G01*
G37*
G36*
G01*
X163531000Y-116819000D02*
X163531000Y-117369000D01*
G75*
G02*
X163331000Y-117569000I-200000J0D01*
G01*
X162931000Y-117569000D01*
G75*
G02*
X162731000Y-117369000I0J200000D01*
G01*
X162731000Y-116819000D01*
G75*
G02*
X162931000Y-116619000I200000J0D01*
G01*
X163331000Y-116619000D01*
G75*
G02*
X163531000Y-116819000I0J-200000D01*
G01*
G37*
%TD*%
%TO.C,R13*%
G36*
G01*
X163531000Y-125963000D02*
X163531000Y-126513000D01*
G75*
G02*
X163331000Y-126713000I-200000J0D01*
G01*
X162931000Y-126713000D01*
G75*
G02*
X162731000Y-126513000I0J200000D01*
G01*
X162731000Y-125963000D01*
G75*
G02*
X162931000Y-125763000I200000J0D01*
G01*
X163331000Y-125763000D01*
G75*
G02*
X163531000Y-125963000I0J-200000D01*
G01*
G37*
G36*
G01*
X161881000Y-125963000D02*
X161881000Y-126513000D01*
G75*
G02*
X161681000Y-126713000I-200000J0D01*
G01*
X161281000Y-126713000D01*
G75*
G02*
X161081000Y-126513000I0J200000D01*
G01*
X161081000Y-125963000D01*
G75*
G02*
X161281000Y-125763000I200000J0D01*
G01*
X161681000Y-125763000D01*
G75*
G02*
X161881000Y-125963000I0J-200000D01*
G01*
G37*
%TD*%
%TO.C,R14*%
G36*
G01*
X162731000Y-121941000D02*
X162731000Y-121391000D01*
G75*
G02*
X162931000Y-121191000I200000J0D01*
G01*
X163331000Y-121191000D01*
G75*
G02*
X163531000Y-121391000I0J-200000D01*
G01*
X163531000Y-121941000D01*
G75*
G02*
X163331000Y-122141000I-200000J0D01*
G01*
X162931000Y-122141000D01*
G75*
G02*
X162731000Y-121941000I0J200000D01*
G01*
G37*
G36*
G01*
X161081000Y-121941000D02*
X161081000Y-121391000D01*
G75*
G02*
X161281000Y-121191000I200000J0D01*
G01*
X161681000Y-121191000D01*
G75*
G02*
X161881000Y-121391000I0J-200000D01*
G01*
X161881000Y-121941000D01*
G75*
G02*
X161681000Y-122141000I-200000J0D01*
G01*
X161281000Y-122141000D01*
G75*
G02*
X161081000Y-121941000I0J200000D01*
G01*
G37*
%TD*%
%TO.C,J2*%
G36*
G01*
X170192000Y-91606000D02*
X171692000Y-91606000D01*
G75*
G02*
X171942000Y-91856000I0J-250000D01*
G01*
X171942000Y-93056000D01*
G75*
G02*
X171692000Y-93306000I-250000J0D01*
G01*
X170192000Y-93306000D01*
G75*
G02*
X169942000Y-93056000I0J250000D01*
G01*
X169942000Y-91856000D01*
G75*
G02*
X170192000Y-91606000I250000J0D01*
G01*
G37*
D15*
X170942000Y-94956000D03*
%TD*%
%TO.C,C1*%
G36*
G01*
X157943000Y-122432000D02*
X157943000Y-122932000D01*
G75*
G02*
X157718000Y-123157000I-225000J0D01*
G01*
X157268000Y-123157000D01*
G75*
G02*
X157043000Y-122932000I0J225000D01*
G01*
X157043000Y-122432000D01*
G75*
G02*
X157268000Y-122207000I225000J0D01*
G01*
X157718000Y-122207000D01*
G75*
G02*
X157943000Y-122432000I0J-225000D01*
G01*
G37*
G36*
G01*
X156393000Y-122432000D02*
X156393000Y-122932000D01*
G75*
G02*
X156168000Y-123157000I-225000J0D01*
G01*
X155718000Y-123157000D01*
G75*
G02*
X155493000Y-122932000I0J225000D01*
G01*
X155493000Y-122432000D01*
G75*
G02*
X155718000Y-122207000I225000J0D01*
G01*
X156168000Y-122207000D01*
G75*
G02*
X156393000Y-122432000I0J-225000D01*
G01*
G37*
%TD*%
%TO.C,C2*%
G36*
G01*
X169922000Y-106127000D02*
X169422000Y-106127000D01*
G75*
G02*
X169197000Y-105902000I0J225000D01*
G01*
X169197000Y-105452000D01*
G75*
G02*
X169422000Y-105227000I225000J0D01*
G01*
X169922000Y-105227000D01*
G75*
G02*
X170147000Y-105452000I0J-225000D01*
G01*
X170147000Y-105902000D01*
G75*
G02*
X169922000Y-106127000I-225000J0D01*
G01*
G37*
G36*
G01*
X169922000Y-104577000D02*
X169422000Y-104577000D01*
G75*
G02*
X169197000Y-104352000I0J225000D01*
G01*
X169197000Y-103902000D01*
G75*
G02*
X169422000Y-103677000I225000J0D01*
G01*
X169922000Y-103677000D01*
G75*
G02*
X170147000Y-103902000I0J-225000D01*
G01*
X170147000Y-104352000D01*
G75*
G02*
X169922000Y-104577000I-225000J0D01*
G01*
G37*
%TD*%
%TO.C,C3*%
G36*
G01*
X156393000Y-120146000D02*
X156393000Y-120646000D01*
G75*
G02*
X156168000Y-120871000I-225000J0D01*
G01*
X155718000Y-120871000D01*
G75*
G02*
X155493000Y-120646000I0J225000D01*
G01*
X155493000Y-120146000D01*
G75*
G02*
X155718000Y-119921000I225000J0D01*
G01*
X156168000Y-119921000D01*
G75*
G02*
X156393000Y-120146000I0J-225000D01*
G01*
G37*
G36*
G01*
X157943000Y-120146000D02*
X157943000Y-120646000D01*
G75*
G02*
X157718000Y-120871000I-225000J0D01*
G01*
X157268000Y-120871000D01*
G75*
G02*
X157043000Y-120646000I0J225000D01*
G01*
X157043000Y-120146000D01*
G75*
G02*
X157268000Y-119921000I225000J0D01*
G01*
X157718000Y-119921000D01*
G75*
G02*
X157943000Y-120146000I0J-225000D01*
G01*
G37*
%TD*%
%TO.C,C4*%
G36*
G01*
X140025000Y-119376000D02*
X140025000Y-118876000D01*
G75*
G02*
X140250000Y-118651000I225000J0D01*
G01*
X140700000Y-118651000D01*
G75*
G02*
X140925000Y-118876000I0J-225000D01*
G01*
X140925000Y-119376000D01*
G75*
G02*
X140700000Y-119601000I-225000J0D01*
G01*
X140250000Y-119601000D01*
G75*
G02*
X140025000Y-119376000I0J225000D01*
G01*
G37*
G36*
G01*
X138475000Y-119376000D02*
X138475000Y-118876000D01*
G75*
G02*
X138700000Y-118651000I225000J0D01*
G01*
X139150000Y-118651000D01*
G75*
G02*
X139375000Y-118876000I0J-225000D01*
G01*
X139375000Y-119376000D01*
G75*
G02*
X139150000Y-119601000I-225000J0D01*
G01*
X138700000Y-119601000D01*
G75*
G02*
X138475000Y-119376000I0J225000D01*
G01*
G37*
%TD*%
%TO.C,C5*%
G36*
G01*
X162810000Y-91141000D02*
X162310000Y-91141000D01*
G75*
G02*
X162085000Y-90916000I0J225000D01*
G01*
X162085000Y-90466000D01*
G75*
G02*
X162310000Y-90241000I225000J0D01*
G01*
X162810000Y-90241000D01*
G75*
G02*
X163035000Y-90466000I0J-225000D01*
G01*
X163035000Y-90916000D01*
G75*
G02*
X162810000Y-91141000I-225000J0D01*
G01*
G37*
G36*
G01*
X162810000Y-89591000D02*
X162310000Y-89591000D01*
G75*
G02*
X162085000Y-89366000I0J225000D01*
G01*
X162085000Y-88916000D01*
G75*
G02*
X162310000Y-88691000I225000J0D01*
G01*
X162810000Y-88691000D01*
G75*
G02*
X163035000Y-88916000I0J-225000D01*
G01*
X163035000Y-89366000D01*
G75*
G02*
X162810000Y-89591000I-225000J0D01*
G01*
G37*
%TD*%
%TO.C,CP1*%
G36*
G01*
X157643000Y-113637000D02*
X155793000Y-113637000D01*
G75*
G02*
X155543000Y-113387000I0J250000D01*
G01*
X155543000Y-111812000D01*
G75*
G02*
X155793000Y-111562000I250000J0D01*
G01*
X157643000Y-111562000D01*
G75*
G02*
X157893000Y-111812000I0J-250000D01*
G01*
X157893000Y-113387000D01*
G75*
G02*
X157643000Y-113637000I-250000J0D01*
G01*
G37*
G36*
G01*
X157643000Y-118562000D02*
X155793000Y-118562000D01*
G75*
G02*
X155543000Y-118312000I0J250000D01*
G01*
X155543000Y-116737000D01*
G75*
G02*
X155793000Y-116487000I250000J0D01*
G01*
X157643000Y-116487000D01*
G75*
G02*
X157893000Y-116737000I0J-250000D01*
G01*
X157893000Y-118312000D01*
G75*
G02*
X157643000Y-118562000I-250000J0D01*
G01*
G37*
%TD*%
%TO.C,CP2*%
G36*
G01*
X165776000Y-100420998D02*
X165776000Y-102271002D01*
G75*
G02*
X165526002Y-102521000I-249998J0D01*
G01*
X164700998Y-102521000D01*
G75*
G02*
X164451000Y-102271002I0J249998D01*
G01*
X164451000Y-100420998D01*
G75*
G02*
X164700998Y-100171000I249998J0D01*
G01*
X165526002Y-100171000D01*
G75*
G02*
X165776000Y-100420998I0J-249998D01*
G01*
G37*
G36*
G01*
X162701000Y-100420998D02*
X162701000Y-102271002D01*
G75*
G02*
X162451002Y-102521000I-249998J0D01*
G01*
X161625998Y-102521000D01*
G75*
G02*
X161376000Y-102271002I0J249998D01*
G01*
X161376000Y-100420998D01*
G75*
G02*
X161625998Y-100171000I249998J0D01*
G01*
X162451002Y-100171000D01*
G75*
G02*
X162701000Y-100420998I0J-249998D01*
G01*
G37*
%TD*%
%TO.C,CP3*%
G36*
G01*
X153071000Y-118562000D02*
X151221000Y-118562000D01*
G75*
G02*
X150971000Y-118312000I0J250000D01*
G01*
X150971000Y-116737000D01*
G75*
G02*
X151221000Y-116487000I250000J0D01*
G01*
X153071000Y-116487000D01*
G75*
G02*
X153321000Y-116737000I0J-250000D01*
G01*
X153321000Y-118312000D01*
G75*
G02*
X153071000Y-118562000I-250000J0D01*
G01*
G37*
G36*
G01*
X153071000Y-113637000D02*
X151221000Y-113637000D01*
G75*
G02*
X150971000Y-113387000I0J250000D01*
G01*
X150971000Y-111812000D01*
G75*
G02*
X151221000Y-111562000I250000J0D01*
G01*
X153071000Y-111562000D01*
G75*
G02*
X153321000Y-111812000I0J-250000D01*
G01*
X153321000Y-113387000D01*
G75*
G02*
X153071000Y-113637000I-250000J0D01*
G01*
G37*
%TD*%
%TO.C,CP4*%
G36*
G01*
X150966998Y-119974000D02*
X152817002Y-119974000D01*
G75*
G02*
X153067000Y-120223998I0J-249998D01*
G01*
X153067000Y-121049002D01*
G75*
G02*
X152817002Y-121299000I-249998J0D01*
G01*
X150966998Y-121299000D01*
G75*
G02*
X150717000Y-121049002I0J249998D01*
G01*
X150717000Y-120223998D01*
G75*
G02*
X150966998Y-119974000I249998J0D01*
G01*
G37*
G36*
G01*
X150966998Y-123049000D02*
X152817002Y-123049000D01*
G75*
G02*
X153067000Y-123298998I0J-249998D01*
G01*
X153067000Y-124124002D01*
G75*
G02*
X152817002Y-124374000I-249998J0D01*
G01*
X150966998Y-124374000D01*
G75*
G02*
X150717000Y-124124002I0J249998D01*
G01*
X150717000Y-123298998D01*
G75*
G02*
X150966998Y-123049000I249998J0D01*
G01*
G37*
%TD*%
%TO.C,CP5*%
G36*
G01*
X162701000Y-103976998D02*
X162701000Y-105827002D01*
G75*
G02*
X162451002Y-106077000I-249998J0D01*
G01*
X161625998Y-106077000D01*
G75*
G02*
X161376000Y-105827002I0J249998D01*
G01*
X161376000Y-103976998D01*
G75*
G02*
X161625998Y-103727000I249998J0D01*
G01*
X162451002Y-103727000D01*
G75*
G02*
X162701000Y-103976998I0J-249998D01*
G01*
G37*
G36*
G01*
X165776000Y-103976998D02*
X165776000Y-105827002D01*
G75*
G02*
X165526002Y-106077000I-249998J0D01*
G01*
X164700998Y-106077000D01*
G75*
G02*
X164451000Y-105827002I0J249998D01*
G01*
X164451000Y-103976998D01*
G75*
G02*
X164700998Y-103727000I249998J0D01*
G01*
X165526002Y-103727000D01*
G75*
G02*
X165776000Y-103976998I0J-249998D01*
G01*
G37*
%TD*%
%TO.C,CP6*%
G36*
G01*
X165790000Y-93308998D02*
X165790000Y-95159002D01*
G75*
G02*
X165540002Y-95409000I-249998J0D01*
G01*
X164714998Y-95409000D01*
G75*
G02*
X164465000Y-95159002I0J249998D01*
G01*
X164465000Y-93308998D01*
G75*
G02*
X164714998Y-93059000I249998J0D01*
G01*
X165540002Y-93059000D01*
G75*
G02*
X165790000Y-93308998I0J-249998D01*
G01*
G37*
G36*
G01*
X162715000Y-93308998D02*
X162715000Y-95159002D01*
G75*
G02*
X162465002Y-95409000I-249998J0D01*
G01*
X161639998Y-95409000D01*
G75*
G02*
X161390000Y-95159002I0J249998D01*
G01*
X161390000Y-93308998D01*
G75*
G02*
X161639998Y-93059000I249998J0D01*
G01*
X162465002Y-93059000D01*
G75*
G02*
X162715000Y-93308998I0J-249998D01*
G01*
G37*
%TD*%
%TO.C,CP7*%
G36*
G01*
X162701000Y-96864998D02*
X162701000Y-98715002D01*
G75*
G02*
X162451002Y-98965000I-249998J0D01*
G01*
X161625998Y-98965000D01*
G75*
G02*
X161376000Y-98715002I0J249998D01*
G01*
X161376000Y-96864998D01*
G75*
G02*
X161625998Y-96615000I249998J0D01*
G01*
X162451002Y-96615000D01*
G75*
G02*
X162701000Y-96864998I0J-249998D01*
G01*
G37*
G36*
G01*
X165776000Y-96864998D02*
X165776000Y-98715002D01*
G75*
G02*
X165526002Y-98965000I-249998J0D01*
G01*
X164700998Y-98965000D01*
G75*
G02*
X164451000Y-98715002I0J249998D01*
G01*
X164451000Y-96864998D01*
G75*
G02*
X164700998Y-96615000I249998J0D01*
G01*
X165526002Y-96615000D01*
G75*
G02*
X165776000Y-96864998I0J-249998D01*
G01*
G37*
%TD*%
%TO.C,R1*%
G36*
G01*
X167619000Y-99105000D02*
X168169000Y-99105000D01*
G75*
G02*
X168369000Y-99305000I0J-200000D01*
G01*
X168369000Y-99705000D01*
G75*
G02*
X168169000Y-99905000I-200000J0D01*
G01*
X167619000Y-99905000D01*
G75*
G02*
X167419000Y-99705000I0J200000D01*
G01*
X167419000Y-99305000D01*
G75*
G02*
X167619000Y-99105000I200000J0D01*
G01*
G37*
G36*
G01*
X167619000Y-100755000D02*
X168169000Y-100755000D01*
G75*
G02*
X168369000Y-100955000I0J-200000D01*
G01*
X168369000Y-101355000D01*
G75*
G02*
X168169000Y-101555000I-200000J0D01*
G01*
X167619000Y-101555000D01*
G75*
G02*
X167419000Y-101355000I0J200000D01*
G01*
X167419000Y-100955000D01*
G75*
G02*
X167619000Y-100755000I200000J0D01*
G01*
G37*
%TD*%
%TO.C,R2*%
G36*
G01*
X168169000Y-104477000D02*
X167619000Y-104477000D01*
G75*
G02*
X167419000Y-104277000I0J200000D01*
G01*
X167419000Y-103877000D01*
G75*
G02*
X167619000Y-103677000I200000J0D01*
G01*
X168169000Y-103677000D01*
G75*
G02*
X168369000Y-103877000I0J-200000D01*
G01*
X168369000Y-104277000D01*
G75*
G02*
X168169000Y-104477000I-200000J0D01*
G01*
G37*
G36*
G01*
X168169000Y-106127000D02*
X167619000Y-106127000D01*
G75*
G02*
X167419000Y-105927000I0J200000D01*
G01*
X167419000Y-105527000D01*
G75*
G02*
X167619000Y-105327000I200000J0D01*
G01*
X168169000Y-105327000D01*
G75*
G02*
X168369000Y-105527000I0J-200000D01*
G01*
X168369000Y-105927000D01*
G75*
G02*
X168169000Y-106127000I-200000J0D01*
G01*
G37*
%TD*%
%TO.C,R3*%
G36*
G01*
X138475000Y-114829000D02*
X138475000Y-114279000D01*
G75*
G02*
X138675000Y-114079000I200000J0D01*
G01*
X139075000Y-114079000D01*
G75*
G02*
X139275000Y-114279000I0J-200000D01*
G01*
X139275000Y-114829000D01*
G75*
G02*
X139075000Y-115029000I-200000J0D01*
G01*
X138675000Y-115029000D01*
G75*
G02*
X138475000Y-114829000I0J200000D01*
G01*
G37*
G36*
G01*
X140125000Y-114829000D02*
X140125000Y-114279000D01*
G75*
G02*
X140325000Y-114079000I200000J0D01*
G01*
X140725000Y-114079000D01*
G75*
G02*
X140925000Y-114279000I0J-200000D01*
G01*
X140925000Y-114829000D01*
G75*
G02*
X140725000Y-115029000I-200000J0D01*
G01*
X140325000Y-115029000D01*
G75*
G02*
X140125000Y-114829000I0J200000D01*
G01*
G37*
%TD*%
%TO.C,R4*%
G36*
G01*
X140125000Y-112543000D02*
X140125000Y-111993000D01*
G75*
G02*
X140325000Y-111793000I200000J0D01*
G01*
X140725000Y-111793000D01*
G75*
G02*
X140925000Y-111993000I0J-200000D01*
G01*
X140925000Y-112543000D01*
G75*
G02*
X140725000Y-112743000I-200000J0D01*
G01*
X140325000Y-112743000D01*
G75*
G02*
X140125000Y-112543000I0J200000D01*
G01*
G37*
G36*
G01*
X138475000Y-112543000D02*
X138475000Y-111993000D01*
G75*
G02*
X138675000Y-111793000I200000J0D01*
G01*
X139075000Y-111793000D01*
G75*
G02*
X139275000Y-111993000I0J-200000D01*
G01*
X139275000Y-112543000D01*
G75*
G02*
X139075000Y-112743000I-200000J0D01*
G01*
X138675000Y-112743000D01*
G75*
G02*
X138475000Y-112543000I0J200000D01*
G01*
G37*
%TD*%
%TO.C,R5*%
G36*
G01*
X165471002Y-91687000D02*
X164220998Y-91687000D01*
G75*
G02*
X163971000Y-91437002I0J249998D01*
G01*
X163971000Y-90811998D01*
G75*
G02*
X164220998Y-90562000I249998J0D01*
G01*
X165471002Y-90562000D01*
G75*
G02*
X165721000Y-90811998I0J-249998D01*
G01*
X165721000Y-91437002D01*
G75*
G02*
X165471002Y-91687000I-249998J0D01*
G01*
G37*
G36*
G01*
X165471002Y-88762000D02*
X164220998Y-88762000D01*
G75*
G02*
X163971000Y-88512002I0J249998D01*
G01*
X163971000Y-87886998D01*
G75*
G02*
X164220998Y-87637000I249998J0D01*
G01*
X165471002Y-87637000D01*
G75*
G02*
X165721000Y-87886998I0J-249998D01*
G01*
X165721000Y-88512002D01*
G75*
G02*
X165471002Y-88762000I-249998J0D01*
G01*
G37*
%TD*%
%TO.C,C7*%
G36*
G01*
X138475000Y-117090000D02*
X138475000Y-116590000D01*
G75*
G02*
X138700000Y-116365000I225000J0D01*
G01*
X139150000Y-116365000D01*
G75*
G02*
X139375000Y-116590000I0J-225000D01*
G01*
X139375000Y-117090000D01*
G75*
G02*
X139150000Y-117315000I-225000J0D01*
G01*
X138700000Y-117315000D01*
G75*
G02*
X138475000Y-117090000I0J225000D01*
G01*
G37*
G36*
G01*
X140025000Y-117090000D02*
X140025000Y-116590000D01*
G75*
G02*
X140250000Y-116365000I225000J0D01*
G01*
X140700000Y-116365000D01*
G75*
G02*
X140925000Y-116590000I0J-225000D01*
G01*
X140925000Y-117090000D01*
G75*
G02*
X140700000Y-117315000I-225000J0D01*
G01*
X140250000Y-117315000D01*
G75*
G02*
X140025000Y-117090000I0J225000D01*
G01*
G37*
%TD*%
D16*
%TO.C,IC1*%
X148254000Y-121031000D03*
X148254000Y-119761000D03*
X148254000Y-118491000D03*
X148254000Y-117221000D03*
X148254000Y-115951000D03*
X148254000Y-114681000D03*
X148254000Y-113411000D03*
X148254000Y-112141000D03*
X142830000Y-112141000D03*
X142830000Y-113411000D03*
X142830000Y-114681000D03*
X142830000Y-115951000D03*
X142830000Y-117221000D03*
X142830000Y-118491000D03*
X142830000Y-119761000D03*
X142830000Y-121031000D03*
D17*
X145542000Y-116586000D03*
%TD*%
D18*
%TO.C,L1*%
X147721000Y-125984000D03*
X143871000Y-125984000D03*
%TD*%
%TO.C,L2*%
X171089000Y-123952000D03*
X167239000Y-123952000D03*
%TD*%
%TO.C,R6*%
G36*
G01*
X171725000Y-99905000D02*
X171175000Y-99905000D01*
G75*
G02*
X170975000Y-99705000I0J200000D01*
G01*
X170975000Y-99305000D01*
G75*
G02*
X171175000Y-99105000I200000J0D01*
G01*
X171725000Y-99105000D01*
G75*
G02*
X171925000Y-99305000I0J-200000D01*
G01*
X171925000Y-99705000D01*
G75*
G02*
X171725000Y-99905000I-200000J0D01*
G01*
G37*
G36*
G01*
X171725000Y-101555000D02*
X171175000Y-101555000D01*
G75*
G02*
X170975000Y-101355000I0J200000D01*
G01*
X170975000Y-100955000D01*
G75*
G02*
X171175000Y-100755000I200000J0D01*
G01*
X171725000Y-100755000D01*
G75*
G02*
X171925000Y-100955000I0J-200000D01*
G01*
X171925000Y-101355000D01*
G75*
G02*
X171725000Y-101555000I-200000J0D01*
G01*
G37*
%TD*%
%TO.C,R7*%
G36*
G01*
X169947000Y-101555000D02*
X169397000Y-101555000D01*
G75*
G02*
X169197000Y-101355000I0J200000D01*
G01*
X169197000Y-100955000D01*
G75*
G02*
X169397000Y-100755000I200000J0D01*
G01*
X169947000Y-100755000D01*
G75*
G02*
X170147000Y-100955000I0J-200000D01*
G01*
X170147000Y-101355000D01*
G75*
G02*
X169947000Y-101555000I-200000J0D01*
G01*
G37*
G36*
G01*
X169947000Y-99905000D02*
X169397000Y-99905000D01*
G75*
G02*
X169197000Y-99705000I0J200000D01*
G01*
X169197000Y-99305000D01*
G75*
G02*
X169397000Y-99105000I200000J0D01*
G01*
X169947000Y-99105000D01*
G75*
G02*
X170147000Y-99305000I0J-200000D01*
G01*
X170147000Y-99705000D01*
G75*
G02*
X169947000Y-99905000I-200000J0D01*
G01*
G37*
%TD*%
D12*
%TO.C,J3*%
X172974000Y-109220000D03*
D11*
X170434000Y-109220000D03*
X167894000Y-109220000D03*
X165354000Y-109220000D03*
X162814000Y-109220000D03*
X160274000Y-109220000D03*
X157734000Y-109220000D03*
X155194000Y-109220000D03*
X152654000Y-109220000D03*
X150114000Y-109220000D03*
X147574000Y-109220000D03*
X145034000Y-109220000D03*
X142494000Y-109220000D03*
X139954000Y-109220000D03*
X134874000Y-132080000D03*
X137414000Y-132080000D03*
X139954000Y-132080000D03*
X142494000Y-132080000D03*
X145034000Y-132080000D03*
X147574000Y-132080000D03*
X150114000Y-132080000D03*
X152654000Y-132080000D03*
X155194000Y-132080000D03*
X157734000Y-132080000D03*
X160274000Y-132080000D03*
X162814000Y-132080000D03*
X165354000Y-132080000D03*
X167894000Y-132080000D03*
X170434000Y-132080000D03*
X172974000Y-132080000D03*
%TD*%
D19*
%TO.C,J1*%
X128143000Y-96307000D03*
D20*
X128143000Y-100307000D03*
X128143000Y-104307000D03*
X128143000Y-108307000D03*
X128143000Y-112307000D03*
X128143000Y-116307000D03*
X128143000Y-120307000D03*
X128143000Y-124307000D03*
X131143000Y-96307000D03*
X131143000Y-100307000D03*
X131143000Y-104307000D03*
X131143000Y-108307000D03*
X131143000Y-112307000D03*
X131143000Y-116307000D03*
X131143000Y-120307000D03*
X131143000Y-124307000D03*
%TD*%
M02*
